<svg xmlns="http://www.w3.org/2000/svg" viewBox="0 0 2255 3185" height="3185" xmlns:xlink="http://www.w3.org/1999/xlink" xmlns:ev="http://www.w3.org/2001/xml-events" width="2255"><style type="text/css"><![CDATA[
.st1 {fill:#000000;font-family:微软雅黑;font-size:10pt}
.st2 {fill:#1f6391;font-family:微软雅黑;font-size:10pt}
.st5 {fill:#c00000;font-family:微软雅黑;font-size:10pt}
.st4 {fill:#c00000;font-family:微软雅黑;font-size:14pt}
.st3 {fill:#ffffff;font-family:微软雅黑;font-size:10pt}
]]></style><defs/><g transform="translate(5,5)" id="page1"><rect stroke="#808080" fill="#ffffff" height="3175" y="0" width="2245" x="0"/><g transform="translate(627.01,84.07)"><path stroke="#ee7c31" transform="translate(-0.03,17.66)" fill="none" d="M0,0L21,0L0,0z" id="shape1"/><path stroke="#ee7c31" transform="translate(0,9.06)" fill="none" d="M10.5,0L10.5,22.9L10.5,0zM0,40L10.5,23.2L0,40z" id="shape2"/><path stroke="#ee7c31" transform="translate(10.5,31.98)" fill="none" d="M0,0L10.5,17L0,0z" id="shape3"/><path stroke="#ee7c31" transform="translate(5.42,-0.04)" fill="#ee7c31" d="M0,5.5C0,2.5,2.3,0,5.1,0C7.9,0,10.2,2.5,10.2,5.5C10.2,8.5,7.9,11,5.1,11C2.3,11,0,8.5,0,5.5z" id="shape4"/></g><g transform="translate(616.51,141.12)" id="shape5"><text class="st1"><tspan y="13.9" x="5.6">用户</tspan></text></g><g transform="matrix(1,0.01,-0.01,1,645.1,210.1)" id="shape6"><path stroke="#000000" fill="none" d="M0,-0L199.9,-0"/><path stroke-linejoin="round" stroke="#000000" stroke-linecap="round" fill="none" d="M187.9,-6L199.9,-0L187.9,6" stroke-width="1"/></g><g transform="translate(657.51,186.07)" id="shape7"><text class="st2"><tspan y="13.9" x="38.4">1：打开界面</tspan></text></g><g transform="matrix(0,1,-1,0,860.7,238.2)" id="shape8"><path stroke="#000000" fill="none" d="M0,0L0,-163L25,-163L25,-10.4"/><path stroke="#000000" stroke-linecap="round" fill="#000000" d="M25,0L27.6,-10.4L22.4,-10.4L25,0" stroke-width="1"/></g><g transform="translate(853.16,207.06)" id="shape9"><text class="st2"><tspan y="19.4" x="31.4">2：创建所有窗口</tspan></text></g><g transform="translate(1043.51,126)"><g id="shape10"><path stroke="#3498db" fill="#3498db" d="M0,0L155,0L155,34L0,34L0,0z"/><text class="st3"><tspan y="21.3" x="10">:PlaylistCardInterface</tspan></text></g><path stroke="#3498db" fill="none" d="M77.5,34L77.5,403L77.5,34z" id="shape11"/></g><g transform="translate(845.6,359.86)" id="shape12"><text class="st2"><tspan y="15.4" x="19.7">3：扫描Playlists文件夹下的播放列表文件</tspan></text></g><g transform="translate(786.51,126)"><g id="shape13"><path stroke="#3498db" fill="#3498db" d="M0,0L132,0L132,32.5L0,32.5L0,0z"/><text class="st3"><tspan y="20.5" x="21.2">:MainWindow</tspan></text></g><path stroke="#3498db" fill="none" d="M66,32.5L66,89.5L66,32.5z" id="shape14"/></g><path stroke="#000000" transform="matrix(0,1,-1,0,645.1,210.1)" fill="#ee7c31" d="M0,0L450.9,0L450.9,15.1L0,15.1L0,0z" id="shape15"/><path stroke="#000000" transform="matrix(0,1,-1,0,860.7,213.2)" fill="#3498db" d="M0,0L308.8,0L308.8,15.1L0,15.1L0,0z" id="shape16"/><path stroke="#000000" transform="matrix(0,1,-1,0,868.3,263.2)" fill="#3498db" d="M0,0L50,0L50,15.1L0,15.1L0,0z" id="shape17"/><path stroke="#000000" transform="matrix(0,1,-1,0,868.3,413.2)" fill="#3498db" d="M0,0L50,0L50,15.1L0,15.1L0,0z" id="shape18"/><g transform="matrix(0,1,-1,0,860.7,388.2)" id="shape19"><path stroke="#000000" fill="none" d="M0,0L0,-250.8L25,-250.8L25,-10.4"/><path stroke="#000000" stroke-linecap="round" fill="#000000" d="M25,0L27.6,-10.4L22.4,-10.4L25,0" stroke-width="1"/></g><g transform="translate(860.72,513.21)" id="shape20"><path stroke="#000000" fill="none" d="M0,-0L250.8,-0"/><path stroke-linejoin="round" stroke="#000000" stroke-linecap="round" fill="none" d="M238.8,-6L250.8,-0L238.8,6" stroke-width="1"/></g><path stroke="#000000" transform="matrix(0,1,-1,0,1128.6,513.3)" fill="#3498db" d="M0,0L125.2,0L125.2,15.1L0,15.1L0,0z" id="shape21"/><path stroke="#000000" transform="matrix(0,1,-1,0,1136.1,563.3)" fill="#3498db" d="M0,0L50,0L50,15.1L0,15.1L0,0z" id="shape22"/><g transform="matrix(0,1,-1,0,1128.6,538.3)" id="shape23"><path stroke="#000000" fill="none" d="M0,0L0,-156.9L25,-156.9L25,-10.4"/><path stroke="#000000" stroke-linecap="round" fill="#000000" d="M25,0L27.6,-10.4L22.4,-10.4L25,0" stroke-width="1"/></g><g transform="translate(1061.25,500.5)" id="shape24"><text class="st2"><tspan y="25.9" x="73.6">5：guideLabel.show()</tspan></text></g><g transform="translate(860.72,480)" id="shape25"><text class="st2"><tspan y="19.4" x="38.4">4：初始化播放列表卡界面</tspan></text></g><g transform="matrix(-1,0,0,-1,1113.5,638.3)" id="shape26"><path stroke="#000000" fill="none" d="M0,-0L468,-0" stroke-dasharray="6,4"/><path stroke-linejoin="round" stroke="#000000" stroke-linecap="round" fill="none" d="M456,-6L468,-0L456,6" stroke-width="1"/></g><g transform="translate(607.28,598.5)" id="shape27"><text class="st2"><tspan y="25.4" x="53.6">6：显示播放列表为空标签</tspan></text></g><path stroke="#ee7c31" transform="matrix(0,1,-1,0,637,164.1)" fill="none" d="M0,0L46,0" id="shape28"/><g transform="translate(1323.51,125.23)"><g id="shape29"><path stroke="#3498db" fill="#3498db" d="M0,0L162,0L162,34L0,34L0,0z"/><text class="st3"><tspan y="21.3" x="18">:CreatePlaylistPanel</tspan></text></g><path stroke="#3498db" fill="none" d="M81,34L81,1563.8L81,34z" id="shape30"/></g><path stroke="#3498db" transform="matrix(0,1,-1,0,852.5,522)" fill="none" d="M0,0L967,0" id="shape31"/><g transform="translate(1610.51,126.07)"><g id="shape32"><path stroke="#3498db" fill="#3498db" d="M0,0L132,0L132,34L0,34L0,0z"/><text class="st3"><tspan y="21.3" x="6">:MyMusicInterface</tspan></text></g><path stroke="#3498db" fill="none" d="M66,34L66,788.9L66,34z" id="shape33"/></g><path stroke="#000000" transform="matrix(0,1,-1,0,646.1,917)" fill="#ee7c31" d="M0,0L1729,0L1729,15.1L0,15.1L0,0z" id="shape34"/><path stroke="#ee7c31" transform="matrix(0,1,-1,0,638.1,661)" fill="none" d="M0,0L258.9,0" id="shape35"/><path stroke="#000000" transform="matrix(0,1,-1,0,1685.6,916.8)" fill="#3498db" d="M0,0L125.2,0L125.2,15.1L0,15.1L0,0z" id="shape36"/><path stroke="#000000" transform="matrix(0,1,-1,0,1693.2,966.8)" fill="#3498db" d="M0,0L50,0L50,15.1L0,15.1L0,0z" id="shape37"/><g transform="matrix(0,1,-1,0,1685.6,941.8)" id="shape38"><path stroke="#000000" fill="none" d="M0,0L0,-258.9L25,-258.9L25,-10.4"/><path stroke="#000000" stroke-linecap="round" fill="#000000" d="M25,0L27.6,-10.4L22.4,-10.4L25,0" stroke-width="1"/></g><g transform="translate(1678.05,916.83)" id="shape39"><text class="st2"><tspan y="19.4" x="57.6">21：进入批量选择模式</tspan></text></g><g transform="matrix(1,-0,0,1,646.1,917)" id="shape40"><path stroke="#000000" fill="none" d="M0,-0L1024.4,-0"/><path stroke-linejoin="round" stroke="#000000" stroke-linecap="round" fill="none" d="M1012.4,-6L1024.4,-0L1012.4,6" stroke-width="1"/></g><g transform="translate(644.72,887.88)" id="shape41"><text class="st2"><tspan y="21.4" x="25.6">20：点击歌曲卡上的复选框</tspan></text></g><g transform="matrix(-1,0,-0,-1,1670.5,1041.8)" id="shape42"><path stroke="#000000" fill="none" d="M0,-0L1024.4,-0" stroke-dasharray="6,4"/><path stroke-linejoin="round" stroke="#000000" stroke-linecap="round" fill="none" d="M1012.4,-6L1024.4,-0L1012.4,6" stroke-width="1"/></g><g transform="translate(652.72,1013)" id="shape43"><text class="st2"><tspan y="18.9" x="14.4">22：显示所有歌曲卡的复选框</tspan></text></g><path stroke="#000000" transform="matrix(0,1,-1,0,1685.6,1140.9)" fill="#3498db" d="M0,0L127,0L127,15.1L0,15.1L0,0z" id="shape44"/><g transform="matrix(1,-0,0,1,646.1,1142)" id="shape45"><path stroke="#000000" fill="none" d="M0,-0L1024.4,-0"/><path stroke-linejoin="round" stroke="#000000" stroke-linecap="round" fill="none" d="M1012.4,-6L1024.4,-0L1012.4,6" stroke-width="1"/></g><g transform="translate(644.72,1107.88)" id="shape46"><text class="st2"><tspan y="11.7" x="6.8">23：选中部分歌曲卡并点击</tspan><tspan y="30.1" x="55.6">添加到按钮</tspan></text></g><g transform="matrix(-1,0,-0,-1,1670.5,1265.9)" id="shape47"><path stroke="#000000" fill="none" d="M0,-0L1024.4,-0" stroke-dasharray="6,4"/><path stroke-linejoin="round" stroke="#000000" stroke-linecap="round" fill="none" d="M1012.4,-6L1024.4,-0L1012.4,6" stroke-width="1"/></g><path stroke="#000000" transform="matrix(0,1,-1,0,1693.2,1190.9)" fill="#3498db" d="M0,0L50,0L50,15.1L0,15.1L0,0z" id="shape48"/><g transform="matrix(0,1,-1,0,1685.6,1165.9)" id="shape49"><path stroke="#000000" fill="none" d="M0,0L0,-258.9L25,-258.9L25,-10.4"/><path stroke="#000000" stroke-linecap="round" fill="#000000" d="M25,0L27.6,-10.4L22.4,-10.4L25,0" stroke-width="1"/></g><g transform="translate(1678.05,1140.88)" id="shape50"><text class="st2"><tspan y="19.4" x="43.2">24：__showAddToMenu()</tspan></text></g><g transform="translate(636.22,1234.88)" id="shape51"><text class="st2"><tspan y="20.9" x="44.8">25：显示“添加到”菜单</tspan></text></g><path stroke="#000000" transform="matrix(0,1,-1,0,1686.1,1361.9)" fill="#3498db" d="M0,0L127,0L127,15.1L0,15.1L0,0z" id="shape52"/><g transform="matrix(1,-0,0,1,646.1,1367)" id="shape53"><path stroke="#000000" fill="none" d="M0,-0L1024.9,-0"/><path stroke-linejoin="round" stroke="#000000" stroke-linecap="round" fill="none" d="M1012.9,-6L1024.9,-0L1012.9,6" stroke-width="1"/></g><g transform="translate(644.72,1324.88)" id="shape54"><text class="st2"><tspan y="20.9" x="6.8">26：选中“新建播放列表”</tspan></text></g><path stroke="#000000" transform="matrix(0,1,-1,0,860.7,1485.9)" fill="#3498db" d="M0,0L205.3,0L205.3,15.1L0,15.1L0,0z" id="shape55"/><path stroke="#000000" transform="matrix(0,1,-1,0,868.3,1585.9)" fill="#3498db" d="M0,0L50,0L50,15.1L0,15.1L0,0z" id="shape56"/><g transform="matrix(0,1,-1,0,860.7,1560.9)" id="shape57"><path stroke="#000000" fill="none" d="M0,0L0,-204.8L25,-204.8L25,-10.4"/><path stroke="#000000" stroke-linecap="round" fill="#000000" d="M25,0L27.6,-10.4L22.4,-10.4L25,0" stroke-width="1"/></g><g transform="translate(860.72,1527.88)" id="shape58"><text class="st2"><tspan y="23.4" x="5">28：showCreatePlaylistPanel()</tspan></text></g><g transform="translate(845.6,1657.88)" id="shape59"><text class="st2"><tspan y="18.4" x="29.6">29：创建“创建播放列表”对话框</tspan></text></g><path stroke="#000000" transform="matrix(0,1,-1,0,1411.6,1685.9)" fill="#3498db" d="M0,0L110.3,0L110.3,15.1L0,15.1L0,0z" id="shape60"/><path stroke="#000000" transform="matrix(0,1,-1,0,1411.6,1867.2)" fill="#3498db" d="M0,0L353,0L353,15.1L0,15.1L0,0z" id="shape61"/><path stroke="#c00000" transform="translate(666.51,1927.06)" fill="none" d="M0,0L700,0L700,213L0,213L0,0zM0,0L175,0L140,20L0,20L0,0" id="shape62"/><g transform="translate(676.51,1924.18)" id="shape63"><text class="st4"><tspan y="20.4" x="28">Alt</tspan></text></g><g transform="translate(658.56,1949.68)" id="shape64"><text class="st5"><tspan y="19.9" x="28">[播放列表已存在=True]</tspan></text></g><path stroke="#c00000" transform="matrix(-1,0,0,-1,1365.5,2034.2)" fill="none" d="M0,-0L697.9,-0" id="shape65" stroke-dasharray="6,4"/><g transform="translate(658.56,2075.68)" id="shape66"><text class="st5"><tspan y="19.9" x="26.4">[播放列表已存在=False]</tspan></text></g><path stroke="#000000" transform="matrix(0,1,-1,0,860.7,2216)" fill="#3498db" d="M0,0L358.9,0L358.9,15.1L0,15.1L0,0z" id="shape67"/><path stroke="#000000" transform="matrix(0,1,-1,0,868.3,2316)" fill="#3498db" d="M0,0L50,0L50,15.1L0,15.1L0,0z" id="shape68"/><g transform="matrix(0,1,-1,0,860.7,2291)" id="shape69"><path stroke="#000000" fill="none" d="M0,0L0,-186.8L25,-186.8L25,-10.4"/><path stroke="#000000" stroke-linecap="round" fill="#000000" d="M25,0L27.6,-10.4L22.4,-10.4L25,0" stroke-width="1"/></g><g transform="matrix(-1,-0,0,-1,1396.5,2217.2)" id="shape70"><path stroke="#000000" fill="none" d="M0,-0L535.8,-0" stroke-dasharray="6,4"/><path stroke-linejoin="round" stroke="#000000" stroke-linecap="round" fill="none" d="M523.8,-6L535.8,-0L523.8,6" stroke-width="1"/></g><g transform="translate(862.51,2185.18)" id="shape71"><text class="st2"><tspan y="21.4" x="21.6">34：createPlaylistSig(playlist)</tspan></text></g><g transform="translate(836.01,2260.18)" id="shape72"><text class="st2"><tspan y="21.4" x="28">35：更新自定义播放列表列表</tspan></text></g><path stroke="#3498db" transform="matrix(0,1,-1,0,852.5,1689.2)" fill="none" d="M0,0L533,0" id="shape73"/><path stroke="#000000" transform="matrix(0,1,-1,0,1128.6,2390)" fill="#3498db" d="M0,0L125.2,0L125.2,15.1L0,15.1L0,0z" id="shape74"/><path stroke="#000000" transform="matrix(0,1,-1,0,1136.1,2440)" fill="#3498db" d="M0,0L50,0L50,15.1L0,15.1L0,0z" id="shape75"/><g transform="matrix(0,1,-1,0,1128.6,2415)" id="shape76"><path stroke="#000000" fill="none" d="M0,0L0,-258.9L25,-258.9L25,-10.4"/><path stroke="#000000" stroke-linecap="round" fill="#000000" d="M25,0L27.6,-10.4L22.4,-10.4L25,0" stroke-width="1"/></g><g transform="translate(860.72,2391.01)" id="shape77"><path stroke="#000000" fill="none" d="M0,-0L251.8,-0"/><path stroke-linejoin="round" stroke="#000000" stroke-linecap="round" fill="none" d="M239.8,-6L251.8,-0L239.8,6" stroke-width="1"/></g><g transform="translate(868.51,2367.18)" id="shape78"><text class="st2"><tspan y="13.9" x="8.8">36：更新播放列表卡界面</tspan></text></g><g transform="translate(1134.51,2386.18)" id="shape79"><text class="st2"><tspan y="19.4" x="12.8">37:appendOnePlaylistCard(playlist)</tspan></text></g><g transform="matrix(-1,0,-0,-1,1113.5,2515)" id="shape80"><path stroke="#000000" fill="none" d="M0,-0L252.8,-0" stroke-dasharray="6,4"/><path stroke-linejoin="round" stroke="#000000" stroke-linecap="round" fill="none" d="M240.8,-6L252.8,-0L240.8,6" stroke-width="1"/></g><g transform="translate(874.51,2479.68)" id="shape81"><text class="st2"><tspan y="24.9" x="14.4">38：添加一个播放列表卡</tspan></text></g><g transform="matrix(-1,-0,0,-1,1671,1486.9)" id="shape82"><path stroke="#000000" fill="none" d="M0,-0L810.2,-0" stroke-dasharray="6,4"/><path stroke-linejoin="round" stroke="#000000" stroke-linecap="round" fill="none" d="M798.2,-6L810.2,-0L798.2,6" stroke-width="1"/></g><g transform="translate(860.72,1685.88)" id="shape83"><path stroke="#000000" fill="none" d="M0,-0L535.8,-0"/><path stroke-linejoin="round" stroke="#000000" stroke-linecap="round" fill="none" d="M523.8,-6L535.8,-0L523.8,6" stroke-width="1"/></g><g transform="translate(876.51,1443.88)" id="shape84"><text class="st2"><tspan y="-0" x="103.2">27：</tspan><tspan y="18.4" x="4.8">addSongsToNewCustomPlaylistSig</tspan><tspan y="36.8" x="72">(songInfo_list)</tspan></text></g><g transform="translate(644.07,1750.88)" id="shape85"><text class="st2"><tspan y="9.2" x="9.8">30：显示“创建播放列表”对话</tspan><tspan y="27.6" x="99.4">框</tspan></text></g><g transform="matrix(-1,0,0,-1,1396.5,1785.9)" id="shape86"><path stroke="#000000" fill="none" d="M0,-0L747,-0" stroke-dasharray="6,4"/><path stroke-linejoin="round" stroke="#000000" stroke-linecap="round" fill="none" d="M735,-6L747,-0L735,6" stroke-width="1"/></g><g transform="translate(645.6,1835.88)" id="shape87"><text class="st2"><tspan y="10.2" x="9.3">31：输入播放列表名字并点击</tspan><tspan y="28.6" x="85.3">确定</tspan></text></g><g transform="matrix(1,0,-0,1,646.1,1867)" id="shape88"><path stroke="#000000" fill="none" d="M0,-0L750.4,-0"/><path stroke-linejoin="round" stroke="#000000" stroke-linecap="round" fill="none" d="M738.4,-6L750.4,-0L738.4,6" stroke-width="1"/></g><g transform="matrix(-1,0,-0,-1,1399.8,2000.2)" id="shape89"><path stroke="#000000" fill="none" d="M0,-0L751.4,-0" stroke-dasharray="6,4"/><path stroke-linejoin="round" stroke="#000000" stroke-linecap="round" fill="none" d="M739.4,-6L751.4,-0L739.4,6" stroke-width="1"/></g><g transform="translate(654.84,1976.18)" id="shape90"><text class="st2"><tspan y="19.4" x="14.4">32：显示播放列表已存在标签</tspan></text></g><g transform="matrix(-1,0,-0,-1,1399.8,2067.2)" id="shape91"><path stroke="#000000" fill="none" d="M0,-0L751.4,-0" stroke-dasharray="6,4"/><path stroke-linejoin="round" stroke="#000000" stroke-linecap="round" fill="none" d="M739.4,-6L751.4,-0L739.4,6" stroke-width="1"/></g><g transform="translate(633.24,2040.43)" id="shape92"><text class="st2"><tspan y="19.4" x="55.2">33：关闭对话框</tspan></text></g><g transform="translate(655.33,2524.38)" id="shape93"><text class="st2"><tspan y="15.7" x="8">39：显示播放列表创建完成</tspan><tspan y="34.1" x="70.4">提示条</tspan></text></g><g transform="matrix(-1,0,-0,-1,845.6,2566)" id="shape94"><path stroke="#000000" fill="none" d="M0,-0L199.5,-0" stroke-dasharray="6,4"/><path stroke-linejoin="round" stroke="#000000" stroke-linecap="round" fill="none" d="M187.5,-6L199.5,-0L187.5,6" stroke-width="1"/></g><path stroke="#3498db" transform="matrix(0,1,-1,0,1120.6,638.3)" fill="none" d="M0,0L1751.7,0" id="shape95"/><path stroke="#3498db" transform="matrix(0,1,-1,0,1680.1,1486.9)" fill="none" d="M0,0L1367.1,0" id="shape96"/><path stroke="#3498db" transform="matrix(0,1,-1,0,1679.1,1266.9)" fill="none" d="M0,0L95,0" id="shape97"/><path stroke="#3498db" transform="matrix(0,1,-1,0,1679.6,1043.8)" fill="none" d="M0,0L95,0" id="shape98"/><path stroke="#3498db" transform="matrix(0,1,-1,0,1404.5,2217.2)" fill="none" d="M0,0L631.8,0" id="shape99"/><path stroke="#3498db" transform="matrix(0,1,-1,0,1121.6,2515)" fill="none" d="M0,0L334,0" id="shape100"/><path stroke="#3498db" transform="matrix(0,1,-1,0,853.7,2571)" fill="none" d="M0,0L273,0" id="shape101"/><path stroke="#3498db" transform="matrix(0,1,-1,0,1405.6,1795.2)" fill="none" d="M0,0L72,0" id="shape102"/><path stroke="#ee7c31" transform="matrix(0,1,-1,0,639.1,2645)" fill="none" d="M0,0L204,0" id="shape103"/></g></svg>