<?xml version="1.0" encoding="utf-8"?>
<svg xmlns="http://www.w3.org/2000/svg" height="50" width="50" viewBox="0 0 50 50">
  <g>
    <path id="path1" transform="rotate(0,25,25) translate(0,0) scale(0.520833333333333,0.520833333333333)  " fill="#FFFFFF" d="M63,6L57.5859336853027,6.533203125 52.5,8.1328125 47.89453125,10.646484375 43.921875,13.921875 40.646484375,17.89453125 38.1328125,22.5 36.533203125,27.5859375 36,33 36.533203125,38.4140663146973 38.1328125,43.5 40.646484375,48.10546875 43.921875,52.078125 47.89453125,55.353515625 52.5,57.8671875 57.5859336853027,59.466796875 63,60 68.4140625,59.466796875 73.5,57.8671875 78.10546875,55.353515625 82.078125,52.078125 85.353515625,48.10546875 87.8671875,43.5 89.466796875,38.4140663146973 90,33 89.466796875,27.5859375 87.8671875,22.5 85.353515625,17.89453125 82.078125,13.921875 78.10546875,10.646484375 73.5,8.1328125 68.4140625,6.533203125 63,6z M63,0L67.46484375,0.29296875 71.765625,1.171875 75.84375,2.58984375 79.640625,4.5 83.138671875,6.873046875 86.3203125,9.6796875 89.126953125,12.861328125 91.5,16.359375 93.41015625,20.15625 94.828125,24.234375 95.70703125,28.53515625 96,33 95.70703125,37.4648475646973 94.828125,41.765625 93.41015625,45.8437538146973 91.5,49.640625 89.126953125,53.138671875 86.3203125,56.3203125 83.138671875,59.126953125 79.640625,61.5 75.84375,63.41015625 71.765625,64.828125 67.46484375,65.70703125 63,66 57.2636680603027,65.5078125 51.7734375,64.03125 46.623046875,61.62890625 41.90625,58.359375 5.109375,95.109375 4.13671875,95.77734375 3,96 1.86328125,95.77734375 0.890625,95.109375 0.22265625,94.13671875 0,93 0.22265625,91.86328125 0.890625,90.890625 37.640625,54.09375 34.37109375,49.376953125 31.96875,44.2265625 30.4921855926514,38.7363319396973 30,33 30.2929668426514,28.53515625 31.171875,24.234375 32.58984375,20.15625 34.5,16.359375 36.873046875,12.861328125 39.6796875,9.6796875 42.861328125,6.873046875 46.359375,4.5 50.1562461853027,2.58984375 54.234375,1.171875 58.5351524353027,0.29296875 63,0z" />
  </g>
</svg>

