<?xml version="1.0" encoding="utf-8"?>
<svg xmlns="http://www.w3.org/2000/svg" height="16" width="16" viewBox="0 0 16 16">
  <g>
    <path id="path1" transform="rotate(0,8,8) translate(-2,-2) scale(0.0384615384615385,0.0384615384615385)  " fill="#006B83" d="M352,352L416,352 416,416 352,416 352,352z M224,352L288,352 288,416 224,416 224,352z M96,352L160,352 160,416 96,416 96,352z M352,224L416,224 416,288 352,288 352,224z M224,224L288,224 288,288 224,288 224,224z M96,224L160,224 160,288 96,288 96,224z M352,96L416,96 416,160 352,160 352,96z M224,96L288,96 288,160 224,160 224,96z M96,96L160,96 160,160 96,160 96,96z" />
  </g>
</svg>
