<?xml version="1.0" encoding="utf-8"?>
<svg xmlns="http://www.w3.org/2000/svg" height="24" width="24" viewBox="0 0 24 24">
  <g>
    <path id="path1" transform="rotate(0,12,12) translate(0,0) scale(0.046875,0.046875)  " fill="#000000" d="M64.5,385.75L44,468 126.25,447.5 124.8046875,441.828125 122.968742370605,436.3125 120.742179870605,430.953125 118.125,425.75 111.906242370605,416.0625 104.5,407.5 95.9375,400.09375 86.25,393.875 81.046875,391.2578125 75.6875,389.03125 70.171875,387.1953125 64.5,385.75z M352,86.75L81.5,357 94.2890548706055,362.0234375 106.156242370605,368.34375 117.101554870605,375.9609375 127.125,384.875 136.0390625,394.8984375 143.65625,405.84375 149.9765625,417.7109375 155,430.5 425.25,160 352,86.75z M428,32L419.093719482422,32.6562728881836 411.375,34.625 404.499969482422,37.7187728881836 398.125,41.75 392.15625,46.5625190734863 386.5,52 374.75,64 448,137.25 460,125.5 465.437469482422,119.843757629395 470.25,113.875 474.281219482422,107.500015258789 477.375,100.625 479.343719482422,92.9062805175781 480,84 479.742156982422,78.7109603881836 478.968719482422,73.5937805175781 477.679656982422,68.6484527587891 475.875,63.875 470.999969482422,55.0625228881836 464.625,47.375 456.937469482422,41.0000228881836 448.125,36.125 443.351531982422,34.3203277587891 438.406219482422,33.0312728881836 433.289031982422,32.2578277587891 428,32z M428.25,0L436.749969482422,0.414063930511475 444.999969482422,1.65625381469727 453,3.72656679153442 460.75,6.625 468.1328125,10.2343864440918 475.03125,14.4375152587891 481.4453125,19.2343864440918 487.375,24.625 492.765625,30.5546932220459 497.5625,36.9687576293945 501.765625,43.8671951293945 505.375,51.25 508.2734375,59.0000114440918 510.34375,67.0000152587891 511.5859375,75.2500152587891 512,83.75 511.609375,91.9375152587891 510.4375,100.000015258789 508.484375,107.937515258789 505.75,115.75 502.265625,123.281257629395 498.062469482422,130.375 493.140594482422,137.03125 487.5,143.25 158.25,472.5 0,512 39.5,353.75 368.75,24.5 374.96875,18.8593902587891 381.625,13.9375190734863 388.71875,9.73438835144043 396.25,6.25 404.0625,3.51562929153442 411.999969482422,1.56250381469727 420.062469482422,0.390626430511475 428.25,0z" />
  </g>
</svg>

