<?xml version="1.0" encoding="utf-8"?>
<svg xmlns="http://www.w3.org/2000/svg" height="20" width="20" viewBox="0 0 20 20">
  <g>
    <path id="path1" transform="rotate(0,10,10) translate(0,0) scale(0.0390625,0.0390625)  " fill="#FFFFFF" d="M192,384L512,384 512,416 192,416 192,384z M192,288L512,288 512,320 192,320 192,288z M119.5,247.5L136.5,264.5 47.9999961853027,353 3.5,308.5 20.5000019073486,291.5 47.9999961853027,319 119.5,247.5z M192,192L512,192 512,224 192,224 192,192z M192,96L512,96 512,128 192,128 192,96z M119.5,55.4999961853027L136.5,72.5 47.9999961853027,161 3.5,116.5 20.5000019073486,99.5 47.9999961853027,127 119.5,55.4999961853027z" />
  </g>
</svg>
