<?xml version="1.0" encoding="utf-8"?>
<svg xmlns="http://www.w3.org/2000/svg" height="20" width="20" viewBox="0 0 20 20">
  <g>
    <path id="path1" transform="rotate(0,10,10) translate(-0.5,0) scale(0.0390625,0.0390625)  " fill="#000000" d="M288,416L320,416 320,448 288,448 288,416z M224,416L256,416 256,448 224,448 224,416z M160,416L192,416 192,448 160,448 160,416z M96,416L128,416 128,448 96,448 96,416z M32,416L64,416 64,448 32,448 32,416z M32,352L64,352 64,384 32,384 32,352z M32,288L64,288 64,320 32,320 32,288z M428.25,224L436.749969482422,224.4140625 444.999969482422,225.65625 453,227.7265625 460.75,230.625 468.1328125,234.234390258789 475.03125,238.437515258789 481.4453125,243.234390258789 487.375,248.625 492.765625,254.5625 497.5625,261 501.765625,267.9375 505.375,275.375 508.2734375,283.1796875 510.34375,291.21875 511.5859375,299.4921875 512,308 511.609375,316.1796875 510.4375,324.21875 508.484375,332.1171875 505.75,339.875 502.265625,347.3515625 498.062469482422,354.40625 493.140594482422,361.0390625 487.5,367.25 375.25,479.25 352.75,456.75 464.75,344.5 468.171875,340.734375 471.1875,336.6875 473.796875,332.359375 476,327.75 477.749969482422,322.953125 478.999969482422,318.0625 479.749969482422,313.078125 480,308 479.742156982422,302.7109375 478.968719482422,297.59375 477.679656982422,292.6484375 475.875,287.875 470.999969482422,279.0625 464.625,271.375 456.937469482422,265 448.125,260.125 443.351531982422,258.3203125 438.406219482422,257.03125 433.289031982422,256.2578125 428,256 422.921844482422,256.25 417.937469482422,257 413.046875,258.25 408.25,260 403.640625,262.203125 399.3125,264.8125 395.265625,267.828125 391.5,271.25 342.75,320 384,320 384,352 288,352 288,256 320,256 320,297.25 331.6875,285.1875 343.25,272.5 355.09375,260.0625 367.625,248.75 374.1796875,243.609375 380.96875,238.937515258789 387.9921875,234.734390258789 395.25,231 402.84375,227.9375 410.875,225.75 419.34375,224.4375 428.25,224z M32,224L64,224 64,256 32,256 32,224z M416,160L448,160 448,192 416,192 416,160z M32,160L64,160 64,192 32,192 32,160z M416,96L448,96 448,128 416,128 416,96z M32,96L64,96 64,128 32,128 32,96z M416,32L448,32 448,64 416,64 416,32z M352,32L384,32 384,64 352,64 352,32z M288,32L320,32 320,64 288,64 288,32z M224,32L256,32 256,64 224,64 224,32z M160,32L192,32 192,64 160,64 160,32z M96,32L128,32 128,64 96,64 96,32z M32,32L64,32 64,64 32,64 32,32z" />
  </g>
</svg>
