<?xml version="1.0" encoding="utf-8"?>
<svg xmlns="http://www.w3.org/2000/svg" height="20" width="20" viewBox="0 0 20 20">
  <g>
    <path id="path1" transform="rotate(0,10,10) translate(-0.625,0) scale(0.0390625,0.0390625)  " fill="#000000" d="M256,32L242.953109741211,32.6328277587891 230.312484741211,34.5312728881836 218.078109741211,37.6953277587891 206.25,42.125 194.9921875,47.6406402587891 184.46875,54.0625190734863 174.6796875,61.3906364440918 165.625,69.625 157.390625,78.6796951293945 150.0625,88.46875 143.640625,98.9921875 138.125,110.25 133.6953125,122.078125 130.53125,134.3125 128.6328125,146.953125 128,160 128.6328125,173.046890258789 130.53125,185.6875 133.6953125,197.921875 138.125,209.75 143.640625,221.0078125 150.0625,231.53125 157.390625,241.320327758789 165.625,250.375 174.6796875,258.609375 184.46875,265.9375 194.9921875,272.359375 206.25,277.875 218.078109741211,282.3046875 230.312484741211,285.46875 242.953109741211,287.3671875 256,288 269.046875,287.3671875 281.6875,285.46875 293.921875,282.3046875 305.75,277.875 317.0078125,272.359375 327.53125,265.9375 337.3203125,258.609375 346.375,250.375 354.609375,241.320327758789 361.9375,231.53125 368.359375,221.0078125 373.875,209.75 378.3046875,197.921875 381.46875,185.6875 383.3671875,173.046890258789 384,160 383.3671875,146.953125 381.46875,134.3125 378.3046875,122.078125 373.875,110.25 368.359375,98.9921875 361.9375,88.46875 354.609375,78.6796951293945 346.375,69.625 337.3203125,61.3906364440918 327.53125,54.0625190734863 317.0078125,47.6406402587891 305.75,42.125 293.921875,37.6953277587891 281.6875,34.5312728881836 269.046875,32.6328277587891 256,32z M256,0L264.248046875,0.195313334465027 272.3671875,0.781252861022949 280.357421875,1.75781786441803 288.21875,3.12500762939453 295.951171875,4.88282155990601 303.5546875,7.03125858306885 311.029296875,9.5703182220459 318.375,12.5 332.4765625,19.3281288146973 345.65625,27.3125038146973 357.9140625,36.453125 369.25,46.75 379.546875,58.0859375 388.6875,70.34375 396.671875,83.5234451293945 403.5,97.625 406.4296875,104.970710754395 408.96875,112.445320129395 411.1171875,120.048843383789 412.875,127.781265258789 414.2421875,135.642593383789 415.21875,143.6328125 415.8046875,151.751953125 416,160 415.6328125,170.921890258789 414.53125,181.687515258789 412.6953125,192.296890258789 410.125,202.75 406.875,212.96875 402.999969482422,222.875 398.499969482422,232.46875 393.375,241.75 387.65625,250.679702758789 381.375,259.21875 374.53125,267.3671875 367.125,275.125 359.1953125,282.3984375 350.78125,289.09375 341.8828125,295.2109375 332.5,300.75 349.0859375,307.2109375 364.84375,314.84375 379.7734375,323.6484375 393.875,333.625 407.046875,344.6015625 419.1875,356.40625 430.296875,369.0390625 440.375,382.5 449.3828125,396.703125 457.28125,411.5625 464.0703125,427.078125 469.75,443.25 474.234375,459.921875 477.437469482422,476.9375 479.359344482422,494.296875 480,512 448,512 447.771484375,501.841796875 447.0859375,491.8671875 445.943359375,482.076171875 444.34375,472.46875 442.287109375,463.044921875 439.7734375,453.8046875 436.802734375,444.748046875 433.375,435.875 425.3671875,418.8984375 415.96875,403.09375 405.1796875,388.4609375 393,375 379.5390625,362.8203125 364.90625,352.03125 349.1015625,342.6328125 332.125,334.625 323.251953125,331.197265625 314.1953125,328.2265625 304.955078125,325.712890625 295.53125,323.65625 285.923828125,322.056640625 276.1328125,320.9140625 266.158203125,320.228515625 256,320 242.75,320.421875 229.75,321.6875 217,323.796875 204.5,326.75 192.3359375,330.4765625 180.59375,334.90625 169.2734375,340.0390625 158.375,345.875 147.9375,352.375 138,359.5 128.5625,367.25 119.625,375.625 111.25,384.5625 103.5,394 96.375,403.9375 89.875,414.375 84.0390625,425.2734375 78.90625,436.59375 74.4765625,448.3359375 70.75,460.5 67.796875,473 65.6875,485.75 64.421875,498.75 64,512 32,512 32.65625,494.1953125 34.625,476.78125 37.90625,459.7578125 42.5,443.125 48.296875,427.0234375 55.1875,411.59375 63.171875,396.8359375 72.25,382.75 82.3828125,369.40625 93.53125,356.875 105.6953125,345.15625 118.875,334.25 132.9609375,324.296875 147.84375,315.4375 163.5234375,307.671875 180,301 170.5,295.46875 161.5,289.375 153,282.71875 145,275.5 137.5390625,267.7890625 130.65625,259.65625 124.3515625,251.1015625 118.625,242.125 113.5,232.78125 109,223.125 105.125,213.156265258789 101.875,202.875 99.3046875,192.3671875 97.46875,181.718765258789 96.3671875,170.929702758789 96,160 96.1953125,151.751953125 96.78125,143.6328125 97.7578125,135.642593383789 99.125,127.781265258789 100.8828125,120.048843383789 103.03125,112.445320129395 105.5703125,104.970710754395 108.5,97.625 115.328125,83.5234451293945 123.3125,70.34375 132.453125,58.0859375 142.75,46.75 154.0859375,36.453125 166.34375,27.3125038146973 179.5234375,19.3281288146973 193.625,12.5 200.970703125,9.5703182220459 208.4453125,7.03125858306885 216.048812866211,4.88282155990601 223.781234741211,3.12500762939453 231.642562866211,1.75781786441803 239.632797241211,0.781252861022949 247.751953125,0.195313334465027 256,0z" />
  </g>
</svg>
