<?xml version="1.0" encoding="utf-8"?>
<svg xmlns="http://www.w3.org/2000/svg" height="20" width="20" viewBox="0 0 20 20">
  <g>
    <path id="path1" transform="rotate(0,10,10) translate(0,0) scale(0.208333333333333,0.208333333333333)  " fill="#FFFFFF" d="M54,30L60,30 60,78 54,78 54,30z M42,30L48,30 48,78 42,78 42,30z M30,30L36,30 36,78 30,78 30,30z M18,18L18,87 18.22265625,88.13671875 18.890625,89.109375 19.86328125,89.77734375 21,90 69,90 70.13671875,89.77734375 71.109375,89.109375 71.77734375,88.13671875 72,87 72,18 18,18z M36,6L36,12 54,12 54,6 36,6z M36,0L54,0 56.34375,0.46875 58.2421875,1.7578125 59.53125,3.65625 60,6 60,12 84,12 84,18 78,18 78,87 77.296875,90.515625 75.375,93.375 72.515625,95.296875 69,96 21,96 17.484375,95.296875 14.625,93.375 12.703125,90.515625 12,87 12,18 6,18 6,12 30,12 30,6 30.46875,3.65625 31.7578125,1.7578125 33.65625,0.46875 36,0z" />
  </g>
</svg>
