<?xml version="1.0" encoding="utf-8"?>
<svg xmlns="http://www.w3.org/2000/svg" height="20" width="20" viewBox="0 0 20 20">
  <g>
    <path id="path1" transform="rotate(0,10,10) translate(0,0) scale(0.0390625,0.0390625)  " fill="#FFFFFF" d="M224,129.75L224,350.25 233.953125,347.53125 243.312484741211,343.625 252.078109741211,338.53125 260.25,332.25 267.578125,325 273.8125,317 278.953125,308.25 283,298.75 286.75,288 450,288 455.875,297.5 458.875,301.78125 462.125,305.625 465.71875,309.09375 469.75,312.25 474.437469482422,315 480,317.25 480,162.75 474.437469482422,165 469.75,167.75 465.71875,170.90625 462.125,174.375 458.875,178.21875 455.875,182.5 450,192 286.75,192 283,181.25 278.953125,171.75 273.8125,163.000015258789 267.578125,155.000015258789 260.25,147.75 252.078109741211,141.46875 243.312484741211,136.375 233.953125,132.46875 224,129.75z M192,96L208,96 216.054672241211,96.28125 223.968734741211,97.125 231.7421875,98.53125 239.375,100.5 246.8125,102.984375 254,105.9375 260.9375,109.359375 267.625,113.25 274.0234375,117.6015625 280.09375,122.40625 285.8359375,127.664070129395 291.25,133.375 296.28125,139.492202758789 300.875,145.968765258789 305.03125,152.804702758789 308.75,160 432.25,160 438.40625,152.8046875 445.124969482422,146.46875 452.406219482422,140.9921875 460.25,136.375 468.578125,132.710952758789 477.3125,130.09375 486.453125,128.5234375 496,128 512,128 512,352 496,352 486.453125,351.4765625 477.3125,349.90625 468.578125,347.2890625 460.25,343.625 452.406219482422,339.0078125 445.124969482422,333.53125 438.40625,327.1953125 432.25,320 308.75,320 305.03125,327.1953125 300.875,334.03125 296.28125,340.5078125 291.25,346.625 285.8359375,352.3359375 280.09375,357.59375 274.0234375,362.3984375 267.625,366.75 260.9375,370.640625 254,374.0625 246.8125,377.015625 239.375,379.5 231.7421875,381.46875 223.968734741211,382.875 216.054672241211,383.71875 208,384 192,384 192,256 32,256 0,240 32,224 192,224 192,96z" />
  </g>
</svg>
