<?xml version="1.0" encoding="utf-8"?>
<svg xmlns="http://www.w3.org/2000/svg" height="20" width="20" viewBox="0 0 20 20">
  <g>
    <path id="path1" transform="rotate(0,10,10) translate(0,-1) scale(0.0390625,0.0390625)  " fill="#000000" d="M0,384L320,384 320,416 0,416 0,384z M0,288L320,288 320,320 0,320 0,288z M512,271.5L512,448 511.7734375,451.7578125 511.09375,455.28125 509.9609375,458.5703125 508.375,461.625 504.187469482422,467.0625 498.875,471.625 492.6875,475.25 485.875,477.875 478.84375,479.46875 472,480 465.15625,479.46875 458.125,477.875 451.3125,475.25 445.125,471.625 439.8125,467.0625 435.625,461.625 434.0390625,458.5703125 432.906219482422,455.28125 432.226531982422,451.7578125 432,448 432.226531982422,444.2421875 432.906219482422,440.71875 434.0390625,437.4296875 435.625,434.375 439.8125,428.9375 445.125,424.375 451.3125,420.75 458.125,418.125 465.15625,416.53125 472,416 480,416.75 480,312.5 384,336.5 384,480 383.75,483.875 383,487.5 381.75,490.875 380,494 375.46875,499.5 369.875,504 363.40625,507.5 356.25,510 348.9375,511.5 342,512 335.0625,511.5 327.75,510 320.59375,507.5 314.125,504 308.53125,499.5 304,494 302.25,490.875 301,487.5 300.25,483.875 300,480 300.25,476.125 301,472.5 302.25,469.125 304,466 308.53125,460.5 314.125,456 320.59375,452.5 327.75,450 335.0625,448.5 342,448 347,448.25 352,449 352,311.5 512,271.5z M0,192L512,192 512,224 0,224 0,192z M0,96L512,96 512,128 0,128 0,96z" />
  </g>
</svg>
