<?xml version="1.0" encoding="utf-8"?>
<svg xmlns="http://www.w3.org/2000/svg" height="20" width="20" viewBox="0 0 20 20">
  <g>
    <path id="path1" transform="rotate(0,10,10) translate(0,0) scale(0.0416666666666667,0.0416666666666667)  " fill="#ffffff" d="M448,448L480,448 480,480 448,480 448,448z M384,448L416,448 416,480 384,480 384,448z M320,448L352,448 352,480 320,480 320,448z M256,448L288,448 288,480 256,480 256,448z M192,448L224,448 224,480 192,480 192,448z M128,448L160,448 160,480 128,480 128,448z M64,448L96,448 96,480 64,480 64,448z M0,448L31.9999980926514,448 31.9999980926514,480 0,480 0,448z M448,384L480,384 480,416 448,416 448,384z M0,384L31.9999980926514,384 31.9999980926514,416 0,416 0,384z M448,320L480,320 480,352 448,352 448,320z M0,320L31.9999980926514,320 31.9999980926514,352 0,352 0,320z M448,256L480,256 480,288 448,288 448,256z M256,256L256,352 352,352 352,256 256,256z M128,256L128,352 224,352 224,256 128,256z M0,256L31.9999980926514,256 31.9999980926514,288 0,288 0,256z M448,192L480,192 480,224 448,224 448,192z M0,192L31.9999980926514,192 31.9999980926514,224 0,224 0,192z M448,128L480,128 480,160 448,160 448,128z M256,128L256,224 352,224 352,128 256,128z M128,128L128,224 224,224 224,128 128,128z M0,128L31.9999980926514,128 31.9999980926514,160 0,160 0,128z M96,96L384,96 384,384 96,384 96,96z M448,64L480,64 480,96 448,96 448,64z M0,64L31.9999980926514,64 31.9999980926514,96 0,96 0,64z M448,0L480,0 480,31.9999980926514 448,31.9999980926514 448,0z M384,0L416,0 416,31.9999980926514 384,31.9999980926514 384,0z M320,0L352,0 352,31.9999980926514 320,31.9999980926514 320,0z M256,0L288,0 288,31.9999980926514 256,31.9999980926514 256,0z M192,0L224,0 224,31.9999980926514 192,31.9999980926514 192,0z M128,0L160,0 160,31.9999980926514 128,31.9999980926514 128,0z M64,0L96,0 96,31.9999980926514 64,31.9999980926514 64,0z M0,0L31.9999980926514,0 31.9999980926514,31.9999980926514 0,31.9999980926514 0,0z" />
  </g>
</svg>
