<?xml version="1.0" encoding="utf-8"?>
<svg xmlns="http://www.w3.org/2000/svg" height="16" width="16" viewBox="0 0 16 16">
  <g>
    <path id="path1" transform="rotate(0,8,8) translate(0.5,0) scale(0.03125,0.03125)  " fill="#FFFFFF" d="M256,256L262.5,256.625 268.5,258.5 273.90625,261.46875 278.625,265.375 282.53125,270.09375 285.5,275.5 287.375,281.5 288,288 287.375,294.5 285.5,300.5 282.53125,305.90625 278.625,310.625 273.90625,314.53125 268.5,317.5 262.5,319.375 256,320 249.5,319.375 243.5,317.5 238.09375,314.53125 233.375,310.625 229.46875,305.90625 226.5,300.5 224.625,294.5 224,288 224.625,281.5 226.5,275.5 229.46875,270.09375 233.375,265.375 238.09375,261.46875 243.5,258.5 249.5,256.625 256,256z M256,160L242.953109741211,160.6328125 230.312484741211,162.53125 218.078109741211,165.6953125 206.25,170.125 194.9921875,175.640625 184.46875,182.0625 174.6796875,189.390640258789 165.625,197.625 157.390625,206.6796875 150.0625,216.46875 143.640625,226.9921875 138.125,238.25 133.6953125,250.078125 130.53125,262.3125 128.6328125,274.953125 128,288 128.6328125,301.046875 130.53125,313.6875 133.6953125,325.921875 138.125,337.75 143.640625,349.0078125 150.0625,359.53125 157.390625,369.3203125 165.625,378.375 174.6796875,386.609375 184.46875,393.9375 194.9921875,400.359375 206.25,405.875 218.078109741211,410.3046875 230.312484741211,413.46875 242.953109741211,415.3671875 256,416 269.046875,415.3671875 281.6875,413.46875 293.921875,410.3046875 305.75,405.875 317.0078125,400.359375 327.53125,393.9375 337.3203125,386.609375 346.375,378.375 354.609375,369.3203125 361.9375,359.53125 368.359375,349.0078125 373.875,337.75 378.3046875,325.921875 381.46875,313.6875 383.3671875,301.046875 384,288 383.3671875,274.953125 381.46875,262.3125 378.3046875,250.078125 373.875,238.25 368.359375,226.9921875 361.9375,216.46875 354.609375,206.6796875 346.375,197.625 337.3203125,189.390640258789 327.53125,182.0625 317.0078125,175.640625 305.75,170.125 293.921875,165.6953125 281.6875,162.53125 269.046875,160.6328125 256,160z M256,128L264.248046875,128.1953125 272.3671875,128.78125 280.357421875,129.7578125 288.21875,131.125 295.951171875,132.882827758789 303.5546875,135.031265258789 311.029296875,137.5703125 318.375,140.5 332.4765625,147.328125 345.65625,155.3125 357.9140625,164.453125 369.25,174.75 379.546875,186.0859375 388.6875,198.34375 396.671875,211.5234375 403.5,225.625 406.4296875,232.970703125 408.96875,240.445327758789 411.1171875,248.048843383789 412.875,255.781265258789 414.2421875,263.642578125 415.21875,271.6328125 415.8046875,279.751953125 416,288 415.8046875,296.248046875 415.21875,304.3671875 414.2421875,312.357421875 412.875,320.21875 411.1171875,327.951171875 408.96875,335.5546875 406.4296875,343.029296875 403.5,350.375 396.671875,364.4765625 388.6875,377.65625 379.546875,389.9140625 369.25,401.25 357.9140625,411.546875 345.65625,420.6875 332.4765625,428.671875 318.375,435.5 311.029296875,438.4296875 303.5546875,440.96875 295.951171875,443.1171875 288.21875,444.875 280.357421875,446.2421875 272.3671875,447.21875 264.248046875,447.8046875 256,448 247.751953125,447.8046875 239.632797241211,447.21875 231.642562866211,446.2421875 223.781234741211,444.875 216.048812866211,443.1171875 208.4453125,440.96875 200.970703125,438.4296875 193.625,435.5 179.5234375,428.671875 166.34375,420.6875 154.0859375,411.546875 142.75,401.25 132.453125,389.9140625 123.3125,377.65625 115.328125,364.4765625 108.5,350.375 105.5703125,343.029296875 103.03125,335.5546875 100.8828125,327.951171875 99.125,320.21875 97.7578125,312.357421875 96.78125,304.3671875 96.1953125,296.248046875 96,288 96.1953125,279.751953125 96.78125,271.6328125 97.7578125,263.642578125 99.125,255.781265258789 100.8828125,248.048843383789 103.03125,240.445327758789 105.5703125,232.970703125 108.5,225.625 115.328125,211.5234375 123.3125,198.34375 132.453125,186.0859375 142.75,174.75 154.0859375,164.453125 166.34375,155.3125 179.5234375,147.328125 193.625,140.5 200.970703125,137.5703125 208.4453125,135.031265258789 216.048812866211,132.882827758789 223.781234741211,131.125 231.642562866211,129.7578125 239.632797241211,128.78125 247.751953125,128.1953125 256,128z M64,96L64,480 448,480 448,96 64,96z M32,64L480,64 480,512 32,512 32,64z M96,0L416,0 416,32 96,32 96,0z" />
  </g>
</svg>

