<?xml version="1.0" encoding="utf-8"?>
<svg xmlns="http://www.w3.org/2000/svg" height="16" width="16" viewBox="0 0 16 16">
  <g>
    <path id="path1" transform="rotate(0,8,8) translate(0,0) scale(0.03125,0.03125)  " fill="#FFFFFF" d="M25.75,0L30.8125,0.46875 35.5,1.875 39.8125,4.21875 43.75,7.5 256,219.75 468.25,7.5 472.203125,4.21875 476.5625,1.875 481.328125,0.46875 486.5,0 491.59375,0.500007629394531 496.375,2 500.718719482422,4.3750114440918 504.5,7.5 507.625,11.2812728881836 510,15.625 511.5,20.4062538146973 512,25.5 511.53125,30.6718826293945 510.125,35.4375076293945 507.78125,39.7968788146973 504.5,43.75 292.25,256 504.5,468.25 507.78125,472.1875 510.125,476.5 511.53125,481.1875 512,486.25 511.5,491.375 510,496.25 507.65625,500.6875 504.625,504.5 500.90625,507.625 496.5,510 491.625,511.5 486.5,512 481.328125,511.53125 476.5625,510.125 472.203125,507.78125 468.25,504.5 256,292.25 43.75,504.5 39.8125,507.78125 35.5,510.125 30.8125,511.53125 25.75,512 20.4765625,511.5390625 15.65625,510.15625 11.2890625,507.8515625 7.375,504.625 4.1484375,500.7109375 1.84375,496.34375 0.460937529802322,491.5234375 0,486.25 0.46875,481.1875 1.875,476.5 4.21875,472.1875 7.5,468.25 219.75,256 7.5,43.75 4.21875,39.7968788146973 1.875,35.4375076293945 0.46875,30.6718826293945 0,25.5 0.5,20.3750076293945 2,15.5 4.375,11.0937538146973 7.5,7.375 11.3125,4.34375381469727 15.75,2 20.625,0.500007629394531 25.75,0z" />
  </g>
</svg>

