<?xml version="1.0" encoding="utf-8"?>
<svg xmlns="http://www.w3.org/2000/svg" height="16" width="16" viewBox="0 0 16 16">
  <g>
    <path id="path1" transform="rotate(0,8,8) translate(0,0) scale(0.0384615384615385,0.0384615384615385)  " fill="#FFFFFF" d="M80,64L83.140625,64.296875 86.0625,65.1875 88.765625,66.6718826293945 91.25,68.75 240,217.5 388.75,68.75 391.234375,66.6718826293945 393.9375,65.1875 396.859375,64.296875 400,64 403.140625,64.296875 406.0625,65.1875 408.765625,66.6718826293945 411.25,68.75 413.328125,71.2343902587891 414.8125,73.9375152587891 415.703125,76.8593902587891 416,80 415.703125,83.1406326293945 414.8125,86.0625076293945 413.328125,88.7656326293945 411.25,91.25 262.5,240 411.25,388.75 413.328125,391.234375 414.8125,393.9375 415.703125,396.859375 416,400 415.703125,403.140625 414.8125,406.0625 413.328125,408.765625 411.25,411.25 408.765625,413.328125 406.0625,414.8125 403.140625,415.703125 400,416 396.859375,415.703125 393.9375,414.8125 391.234375,413.328125 388.75,411.25 240,262.5 91.25,411.25 88.765625,413.328125 86.0625,414.8125 83.140625,415.703125 80,416 76.859375,415.703125 73.9375,414.8125 71.234375,413.328125 68.75,411.25 66.671875,408.765625 65.1875,406.0625 64.296875,403.140625 64,400 64.296875,396.859375 65.1875,393.9375 66.671875,391.234375 68.75,388.75 217.5,240 68.75,91.25 66.671875,88.7656326293945 65.1875,86.0625076293945 64.296875,83.1406326293945 64,80 64.296875,76.8593902587891 65.1875,73.9375152587891 66.671875,71.2343902587891 68.75,68.75 71.234375,66.6718826293945 73.9375,65.1875 76.859375,64.296875 80,64z" />
  </g>
</svg>

