<?xml version="1.0" encoding="utf-8"?>
<svg xmlns="http://www.w3.org/2000/svg" height="16" width="16" viewBox="0 0 16 16">
  <g>
    <path id="path1" transform="rotate(0,8,8) translate(1,0) scale(0.03125,0.03125)  " fill="#FFFFFF" d="M112,288L108.859375,288.296875 105.9375,289.1875 103.234375,290.671875 100.75,292.75 98.671875,295.234375 97.1875,297.9375 96.296875,300.859375 96,304 96.296875,307.140625 97.1875,310.0625 98.671875,312.765625 100.75,315.25 103.234375,317.328125 105.9375,318.8125 108.859375,319.703125 112,320 167.5,320 83.75,403.75 81.5625,406.390625 80,409.3125 79.0625,412.515625 78.75,416 79.0625,419.484375 80,422.6875 81.5625,425.609375 83.75,428.25 86.390625,430.4375 89.3125,432 92.515625,432.9375 96,433.25 99.484375,432.9375 102.6875,432 105.609375,430.4375 108.25,428.25 192,344.5 192,400 192.296875,403.140625 193.1875,406.0625 194.671875,408.765625 196.75,411.25 199.234375,413.328125 201.9375,414.8125 204.859375,415.703125 208,416 211.140609741211,415.703125 214.062484741211,414.8125 216.765609741211,413.328125 219.25,411.25 221.328125,408.765625 222.8125,406.0625 223.703125,403.140625 224,400 224,304 223.703125,300.859375 222.8125,297.9375 221.328125,295.234375 219.25,292.75 216.765609741211,290.671875 214.062484741211,289.1875 211.140609741211,288.296875 208,288 112,288z M144,224L153.7890625,224.3203125 163.40625,225.28125 172.8515625,226.8828125 182.125,229.125 191.1640625,231.953140258789 199.90625,235.3125 208.3515625,239.203125 216.5,243.625 224.328125,248.5546875 231.8125,253.96875 238.953125,259.8671875 245.75,266.25 252.1328125,273.046875 258.03125,280.1875 263.4453125,287.671875 268.375,295.5 272.796875,303.6484375 276.6875,312.09375 280.046875,320.8359375 282.875,329.875 285.1171875,339.1484375 286.71875,348.59375 287.6796875,358.2109375 288,368 287.2890625,382.65625 285.15625,396.875 281.6015625,410.65625 276.625,424 270.4296875,436.703125 263.21875,448.5625 254.9921875,459.578125 245.75,469.75 235.578125,478.9921875 224.5625,487.21875 212.703125,494.4296875 200,500.625 186.65625,505.6015625 172.875,509.15625 158.65625,511.2890625 144,512 129.234375,511.296875 114.937492370605,509.1875 101.109367370605,505.671875 87.75,500.75 75.046875,494.609375 63.1875,487.4375 52.171875,479.234375 42,470 32.765625,459.828125 24.5625,448.8125 17.390625,436.953125 11.25,424.25 6.328125,410.890625 2.8125,397.0625 0.703125,382.765625 0,368 0.7109375,353.34375 2.84375,339.125 6.3984375,325.34375 11.375,312 17.5703125,299.296875 24.78125,287.4375 33.0078125,276.421875 42.25,266.25 52.421875,257.0078125 63.4375,248.78125 75.296875,241.5703125 88,235.375 101.34375,230.398452758789 115.125,226.84375 129.34375,224.7109375 144,224z M288,54.5L288,128 288.625,134.53125 290.5,140.625 293.4375,146.093765258789 297.25,150.75 301.90625,154.5625 307.375,157.5 313.46875,159.375 320,160 393.5,160 288,54.5z M126.75,0L252,0 258.3125,0.3046875 264.5,1.21875 270.5625,2.7421875 276.5,4.875 282.203125,7.5703125 287.5625,10.78125 292.578125,14.5078125 297.25,18.75 429.25,150.75 433.4921875,155.421875 437.21875,160.4375 440.4296875,165.796890258789 443.125,171.5 445.2578125,177.4375 446.78125,183.5 447.6953125,189.6875 448,196 448,449.25 447.6796875,455.4296875 446.71875,461.46875 445.1171875,467.3671875 442.875,473.125 440.09375,478.640625 436.875,483.8125 433.21875,488.640625 429.125,493.125 424.640625,497.21875 419.8125,500.875 414.640625,504.09375 409.125,506.875 403.3671875,509.1171875 397.46875,510.71875 391.4296875,511.6796875 385.25,512 258.5,512 267.0625,504.75 275.25,497 282.9375,488.75 290,480 384,480 390.499969482422,479.375 396.5,477.5 401.90625,474.53125 406.625,470.625 410.531219482422,465.90625 413.5,460.5 415.375,454.5 416,448 416,196 416,194 415.75,192 318.75,192 312.3515625,191.671875 306.15625,190.6875 300.1640625,189.046875 294.375,186.75 288.8671875,183.90625 283.71875,180.625 278.9296875,176.90625 274.5,172.75 270.46875,168.195327758789 266.875,163.28125 263.71875,158.0078125 261,152.375 258.8125,146.4921875 257.25,140.46875 256.3125,134.3046875 256,128 256,32.25 254,32 252,32 128,32 121.5,32.6250267028809 115.5,34.5 110.09375,37.4687614440918 105.375,41.375 101.46875,46.0937652587891 98.5,51.5 96.625,57.5000038146973 96,64 96,190.25 79.625,195.5 64,202.25 64,62.75 64.3203125,56.5703239440918 65.28125,50.5312614440918 66.8828125,44.6328201293945 69.125,38.875 71.90625,33.3593864440918 75.125,28.1875190734863 78.78125,23.3593902587891 82.875,18.875 87.359375,14.7812652587891 92.1875,11.1250190734863 97.359375,7.90626287460327 102.875,5.125 108.6328125,2.88281679153442 114.53125,1.28125381469727 120.5703125,0.320313930511475 126.75,0z" />
  </g>
</svg>

