<?xml version="1.0" encoding="utf-8"?>
<svg xmlns="http://www.w3.org/2000/svg" height="16" width="16" viewBox="0 0 16 16">
  <g>
    <path id="path1" transform="rotate(0,8,8) translate(0,0) scale(0.177777777777778,0.177777777777778)  " fill="#FFFFFF" d="M48,30L51.5976524353027,30.357421875 54.984375,31.4296875 58.0546836853027,33.1113319396973 60.703125,35.296875 62.8886680603027,37.9453163146973 64.5703125,41.015625 65.642578125,44.4023475646973 66,48 65.642578125,51.59765625 64.5703125,54.984375 62.8886680603027,58.0546875 60.703125,60.703125 58.0546836853027,62.888671875 54.984375,64.5703125 51.5976524353027,65.642578125 48,66 44.40234375,65.642578125 41.015625,64.5703125 37.9453125,62.888671875 35.296875,60.703125 33.111328125,58.0546875 31.4296875,54.984375 30.3574199676514,51.59765625 30,48 30.3574199676514,44.4023475646973 31.4296875,41.015625 33.111328125,37.9453163146973 35.296875,35.296875 37.9453125,33.1113319396973 41.015625,31.4296875 44.40234375,30.357421875 48,30z M48,12L43.125,12.322265625 38.4375,13.2890625 33.990234375,14.841796875 29.8359375,16.921875 26.0097637176514,19.5 22.546875,22.546875 19.5,26.009765625 16.921875,29.8359375 14.8417959213257,33.9902381896973 13.2890625,38.4375 12.322265625,43.1250038146973 12,48 12.322265625,52.875 13.2890625,57.5625 14.8417959213257,62.009765625 16.921875,66.1640625 19.5,69.990234375 22.546875,73.453125 26.0097637176514,76.5 29.8359375,79.078125 33.990234375,81.158203125 38.4375,82.7109375 43.125,83.677734375 48,84 52.8749961853027,83.677734375 57.5625,82.7109375 62.0097618103027,81.158203125 66.1640625,79.078125 69.990234375,76.5 73.453125,73.453125 76.5,69.990234375 79.078125,66.1640625 81.158203125,62.009765625 82.7109375,57.5625 83.677734375,52.875 84,48 83.677734375,43.1250038146973 82.7109375,38.4375 81.158203125,33.9902381896973 79.078125,29.8359375 76.5,26.009765625 73.453125,22.546875 69.990234375,19.5 66.1640625,16.921875 62.0097618103027,14.841796875 57.5625,13.2890625 52.8749961853027,12.322265625 48,12z M48,6L53.6660118103027,6.375 59.1328125,7.50000047683716 64.32421875,9.310546875 69.1640625,11.7421875 73.623046875,14.759765625 77.671875,18.328125 81.240234375,22.376953125 84.2578125,26.8359375 86.689453125,31.6757831573486 88.5,36.8671875 89.625,42.3339881896973 90,48 89.625,53.666015625 88.5,59.1328125 86.689453125,64.32421875 84.2578125,69.1640625 81.240234375,73.623046875 77.671875,77.671875 73.623046875,81.240234375 69.1640625,84.2578125 64.32421875,86.689453125 59.1328125,88.5 53.6660118103027,89.625 48,90 42.333984375,89.625 36.8671875,88.5 31.67578125,86.689453125 26.8359375,84.2578125 22.376953125,81.240234375 18.328125,77.671875 14.7597646713257,73.623046875 11.7421875,69.1640625 9.310546875,64.330078125 7.50000047683716,59.15625 6.375,53.6953125 6,48 6.375,42.3339881896973 7.50000047683716,36.8671875 9.310546875,31.6757831573486 11.7421875,26.8359375 14.7597646713257,22.376953125 18.328125,18.328125 22.376953125,14.759765625 26.8359375,11.7421875 31.669921875,9.310546875 36.84375,7.50000047683716 42.3046875,6.375 48,6z" />
  </g>
</svg>

