<?xml version="1.0" encoding="utf-8"?>
<svg xmlns="http://www.w3.org/2000/svg" height="16" width="16" viewBox="0 0 16 16">
  <g>
    <path id="path1" transform="rotate(0,8,8) translate(1,0) scale(0.166666666666667,0.166666666666667)  " fill="#000000" d="M48,60L50.3203125,60.46875 52.2421875,61.7578125 53.53125,63.6796875 54,66 53.53125,68.34375 52.2421875,70.2421875 50.34375,71.53125 48,72 45.6328125,71.53125 43.734375,70.265625 42.46875,68.3671875 42,66 42.46875,63.65625 43.7578125,61.7578125 45.65625,60.46875 48,60z M24,42L21.65625,42.46875 19.7578125,43.7578125 18.46875,45.65625 18,48 18,84 18.46875,86.3671875 19.734375,88.265625 21.6328125,89.53125 24,90 72,90 74.34375,89.53125 76.2421875,88.2421875 77.53125,86.34375 78,84 78,48 77.53125,45.6796875 76.2421875,43.7578125 74.3203125,42.46875 72,42 24,42z M48,6L44.3671875,6.3515625 40.96875,7.40625 37.8984375,9.0703125 35.25,11.25 33.0703125,13.8984375 31.40625,16.96875 30.3515605926514,20.3671875 30,24 30,36 66,36 66,24 65.6484375,20.3671875 64.59375,16.96875 62.9296836853027,13.8984375 60.75,11.25 58.1015586853027,9.0703125 55.03125,7.40625 51.6328086853027,6.3515625 48,6z M48,0L52.8222618103027,0.46875 57.3515625,1.875 61.4531211853027,4.095703125 64.9921875,7.0078125 67.904296875,10.546875 70.125,14.6484375 71.53125,19.177734375 72,24 72,36 74.408203125,36.2343788146973 76.6640625,36.9375 80.484375,39.515625 83.0625,43.3359375 83.765625,45.5918006896973 84,48 84,84 83.765625,86.408203125 83.0625,88.6640625 80.484375,92.484375 76.6640625,95.0625 74.408203125,95.765625 72,96 24,96 21.591796875,95.765625 19.3359375,95.0625 15.515625,92.484375 12.9375,88.6640625 12.234375,86.408203125 12,84 12,48 12.234375,45.5918006896973 12.9375,43.3359375 15.515625,39.515625 19.3359375,36.9375 21.591796875,36.2343788146973 24,36 24,24 24.46875,19.177734375 25.875,14.6484375 28.0957012176514,10.546875 31.0078125,7.0078125 34.546875,4.095703125 38.6484375,1.875 43.177734375,0.46875 48,0z" />
  </g>
</svg>

