<?xml version="1.0" encoding="utf-8"?>
<svg xmlns="http://www.w3.org/2000/svg" height="16" width="16" viewBox="0 0 16 16">
  <g>
    <path id="path1" transform="rotate(0,8,8) translate(1,0) scale(0.03125,0.03125)  " fill="#FFFFFF" d="M176,352L336,352 339.140625,352.296875 342.0625,353.1875 344.765625,354.671875 347.25,356.75 349.328125,359.234375 350.8125,361.9375 351.703125,364.859375 352,368 351.703125,371.140625 350.8125,374.0625 349.328125,376.765625 347.25,379.25 344.765625,381.328125 342.0625,382.8125 339.140625,383.703125 336,384 176,384 172.859375,383.703125 169.9375,382.8125 167.234375,381.328125 164.75,379.25 162.671875,376.765625 161.1875,374.0625 160.296875,371.140625 160,368 160.296875,364.859375 161.1875,361.9375 162.671875,359.234375 164.75,356.75 167.234375,354.671875 169.9375,353.1875 172.859375,352.296875 176,352z M176,256L336,256 339.140625,256.296875 342.0625,257.1875 344.765625,258.671875 347.25,260.75 349.328125,263.234375 350.8125,265.9375 351.703125,268.859375 352,272 351.703125,275.140625 350.8125,278.0625 349.328125,280.765625 347.25,283.25 344.765625,285.328125 342.0625,286.8125 339.140625,287.703125 336,288 176,288 172.859375,287.703125 169.9375,286.8125 167.234375,285.328125 164.75,283.25 162.671875,280.765625 161.1875,278.0625 160.296875,275.140625 160,272 160.296875,268.859375 161.1875,265.9375 162.671875,263.234375 164.75,260.75 167.234375,258.671875 169.9375,257.1875 172.859375,256.296875 176,256z M288,54.5L288,128 288.625,134.53125 290.5,140.625 293.4375,146.093765258789 297.25,150.75 301.90625,154.5625 307.375,157.5 313.46875,159.375 320,160 393.5,160 288,54.5z M128,32L121.5,32.6250267028809 115.5,34.5 110.09375,37.4687614440918 105.375,41.375 101.46875,46.0937652587891 98.5,51.5 96.625,57.5000038146973 96,64 96,448 96.625,454.53125 98.5,460.625 101.4375,466.09375 105.25,470.75 109.90625,474.5625 115.375,477.5 121.46875,479.375 128,480 384,480 390.499969482422,479.375 396.5,477.5 401.90625,474.53125 406.625,470.625 410.531219482422,465.90625 413.5,460.5 415.375,454.5 416,448 416,195.75 415.9375,193.5625 415.75,192 318.75,192 312.3515625,191.671875 306.15625,190.6875 300.1640625,189.046875 294.375,186.75 288.8671875,183.90625 283.71875,180.625 278.9296875,176.90625 274.5,172.75 270.46875,168.195327758789 266.875,163.28125 263.71875,158.0078125 261,152.375 258.8125,146.4921875 257.25,140.46875 256.3125,134.3046875 256,128 256,32.25 254.4375,32.0625267028809 252.25,32 128,32z M126.75,0L252.25,0 258.5625,0.3046875 264.75,1.21875 270.8125,2.7421875 276.75,4.875 282.453125,7.5703125 287.8125,10.78125 292.828125,14.5078125 297.5,18.75 429.25,150.5 433.4921875,155.171875 437.21875,160.1875 440.4296875,165.546890258789 443.125,171.25 445.2578125,177.1875 446.78125,183.25 447.6953125,189.4375 448,195.75 448,449.25 447.6796875,455.4296875 446.71875,461.46875 445.1171875,467.3671875 442.875,473.125 440.09375,478.640625 436.875,483.8125 433.21875,488.640625 429.125,493.125 424.640625,497.21875 419.8125,500.875 414.640625,504.09375 409.125,506.875 403.3671875,509.1171875 397.46875,510.71875 391.4296875,511.6796875 385.25,512 126.75,512 120.5703125,511.6796875 114.53125,510.71875 108.6328125,509.1171875 102.875,506.875 97.359375,504.09375 92.1875,500.875 87.359375,497.21875 82.875,493.125 78.78125,488.640625 75.125,483.8125 71.90625,478.640625 69.125,473.125 66.8828125,467.3671875 65.28125,461.46875 64.3203125,455.4296875 64,449.25 64,62.75 64.3203125,56.5703239440918 65.28125,50.5312614440918 66.8828125,44.6328201293945 69.125,38.875 71.90625,33.3593864440918 75.125,28.1875190734863 78.78125,23.3593902587891 82.875,18.875 87.359375,14.7812652587891 92.1875,11.1250190734863 97.359375,7.90626287460327 102.875,5.125 108.6328125,2.88281679153442 114.53125,1.28125381469727 120.5703125,0.320313930511475 126.75,0z" />
  </g>
</svg>

