<?xml version="1.0" encoding="utf-8"?>
<svg xmlns="http://www.w3.org/2000/svg" height="16" width="16" viewBox="0 0 16 16">
  <g>
    <path id="path1" transform="rotate(0,8,8) translate(0,0) scale(0.166666666666667,0.166666666666667)  " fill="#FFFFFF" d="M91.921875,42.234375L93.515625,42.5625 94.8046875,43.453125 95.671875,44.765625 96,46.359375 96,81 95.296875,84.46875 93.3515625,87.3515625 90.46875,89.296875 87,90 83.53125,89.296875 80.6484375,87.3515625 78.703125,84.46875 78,81 78.703125,77.53125 80.6484375,74.6484375 83.53125,72.703125 87,72 90,72.515625 90,57.65625 66,62.4375 66,87 65.296875,90.46875 63.3515625,93.3515625 60.46875,95.296875 57,96 53.53125,95.296875 50.6484375,93.3515625 48.703125,90.46875 48,87 48.703125,83.53125 50.6484375,80.6484375 53.53125,78.703125 57,78 60,78.515625 60,51.9375 60.2402305603027,50.5546875 60.9609375,49.3125 62.0331993103027,48.36328125 63.328125,47.859375 91.078125,42.328125 91.921875,42.234375z M12,12L9.65625,12.46875 7.7578125,13.7578125 6.46875,15.65625 6,18 6,24 36.28125,24 38.0390625,23.7421875 39.609375,22.96875 43.6875,20.25 39.28125,14.390625 37.171875,12.6328125 34.5,12 12,12z M11.765625,6L34.5,6 37.248046875,6.31640625 39.8671875,7.265625 42.205078125,8.77734375 44.109375,10.78125 49.5,18 84.234375,18 86.525390625,18.240234375 88.7109375,18.9609375 92.4609375,21.5390625 95.0390625,25.2890625 95.759765625,27.474609375 96,29.765625 96,34.5 90,36 90,30 89.53125,27.703125 88.21875,25.78125 86.296875,24.46875 84,24 48.9375,24 42.9375,27.984375 39.7734375,29.49609375 36.28125,30 6,30 6,78 6.46875,80.3671875 7.734375,82.265625 9.6328125,83.53125 12,84 40.78125,84 40.5,87 40.78125,90 11.765625,90 9.474609375,89.759765625 7.2890625,89.0390625 3.5390625,86.4609375 0.9609375,82.7109375 0.240234375,80.525390625 0,78.234375 0,17.765625 0.240234375,15.474609375 0.9609375,13.2890625 3.5390625,9.5390625 7.2890625,6.9609375 9.474609375,6.240234375 11.765625,6z" />
  </g>
</svg>

