<?xml version="1.0" encoding="utf-8"?>
<svg xmlns="http://www.w3.org/2000/svg" height="16" width="16" viewBox="0 0 16 16">
  <g>
    <path id="path1" transform="rotate(0,8,8) translate(0,0) scale(0.0333333333333333,0.0333333333333333)  " fill="#000000" d="M72,68.5L68.96875,69.0937576293945 66.375,70.875 64.59375,73.4687805175781 64,76.5 64,435.5 64.59375,438.6875 66.375,441.25 69.03125,442.9375 72.25,443.5 74.25,443.1875 76.25,442.25 348.75,262.75 350.28125,261.375 351.375,259.75 352.03125,257.9375 352.25,256 352.03125,254.062515258789 351.375,252.25 350.28125,250.625 348.75,249.25 76.5,69.75 74.375,68.875 72,68.5z M72.25,36.5000038146973L77.921875,36.9218940734863 83.4375,38.1875228881836 88.796875,40.2968902587891 94,43.2499961853027 366.25,222.5 370.265625,225.460952758789 373.8125,228.843765258789 376.890625,232.6484375 379.5,236.875 381.578125,241.398452758789 383.0625,246.093765258789 383.953125,250.960952758789 384.25,256 383.953125,261.0390625 383.0625,265.90625 381.578125,270.6015625 379.5,275.125 376.890625,279.3515625 373.8125,283.15625 370.265625,286.5390625 366.25,289.5 94,468.75 88.84375,471.625 83.375,473.75 77.65625,475.0625 71.75,475.5 67.6953125,475.296875 63.78125,474.6875 60.0078125,473.671875 56.3749961853027,472.25 49.65625,468.46875 43.75,463.625 38.84375,457.78125 35.125,451 33.7578125,447.3125 32.78125,443.5 32.1953125,439.5625 32,435.5 32,76.5 32.203125,72.4296875 32.8125,68.4687576293945 33.828125,64.6171951293945 35.25,60.875 39.03125,54.0000076293945 43.875,48.125 49.75,43.3125114440918 56.6250038146973,39.625 60.3671875,38.2578239440918 64.21875,37.2812690734863 68.1796875,36.6953315734863 72.25,36.5000038146973z M464,32L467.140625,32.2968940734863 470.0625,33.1875267028809 472.765625,34.6718978881836 475.25,36.75 477.328094482422,39.2343864440918 478.812469482422,41.9375152587891 479.703094482422,44.8593864440918 480,48 480,464 479.703094482422,467.140625 478.812469482422,470.0625 477.328094482422,472.765625 475.25,475.25 472.765625,477.328125 470.0625,478.8125 467.140625,479.703125 464,480 460.859344482422,479.703125 457.937469482422,478.8125 455.234344482422,477.328125 452.75,475.25 450.671875,472.765625 449.1875,470.0625 448.296875,467.140625 448,464 448,48 448.296875,44.8593864440918 449.1875,41.9375152587891 450.671875,39.2343864440918 452.75,36.75 455.234344482422,34.6718978881836 457.937469482422,33.1875267028809 460.859344482422,32.2968940734863 464,32z" />
  </g>
</svg>

