<?xml version="1.0" encoding="utf-8"?>
<svg xmlns="http://www.w3.org/2000/svg" height="16" width="16" viewBox="0 0 16 16">
  <g>
    <path id="path1" transform="rotate(0,8,8) translate(0,0) scale(0.0333333333333333,0.0333333333333333)  " fill="#FFFFFF" d="M368,64L364.859375,64.296875 361.9375,65.1875 359.234375,66.6718826293945 356.75,68.75 354.671875,71.2343902587891 353.1875,73.9375152587891 352.296875,76.8593902587891 352,80 352,432 352.296875,435.140625 353.1875,438.0625 354.671875,440.765625 356.75,443.25 359.234375,445.328125 361.9375,446.8125 364.859375,447.703125 368,448 432,448 435.140625,447.703125 438.0625,446.8125 440.765625,445.328125 443.25,443.25 445.328125,440.765625 446.8125,438.0625 447.703125,435.140625 448,432 448,80 447.703125,76.8593902587891 446.8125,73.9375152587891 445.328125,71.2343902587891 443.25,68.75 440.765625,66.6718826293945 438.0625,65.1875 435.140625,64.296875 432,64 368,64z M80,64L76.859375,64.296875 73.9375,65.1875 71.234375,66.6718826293945 68.75,68.75 66.671875,71.2343902587891 65.1875,73.9375152587891 64.296875,76.8593902587891 64,80 64,432 64.296875,435.140625 65.1875,438.0625 66.671875,440.765625 68.75,443.25 71.234375,445.328125 73.9375,446.8125 76.859375,447.703125 80,448 144,448 147.140625,447.703125 150.0625,446.8125 152.765625,445.328125 155.25,443.25 157.328125,440.765625 158.8125,438.0625 159.703125,435.140625 160,432 160,80 159.703125,76.8593902587891 158.8125,73.9375152587891 157.328125,71.2343902587891 155.25,68.75 152.765625,66.6718826293945 150.0625,65.1875 147.140625,64.296875 144,64 80,64z M368,32L432,32 436.812469482422,32.2343902587891 441.499969482422,32.9375228881836 446.062469482422,34.1093902587891 450.5,35.75 458.71875,40.2187767028809 465.875,46.1250038146973 471.781219482422,53.2812652587891 476.25,61.5 477.890594482422,65.9375228881836 479.062469482422,70.5000305175781 479.765594482422,75.1875152587891 480,80 480,432 479.765594482422,436.8125 479.062469482422,441.5 477.890594482422,446.0625 476.25,450.5 471.781219482422,458.71875 465.875,465.875 458.71875,471.78125 450.5,476.25 446.062469482422,477.890625 441.499969482422,479.0625 436.812469482422,479.765625 432,480 368,480 363.1875,479.765625 358.5,479.0625 353.9375,477.890625 349.5,476.25 341.28125,471.78125 334.125,465.875 328.21875,458.71875 323.75,450.5 322.109375,446.0625 320.9375,441.5 320.234375,436.8125 320,432 320,80 320.234375,75.1875152587891 320.9375,70.5000305175781 322.109375,65.9375228881836 323.75,61.5 328.21875,53.2812652587891 334.125,46.1250038146973 341.28125,40.2187767028809 349.5,35.75 353.9375,34.1093902587891 358.5,32.9375228881836 363.1875,32.2343902587891 368,32z M80,32L144,32 148.8125,32.2343902587891 153.5,32.9375228881836 158.0625,34.1093902587891 162.5,35.75 170.71875,40.2187767028809 177.875,46.1250038146973 183.78125,53.2812652587891 188.25,61.5 189.890625,65.9375228881836 191.0625,70.5000305175781 191.765625,75.1875152587891 192,80 192,432 191.765625,436.8125 191.0625,441.5 189.890625,446.0625 188.25,450.5 183.78125,458.71875 177.875,465.875 170.71875,471.78125 162.5,476.25 158.0625,477.890625 153.5,479.0625 148.8125,479.765625 144,480 80,480 75.1875,479.765625 70.5,479.0625 65.9375,477.890625 61.5,476.25 53.28125,471.78125 46.1250038146973,465.875 40.21875,458.71875 35.75,450.5 34.109375,446.0625 32.9375,441.5 32.234375,436.8125 32,432 32,80 32.234375,75.1875152587891 32.9375,70.5000305175781 34.109375,65.9375228881836 35.75,61.5 40.21875,53.2812652587891 46.1250038146973,46.1250038146973 53.28125,40.2187767028809 61.5,35.75 65.9375,34.1093902587891 70.5,32.9375228881836 75.1875,32.2343902587891 80,32z" />
  </g>
</svg>

