<?xml version="1.0" encoding="utf-8"?>
<svg xmlns="http://www.w3.org/2000/svg" height="16" width="16" viewBox="0 0 16 16">
  <g>
    <path id="path1" transform="rotate(0,8,8) translate(0.0539979231568015,0) scale(0.177223952924888,0.177223952924888)  " fill="#000000" d="M21,11.7187509536743L19.86328125,11.94140625 18.890625,12.609375 18.22265625,13.58203125 18,14.71875 18,81.28125 18.22265625,82.41796875 18.890625,83.390625 19.86328125,84.05859375 21,84.28125 22.453125,83.90625 82.125,50.625 83.25,49.5234375 83.671875,48 83.25,46.4765625 82.125,45.375 22.453125,12.09375 21,11.7187509536743z M21,5.71875L23.25,5.99999952316284 25.359375,6.84375 85.078125,40.125 87,41.5664100646973 88.453125,43.453125 89.3671875,45.6445350646973 89.671875,48 89.373046875,50.384765625 88.4765625,52.5703125 87.029296875,54.439453125 85.078125,55.875 25.40625,89.15625 23.296875,90 21.046875,90.28125 17.53125,89.578125 14.6484384536743,87.65625 12.703125,84.796875 12.0000009536743,81.28125 12.0000009536743,14.71875 12.703125,11.203125 14.6250009536743,8.34375 17.484375,6.42187547683716 21,5.71875z" />
  </g>
</svg>

