<?xml version="1.0" encoding="utf-8"?>
<svg xmlns="http://www.w3.org/2000/svg" height="16" width="16" viewBox="0 0 16 16">
  <g>
    <path id="path1" transform="rotate(0,8,8) translate(0,0) scale(0.0333333333333333,0.0333333333333333)  " fill="#000000" d="M440,68.5L437.75,68.875 435.5,70 163.25,249.25 161.71875,250.515625 160.625,252.0625 159.96875,253.890625 159.75,256 159.96875,257.9375 160.625,259.75 161.71875,261.375 163.25,262.75 435.5,442 437.999969482422,443.125 440.5,443.5 443.3125,442.875 445.75,441 447.4375,438.375 448,435.5 448,76.5 447.40625,73.4687805175781 445.625,70.875 443.031219482422,69.0937576293945 440,68.5z M440,36.5000038146973L443.953125,36.7031440734863 447.8125,37.3125267028809 451.578125,38.3281440734863 455.25,39.7499961853027 462.0625,43.5625114440918 468,48.4999961853027 472.9375,54.4375152587891 476.75,61.25 478.171844482422,64.9218826293945 479.187469482422,68.6875152587891 479.796844482422,72.5468826293945 480,76.5 480,435.5 479.796844482422,439.5625 479.187469482422,443.5 478.171844482422,447.3125 476.75,451 472.96875,457.78125 468.125,463.625 462.281219482422,468.46875 455.5,472.25 451.8125,473.671875 448,474.6875 444.0625,475.296875 440,475.5 434.125,475.078125 428.5,473.8125 423.125,471.703125 418,468.75 145.75,289.5 141.734375,286.5390625 138.1875,283.15625 135.109375,279.3515625 132.5,275.125 130.421875,270.6015625 128.9375,265.90625 128.046875,261.0390625 127.75,256 128.046875,250.968765258789 128.9375,246.125015258789 130.421875,241.46875 132.5,237 135.109375,232.812515258789 138.1875,229.000015258789 141.734375,225.5625 145.75,222.5 418,43.2499961853027 423.21875,40.2968902587891 428.624969482422,38.1875228881836 434.218719482422,36.9218940734863 440,36.5000038146973z M48,32L51.140625,32.2968940734863 54.0625,33.1875267028809 56.765625,34.6718978881836 59.2500038146973,36.75 61.328125,39.2343864440918 62.8125,41.9375152587891 63.703125,44.8593864440918 64,48 64,464 63.703125,467.140625 62.8125,470.0625 61.328125,472.765625 59.2500038146973,475.25 56.765625,477.328125 54.0625,478.8125 51.140625,479.703125 48,480 44.859375,479.703125 41.9375,478.8125 39.234375,477.328125 36.75,475.25 34.671875,472.765625 33.1875,470.0625 32.296875,467.140625 32,464 32,48 32.296875,44.8593864440918 33.1875,41.9375152587891 34.671875,39.2343864440918 36.75,36.75 39.234375,34.6718978881836 41.9375,33.1875267028809 44.859375,32.2968940734863 48,32z" />
  </g>
</svg>

