<?xml version="1.0" encoding="utf-8"?>
<svg xmlns="http://www.w3.org/2000/svg" height="16" width="16" viewBox="0 0 16 16">
  <g>
    <path id="path1" transform="rotate(0,8,8) translate(0,0) scale(0.03125,0.03125)  " fill="#000000" d="M16,320L144,320 147.140625,320.296875 150.0625,321.1875 152.765625,322.671875 155.25,324.75 157.328125,327.234375 158.8125,329.9375 159.703125,332.859375 160,336 159.703125,339.140625 158.8125,342.0625 157.328125,344.765625 155.25,347.25 152.765625,349.328125 150.0625,350.8125 147.140625,351.703125 144,352 50.25,352 57.609375,366.609375 65.9375,380.4375 75.234375,393.484375 85.5,405.75 96.5703125,417.171875 108.28125,427.6875 120.6328125,437.296875 133.625,446 147.203125,453.765625 161.3125,460.5625 175.953125,466.390625 191.125,471.25 206.679672241211,475.078125 222.468734741211,477.8125 238.4921875,479.453125 254.75,480 268.5625,479.5546875 282.25,478.21875 295.8125,475.9921875 309.25,472.875 322.4609375,468.9296875 335.34375,464.21875 347.8984375,458.7421875 360.125,452.5 371.9609375,445.53125 383.34375,437.875 394.2734375,429.53125 404.75,420.5 414.671844482422,410.84375 423.937469482422,400.625 432.546875,389.84375 440.5,378.5 449.5625,363.3125 457.25,347.25 460.375,339 463.75,330.75 466.562469482422,326.28125 469.5,322.875 471.203094482422,321.6171875 473.312469482422,320.71875 475.828125,320.1796875 478.75,320 482,320.2890625 485,321.15625 487.75,322.6015625 490.25,324.625 492.328094482422,327.0703125 493.812469482422,329.78125 494.703094482422,332.7578125 495,336 494.789031982422,338.3828125 494.156219482422,341.28125 493.101531982422,344.6953125 491.625,348.625 487.968719482422,357.15625 483.75,366 474.625,383.25 472.4296875,387.109375 470.46875,390.4375 468.7421875,393.234375 467.25,395.5 458.0234375,408.4375 448.09375,420.75 437.4609375,432.4375 426.125,443.5 414.195281982422,453.859375 401.781219482422,463.4375 388.882781982422,472.234375 375.5,480.25 361.6796875,487.4375 347.46875,493.75 332.8671875,499.1875 317.875,503.75 302.5703125,507.359375 287.03125,509.9375 271.2578125,511.484375 255.25,512 238.1171875,511.4765625 221.21875,509.90625 204.5546875,507.2890625 188.125,503.625 172.046875,498.953125 156.4375,493.3125 141.296875,486.703125 126.625,479.125 112.4765625,470.6015625 98.90625,461.15625 85.9140625,450.7890625 73.5,439.5 61.8125,427.34375 51,414.375 41.0625,400.59375 32,386 32,464 31.703125,467.140625 30.8125,470.0625 29.328125,472.765625 27.25,475.25 24.765625,477.328125 22.0625,478.8125 19.140625,479.703125 16,480 12.859375,479.703125 9.9375,478.8125 7.234375,477.328125 4.75,475.25 2.671875,472.765625 1.1875,470.0625 0.296875,467.140625 0,464 0,336 0.296875,332.859375 1.1875,329.9375 2.671875,327.234375 4.75,324.75 7.234375,322.671875 9.9375,321.1875 12.859375,320.296875 16,320z M253.25,0L270.765625,0.5625 288.0625,2.25 305.140625,5.0625 322,9 338.4921875,13.9921875 354.46875,19.96875 369.9296875,26.9296875 384.875,34.875 399.25,43.796875 413,53.6875038146973 426.125,64.5468826293945 438.625,76.375 450.3515625,89.0859527587891 461.15625,102.593772888184 471.0390625,116.898460388184 480,132 480,48 480.296844482422,44.8593864440918 481.187469482422,41.9375152587891 482.671875,39.2343864440918 484.75,36.75 487.234375,34.6718978881836 489.9375,33.1875267028809 492.859375,32.2968940734863 496,32 499.140625,32.2968940734863 502.0625,33.1875267028809 504.765625,34.6718978881836 507.25,36.75 509.328125,39.2343864440918 510.8125,41.9375152587891 511.703125,44.8593864440918 512,48 512,176 511.703125,179.140625 510.8125,182.0625 509.328125,184.765625 507.25,187.25 504.765625,189.328140258789 502.0625,190.8125 499.140625,191.703125 496,192 368,192 364.859375,191.703125 361.9375,190.8125 359.234375,189.328140258789 356.75,187.25 354.671875,184.765625 353.1875,182.0625 352.296875,179.140625 352,176 352.296875,172.859390258789 353.1875,169.937515258789 354.671875,167.234390258789 356.75,164.75 359.234375,162.671875 361.9375,161.1875 364.859375,160.296875 368,160 458.25,160 450.8984375,145.390625 442.59375,131.5625 433.3359375,118.515632629395 423.125,106.25 412.1015625,94.8281326293945 400.40625,84.3125076293945 388.0390625,74.703125 375,66 361.3671875,58.234375 347.21875,51.4375038146973 332.5546875,45.6093788146973 317.375,40.75 301.8203125,36.9218864440918 286.03125,34.1875190734863 270.0078125,32.5468902587891 253.75,32 239.9296875,32.4531402587891 226.21875,33.8125190734863 212.6171875,36.0781364440918 199.125,39.25 185.8671875,43.2500076293945 172.96875,48.0000114440918 160.4296875,53.5000114440918 148.25,59.75 136.46875,66.7187576293945 125.125,74.375 114.21875,82.71875 103.75,91.75 93.828125,101.390625 84.5625,111.562507629395 75.953125,122.265632629395 68,133.5 58.9375,148.6875 51.25,164.75 48.125,173 44.75,181.25 41.9375,185.71875 39,189.125 37.296875,190.382827758789 35.1875,191.28125 32.671875,191.8203125 29.75,192 26.609375,191.703125 23.6875,190.8125 20.984375,189.328140258789 18.5,187.25 16.421875,184.765625 14.9375,182.0625 14.046875,179.140625 13.75,176 14.5,170.75 21.796875,152.390625 30.4375,134.8125 40.421875,118.015632629395 51.75,102 64.21875,86.9062652587891 77.625,72.8750152587891 91.96875,59.9062614440918 107.25,48 123.3671875,37.2578315734863 140.21875,27.7812728881836 157.8046875,19.5703277587891 176.125,12.625 185.505859375,9.66601848602295 194.9609375,7.10156679153442 204.490234375,4.93164491653442 214.09375,3.15625381469727 223.771484375,1.77539324760437 233.5234375,0.789063930511475 243.349609375,0.197266042232513 253.25,0z" />
  </g>
</svg>

