<?xml version="1.0" encoding="utf-8"?>
<svg xmlns="http://www.w3.org/2000/svg" height="16" width="16" viewBox="0 0 16 16">
  <g>
    <path id="path1" transform="rotate(0,8,8) translate(0,1) scale(0.03125,0.03125)  " fill="#FFFFFF" d="M368,160L371.140625,160.296875 374.0625,161.1875 376.765625,162.671875 379.25,164.75 443.25,228.75 445.328125,231.234390258789 446.8125,233.937515258789 447.703125,236.859390258789 448,240 447.703125,243.140625 446.8125,246.0625 445.328125,248.765625 443.25,251.25 379.25,315.25 376.765625,317.328125 374.0625,318.8125 371.140625,319.703125 368,320 364.859375,319.703125 361.9375,318.8125 359.234375,317.328125 356.75,315.25 354.671875,312.765625 353.1875,310.0625 352.296875,307.140625 352,304 352.296875,300.859375 353.1875,297.9375 354.671875,295.234375 356.75,292.75 393.5,256 240,256 236.859375,255.703125 233.9375,254.8125 231.234375,253.328140258789 228.75,251.25 226.671875,248.765625 225.1875,246.0625 224.296875,243.140625 224,240 224.296875,236.859390258789 225.1875,233.937515258789 226.671875,231.234390258789 228.75,228.75 231.234375,226.671875 233.9375,225.1875 236.859375,224.296875 240,224 393.5,224 356.75,187.25 354.671875,184.765625 353.1875,182.0625 352.296875,179.140625 352,176 352.296875,172.859390258789 353.1875,169.937515258789 354.671875,167.234390258789 356.75,164.75 359.234375,162.671875 361.9375,161.1875 364.859375,160.296875 368,160z M192,96L192,416 448,416 454.5,415.375 460.5,413.5 465.90625,410.53125 470.625,406.625 474.53125,401.90625 477.5,396.5 479.374969482422,390.5 480,384 480,128 479.374969482422,121.656265258789 477.5,115.625 474.53125,110.125015258789 470.625,105.375 465.875,101.468772888184 460.375,98.5 454.34375,96.625 448,96 192,96z M64,96L57.5,96.625 51.5,98.5 46.09375,101.468772888184 41.375,105.375 37.46875,110.093765258789 34.5,115.5 32.625,121.500030517578 32,128 32,384 32.625,390.53125 34.5,396.625 37.4375,402.09375 41.25,406.75 45.90625,410.5625 51.375,413.5 57.46875,415.375 64,416 160,416 160,96 64,96z M62.75,64L449.25,64 455.4296875,64.3203125 461.46875,65.28125 467.3671875,66.8828201293945 473.125,69.125 478.640625,71.9062576293945 483.812469482422,75.1250076293945 488.640594482422,78.78125 493.125,82.875 497.218719482422,87.359375 500.874969482422,92.1875076293945 504.09375,97.3593826293945 506.875,102.875 509.1171875,108.632820129395 510.71875,114.531265258789 511.6796875,120.570320129395 512,126.75 512,385.25 511.6796875,391.4296875 510.71875,397.46875 509.1171875,403.3671875 506.875,409.125 504.09375,414.640625 500.874969482422,419.8125 497.218719482422,424.640625 493.125,429.125 488.640594482422,433.21875 483.812469482422,436.875 478.640625,440.09375 473.125,442.875 467.3671875,445.1171875 461.46875,446.71875 455.4296875,447.6796875 449.25,448 62.75,448 56.5703125,447.6796875 50.5312461853027,446.71875 44.6328086853027,445.1171875 38.875,442.875 33.359375,440.09375 28.1875,436.875 23.359375,433.21875 18.875,429.125 14.78125,424.640625 11.125,419.8125 7.90624952316284,414.640625 5.125,409.125 2.8828125,403.3671875 1.28125,397.46875 0.3203125,391.4296875 0,385.25 0,126.75 0.3203125,120.570320129395 1.28125,114.531265258789 2.8828125,108.632820129395 5.125,102.875 7.90624952316284,97.3593826293945 11.125,92.1875076293945 14.78125,87.359375 18.875,82.875 23.359375,78.78125 28.1875,75.1250076293945 33.359375,71.9062576293945 38.875,69.125 44.6328086853027,66.8828201293945 50.5312461853027,65.28125 56.5703125,64.3203125 62.75,64z" />
  </g>
</svg>

