<?xml version="1.0" encoding="utf-8"?>
<svg xmlns="http://www.w3.org/2000/svg" height="16" width="16" viewBox="0 0 16 16">
  <g>
    <path id="path1" transform="rotate(0,8,8) translate(0,0) scale(0.0333333333333333,0.0333333333333333)  " fill="#FFFFFF" d="M240,224L236.859375,224.296875 233.9375,225.1875 231.234375,226.671875 228.75,228.75 226.671875,231.234390258789 225.1875,233.937515258789 224.296875,236.859390258789 224,240 224.296875,243.140625 225.1875,246.0625 226.671875,248.765625 228.75,251.25 231.234375,253.328140258789 233.9375,254.8125 236.859375,255.703125 240,256 243.140625,255.703125 246.0625,254.8125 248.765625,253.328140258789 251.25,251.25 253.328125,248.765625 254.8125,246.0625 255.703125,243.140625 256,240 255.703125,236.859390258789 254.8125,233.937515258789 253.328125,231.234390258789 251.25,228.75 248.765625,226.671875 246.0625,225.1875 243.140625,224.296875 240,224z M400,168L403.6328125,176.5703125 406.78125,185.281265258789 409.4453125,194.132827758789 411.625,203.125 413.3203125,212.2265625 414.531219482422,221.40625 415.257781982422,230.6640625 415.5,240 415.294921875,248.708984375 414.679656982422,257.3359375 413.654266357422,265.880859375 412.218719482422,274.34375 410.373016357422,282.724609375 408.117156982422,291.0234375 405.451171875,299.240234375 402.375,307.375 395.085906982422,323.0859375 386.343719482422,337.84375 376.148406982422,351.6484375 364.5,364.5 341.75,341.75 351.296875,331.265625 359.6875,320.0625 366.921875,308.140625 373,295.5 377.8125,282.328125 381.25,268.8125 383.3125,254.953140258789 384,240.75 383.796875,233.03515625 383.1875,225.390625 382.171875,217.816421508789 380.75,210.312515258789 378.921875,202.878921508789 376.6875,195.515640258789 374.046875,188.22265625 371,181 400,168z M352.75,104.75L375.25,127.25 283.25,219.25 283,219 285.1875,224.062515258789 286.75,229.250015258789 287.6875,234.562515258789 288,240 287.765625,244.921890258789 287.0625,249.687515258789 285.890625,254.296890258789 284.25,258.75 279.8125,266.9375 274,274 266.9375,279.8125 258.75,284.25 254.296875,285.890625 249.6875,287.0625 244.921875,287.765625 240,288 235.078125,287.765625 230.3125,287.0625 225.703125,285.890625 221.25,284.25 213.0625,279.8125 206,274 200.187484741211,266.9375 195.75,258.75 194.109375,254.296890258789 192.9375,249.687515258789 192.234375,244.921890258789 192,240 192.234375,235.078125 192.9375,230.3125 194.109375,225.703125 195.75,221.25 200.187484741211,213.062515258789 206,206 213.0625,200.1875 221.25,195.75 225.703125,194.109375 230.3125,192.9375 235.078125,192.234375 240,192 245.4375,192.3125 250.75,193.25 255.9375,194.812515258789 261,197 260.75,196.75 352.75,104.75z M240,64.5L249.335922241211,64.7421875 258.59375,65.4687576293945 267.7734375,66.6796951293945 276.875,68.375 285.8671875,70.5546951293945 294.71875,73.2187576293945 303.4296875,76.3671951293945 312,80 299,109 291.77734375,105.953125 284.484375,103.312507629395 277.12109375,101.078132629395 269.6875,99.25 262.18359375,97.828125 254.609375,96.8125 246.96484375,96.203125 239.25,96 229.46875,96.3203125 219.875,97.28125 210.46875,98.8828201293945 201.25,101.125 192.265625,103.960952758789 183.5625,107.343765258789 175.140625,111.273452758789 167,115.75 159.1875,120.726570129395 151.75,126.15625 144.6875,132.0390625 138,138.375 131.7265625,145.1171875 125.90625,152.21875 120.5390625,159.6796875 115.625,167.5 111.203125,175.648452758789 107.3125,184.09375 103.953125,192.8359375 101.125,201.875 98.8828125,211.1484375 97.28125,220.59375 96.3203125,230.2109375 96,240 96.6875,254.226577758789 98.75,268.15625 102.1875,281.7890625 107,295.125 113.078125,307.9296875 120.3125,319.96875 128.703125,331.2421875 138.25,341.75 115.5,364.5 103.734375,351.5546875 93.4375,337.71875 84.609375,322.9921875 77.25,307.375 74.14453125,299.294921875 71.453125,291.1171875 69.17578125,282.841796875 67.3125,274.46875 65.86328125,265.998046875 64.828125,257.4296875 64.20703125,248.763671875 64,240 64.390625,227.984375 65.5625,216.1875 67.515625,204.609375 70.25,193.25 73.703125,182.1875 77.8125,171.5 82.578125,161.1875 88,151.25 94.03125,141.71875 100.625,132.625 107.78125,123.968757629395 115.5,115.75 123.71875,108.039070129395 132.375,100.906257629395 141.46875,94.3515701293945 151,88.375 160.9375,83.0078277587891 171.25,78.2812652587891 181.9375,74.1953277587891 193,70.75 204.375,68.0156326293945 216,66.0625 227.875,64.890625 240,64.5z M240,31.9999980926514L225.765625,32.4687652587891 211.8125,33.8750228881836 198.140625,36.2187652587891 184.75,39.5 171.7109375,43.6250152587891 159.09375,48.5000228881836 146.8984375,54.1250152587891 135.125,60.5 123.8203125,67.5937652587891 113.03125,75.3750305175781 102.7578125,83.8437728881836 93,93 83.84375,102.757820129395 75.375,113.031265258789 67.59375,123.820320129395 60.5,135.125 54.125,146.898452758789 48.5,159.093765258789 43.625,171.7109375 39.5,184.75 36.21875,198.140640258789 33.875,211.812515258789 32.46875,225.765625 31.9999980926514,240 32.46875,254.234390258789 33.875,268.1875 36.21875,281.859375 39.5,295.25 43.625,308.2890625 48.5,320.90625 54.125,333.1015625 60.5,344.875 67.59375,356.1796875 75.375,366.96875 83.84375,377.2421875 93,387 102.7578125,396.15625 113.03125,404.625 123.8203125,412.40625 135.125,419.5 146.8984375,425.875 159.09375,431.5 171.7109375,436.375 184.75,440.5 198.140625,443.78125 211.8125,446.125 225.765625,447.53125 240,448 254.234375,447.53125 268.1875,446.125 281.859375,443.78125 295.25,440.5 308.2890625,436.375 320.90625,431.5 333.1015625,425.875 344.875,419.5 356.1796875,412.40625 366.96875,404.625 377.2421875,396.15625 387,387 396.15625,377.2421875 404.625,366.96875 412.40625,356.1796875 419.5,344.875 425.875,333.1015625 431.5,320.90625 436.375,308.2890625 440.5,295.25 443.78125,281.859375 446.125,268.1875 447.53125,254.234390258789 448,240 447.53125,225.765625 446.125,211.812515258789 443.78125,198.140640258789 440.5,184.75 436.375,171.7109375 431.5,159.093765258789 425.875,146.898452758789 419.5,135.125 412.40625,123.820320129395 404.625,113.031265258789 396.15625,102.757820129395 387,93 377.2421875,83.8437728881836 366.96875,75.3750305175781 356.1796875,67.5937652587891 344.875,60.5 333.1015625,54.1250152587891 320.90625,48.5000228881836 308.2890625,43.6250152587891 295.25,39.5 281.859375,36.2187652587891 268.1875,33.8750228881836 254.234375,32.4687652587891 240,31.9999980926514z M240,0L256.3515625,0.539062440395355 272.40625,2.15624952316284 288.1640625,4.85156106948853 303.625,8.62499713897705 318.6953125,13.375 333.28125,19.0000038146973 347.3828125,25.5000038146973 361,32.875 374.0703125,41.0781364440918 386.531219482422,50.0625152587891 398.382781982422,59.8281364440918 409.625,70.375 420.171875,81.6171951293945 429.9375,93.4687652587891 438.921875,105.929695129395 447.125,119 454.499969482422,132.6171875 460.999969482422,146.71875 466.624969482422,161.3046875 471.375,176.375 475.148406982422,191.835952758789 477.843719482422,207.59375 479.460906982422,223.6484375 480,240 479.460906982422,256.3515625 477.843719482422,272.40625 475.148406982422,288.1640625 471.375,303.625 466.624969482422,318.6953125 460.999969482422,333.28125 454.499969482422,347.3828125 447.125,361 438.921875,374.0703125 429.9375,386.53125 420.171875,398.3828125 409.625,409.625 398.382781982422,420.171875 386.531219482422,429.9375 374.0703125,438.921875 361,447.125 347.3828125,454.5 333.28125,461 318.6953125,466.625 303.625,471.375 288.1640625,475.1484375 272.40625,477.84375 256.3515625,479.4609375 240,480 223.648422241211,479.4609375 207.593734741211,477.84375 191.8359375,475.1484375 176.375,471.375 161.3046875,466.625 146.71875,461 132.6171875,454.5 119,447.125 105.9296875,438.921875 93.46875,429.9375 81.6171875,420.171875 70.375,409.625 59.828125,398.3828125 50.0625,386.53125 41.078125,374.0703125 32.875,361 25.5,347.3828125 18.9999980926514,333.28125 13.3749980926514,318.6953125 8.62499713897705,303.625 4.85156106948853,288.1640625 2.15624952316284,272.40625 0.539062440395355,256.3515625 0,240 0.539062440395355,223.6484375 2.15624952316284,207.59375 4.85156106948853,191.835952758789 8.62499713897705,176.375 13.3749980926514,161.3046875 18.9999980926514,146.71875 25.5,132.6171875 32.875,119 41.078125,105.929695129395 50.0625,93.4687652587891 59.828125,81.6171951293945 70.375,70.375 81.6171875,59.8281364440918 93.46875,50.0625152587891 105.9296875,41.0781364440918 119,32.875 132.6171875,25.5000038146973 146.71875,19.0000038146973 161.3046875,13.375 176.375,8.62499713897705 191.8359375,4.85156106948853 207.593734741211,2.15624952316284 223.648422241211,0.539062440395355 240,0z" />
  </g>
</svg>

