<?xml version="1.0" encoding="utf-8"?>
<svg xmlns="http://www.w3.org/2000/svg" height="16" width="16" viewBox="0 0 16 16">
  <g>
    <path id="path1" transform="rotate(0,8,8) translate(0,0) scale(0.0333333333333333,0.0333333333333333)  " fill="#000000" d="M240,224L236.859375,224.296875 233.9375,225.1875 231.234375,226.671875 228.75,228.75 226.671875,231.234390258789 225.1875,233.937515258789 224.296875,236.859390258789 224,240 224.296875,243.140625 225.1875,246.0625 226.671875,248.765625 228.75,251.25 231.234375,253.328140258789 233.9375,254.8125 236.859375,255.703125 240,256 243.140625,255.703125 246.0625,254.8125 248.765625,253.328140258789 251.25,251.25 253.328125,248.765625 254.8125,246.0625 255.703125,243.140625 256,240 255.703125,236.859390258789 254.8125,233.937515258789 253.328125,231.234390258789 251.25,228.75 248.765625,226.671875 246.0625,225.1875 243.140625,224.296875 240,224z M240,192L244.921875,192.234375 249.6875,192.9375 254.296875,194.109375 258.75,195.75 266.9375,200.1875 274,206 279.8125,213.062515258789 284.25,221.25 285.890625,225.703125 287.0625,230.3125 287.765625,235.078125 288,240 287.765625,244.921890258789 287.0625,249.687515258789 285.890625,254.296890258789 284.25,258.75 279.8125,266.9375 274,274 266.9375,279.8125 258.75,284.25 254.296875,285.890625 249.6875,287.0625 244.921875,287.765625 240,288 234.5625,287.6875 229.25,286.75 224.0625,285.1875 219,283 219.25,283.25 127.25,375.25 104.75,352.75 196.75,260.75 197,261 194.8125,255.9375 193.25,250.75 192.3125,245.4375 192,240 192.234375,235.078125 192.9375,230.3125 194.109375,225.703125 195.75,221.25 200.187484741211,213.062515258789 206,206 213.0625,200.1875 221.25,195.75 225.703125,194.109375 230.3125,192.9375 235.078125,192.234375 240,192z M240,64.25L252.015625,64.6406402587891 263.8125,65.8125305175781 275.390625,67.7656478881836 286.75,70.5 297.8203125,73.9453277587891 308.53125,78.0312652587891 318.8828125,82.7578277587891 328.875,88.125 338.4609375,94.1015853881836 347.59375,100.656280517578 356.2734375,107.789085388184 364.5,115.5 372.2109375,123.726577758789 379.34375,132.406265258789 385.8984375,141.539077758789 391.875,151.125 397.2421875,161.1171875 401.96875,171.46875 406.0546875,182.1796875 409.5,193.25 412.234375,204.609375 414.1875,216.1875 415.359375,227.984375 415.75,240 415.544921875,248.763671875 414.9296875,257.4296875 413.904296875,265.998046875 412.46875,274.46875 410.623046875,282.841796875 408.3671875,291.1171875 405.701171875,299.294921875 402.625,307.375 395.3203125,322.9921875 386.53125,337.71875 376.2578125,351.5546875 364.5,364.5 341.75,341.75 351.296875,331.2421875 359.6875,319.96875 366.921875,307.9296875 373,295.125 377.8125,281.7890625 381.25,268.15625 383.3125,254.226577758789 384,240 383.2890625,225.343765258789 381.15625,211.125 377.6015625,197.34375 372.625,184 366.4296875,171.296875 359.21875,159.4375 350.9921875,148.421875 341.75,138.25 331.578125,129.0078125 320.5625,120.78125 308.703125,113.570320129395 296,107.375 282.65625,102.398445129395 268.875,98.8437576293945 254.656234741211,96.7109375 240,96 230.21875,96.3203125 220.625,97.28125 211.21875,98.8828201293945 202,101.125 193.015625,103.945327758789 184.3125,107.281272888184 175.890625,111.132835388184 167.75,115.5 159.9296875,120.367195129395 152.46875,125.718757629395 145.3671875,131.5546875 138.625,137.875 132.296875,144.609375 126.4375,151.6875 121.046875,159.109390258789 116.125,166.875 111.703125,174.96875 107.8125,183.375 104.453125,192.09375 101.625,201.125 99.3828125,210.3984375 97.78125,219.84375 96.8203125,229.4609375 96.5,239.25 96.7421875,247.593765258789 97.46875,255.875015258789 98.6796875,264.09375 100.375,272.25 102.5234375,280.296875 105.093742370605,288.1875 108.085929870605,295.921875 111.5,303.5 83,317.75 78.765625,308.5234375 75.0625,299.09375 71.890625,289.4609375 69.25,279.625 67.171875,269.6484375 65.6875,259.59375 64.796875,249.460952758789 64.5,239.25 64.71484375,230.197265625 65.359375,221.289077758789 66.43359375,212.525405883789 67.9375,203.90625 69.87109375,195.431640625 72.234375,187.1015625 75.02734375,178.916015625 78.25,170.875 85.7578125,155.4453125 94.53125,141.03125 104.5703125,127.632820129395 115.875,115.25 128.3125,104.007820129395 141.75,94.0312652587891 156.1875,85.3203201293945 171.625,77.875 179.666015625,74.6816482543945 187.8515625,71.9140777587891 196.181640625,69.5722808837891 204.65625,67.6562652587891 213.275390625,66.1660308837891 222.0390625,65.1015777587891 230.947265625,64.4628982543945 240,64.25z M240,31.9999980926514L225.765625,32.4687652587891 211.8125,33.8750228881836 198.140625,36.2187652587891 184.75,39.5 171.7109375,43.6250152587891 159.09375,48.5000228881836 146.8984375,54.1250152587891 135.125,60.5 123.8203125,67.5937652587891 113.03125,75.3750305175781 102.7578125,83.8437728881836 93,93 83.84375,102.757820129395 75.375,113.031265258789 67.59375,123.820320129395 60.5,135.125 54.125,146.898452758789 48.5,159.093765258789 43.625,171.7109375 39.5,184.75 36.21875,198.140640258789 33.875,211.812515258789 32.46875,225.765625 31.9999980926514,240 32.46875,254.234390258789 33.875,268.1875 36.21875,281.859375 39.5,295.25 43.625,308.2890625 48.5,320.90625 54.125,333.1015625 60.5,344.875 67.59375,356.1796875 75.375,366.96875 83.84375,377.2421875 93,387 102.7578125,396.15625 113.03125,404.625 123.8203125,412.40625 135.125,419.5 146.8984375,425.875 159.09375,431.5 171.7109375,436.375 184.75,440.5 198.140625,443.78125 211.8125,446.125 225.765625,447.53125 240,448 254.234375,447.53125 268.1875,446.125 281.859375,443.78125 295.25,440.5 308.2890625,436.375 320.90625,431.5 333.1015625,425.875 344.875,419.5 356.1796875,412.40625 366.96875,404.625 377.2421875,396.15625 387,387 396.15625,377.2421875 404.625,366.96875 412.40625,356.1796875 419.5,344.875 425.875,333.1015625 431.5,320.90625 436.375,308.2890625 440.5,295.25 443.78125,281.859375 446.125,268.1875 447.53125,254.234390258789 448,240 447.53125,225.765625 446.125,211.812515258789 443.78125,198.140640258789 440.5,184.75 436.375,171.7109375 431.5,159.093765258789 425.875,146.898452758789 419.5,135.125 412.40625,123.820320129395 404.625,113.031265258789 396.15625,102.757820129395 387,93 377.2421875,83.8437728881836 366.96875,75.3750305175781 356.1796875,67.5937652587891 344.875,60.5 333.1015625,54.1250152587891 320.90625,48.5000228881836 308.2890625,43.6250152587891 295.25,39.5 281.859375,36.2187652587891 268.1875,33.8750228881836 254.234375,32.4687652587891 240,31.9999980926514z M240,0L256.3515625,0.539062440395355 272.40625,2.15624952316284 288.1640625,4.85156106948853 303.625,8.62499713897705 318.6953125,13.375 333.28125,19.0000038146973 347.3828125,25.5000038146973 361,32.875 374.0703125,41.0781364440918 386.531219482422,50.0625152587891 398.382781982422,59.8281364440918 409.625,70.375 420.171875,81.6171951293945 429.9375,93.4687652587891 438.921875,105.929695129395 447.125,119 454.499969482422,132.6171875 460.999969482422,146.71875 466.624969482422,161.3046875 471.375,176.375 475.148406982422,191.835952758789 477.843719482422,207.59375 479.460906982422,223.6484375 480,240 479.460906982422,256.3515625 477.843719482422,272.40625 475.148406982422,288.1640625 471.375,303.625 466.624969482422,318.6953125 460.999969482422,333.28125 454.499969482422,347.3828125 447.125,361 438.921875,374.0703125 429.9375,386.53125 420.171875,398.3828125 409.625,409.625 398.382781982422,420.171875 386.531219482422,429.9375 374.0703125,438.921875 361,447.125 347.3828125,454.5 333.28125,461 318.6953125,466.625 303.625,471.375 288.1640625,475.1484375 272.40625,477.84375 256.3515625,479.4609375 240,480 223.648422241211,479.4609375 207.593734741211,477.84375 191.8359375,475.1484375 176.375,471.375 161.3046875,466.625 146.71875,461 132.6171875,454.5 119,447.125 105.9296875,438.921875 93.46875,429.9375 81.6171875,420.171875 70.375,409.625 59.828125,398.3828125 50.0625,386.53125 41.078125,374.0703125 32.875,361 25.5,347.3828125 18.9999980926514,333.28125 13.3749980926514,318.6953125 8.62499713897705,303.625 4.85156106948853,288.1640625 2.15624952316284,272.40625 0.539062440395355,256.3515625 0,240 0.539062440395355,223.6484375 2.15624952316284,207.59375 4.85156106948853,191.835952758789 8.62499713897705,176.375 13.3749980926514,161.3046875 18.9999980926514,146.71875 25.5,132.6171875 32.875,119 41.078125,105.929695129395 50.0625,93.4687652587891 59.828125,81.6171951293945 70.375,70.375 81.6171875,59.8281364440918 93.46875,50.0625152587891 105.9296875,41.0781364440918 119,32.875 132.6171875,25.5000038146973 146.71875,19.0000038146973 161.3046875,13.375 176.375,8.62499713897705 191.8359375,4.85156106948853 207.593734741211,2.15624952316284 223.648422241211,0.539062440395355 240,0z" />
  </g>
</svg>

