<?xml version="1.0" encoding="utf-8"?>
<svg xmlns="http://www.w3.org/2000/svg" height="16" width="16" viewBox="0 0 16 16">
  <g>
    <path id="path1" transform="rotate(0,8,8) translate(0,0) scale(0.0333333333333333,0.0333333333333333)  " fill="#FFFFFF" d="M240,224L236.859375,224.296875 233.9375,225.1875 231.234375,226.671875 228.75,228.75 226.671875,231.234390258789 225.1875,233.937515258789 224.296875,236.859390258789 224,240 224.296875,243.140625 225.1875,246.0625 226.671875,248.765625 228.75,251.25 231.234375,253.328140258789 233.9375,254.8125 236.859375,255.703125 240,256 243.140625,255.703125 246.0625,254.8125 248.765625,253.328140258789 251.25,251.25 253.328125,248.765625 254.8125,246.0625 255.703125,243.140625 256,240 255.703125,236.859390258789 254.8125,233.937515258789 253.328125,231.234390258789 251.25,228.75 248.765625,226.671875 246.0625,225.1875 243.140625,224.296875 240,224z M301.5,75.5L314.1953125,80.7968902587891 326.28125,86.9375228881836 337.7578125,93.9218902587891 348.625,101.75 358.796875,110.312515258789 368.1875,119.500015258789 376.796875,129.312515258789 384.625,139.75 391.640625,150.75 397.8125,162.25 403.140625,174.25 407.625,186.75 411.1796875,199.640625 413.71875,212.8125 415.2421875,226.265625 415.75,240 415.544921875,248.763671875 414.9296875,257.4296875 413.904296875,265.998046875 412.46875,274.46875 410.623046875,282.841796875 408.3671875,291.1171875 405.701171875,299.294921875 402.625,307.375 395.3203125,322.9921875 386.53125,337.71875 376.2578125,351.5546875 364.5,364.5 341.75,341.75 351.296875,331.2421875 359.6875,319.96875 366.921875,307.9296875 373,295.125 377.8125,281.7890625 381.25,268.15625 383.3125,254.226577758789 384,240 383.578125,228.8515625 382.3125,217.90625 380.203125,207.164077758789 377.25,196.625 373.53125,186.390625 369.125,176.5625 364.03125,167.140625 358.25,158.125 351.8125,149.5625 344.75,141.5 337.0625,133.9375 328.75,126.875 319.890625,120.429702758789 310.5625,114.718765258789 300.765625,109.742202758789 290.5,105.5 301.5,75.5z M178.5,75.5L189.5,105.5 179.234375,109.742202758789 169.4375,114.718765258789 160.109375,120.429702758789 151.25,126.875 142.9375,133.9375 135.25,141.5 128.1875,149.5625 121.75,158.125 115.96875,167.140625 110.874992370605,176.5625 106.468742370605,186.390625 102.75,196.625 99.796875,207.164077758789 97.6875,217.90625 96.421875,228.8515625 96,240 96.6875,254.226577758789 98.75,268.15625 102.1875,281.7890625 107,295.125 113.078125,307.9296875 120.3125,319.96875 128.703125,331.2421875 138.25,341.75 115.5,364.5 103.734375,351.5546875 93.4375,337.71875 84.609375,322.9921875 77.25,307.375 74.14453125,299.294921875 71.453125,291.1171875 69.17578125,282.841796875 67.3125,274.46875 65.86328125,265.998046875 64.828125,257.4296875 64.20703125,248.763671875 64,240 64.5078125,226.265625 66.03125,212.8125 68.5703125,199.640625 72.125,186.75 76.6171875,174.25 81.96875,162.25 88.1796875,150.75 95.25,139.75 103.132804870605,129.312515258789 111.781242370605,119.500015258789 121.195304870605,110.312515258789 131.375,101.75 142.2421875,93.9218902587891 153.71875,86.9375228881836 165.8046875,80.7968902587891 178.5,75.5z M224,64.75L256,64.75 256,194.75 255.5,194.75 262.4375,197.75 268.75,201.75 274.3125,206.625 279,212.25 282.78125,218.5 285.625,225.25 287.40625,232.437515258789 288,240 287.765625,244.921890258789 287.0625,249.687515258789 285.890625,254.296890258789 284.25,258.75 279.8125,266.9375 274,274 266.9375,279.8125 258.75,284.25 254.296875,285.890625 249.6875,287.0625 244.921875,287.765625 240,288 235.078125,287.765625 230.3125,287.0625 225.703125,285.890625 221.25,284.25 213.0625,279.8125 206,274 200.187484741211,266.9375 195.75,258.75 194.109375,254.296890258789 192.9375,249.687515258789 192.234375,244.921890258789 192,240 192.59375,232.437515258789 194.375,225.25 197.21875,218.5 201,212.25 205.6875,206.625 211.25,201.75 217.5625,197.75 224.5,194.75 224,194.75 224,64.75z M240,31.9999980926514L225.765625,32.4687652587891 211.8125,33.8750228881836 198.140625,36.2187652587891 184.75,39.5 171.7109375,43.6250152587891 159.09375,48.5000228881836 146.8984375,54.1250152587891 135.125,60.5 123.8203125,67.5937652587891 113.03125,75.3750305175781 102.7578125,83.8437728881836 93,93 83.84375,102.757820129395 75.375,113.031265258789 67.59375,123.820320129395 60.5,135.125 54.125,146.898452758789 48.5,159.093765258789 43.625,171.7109375 39.5,184.75 36.21875,198.140640258789 33.875,211.812515258789 32.46875,225.765625 31.9999980926514,240 32.46875,254.234390258789 33.875,268.1875 36.21875,281.859375 39.5,295.25 43.625,308.2890625 48.5,320.90625 54.125,333.1015625 60.5,344.875 67.59375,356.1796875 75.375,366.96875 83.84375,377.2421875 93,387 102.7578125,396.15625 113.03125,404.625 123.8203125,412.40625 135.125,419.5 146.8984375,425.875 159.09375,431.5 171.7109375,436.375 184.75,440.5 198.140625,443.78125 211.8125,446.125 225.765625,447.53125 240,448 254.234375,447.53125 268.1875,446.125 281.859375,443.78125 295.25,440.5 308.2890625,436.375 320.90625,431.5 333.1015625,425.875 344.875,419.5 356.1796875,412.40625 366.96875,404.625 377.2421875,396.15625 387,387 396.15625,377.2421875 404.625,366.96875 412.40625,356.1796875 419.5,344.875 425.875,333.1015625 431.5,320.90625 436.375,308.2890625 440.5,295.25 443.78125,281.859375 446.125,268.1875 447.53125,254.234390258789 448,240 447.53125,225.765625 446.125,211.812515258789 443.78125,198.140640258789 440.5,184.75 436.375,171.7109375 431.5,159.093765258789 425.875,146.898452758789 419.5,135.125 412.40625,123.820320129395 404.625,113.031265258789 396.15625,102.757820129395 387,93 377.2421875,83.8437728881836 366.96875,75.3750305175781 356.1796875,67.5937652587891 344.875,60.5 333.1015625,54.1250152587891 320.90625,48.5000228881836 308.2890625,43.6250152587891 295.25,39.5 281.859375,36.2187652587891 268.1875,33.8750228881836 254.234375,32.4687652587891 240,31.9999980926514z M240,0L256.3515625,0.539062440395355 272.40625,2.15624952316284 288.1640625,4.85156106948853 303.625,8.62499713897705 318.6953125,13.375 333.28125,19.0000038146973 347.3828125,25.5000038146973 361,32.875 374.0703125,41.0781364440918 386.531219482422,50.0625152587891 398.382781982422,59.8281364440918 409.625,70.375 420.171875,81.6171951293945 429.9375,93.4687652587891 438.921875,105.929695129395 447.125,119 454.499969482422,132.6171875 460.999969482422,146.71875 466.624969482422,161.3046875 471.375,176.375 475.148406982422,191.835952758789 477.843719482422,207.59375 479.460906982422,223.6484375 480,240 479.460906982422,256.3515625 477.843719482422,272.40625 475.148406982422,288.1640625 471.375,303.625 466.624969482422,318.6953125 460.999969482422,333.28125 454.499969482422,347.3828125 447.125,361 438.921875,374.0703125 429.9375,386.53125 420.171875,398.3828125 409.625,409.625 398.382781982422,420.171875 386.531219482422,429.9375 374.0703125,438.921875 361,447.125 347.3828125,454.5 333.28125,461 318.6953125,466.625 303.625,471.375 288.1640625,475.1484375 272.40625,477.84375 256.3515625,479.4609375 240,480 223.648422241211,479.4609375 207.593734741211,477.84375 191.8359375,475.1484375 176.375,471.375 161.3046875,466.625 146.71875,461 132.6171875,454.5 119,447.125 105.9296875,438.921875 93.46875,429.9375 81.6171875,420.171875 70.375,409.625 59.828125,398.3828125 50.0625,386.53125 41.078125,374.0703125 32.875,361 25.5,347.3828125 18.9999980926514,333.28125 13.3749980926514,318.6953125 8.62499713897705,303.625 4.85156106948853,288.1640625 2.15624952316284,272.40625 0.539062440395355,256.3515625 0,240 0.539062440395355,223.6484375 2.15624952316284,207.59375 4.85156106948853,191.835952758789 8.62499713897705,176.375 13.3749980926514,161.3046875 18.9999980926514,146.71875 25.5,132.6171875 32.875,119 41.078125,105.929695129395 50.0625,93.4687652587891 59.828125,81.6171951293945 70.375,70.375 81.6171875,59.8281364440918 93.46875,50.0625152587891 105.9296875,41.0781364440918 119,32.875 132.6171875,25.5000038146973 146.71875,19.0000038146973 161.3046875,13.375 176.375,8.62499713897705 191.8359375,4.85156106948853 207.593734741211,2.15624952316284 223.648422241211,0.539062440395355 240,0z" />
  </g>
</svg>

