<?xml version="1.0" encoding="utf-8"?>
<svg xmlns="http://www.w3.org/2000/svg" height="16" width="16" viewBox="0 0 16 16">
  <g>
    <path id="path1" transform="rotate(0,8,8) translate(1,0) scale(0.03125,0.03125)  " fill="#000000" d="M256,320L262.34375,320.625 268.375,322.5 273.875,325.46875 278.625,329.375 282.53125,334.125 285.5,339.625 287.375,345.65625 288,352 287.375,358.5 285.5,364.5 282.53125,369.90625 278.625,374.625 273.90625,378.53125 268.5,381.5 262.5,383.375 256,384 249.46875,383.375 243.375,381.5 237.90625,378.5625 233.25,374.75 229.4375,370.09375 226.5,364.625 224.625,358.53125 224,352 224.625,345.5 226.5,339.5 229.46875,334.09375 233.375,329.375 238.09375,325.46875 243.5,322.5 249.5,320.625 256,320z M128,224L121.5,224.625 115.5,226.5 110.09375,229.468765258789 105.375,233.375 101.46875,238.093765258789 98.5,243.5 96.625,249.5 96,256 96,448 96.625,454.53125 98.5,460.625 101.4375,466.09375 105.25,470.75 109.90625,474.5625 115.375,477.5 121.46875,479.375 128,480 384,480 390.499969482422,479.375 396.5,477.5 401.90625,474.53125 406.625,470.625 410.531219482422,465.90625 413.5,460.5 415.375,454.5 416,448 416,256 415.375,249.656265258789 413.5,243.625 410.531219482422,238.125015258789 406.625,233.375 401.875,229.468765258789 396.375,226.5 390.34375,224.625 384,224 128,224z M256,1.25L265.4375,1.5781421661377 274.75,2.56252288818359 283.9375,4.20314168930054 293,6.49999904632568 301.8515625,9.41407775878906 310.40625,12.9062690734863 318.6640625,16.9765758514404 326.625,21.625 334.21875,26.8359413146973 341.375,32.5937538146973 348.09375,38.8984375 354.375,45.75 360.1328125,53.0937538146973 365.28125,60.8750076293945 369.8203125,69.0937576293945 373.75,77.75 374.6875,80.9375076293945 375,84 374.7265625,87.3437576293945 373.90625,90.3750076293945 372.5390625,93.09375 370.625,95.5 368.2734375,97.46875 365.59375,98.875 362.5859375,99.71875 359.25,100 354.125,99.3125 350.25,97.25 347.125,94.1250152587891 344.25,90.25 339.46875,82.3437728881836 335.125,74.625 330.28125,67.1562652587891 324,60 316.984375,53.5625228881836 309.4375,48.0000267028809 301.359375,43.3125190734863 292.75,39.5 283.796875,36.5468940734863 274.6875,34.4375228881836 265.421875,33.1718940734863 256,32.7500038146973 246.15625,33.2109565734863 236.625,34.5937767028809 227.40625,36.8984565734863 218.5,40.1249961853027 210.031234741211,44.1484451293945 202.124984741211,48.8437576293945 194.78125,54.2109413146973 188,60.25 181.84375,66.9140625 176.375,74.1562576293945 171.59375,81.9765701293945 167.5,90.375 164.21875,99.2422103881836 161.875,108.468780517578 160.46875,118.054702758789 160,128 160,192 385.25,192 391.4296875,192.3203125 397.46875,193.28125 403.3671875,194.8828125 409.125,197.125 414.640625,199.906265258789 419.8125,203.125 424.640625,206.78125 429.125,210.875 433.21875,215.359375 436.875,220.1875 440.09375,225.359390258789 442.875,230.875 445.1171875,236.6328125 446.71875,242.531265258789 447.6796875,248.570327758789 448,254.75 448,449.25 447.6796875,455.4296875 446.71875,461.46875 445.1171875,467.3671875 442.875,473.125 440.09375,478.640625 436.875,483.8125 433.21875,488.640625 429.125,493.125 424.640625,497.21875 419.8125,500.875 414.640625,504.09375 409.125,506.875 403.3671875,509.1171875 397.46875,510.71875 391.4296875,511.6796875 385.25,512 126.75,512 120.5703125,511.6796875 114.53125,510.71875 108.6328125,509.1171875 102.875,506.875 97.359375,504.09375 92.1875,500.875 87.359375,497.21875 82.875,493.125 78.78125,488.640625 75.125,483.8125 71.90625,478.640625 69.125,473.125 66.8828125,467.3671875 65.28125,461.46875 64.3203125,455.4296875 64,449.25 64,254.75 64.3125,248.6875 65.25,242.75 66.8125,236.9375 69,231.25 71.71875,225.78125 74.875,220.625 78.46875,215.78125 82.5,211.25 86.921875,207.093765258789 91.6875,203.375 96.796875,200.09375 102.25,197.25 107.9375,194.953125 113.75,193.3125 119.6875,192.328125 125.75,192 128,192 128,128 128.625,114.742202758789 130.5,101.968765258789 133.625,89.6797027587891 138,77.875 143.453125,66.6953201293945 149.8125,56.2812576293945 157.078125,46.6328201293945 165.25,37.7500038146973 174.2578125,29.7031402587891 184.03125,22.5625190734863 194.5703125,16.3281421661377 205.875,11.0000028610229 217.7734375,6.73439359664917 230.09375,3.68752336502075 242.8359375,1.8593921661377 256,1.25z" />
  </g>
</svg>

