<?xml version="1.0" encoding="utf-8"?>
<svg xmlns="http://www.w3.org/2000/svg" height="16" width="16" viewBox="0 0 16 16">
  <g>
    <path id="path1" transform="rotate(0,8,8) translate(0,0.00390434358223501) scale(0.0312347486578819,0.0312347486578819)  " fill="#FFFFFF" d="M213.5,236L204.8125,242.3671875 197.249984741211,249.46875 190.812484741211,257.3046875 185.5,265.875 181.34375,275.0703125 178.375,284.78125 176.59375,295.0078125 176,305.75 176.3984375,313.53125 177.59375,321.125 179.5859375,328.53125 182.375,335.75 185.828125,342.6484375 189.8125,349.09375 194.328125,355.0859375 199.375,360.625 204.914047241211,365.671875 210.906234741211,370.1875 217.351547241211,374.171875 224.25,377.625 231.468734741211,380.4140625 238.874984741211,382.40625 246.468734741211,383.6015625 254.25,384 264.9921875,383.40625 275.21875,381.625 284.9296875,378.65625 294.125,374.5 302.6953125,369.1875 310.53125,362.75 317.6328125,355.1875 324,346.5 213.5,236z M256,96L273.8359375,96.640625 291.34375,98.5625076293945 308.5234375,101.765632629395 325.375,106.25 341.7890625,111.898445129395 357.65625,118.593757629395 372.9765625,126.335945129395 387.75,135.125 401.921875,144.890640258789 415.4375,155.5625 428.296875,167.140625 440.5,179.625 451.921875,192.8984375 462.437469482422,206.84375 472.046844482422,221.460952758789 480.75,236.75 482.09375,239.3046875 483.625,242.46875 485.34375,246.2421875 487.25,250.625 491.218719482422,260.21875 495.125,270.25 498.71875,280.28125 501.75,289.875 502.953125,294.2734375 503.8125,298.09375 504.328125,301.3359375 504.5,304 504.203125,307.2421875 503.3125,310.21875 501.828125,312.9296875 499.75,315.375 497.25,317.3984375 494.499969482422,318.84375 491.499969482422,319.7109375 488.25,320 485.203125,319.7890625 482.5625,319.15625 480.328125,318.1015625 478.5,316.625 475.5,312.71875 473,307.75 470.531219482422,301.125 468.625,294.25 464.75,280.5 461.5390625,271.8984375 457.90625,263.34375 453.8515625,254.8359375 449.375,246.375 439.53125,230.15625 428.75,215.25 420.65625,205.3828125 412.125,196.03125 403.15625,187.1953125 393.75,178.875 383.953125,171.1171875 373.8125,163.96875 363.328125,157.4296875 352.5,151.5 341.3515625,146.1953125 329.90625,141.53125 318.1640625,137.5078125 306.125,134.125 293.8515625,131.445327758789 281.40625,129.53125 268.7890625,128.3828125 256,128 242.359375,128.421875 228.9375,129.6875 215.734375,131.796875 202.75,134.75 177.25,109 186.796875,105.953140258789 196.4375,103.312515258789 206.171875,101.078140258789 216,99.25 225.90625,97.8281326293945 235.875,96.8125 245.90625,96.203125 256,96z M16.2500038146973,-2.98023223876953E-08L19.390625,0.296876400709152 22.3125,1.18750369548798 25.015625,2.67187881469727 27.5000019073486,4.74999904632568 507.5,484.75 509.578094482422,487.234375 511.0625,489.9375 511.953125,492.859375 512.25,496 511.953125,499.140625 511.0625,502.0625 509.578094482422,504.765625 507.5,507.25 505.015625,509.328125 502.3125,510.8125 499.390625,511.703125 496.25,512 493,511.703125 490,510.8125 487.25,509.328125 484.75,507.25 347,369.5 338.171875,380.296875 328.4375,389.6875 317.796875,397.671875 306.25,404.25 293.984375,409.390625 281.1875,413.0625 267.859375,415.265625 254,416 243.1328125,415.4375 232.53125,413.75 222.1953125,410.9375 212.125,407 202.484375,402.1171875 193.4375,396.46875 184.984375,390.0546875 177.125,382.875 169.9453125,375.015625 163.53125,366.5625 157.8828125,357.515625 153,347.875 149.0625,337.8046875 146.25,327.46875 144.5625,316.8671875 144,306 144.734375,292.140625 146.9375,278.8125 150.609375,266.015625 155.75,253.75 162.328125,242.203125 170.3125,231.5625 179.703125,221.828140258789 190.5,213 140,162.5 124.523429870605,173.367202758789 110.093742370605,185.46875 96.7109298706055,198.8046875 84.375,213.375 73.2265625,228.8828125 63.40625,245.03125 54.9140586853027,261.8203125 47.7499961853027,279.25 46.0625,284.5625 44.4999961853027,291 42.75,297.90625 40.4999961853027,304.625 37.625,310.75 34,315.875 31.84375,317.8984375 29.375,319.34375 26.59375,320.2109375 23.5000019073486,320.5 20.359375,320.203125 17.4375,319.3125 14.7343730926514,317.828125 12.2499971389771,315.75 10.1718730926514,313.265625 8.68749904632568,310.5625 7.79687404632568,307.640625 7.49999809265137,304.5 7.62499904632568,302.75 7.99999809265137,300.5 11.0390615463257,288.4609375 14.65625,276.59375 18.8515625,264.8984375 23.6250019073486,253.375 28.921875,242.078125 34.6875,231.0625 40.921875,220.328125 47.6249961853027,209.875 54.7890586853027,199.7421875 62.4062461853027,189.96875 70.4765625,180.5546875 79,171.5 87.9375,162.843765258789 97.25,154.625 106.9375,146.84375 117,139.5 4.74999904632568,27.2500019073486 2.67187452316284,24.7656307220459 1.18749988079071,22.0625076293945 0.296875,19.1406326293945 0,16.0000038146973 0.3046875,12.7578153610229 1.21874988079071,9.78125381469727 2.74218702316284,7.07031631469727 4.87499904632568,4.62499904632568 7.41406202316284,2.60157060623169 10.15625,1.15625751018524 13.1015634536743,0.289065331220627 16.2500038146973,-2.98023223876953E-08z" />
  </g>
</svg>

