<?xml version="1.0" encoding="utf-8"?>
<svg xmlns="http://www.w3.org/2000/svg" height="16" width="16" viewBox="0 0 16 16">
  <g>
    <path id="path1" transform="rotate(0,8,8) translate(0,1.40336967294351) scale(0.0317145688800793,0.0317145688800793)  " fill="#000000" d="M256,224L247.765609741211,224.390625 239.812484741211,225.5625 232.140625,227.515625 224.75,230.25 217.7265625,233.664077758789 211.15625,237.65625 205.0390625,242.2265625 199.375,247.375 194.2265625,253.0390625 189.65625,259.15625 185.6640625,265.7265625 182.25,272.75 179.515625,280.140625 177.5625,287.8125 176.390625,295.765625 176,304 176.390625,312.234375 177.5625,320.1875 179.515625,327.859375 182.25,335.25 185.6640625,342.2734375 189.65625,348.84375 194.2265625,354.9609375 199.375,360.625 205.0390625,365.7734375 211.15625,370.34375 217.7265625,374.3359375 224.75,377.75 232.140625,380.484375 239.812484741211,382.4375 247.765609741211,383.609375 256,384 264.4609375,383.6015625 272.59375,382.40625 280.3984375,380.4140625 287.875,377.625 294.9375,374.140625 301.5,370.0625 307.5625,365.390625 313.125,360.125 318.15625,354.328125 322.625,348.0625 326.53125,341.328125 329.875,334.125 332.5546875,326.5546875 334.46875,318.71875 335.6171875,310.6171875 336,302.25 335.59375,294.25 334.375,286.5 332.34375,279 329.5,271.75 325.96875,264.8515625 321.875,258.40625 317.21875,252.4140625 312,246.875 306.28125,241.843765258789 300.125,237.375015258789 293.53125,233.46875 286.5,230.125 279.15625,227.445327758789 271.625,225.53125 263.90625,224.3828125 256,224z M256,192L267.3359375,192.5546875 278.34375,194.21875 289.0234375,196.9921875 299.375,200.875 309.2421875,205.710952758789 318.46875,211.343765258789 327.0546875,217.7734375 335,225 342.2265625,232.945327758789 348.65625,241.531265258789 354.2890625,250.757827758789 359.125,260.625 363.0078125,270.9765625 365.78125,281.65625 367.4453125,292.6640625 368,304 367.4453125,315.3359375 365.78125,326.34375 363.0078125,337.0234375 359.125,347.375 354.2890625,357.2421875 348.65625,366.46875 342.2265625,375.0546875 335,383 327.0546875,390.2265625 318.46875,396.65625 309.2421875,402.2890625 299.375,407.125 289.0234375,411.0078125 278.34375,413.78125 267.3359375,415.4453125 256,416 244.328125,415.4375 233.0625,413.75 222.203125,410.9375 211.75,407 201.84375,402.09375 192.625,396.375 184.09375,389.84375 176.25,382.5 169.1484375,374.421875 162.84375,365.6875 157.3359375,356.296875 152.625,346.25 148.8515625,335.703125 146.15625,324.8125 144.5390625,313.578125 144,302 144.5703125,290.90625 146.28125,280.125 149.1328125,269.65625 153.125,259.5 158.078125,249.812515258789 163.8125,240.75 170.328125,232.3125 177.625,224.5 185.6171875,217.390625 194.21875,211.0625 203.4296875,205.515625 213.25,200.75 223.515625,196.921890258789 234.0625,194.1875 244.890625,192.546875 256,192z M256,96L273.8359375,96.640625 291.34375,98.5625076293945 308.5234375,101.765632629395 325.375,106.25 341.7890625,111.890632629395 357.65625,118.562515258789 372.9765625,126.265632629395 387.75,135 401.921875,144.7109375 415.4375,155.34375 428.296875,166.8984375 440.5,179.375 451.921875,192.6640625 462.437469482422,206.65625 472.046844482422,221.3515625 480.75,236.75 482.09375,239.406265258789 483.625,242.625015258789 485.34375,246.40625 487.25,250.75 491.218719482422,260.25 495.125,270.25 498.71875,280.28125 501.75,289.875 502.953125,294.2734375 503.8125,298.09375 504.328125,301.3359375 504.5,304 504.203125,307.140625 503.3125,310.0625 501.828125,312.765625 499.75,315.25 497.265625,317.328125 494.5625,318.8125 491.640625,319.703125 488.5,320 485.453125,319.7890625 482.8125,319.15625 480.578125,318.1015625 478.75,316.625 475.687469482422,312.71875 473,307.75 470.624969482422,301.875 469,295.75 465.75,283.5 462.6171875,274.40625 458.96875,265.375 454.8046875,256.40625 450.125,247.5 439.718719482422,230.4375 428.25,214.75 420.03125,204.7734375 411.375,195.34375 402.28125,186.4609375 392.75,178.125 382.828125,170.375 372.5625,163.25 361.953125,156.750015258789 351,150.875 339.734375,145.640625 328.1875,141.062515258789 316.359375,137.140640258789 304.25,133.875 291.890625,131.3046875 279.3125,129.46875 266.515625,128.3671875 253.5,128 238.140625,128.578125 223.0625,130.3125 208.265625,133.203125 193.75,137.25 179.609375,142.320327758789 165.9375,148.281265258789 152.734375,155.1328125 140,162.875 127.78125,171.453140258789 116.125,180.812515258789 105.03125,190.953140258789 94.5,201.875 84.640625,213.4453125 75.5625,225.531265258789 67.265625,238.132827758789 59.7500038146973,251.25 58.796875,253.078140258789 57.6875,255.312515258789 56.421875,257.953125 55,261 49.0000038146973,274.75 46.21875,281.8125 43.8750038146973,288.5 42.9453125,291.546875 42.28125,294.1875 41.8828125,296.421875 41.7499961853027,298.25 41.40625,302.03125 40.375,305.875 38.75,309.5625 36.6249961853027,312.875 34,315.75 30.875,318.125 27.34375,319.71875 23.4999980926514,320.25 20.3593730926514,319.96875 17.4375,319.125 14.7343759536743,317.71875 12.2500038146973,315.75 10.1718759536743,313.359375 8.6875,310.6875 7.796875,307.734375 7.5,304.5 7.62499952316284,302.75 8,300.5 12.1796875,286.15625 16.96875,272.125 22.3671855926514,258.40625 28.3749980926514,245 34.9765625,231.984375 42.15625,219.437515258789 49.9140625,207.359390258789 58.2500038146973,195.75 67.1328125,184.6484375 76.53125,174.09375 86.4453125,164.0859375 96.875,154.625 107.7890625,145.765625 119.15625,137.5625 130.9765625,130.015625 143.25,123.125 155.9609375,116.945327758789 169.09375,111.531265258789 182.6484375,106.882827758789 196.625,103 210.9765625,99.9375076293945 225.656234741211,97.75 240.664047241211,96.4375 256,96z" />
  </g>
</svg>

