<?xml version="1.0" encoding="utf-8"?>
<svg xmlns="http://www.w3.org/2000/svg" height="32" width="32" viewBox="0 0 32 32">
  <g>
    <path id="path1" transform="rotate(0,16,16) translate(0,0) scale(0.339466268854633,0.339466268854633)  " fill="#999999" d="M50.296875,52.265625L57.421875,57.84375 65.2734375,62.109375 69.4453125,63.69140625 73.7578125,64.875 78.193359375,65.6484375 82.734375,66 75.890625,59.109375 80.109375,54.890625 94.265625,69 80.109375,83.109375 75.890625,78.890625 82.78125,72 77.677734375,71.625 72.6796875,70.78125 67.822265625,69.486328125 63.140625,67.7578125 58.6347618103027,65.607421875 54.3046875,63.046875 46.265625,56.8125 48.2578125,54.5390625 50.296875,52.265625z M7.105427357601E-15,24L5.2939453125,24.25048828125 10.44140625,25.001953125 15.4423828125,26.25439453125 20.296875,28.0078125 24.97265625,30.20947265625 29.4375,32.806640625 33.69140625,35.79931640625 37.734375,39.1875 35.7421875,41.4609375 33.703125,43.734375 26.3203125,37.9921875 22.318359375,35.6308631896973 18.140625,33.65625 13.8046865463257,32.0859375 9.32812595367432,30.9375 4.72265625,30.234375 7.105427357601E-15,30 7.105427357601E-15,24z M80.109375,12.890625L94.265625,27 80.109375,41.109375 75.890625,36.890625 82.734375,30 76.939453125,30.509765625 71.4609375,31.6640625 66.28125,33.4218788146973 61.3828125,35.7421875 56.7480430603027,38.5957069396973 52.359375,41.953125 44.296875,49.921875 41.109375,53.484375 37.734375,56.859375 33.69140625,60.24609375 29.4375,63.234375 24.97265625,65.82421875 20.296875,68.015625 15.4423828125,69.7587890625 10.44140625,71.00390625 5.2939453125,71.7509765625 7.105427357601E-15,72 7.105427357601E-15,66 5.98242139816284,65.642578125 11.6484375,64.5703125 17.009765625,62.84765625 22.078125,60.5390625 26.8652324676514,57.66796875 31.3828125,54.2578125 35.654296875,50.373046875 39.703125,46.078125 43.0078125,42.375 46.546875,38.90625 54.5390625,32.8125 58.8281211853027,30.29296875 63.3046875,28.171875 67.95703125,26.466796875 72.7734375,25.1953125 77.724609375,24.369140625 82.78125,24 75.890625,17.109375 80.109375,12.890625z" />
  </g>
</svg>
