<?xml version="1.0" encoding="utf-8"?>
<svg xmlns="http://www.w3.org/2000/svg" height="20" width="20" viewBox="0 0 20 20">
  <g>
    <path id="path1" transform="rotate(0,10,10) translate(0,0) scale(0.0416666666666667,0.0416666666666667)  " fill="#FFFFFF" d="M224,400L218.843734741211,400.375 213.375,401.5 207.968734741211,403.375 203,406 198.65625,409.375 195.125,413.5 193.7578125,415.84375 192.78125,418.375 192.1953125,421.09375 192,424 192.1953125,426.90625 192.78125,429.625 193.7578125,432.15625 195.125,434.5 198.65625,438.625 203,442 207.968734741211,444.625 213.375,446.5 218.843734741211,447.625 224,448 229.15625,447.625 234.625,446.5 240.03125,444.625 245,442 249.34375,438.625 252.875,434.5 254.2421875,432.15625 255.21875,429.625 255.8046875,426.90625 256,424 255.8046875,421.09375 255.21875,418.375 254.2421875,415.84375 252.875,413.5 249.34375,409.375 245,406 240.03125,403.375 234.625,401.5 229.15625,400.375 224,400z M416,368L410.843719482422,368.375 405.375,369.5 399.968719482422,371.375 395,374 390.65625,377.375 387.125,381.5 385.7578125,383.84375 384.78125,386.375 384.1953125,389.09375 384,392 384.1953125,394.90625 384.78125,397.625 385.7578125,400.15625 387.125,402.5 390.65625,406.625 395,410 399.968719482422,412.625 405.375,414.5 410.843719482422,415.625 416,416 421.15625,415.625 426.625,414.5 432.03125,412.625 437,410 441.343719482422,406.625 444.875,402.5 446.2421875,400.15625 447.21875,397.625 447.8046875,394.90625 448,392 447.8046875,389.09375 447.21875,386.375 446.2421875,383.84375 444.875,381.5 441.343719482422,377.375 437,374 432.03125,371.375 426.625,369.5 421.15625,368.375 416,368z M96,272L90.84375,272.375 85.375,273.5 79.96875,275.375 75,278 70.65625,281.375 67.125,285.5 65.7578125,287.84375 64.78125,290.375 64.1953125,293.09375 64,296 64.1953125,298.90625 64.78125,301.625 65.7578125,304.15625 67.125,306.5 70.65625,310.625 75,314 79.96875,316.625 85.375,318.5 90.84375,319.625 96,320 101.15625,319.625 106.625,318.5 112.03125,316.625 117,314 121.34375,310.625 124.875,306.5 126.2421875,304.15625 127.21875,301.625 127.8046875,298.90625 128,296 127.8046875,293.09375 127.21875,290.375 126.2421875,287.84375 124.875,285.5 121.34375,281.375 117,278 112.03125,275.375 106.625,273.5 101.15625,272.375 96,272z M480,135.5L480,392 479.656219482422,398.2265625 478.624969482422,404.15625 476.906219482422,409.7890625 474.5,415.125 471.53125,420.125 468.125,424.75 464.28125,429 460,432.875 455.34375,436.34375 450.375,439.375 445.09375,441.96875 439.5,444.125 433.71875,445.8203125 427.875,447.03125 421.96875,447.7578125 416,448 410.03125,447.7578125 404.125,447.03125 398.28125,445.8203125 392.5,444.125 386.90625,441.96875 381.625,439.375 376.65625,436.34375 372,432.875 367.71875,429 363.875,424.75 360.46875,420.125 357.5,415.125 355.09375,409.7890625 353.375,404.15625 352.34375,398.2265625 352,392 352.34375,385.7734375 353.375,379.84375 355.09375,374.2109375 357.5,368.875 360.46875,363.875 363.875,359.25 367.71875,355 372,351.125 376.65625,347.65625 381.625,344.625 386.90625,342.03125 392.5,339.875 398.28125,338.1796875 404.125,336.96875 410.03125,336.2421875 416,336 424.25,336.46875 432.5,337.875 440.5,340.21875 448,343.5 448,176.5 288,216.5 288,424 287.65625,430.2265625 286.625,436.15625 284.90625,441.7890625 282.5,447.125 279.53125,452.125 276.125,456.75 272.28125,461 268,464.875 263.34375,468.34375 258.375,471.375 253.09375,473.96875 247.5,476.125 241.71875,477.8203125 235.875,479.03125 229.96875,479.7578125 224,480 218.03125,479.7578125 212.125,479.03125 206.28125,477.8203125 200.5,476.125 194.90625,473.96875 189.625,471.375 184.65625,468.34375 180,464.875 175.71875,461 171.875,456.75 168.46875,452.125 165.5,447.125 163.09375,441.7890625 161.375,436.15625 160.34375,430.2265625 160,424 160.34375,417.7734375 161.375,411.84375 163.09375,406.2109375 165.5,400.875 168.46875,395.875 171.875,391.25 175.71875,387 180,383.125 184.65625,379.65625 189.625,376.625 194.90625,374.03125 200.5,371.875 206.28125,370.1796875 212.125,368.96875 218.03125,368.2421875 224,368 232.25,368.46875 240.5,369.875 248.5,372.21875 256,375.5 256,191.5 480,135.5z M128,32L160,32 160.4453125,39.7968826293945 161.78125,47.1875076293945 164.0078125,54.171875 167.125,60.7499961853027 170.9921875,66.96875 175.46875,72.8750076293945 180.5546875,78.4687576293945 186.25,83.75 194.5390625,91.4922027587891 201.90625,99.7187652587891 208.3515625,108.429702758789 213.875,117.625 218.3046875,127.351570129395 221.46875,137.65625 223.3671875,148.5390625 224,160 192,160 191.5546875,152.2890625 190.21875,144.90625 187.9921875,137.8515625 184.875,131.125 181.0078125,124.7734375 176.53125,118.84375 171.4453125,113.3359375 165.75,108.25 162.75,105.75 160,103.25 160,296 159.65625,302.2265625 158.625,308.15625 156.90625,313.7890625 154.5,319.125 151.53125,324.125 148.125,328.75 144.28125,333 140,336.875 135.34375,340.34375 130.375,343.375 125.09375,345.96875 119.5,348.125 113.71875,349.8203125 107.874992370605,351.03125 101.968742370605,351.7578125 96,352 90.03125,351.7578125 84.125,351.03125 78.28125,349.8203125 72.5,348.125 66.90625,345.96875 61.6249961853027,343.375 56.6562461853027,340.34375 51.9999961853027,336.875 47.7187461853027,333 43.875,328.75 40.46875,324.125 37.5,319.125 35.09375,313.7890625 33.375,308.15625 32.34375,302.2265625 32,296 32.34375,289.7734375 33.375,283.84375 35.09375,278.2109375 37.5,272.875 40.46875,267.875 43.875,263.25 47.7187461853027,259 51.9999961853027,255.125 56.6562461853027,251.65625 61.6249961853027,248.625 66.90625,246.03125 72.5,243.875 78.28125,242.179702758789 84.125,240.96875 90.03125,240.2421875 96,240 104.249992370605,240.46875 112.5,241.875 120.499992370605,244.21875 128,247.5 128,32z" />
  </g>
</svg>

