<?xml version="1.0" encoding="utf-8"?>
<svg xmlns="http://www.w3.org/2000/svg" height="20" width="20" viewBox="0 0 20 20">
  <g>
    <path id="path1" transform="rotate(0,10,10) translate(0,0) scale(0.0390625,0.0390625)  " fill="#FFFFFF" d="M53.75,352L58.8515625,361.9765625 64.40625,371.65625 70.4140625,381.0390625 76.875,390.125 83.7578125,398.8671875 91.03125,407.21875 98.6953125,415.1796875 106.75,422.75 115.171875,429.9140625 123.9375,436.65625 133.046875,442.9765625 142.5,448.875 152.25,454.3046875 162.25,459.21875 172.5,463.6171875 183,467.5 174.4375,454.8125 166.75,441.25 159.90625,427.03125 153.875,412.375 148.625,397.375 144.125,382.125 140.28125,366.90625 137,352 53.75,352z M416,256L409.476531982422,256.3125 403.156219482422,257.25 397.039031982422,258.8125 391.125,261 385.4921875,263.734375 380.21875,266.9375 375.3046875,270.609375 370.75,274.75 366.609375,279.3046875 362.9375,284.21875 359.734375,289.4921875 357,295.125 354.8125,301.0390625 353.25,307.15625 352.3125,313.4765625 352,320 352.3125,326.5234375 353.25,332.84375 354.8125,338.9609375 357,344.875 359.734375,350.5078125 362.9375,355.78125 366.609375,360.6953125 370.75,365.25 375.3046875,369.390625 380.21875,373.0625 385.4921875,376.265625 391.125,379 397.039031982422,381.1875 403.156219482422,382.75 409.476531982422,383.6875 416,384 422.5234375,383.6875 428.84375,382.75 434.9609375,381.1875 440.875,379 446.5078125,376.265625 451.78125,373.0625 456.6953125,369.390625 461.25,365.25 465.390625,360.6953125 469.0625,355.78125 472.265625,350.5078125 475,344.875 477.1875,338.9609375 478.749969482422,332.84375 479.687469482422,326.5234375 480,320 479.687469482422,313.4765625 478.749969482422,307.15625 477.1875,301.0390625 475,295.125 472.265625,289.4921875 469.0625,284.21875 465.390625,279.3046875 461.25,274.75 456.6953125,270.609375 451.78125,266.9375 446.5078125,263.734375 440.875,261 434.9609375,258.8125 428.84375,257.25 422.5234375,256.3125 416,256z M416,224L425.734344482422,224.46875 435.187469482422,225.875 444.359375,228.21875 453.25,231.5 461.7265625,235.6015625 469.65625,240.40625 477.0390625,245.9140625 483.875,252.125 490.0859375,258.9609375 495.59375,266.34375 500.3984375,274.2734375 504.5,282.75 507.78125,291.640625 510.125,300.8125 511.53125,310.265625 512,320 511.53125,329.8359375 510.125,339.34375 507.78125,348.5234375 504.5,357.375 500.3984375,365.796875 495.59375,373.6875 490.0859375,381.046875 483.875,387.875 477.0390625,394.0859375 469.65625,399.59375 461.7265625,404.3984375 453.25,408.5 444.359375,411.78125 435.187469482422,414.125 425.734344482422,415.53125 416,416 408.546875,415.71875 401.1875,414.875 393.921875,413.46875 386.75,411.5 379.765625,408.984375 373.0625,405.9375 366.640625,402.359375 360.5,398.25 251.25,507.25 248.765625,509.328125 246.0625,510.8125 243.140625,511.703125 240,512 236.859375,511.703125 233.9375,510.8125 231.234375,509.328125 228.75,507.25 226.671875,504.765625 225.1875,502.0625 224.296875,499.140625 224,496 224.296875,492.859375 225.1875,489.9375 226.671875,487.234375 228.75,484.75 337.75,375.5 333.640625,369.359375 330.0625,362.9375 327.015625,356.234375 324.5,349.25 322.53125,342.078125 321.125,334.8125 320.28125,327.453125 320,320 320.46875,310.265625 321.875,300.8125 324.21875,291.640625 327.5,282.75 331.6015625,274.2734375 336.40625,266.34375 341.9140625,258.9609375 348.125,252.125 354.953125,245.9140625 362.3125,240.40625 370.203125,235.6015625 378.625,231.5 387.4765625,228.21875 396.656219482422,225.875 406.164031982422,224.46875 416,224z M41.25,192L37.203125,207.53125 34.3125,223.375 32.578125,239.53125 32,256 32.578125,272.46875 34.3125,288.625 37.203125,304.46875 41.25,320 132,320 130.25,304.03125 129,288.125 128.25,272.15625 128,256 128.25,239.843765258789 129,223.875 130.25,207.968765258789 132,192 41.25,192z M329,44.5L337.5625,57.1875152587891 345.25,70.75 352.09375,84.9687576293945 358.125,99.625 363.375,114.625015258789 367.875,129.875 371.71875,145.09375 375,160 458,160 452.8984375,150.03125 447.34375,140.375 441.3359375,131.03125 434.875,122 427.9921875,113.304702758789 420.718719482422,104.968765258789 413.054656982422,96.9922027587891 405,89.375 396.585906982422,82.1562576293945 387.843719482422,75.3750076293945 378.773406982422,69.0312576293945 369.375,63.125 359.6796875,57.6953239440918 349.71875,52.7812614440918 339.4921875,48.3828201293945 329,44.5z M183,44.5L172.5,48.3828201293945 162.25,52.7812614440918 152.25,57.6953239440918 142.5,63.125 133.046875,69.0234451293945 123.9375,75.3437652587891 115.171875,82.0859451293945 106.75,89.25 98.6953125,96.8203353881836 91.03125,104.781280517578 83.7578125,113.132835388184 76.875,121.875 70.4140625,130.960952758789 64.40625,140.34375 58.8515625,150.0234375 53.75,160 137,160 140.28125,145.09375 144.125,129.875 148.625,114.625015258789 153.875,99.625 159.90625,84.9687576293945 166.75,70.75 174.4375,57.1875152587891 183,44.5z M256,32L249.976547241211,32.4297027587891 244.156234741211,33.7187690734863 238.539047241211,35.8671989440918 233.125,38.875 227.921875,42.5859413146973 222.9375,46.8437538146973 218.171875,51.6484375 213.625,57 205.156234741211,68.9375076293945 197.5,82.25 190.6875,96.3125 184.75,110.5 179.6875,124.4375 175.5,137.75 173.734375,144.015640258789 172.1875,149.812515258789 170.859375,155.140625 169.75,160 342,160 340.890625,155.2421875 339.5625,149.96875 338.015625,144.1796875 336.25,137.875 332.0625,124.46875 327,110.5 321.0625,96.3125 314.25,82.25 306.59375,68.9687652587891 298.125,57.125 293.5859375,51.8203201293945 288.84375,47.0312614440918 283.8984375,42.7578239440918 278.75,39 273.390625,35.9375228881836 267.8125,33.7500267028809 262.015625,32.4375190734863 256,32z M256,0L266.87890625,0.220703542232513 277.640625,0.882813930511475 288.28515625,1.98633074760437 298.8125,3.53125381469727 309.22265625,5.51758241653442 319.515625,7.94531679153442 329.69140625,10.8144559860229 339.75,14.125 359.296875,21.8984508514404 377.9375,31.0937690734863 395.671875,41.7109527587891 412.5,53.75 428.3046875,67.1093902587891 442.96875,81.6875228881836 456.4921875,97.4843902587891 468.875,114.5 474.583984375,123.421875 479.8984375,132.5625 484.818359375,141.921875 489.34375,151.5 493.474609375,161.296875 497.2109375,171.3125 500.552734375,181.546875 503.5,192 164.25,192 162.3125,207.968765258789 161,223.875 160.25,239.843765258789 160,256 160.25,272.15625 161,288.125 162.3125,304.03125 164.25,320 288,320 288,352 169.75,352 172.484375,364 175.6875,376 179.359375,388 183.5,400 188.1875,411.765625 193.5,423.0625 199.4375,433.890625 206,444.25 200.84375,449.03125 195.875,454.375 191.28125,460.125 187.25,466.125 183.875,472.4375 181.25,479.125 179.5625,486.03125 179,493 179.75,500.5 160.1875,493.5234375 141.5,485.09375 123.6875,475.2109375 106.75,463.875 90.828125,451.3046875 76.0625,437.71875 62.4531211853027,423.1171875 50,407.5 38.7890625,390.9765625 28.9062480926514,373.65625 20.3515605926514,355.5390625 13.125,336.625 10.048828125,326.916015625 7.3828125,317.1015625 5.126953125,307.181640625 3.28125,297.15625 1.845703125,287.025390625 0.8203125,276.7890625 0.205078125,266.447265625 0,256 0.5703125,238.53125 2.28125,221.375 5.1328125,204.53125 9.125,188 14.1640625,171.898452758789 20.15625,156.343765258789 27.1015625,141.335952758789 35,126.875 43.7890625,113.000007629395 53.40625,99.7500076293945 63.8515625,87.1250076293945 75.125,75.125 87.125,63.8515739440918 99.75,53.4062652587891 113,43.7890739440918 126.875,35 141.3359375,27.1015682220459 156.34375,20.1562576293945 171.8984375,14.1640682220459 188,9.125 204.53125,5.13282108306885 221.375,2.28125762939453 238.53125,0.570315361022949 256,0z" />
  </g>
</svg>

