<?xml version="1.0" encoding="utf-8"?>
<svg xmlns="http://www.w3.org/2000/svg" height="16" width="16" viewBox="0 0 16 16">
  <g>
    <path id="path1" transform="rotate(0,8,8) translate(-0.3,0) scale(0.03125,0.03125)  " fill="#FFFFFF" d="M96,256L96,480 416,480 416,256 96,256z M256,32L245.929672241211,32.4843940734863 236.218734741211,33.9375267028809 226.867172241211,36.3593978881836 217.875,39.75 209.359359741211,43.9843826293945 201.437484741211,48.9375076293945 194.109359741211,54.6093788146973 187.375,61 181.2890625,68.0234375 175.90625,75.59375 171.2265625,83.7109451293945 167.25,92.375 164.078125,101.460945129395 161.8125,110.843757629395 160.453125,120.5234375 160,130.5 160,224 352,224 352,130.5 351.546875,120.5234375 350.1875,110.843757629395 347.921875,101.460945129395 344.75,92.375 340.7734375,83.7109451293945 336.09375,75.59375 330.7109375,68.0234375 324.625,61 317.890625,54.6093788146973 310.5625,48.9375076293945 302.640625,43.9843826293945 294.125,39.75 285.1328125,36.3593978881836 275.78125,33.9375267028809 266.0703125,32.4843940734863 256,32z M256,0L269.3828125,0.640627861022949 282.28125,2.56250762939453 294.6953125,5.76563358306885 306.625,10.25 317.9296875,15.8437576293945 328.46875,22.3750114440918 338.2421875,29.8437595367432 347.25,38.25 355.40625,47.5000190734863 362.625,57.5000228881836 368.90625,68.2500152587891 374.25,79.75 378.515625,91.8281326293945 381.5625,104.3125 383.390625,117.203125 384,130.5 384,224 448,224 448,512 64,512 64,224 128,224 128,130.5 128.609375,117.203125 130.4375,104.3125 133.484375,91.8281326293945 137.75,79.75 143.09375,68.2500152587891 149.375,57.5000228881836 156.59375,47.5000190734863 164.75,38.25 173.7578125,29.8437595367432 183.53125,22.3750114440918 194.0703125,15.8437576293945 205.375,10.25 217.304672241211,5.76563358306885 229.718734741211,2.56250762939453 242.617172241211,0.640627861022949 256,0z" />
  </g>
</svg>
