<?xml version="1.0" encoding="utf-8"?>
<svg xmlns="http://www.w3.org/2000/svg" height="26" width="26" viewBox="0 0 26 26">
  <g>
    <path id="path1" transform="rotate(0,13,13) translate(0,0.23486328125) scale(0.05078125,0.05078125)  " fill="#FFFFFF" d="M176,176L149.25,256 202.75,256 176,176z M288,144L384,144 384,160 368,192 432,192 432,224 352,224 352,256 351.375,262.5 349.5,268.5 346.53125,273.90625 342.625,278.625 337.90625,282.53125 332.5,285.5 326.5,287.375 320,288 304,288 296,256 320,256 320,224 240,224 240,192 332,192 340,176 288,176 288,144z M160,128L192,128 256,320 224,320 213.25,288 138.75,288 128,320 96,320 160,128z M320,80L352,80 352,96 432,96 432,160 400,160 400,128 272,128 272,160 240,160 240,96 320,96 320,80z M32,64L32,352 96,352 96,425.25 169.25,352 480,352 480,64 32,64z M0,32L512,32 512,384 182.75,384 64,502.75 64,384 0,384 0,32z" />
  </g>
</svg>

