<?xml version="1.0" encoding="utf-8"?>
<svg xmlns="http://www.w3.org/2000/svg" height="26" width="26" viewBox="0 0 26 26">
  <g>
    <path id="path1" transform="rotate(0,13,13) translate(-1,0) scale(0.0541666666666667,0.0541666666666667)  " fill="#FFFFFF" d="M448,224L454.5,224.625 460.5,226.5 465.90625,229.468765258789 470.625,233.375 474.53125,238.093765258789 477.5,243.5 479.374969482422,249.5 480,256 479.374969482422,262.5 477.5,268.5 474.53125,273.90625 470.625,278.625 465.90625,282.53125 460.5,285.5 454.5,287.375 448,288 441.5,287.375 435.5,285.5 430.093719482422,282.53125 425.375,278.625 421.46875,273.90625 418.5,268.5 416.625,262.5 416,256 416.625,249.5 418.5,243.5 421.46875,238.093765258789 425.375,233.375 430.093719482422,229.468765258789 435.5,226.5 441.5,224.625 448,224z M256,224L262.5,224.625 268.5,226.5 273.90625,229.468765258789 278.625,233.375 282.53125,238.093765258789 285.5,243.5 287.375,249.5 288,256 287.375,262.5 285.5,268.5 282.53125,273.90625 278.625,278.625 273.90625,282.53125 268.5,285.5 262.5,287.375 256,288 249.5,287.375 243.5,285.5 238.09375,282.53125 233.375,278.625 229.46875,273.90625 226.5,268.5 224.625,262.5 224,256 224.625,249.5 226.5,243.5 229.46875,238.093765258789 233.375,233.375 238.09375,229.468765258789 243.5,226.5 249.5,224.625 256,224z M64,224L70.5,224.625 76.5,226.5 81.90625,229.468765258789 86.625,233.375 90.53125,238.093765258789 93.5,243.5 95.375,249.5 96,256 95.375,262.5 93.5,268.5 90.53125,273.90625 86.625,278.625 81.90625,282.53125 76.5,285.5 70.5,287.375 64,288 57.5,287.375 51.5,285.5 46.09375,282.53125 41.375,278.625 37.46875,273.90625 34.4999961853027,268.5 32.625,262.5 32,256 32.625,249.5 34.4999961853027,243.5 37.46875,238.093765258789 41.375,233.375 46.09375,229.468765258789 51.5,226.5 57.5,224.625 64,224z" />
  </g>
</svg>
