<?xml version="1.0" encoding="utf-8"?>
<svg xmlns="http://www.w3.org/2000/svg" height="26" width="26" viewBox="0 0 26 26">
  <g>
    <path id="path1" transform="rotate(0,13,13) translate(0,0.01904296875) scale(0.05078125,0.05078125)  " fill="#FFFFFF" d="M275.25,160L288,160 288,352 256,352 256,205 248.5625,209.78125 240.75,213.625 232.5625,216.71875 224,219.25 224,186.5 237.65625,181.281265258789 250.625,175.125 263.09375,168.031265258789 275.25,160z M446.75,112.5L454.2890625,119.4296875 461.40625,126.71875 468.1015625,134.3671875 474.375,142.375 480.203125,150.687515258789 485.5625,159.25 490.453125,168.0625 494.875,177.125 498.8125,186.4140625 502.25,195.90625 505.1875,205.601577758789 507.625,215.5 509.5390625,225.53125 510.90625,235.625 511.7265625,245.78125 512,256 511.5703125,269.125 510.28125,282 508.1328125,294.625 505.125,307 501.3359375,319.0546875 496.84375,330.71875 491.6484375,341.9921875 485.75,352.875 479.187469482422,363.3203125 471.999969482422,373.28125 464.187469482422,382.7578125 455.75,391.75 446.7578125,400.1875 437.28125,408 427.3203125,415.1875 416.875,421.75 405.9921875,427.6484375 394.71875,432.84375 383.0546875,437.3359375 371,441.125 358.625,444.1328125 346,446.28125 333.125,447.5703125 320,448 158.5,448 199.25,488.75 176.75,511.25 97.5,432 176.75,352.75 199.25,375.25 158.5,416 320,416 330.90625,415.640625 341.625,414.5625 352.15625,412.765625 362.5,410.25 372.578125,407.0859375 382.3125,403.34375 391.703125,399.0234375 400.75,394.125 409.4296875,388.671875 417.718719482422,382.6875 425.617156982422,376.171875 433.125,369.125 440.171844482422,361.6171875 446.687469482422,353.71875 452.671875,345.4296875 458.125,336.75 463.0234375,327.703125 467.34375,318.3125 471.0859375,308.578125 474.25,298.5 476.765625,288.15625 478.562469482422,277.625 479.640594482422,266.90625 480,256 479.765594482422,247.2890625 479.062469482422,238.65625 477.890594482422,230.1015625 476.25,221.625 474.164031982422,213.2734375 471.656219482422,205.09375 468.726531982422,197.0859375 465.375,189.25 461.609344482422,181.601577758789 457.437469482422,174.15625 452.859344482422,166.9140625 447.875,159.875 436.78125,146.65625 424.25,134.75 446.75,112.5z M335.25,0.75L414.5,80 335.25,159.25 312.75,136.75 353.5,96 192,96 181.09375,96.359375 170.375,97.4375076293945 159.84375,99.2343826293945 149.5,101.75 139.421875,104.914070129395 129.6875,108.656257629395 120.296875,112.976570129395 111.25,117.875 102.5703125,123.328132629395 94.28125,129.3125 86.3828125,135.828125 78.875,142.875 71.828125,150.3828125 65.3125,158.28125 59.328125,166.570327758789 53.875,175.25 48.9765625,184.296875 44.65625,193.6875 40.9140625,203.421875 37.75,213.5 35.234375,223.843765258789 33.4375,234.375015258789 32.359375,245.09375 32,256 32.2421875,264.6015625 32.96875,273.15625 34.1796875,281.6640625 35.875,290.125 38.015625,298.484375 40.5625,306.6875 43.515625,314.734375 46.875,322.625 50.6406211853027,330.3203125 54.8124961853027,337.78125 59.3906211853027,345.0078125 64.375,352 75.46875,365.125 88,377 65.25,399.75 57.71875,392.7109375 50.625,385.34375 43.96875,377.6484375 37.75,369.625 31.96875,361.3125 26.625,352.75 21.71875,343.9375 17.25,334.875 13.2578125,325.59375 9.78125,316.125 6.8203125,306.46875 4.375,296.625 2.4609375,286.6328125 1.09375,276.53125 0.2734375,266.3203125 0,256 0.4296875,242.875 1.71875,230 3.8671875,217.375 6.875,205 10.6640625,192.945327758789 15.15625,181.28125 20.3515625,170.0078125 26.25,159.125 32.8125,148.6796875 40,138.71875 47.8125,129.242202758789 56.25,120.25 65.2421875,111.812507629395 74.71875,104.000007629395 84.6796875,96.8125076293945 95.125,90.25 106.0078125,84.3515777587891 117.28125,79.1562728881836 128.9453125,74.6640853881836 141,70.875 153.375,67.8671951293945 166,65.7187576293945 178.875,64.4296875 192,64 353.5,64 312.75,23.25 335.25,0.75z" />
  </g>
</svg>

