<?xml version="1.0" encoding="utf-8"?>
<svg id="" width="26" height="26" style="width:26px;height:26px;" version="1.1"
    xmlns="http://www.w3.org/2000/svg" viewBox="0 0 2048 2048" enable-background="new 0 0 2048 2048"
    xml:space="preserve">
    <path fill="#FFFFFF" transform="translate(0, 100)" d="M451.08 1027.02 q34.24 -9.06 70.99 -24.66 q36.75 -15.61 73 -34.74 q36.25 -19.13 69.48 -41.29 q33.22 -22.15 60.41 -44.3 l39.26 0 l0 922.3 l-103.7 0 l0 -779.32 q-15.11 15.1 -41.79 32.21 q-26.68 17.12 -56.89 31.72 q-30.21 14.6 -59.91 26.18 q-29.7 11.58 -50.85 16.62 l0 -104.72 ZM1361.31 887.06 q62.42 0 107.23 20.64 q44.81 20.65 76.53 55.89 q31.71 35.24 50.84 82.06 q19.13 46.82 30.21 98.17 q11.08 51.35 14.6 104.21 q3.52 52.86 3.52 101.19 q0 49.34 -5.04 103.21 q-5.03 53.87 -18.13 106.23 q-13.09 52.36 -34.73 99.68 q-21.64 47.33 -55.38 83.58 q-33.73 36.25 -80.05 57.39 q-46.32 21.14 -108.74 21.14 q-59.41 0 -103.21 -20.64 q-43.8 -20.64 -75.52 -54.88 q-31.71 -34.24 -52.36 -79.55 q-20.64 -45.31 -32.73 -95.15 q-12.08 -49.84 -16.61 -101.19 q-4.53 -51.35 -4.53 -97.67 q0 -50.34 4.53 -106.22 q4.53 -55.88 16.61 -109.25 q12.08 -53.37 33.23 -102.2 q21.14 -48.83 55.38 -86.09 q34.24 -37.25 81.56 -58.9 q47.33 -21.65 112.78 -21.65 ZM1352.24 1731.84 q43.3 0 74.52 -19.13 q31.21 -19.13 51.86 -49.84 q20.64 -30.71 32.72 -70.48 q12.08 -39.78 18.63 -81.06 q6.55 -41.28 8.06 -81.05 q1.51 -39.77 1.51 -70.99 q0 -30.2 -1.51 -70.48 q-1.51 -40.28 -7.55 -83.07 q-6.04 -42.79 -17.62 -84.07 q-11.58 -41.28 -32.22 -74.01 q-20.64 -32.72 -50.84 -52.87 q-30.21 -20.14 -73.51 -20.14 q-45.31 0 -77.03 20.14 q-31.71 20.14 -53.36 52.87 q-21.65 32.73 -34.24 74.51 q-12.59 41.78 -19.13 85.58 q-6.54 43.8 -8.05 85.08 q-1.51 41.28 -1.51 73.5 q0 31.21 2.02 70.98 q2.01 39.78 8.05 80.05 q6.04 40.28 18.63 79.04 q12.59 38.77 33.22 68.97 q20.64 30.2 51.86 48.33 q31.22 18.13 75.52 18.13 ZM1016.95 0 q137.94 0 268.84 34.73 q130.89 34.73 247.69 99.68 q116.8 64.94 214.97 158.08 q98.17 93.14 170.67 209.93 l0 -244.67 l128.88 0 l0 515.53 l-515.52 0 l0 -128.88 l318.17 0 q-58.4 -117.81 -147.01 -212.96 q-88.61 -95.15 -197.35 -162.11 q-108.75 -66.96 -233.6 -103.71 q-124.85 -36.75 -255.75 -36.75 q-155.06 0 -297.54 47.82 q-142.47 47.83 -260.28 134.93 q-117.81 87.1 -204.39 209.44 q-86.59 122.33 -131.9 271.35 l-122.84 -38.26 q50.34 -167.15 150.03 -306.1 q99.69 -138.95 234.1 -238.63 q134.41 -99.68 296.52 -154.56 q162.11 -54.88 336.3 -54.88 Z"/>
</svg>