<?xml version="1.0" encoding="utf-8"?>
<svg xmlns="http://www.w3.org/2000/svg" height="26" width="26" viewBox="0 0 26 26">
  <g>
    <path id="path1" transform="rotate(0,13,13) translate(0,0) scale(0.05078125,0.05078125)  " fill="#FFFFFF" d="M340.25,274L334.8359375,274.3125 329.84375,275.25 325.2734375,276.8125 321.125,279 317.34375,281.6953125 313.875,284.78125 310.71875,288.2578125 307.875,292.125 303.0625,300.8125 299.375,310.625 296.625,321.125 294.625,331.875 293.3125,342.59375 292.625,353 292.34375,362.6875 292.25,371.25 292.375,379.53125 292.75,388.875 293.5,398.78125 294.75,408.75 296.65625,418.65625 299.375,428.375 303,437.46875 307.625,445.5 313.40625,452.25 320.5,457.5 324.578125,459.46875 329.0625,460.875 333.953125,461.71875 339.25,462 344.4375,461.703125 349.25,460.8125 353.6875,459.328125 357.75,457.25 364.84375,451.78125 370.625,444.875 375.21875,436.6875 378.75,427.375 381.40625,417.40625 383.375,407.25 384.6875,397.09375 385.375,387.125 385.65625,377.78125 385.75,369.5 385.65625,361.375 385.375,352 384.71875,341.84375 383.5,331.375 381.65625,320.84375 379.125,310.5 375.6875,300.78125 371.125,292.125 368.4140625,288.2578125 365.40625,284.78125 362.1015625,281.6953125 358.5,279 354.546875,276.8125 350.1875,275.25 345.421875,274.3125 340.25,274z M341.5,252.25L348.9765625,252.5703125 355.90625,253.53125 362.2890625,255.1328125 368.125,257.375 373.484375,260.1640625 378.4375,263.40625 382.984375,267.1015625 387.125,271.25 390.8671875,275.8046875 394.21875,280.71875 397.1796875,285.9921875 399.75,291.625 404,303.53125 407.25,316 409.53125,328.84375 410.875,341.875 411.531219482422,354.71875 411.75,367 411.437469482422,379.53125 410.5,392.625 408.75,405.90625 406,419 402.21875,431.6875 397.375,443.75 391.25,454.8125 383.625,464.5 379.2421875,468.765625 374.46875,472.5625 369.3046875,475.890625 363.75,478.75 357.75,481.046875 351.25,482.6875 344.25,483.671875 336.75,484 329.6171875,483.6796875 322.96875,482.71875 316.8046875,481.1171875 311.125,478.875 305.875,476.1015625 301,472.90625 296.5,469.2890625 292.375,465.25 285.1875,456.0625 279.375,445.5 274.78125,433.96875 271.25,421.875 268.71875,409.40625 267.125,396.75 266.28125,384.3125 266,372.5 266.28125,359.65625 267.125,346.125 268.71875,332.40625 271.25,319 274.8125,306.03125 279.5,293.625 282.328125,287.7421875 285.5625,282.21875 289.203125,277.0546875 293.25,272.25 297.703125,267.8671875 302.5625,263.96875 307.828125,260.5546875 313.5,257.625 319.65625,255.273452758789 326.375,253.59375 333.65625,252.5859375 341.5,252.25z M183.5,251L193.25,251 193.25,480 167.5,480 167.5,286.5 163.03125,290.375 157.125,294.5 150.28125,298.59375 143,302.375 135.53125,305.8125 128.125,308.875 121.281242370605,311.34375 115.5,313 115.5,287 124.15625,284.34375 133.125,280.875 142.21875,276.78125 151.25,272.25 160.0625,267.3125 168.5,262 176.375,256.5 183.5,251z M259.5,31.9999980926514L270.265625,32.2128982543945 280.9375,32.8515777587891 291.515625,33.9160346984863 302,35.4062690734863 312.390625,37.3222808837891 322.6875,39.6640739440918 332.890625,42.4316482543945 343,45.625 362.6953125,53.1328163146973 381.53125,62.0312538146973 399.5078125,72.3203125 416.625,84 432.773406982422,96.984375 447.843719482422,111.1875 461.835906982422,126.609375 474.75,143.25 480.74609375,151.984375 486.359344482422,160.9375 491.589813232422,170.109375 496.437469482422,179.5 500.902313232422,189.109375 504.984344482422,198.9375 508.68359375,208.984375 512,219.25 481.5,228.75 475.234344482422,210.6640625 467.687469482422,193.40625 458.859375,176.9765625 448.75,161.375 437.515625,146.734375 425.3125,133.1875 412.140625,120.734382629395 398,109.375 382.9921875,99.1718826293945 367.21875,90.1875152587891 350.6796875,82.4218826293945 333.375,75.875 315.4921875,70.6796951293945 297.21875,66.96875 278.5546875,64.7421875 259.5,64 243.34375,64.5703125 227.375,66.2812576293945 211.59375,69.1328201293945 196,73.125 180.75,78.1562728881836 166,84.1250228881836 151.75,91.0312652587891 138,98.875 124.812492370605,107.625007629395 112.249992370605,117.25 100.312492370605,127.75 89,139.125 78.46875,151.2890625 68.875,164.15625 60.21875,177.7265625 52.5,192 131.5,192 131.5,224 3.5,224 3.5,96 35.4999961853027,96 35.4999961853027,156.75 44.8984375,142.617202758789 55.09375,129.218765258789 66.0859375,116.554702758789 77.875,104.625 90.3515625,93.5000228881836 103.40625,83.2500305175781 117.0390625,73.8750152587891 131.25,65.375 145.96875,57.7812652587891 161.125,51.1250228881836 176.71875,45.4062652587891 192.75,40.6249961853027 209.109375,36.8515777587891 225.6875,34.1562728881836 242.484375,32.5390777587891 259.5,31.9999980926514z" />
  </g>
</svg>
