<?xml version="1.0" encoding="utf-8"?>
<svg xmlns="http://www.w3.org/2000/svg" height="26" width="26" viewBox="0 0 26 26">
  <g>
    <path id="path1" transform="rotate(0,11.5,11.5) translate(0.121930803571429,0) scale(0.0513392857142857,0.0513392857142857)  " fill="#ffffff" d="M283.25,164.75L352,233.25 420.75,164.75 443.25,187.25 374.75,256 443.25,324.75 420.75,347.25 352,278.75 283.25,347.25 260.75,324.75 329.25,256 260.75,187.25 283.25,164.75z M160,118.75L86.75,192 32,192 32,320 86.75,320 160,393.25 160,118.75z M169.25,63.9999961853027L192,63.9999961853027 192,448 169.25,448 73.25,352 2.8421709430404E-14,352 2.8421709430404E-14,160 73.25,160 169.25,63.9999961853027z" />
  </g>
</svg>
