<?xml version="1.0" encoding="utf-8"?>
<svg xmlns="http://www.w3.org/2000/svg" height="26" width="26" viewBox="0 0 26 26">
  <g>
    <path id="path1" transform="rotate(0,13,13) translate(0,0) scale(0.05078125,0.05078125)  "
      fill="#FFFFFF"
      d="M282.5,165.5L291.0859375,174.937515258789 298.59375,185 305.0234375,195.6875 310.375,207 314.5859375,218.78125 317.59375,230.875 319.3984375,243.28125 320,256 319.3984375,268.71875 317.59375,281.125 314.5859375,293.21875 310.375,305 305.0234375,316.3125 298.59375,327 291.0859375,337.0625 282.5,346.5 260,324 266.359375,316.9921875 271.9375,309.46875 276.734375,301.4296875 280.75,292.875 283.921875,283.9609375 286.1875,274.84375 287.546875,265.5234375 288,256 287.546875,246.476577758789 286.1875,237.15625 283.921875,228.0390625 280.75,219.125 276.734375,210.5703125 271.9375,202.53125 266.359375,195.0078125 260,188 282.5,165.5z M160,118.75L86.75,192 32,192 32,320 86.75,320 160,393.25 160,118.75z M169.25,64L192,64 192,448 169.5,448 73.25,352 0,352 0,160 73.25,160 169.25,64z" />
  </g>
</svg>