<?xml version="1.0" encoding="utf-8"?>
<svg xmlns="http://www.w3.org/2000/svg" height="26" width="26" viewBox="0 0 26 26">
  <g>
    <path id="path1" transform="rotate(0,13,13) translate(0,0) scale(0.05078125,0.05078125)  "
      fill="#FFFFFF"
      d="M282.5,165.5L291.0859375,174.937515258789 298.59375,185 305.0234375,195.6875 310.375,207 314.5859375,218.78125 317.59375,230.875 319.3984375,243.28125 320,256 319.3984375,268.71875 317.59375,281.125 314.5859375,293.21875 310.375,305 305.0234375,316.3125 298.59375,327 291.0859375,337.0625 282.5,346.5 260,324 266.359375,316.9921875 271.9375,309.46875 276.734375,301.4296875 280.75,292.875 283.921875,283.9609375 286.1875,274.84375 287.546875,265.5234375 288,256 287.546875,246.476577758789 286.1875,237.15625 283.921875,228.0390625 280.75,219.125 276.734375,210.5703125 271.9375,202.53125 266.359375,195.0078125 260,188 282.5,165.5z M160,118.75L86.75,192 32,192 32,320 86.75,320 160,393.25 160,118.75z M350.5,97.5L358.1484375,105.63671875 365.34375,114.046882629395 372.0859375,122.730476379395 378.375,131.6875 384.2109375,140.91796875 389.59375,150.421875 394.5234375,160.19921875 399,170.25 402.984375,180.50390625 406.4375,190.890640258789 409.359375,201.410171508789 411.75,212.0625 413.609375,222.84765625 414.9375,233.765625 415.734375,244.81640625 416,256 415.734375,267.18359375 414.9375,278.234375 413.609375,289.15234375 411.75,299.9375 409.359375,310.58984375 406.4375,321.109375 402.984375,331.49609375 399,341.75 394.5234375,351.80078125 389.59375,361.578125 384.2109375,371.08203125 378.375,380.3125 372.0859375,389.26953125 365.34375,397.953125 358.1484375,406.36328125 350.5,414.5 327.75,391.75 334.36328125,384.81640625 340.578125,377.640625 346.39453125,370.22265625 351.8125,362.5625 356.83203125,354.66015625 361.453125,346.515625 365.67578125,338.12890625 369.5,329.5 372.8984375,320.6953125 375.84375,311.78125 378.3359375,302.7578125 380.375,293.625 381.9609375,284.3828125 383.09375,275.03125 383.7734375,265.5703125 384,256 383.7734375,246.4296875 383.09375,236.96875 381.9609375,227.6171875 380.375,218.375 378.3359375,209.2421875 375.84375,200.21875 372.8984375,191.3046875 369.5,182.5 365.67578125,173.87109375 361.453125,165.484390258789 356.83203125,157.339859008789 351.8125,149.437515258789 346.39453125,141.777359008789 340.578125,134.359390258789 334.36328125,127.183601379395 327.75,120.25 350.5,97.5z M169.25,64L192,64 192,448 169.5,448 73.25,352 0,352 0,160 73.25,160 169.25,64z" />
  </g>
</svg>