<?xml version="1.0" encoding="utf-8"?>
<svg xmlns="http://www.w3.org/2000/svg" height="20" width="20" viewBox="0 0 20 20">
  <g>
    <path id="path1" transform="rotate(0,10,10) translate(-0.5,0) scale(0.0416666666666667,0.0416666666666667)  " fill="#FFFFFF" d="M112,384L104.875,384.5 97,386 88.96875,388.46875 81.375,391.875 74.59375,396.28125 69,401.75 66.8125,404.890625 65.25,408.3125 64.3125,412.015625 64,416 64.3125,419.984375 65.25,423.6875 66.8125,427.109375 69,430.25 74.59375,435.71875 81.375,440.125 88.96875,443.53125 97,446 104.875,447.5 112,448 119.125,447.5 127,446 135.03125,443.53125 142.625,440.125 149.40625,435.71875 155,430.25 157.1875,427.109375 158.75,423.6875 159.6875,419.984375 160,416 159.6875,412.015625 158.75,408.3125 157.1875,404.890625 155,401.75 149.40625,396.28125 142.625,391.875 135.03125,388.46875 127,386 119.125,384.5 112,384z M368,320L360.875,320.5 353,322 344.96875,324.46875 337.375,327.875 330.59375,332.28125 325,337.75 322.8125,340.890625 321.25,344.3125 320.3125,348.015625 320,352 320.3125,355.984375 321.25,359.6875 322.8125,363.109375 325,366.25 330.59375,371.71875 337.375,376.125 344.96875,379.53125 353,382 360.875,383.5 368,384 375.125,383.5 383,382 391.03125,379.53125 398.625,376.125 405.40625,371.71875 411,366.25 413.1875,363.109375 414.75,359.6875 415.6875,355.984375 416,352 415.6875,348.015625 414.75,344.3125 413.1875,340.890625 411,337.75 405.40625,332.28125 398.625,327.875 391.03125,324.46875 383,322 375.125,320.5 368,320z M448,15.5L448,352 447.5390625,359.5234375 446.15625,366.59375 443.8515625,373.2109375 440.625,379.375 436.671875,385.078125 432.1875,390.3125 427.171875,395.078125 421.625,399.375 415.6484375,403.1953125 409.34375,406.53125 402.7109375,409.3828125 395.75,411.75 388.671875,413.609375 381.6875,414.9375 374.796875,415.734375 368,416 361.203125,415.734375 354.3125,414.9375 347.328125,413.609375 340.25,411.75 333.2890625,409.3828125 326.65625,406.53125 320.3515625,403.1953125 314.375,399.375 308.828125,395.078125 303.8125,390.3125 299.328125,385.078125 295.375,379.375 292.1484375,373.2109375 289.84375,366.59375 288.4609375,359.5234375 288,352 288.4609375,344.578125 289.84375,337.5625 292.1484375,330.953125 295.375,324.75 299.328125,318.9921875 303.8125,313.71875 308.828125,308.9296875 314.375,304.625 320.3515625,300.8046875 326.65625,297.46875 333.2890625,294.6171875 340.25,292.25 347.328125,290.390625 354.3125,289.0625 361.203125,288.265625 368,288 374.34375,288.1953125 380.625,288.78125 386.84375,289.7578125 393,291.125 399.03125,292.8984375 404.875,295.09375 410.53125,297.7109375 416,300.75 416,56.5 192,112.5 192,416 191.5390625,423.5234375 190.15625,430.59375 187.8515625,437.2109375 184.625,443.375 180.671875,449.078125 176.1875,454.3125 171.171875,459.078125 165.625,463.375 159.6484375,467.1953125 153.34375,470.53125 146.7109375,473.3828125 139.75,475.75 132.671875,477.609375 125.6875,478.9375 118.796875,479.734375 112,480 105.203125,479.734375 98.3125,478.9375 91.328125,477.609375 84.25,475.75 77.2890625,473.3828125 70.65625,470.53125 64.3515625,467.1953125 58.3750038146973,463.375 52.828125,459.078125 47.8125,454.3125 43.3281211853027,449.078125 39.3749961853027,443.375 36.1484336853027,437.2109375 33.84375,430.59375 32.4609375,423.5234375 32.0000038146973,416 32.4609375,408.578125 33.84375,401.5625 36.1484336853027,394.953125 39.3749961853027,388.75 43.3281211853027,382.9921875 47.8125,377.71875 52.828125,372.9296875 58.3750038146973,368.625 64.3515625,364.8046875 70.65625,361.46875 77.2890625,358.6171875 84.25,356.25 91.328125,354.390625 98.3125,353.0625 105.203125,352.265625 112,352 118.34375,352.1953125 124.625,352.78125 130.84375,353.7578125 137,355.125 143.03125,356.8984375 148.875,359.09375 154.53125,361.7109375 160,364.75 160,87.5 448,15.5z" />
  </g>
</svg>
