<?xml version="1.0" encoding="utf-8"?>
<svg xmlns="http://www.w3.org/2000/svg" height="20" width="20" viewBox="0 0 20 20">
  <g>
    <path id="path1" transform="rotate(0,10,10) translate(0,0) scale(0.0390625,0.0390625)  " fill="#0099BC" d="M336,32L321.34375,32.7109527587891 307.125,34.8437690734863 293.34375,38.3984489440918 280,43.375 267.296875,49.5703163146973 255.4375,56.7812538146973 244.421875,65.0078125 234.25,74.25 225.0078125,84.421875 216.78125,95.4375 209.5703125,107.296875 203.375,120 198.3984375,133.34375 194.84375,147.125 192.7109375,161.343765258789 192,176 192.7109375,190.65625 194.84375,204.875 198.3984375,218.65625 203.375,232 209.5703125,244.703125 216.78125,256.5625 225.0078125,267.578125 234.25,277.75 244.421875,286.9921875 255.4375,295.21875 267.296875,302.4296875 280,308.625 293.34375,313.6015625 307.125,317.15625 321.34375,319.2890625 336,320 350.65625,319.2890625 364.875,317.15625 378.65625,313.6015625 392,308.625 404.703125,302.4296875 416.5625,295.21875 427.578125,286.9921875 437.75,277.75 446.9921875,267.578125 455.21875,256.5625 462.4296875,244.703125 468.625,232 473.6015625,218.65625 477.156219482422,204.875 479.289031982422,190.65625 480,176 479.289031982422,161.343765258789 477.156219482422,147.125 473.6015625,133.34375 468.625,120 462.4296875,107.296875 455.21875,95.4375 446.9921875,84.421875 437.75,74.25 427.578125,65.0078125 416.5625,56.7812538146973 404.703125,49.5703163146973 392,43.375 378.65625,38.3984489440918 364.875,34.8437690734863 350.65625,32.7109527587891 336,32z M336,0L348.015625,0.390626430511475 359.8125,1.56250381469727 371.390625,3.51562929153442 382.75,6.25 393.8125,9.70313930511475 404.5,13.8125228881836 414.8125,18.5781440734863 424.75,24 434.2890625,30.0390701293945 443.40625,36.6562576293945 452.1015625,43.8515663146973 460.375,51.625 468.1484375,59.8984375 475.34375,68.59375 481.9609375,77.7109375 488,87.25 493.421844482422,97.1875 498.187469482422,107.5 502.296875,118.1875 505.75,129.25 508.484375,140.609375 510.4375,152.1875 511.609375,163.984375 512,176 511.609375,188.015640258789 510.4375,199.8125 508.484375,211.390625 505.75,222.75 502.296875,233.8125 498.187469482422,244.5 493.421844482422,254.8125 488,264.75 481.9609375,274.2890625 475.34375,283.40625 468.1484375,292.1015625 460.375,300.375 452.1015625,308.1484375 443.40625,315.34375 434.2890625,321.9609375 424.75,328 414.8125,333.421875 404.5,338.1875 393.8125,342.296875 382.75,345.75 371.390625,348.484375 359.8125,350.4375 348.015625,351.609375 336,352 320.5390625,351.34375 305.40625,349.375 290.6015625,346.09375 276.125,341.5 262.1015625,335.671875 248.656234741211,328.6875 235.789047241211,320.546875 223.5,311.25 27.25,507.25 24.765625,509.328125 22.0625,510.8125 19.140625,511.703125 16,512 12.859375,511.703125 9.9375,510.8125 7.234375,509.328125 4.75,507.25 2.671875,504.765625 1.1875,502.0625 0.296875,499.140625 0,496 0.296875,492.859375 1.1875,489.9375 2.671875,487.234375 4.75,484.75 200.75,288.5 191.453125,276.2109375 183.3125,263.34375 176.328125,249.8984375 170.5,235.875 165.90625,221.398452758789 162.625,206.593765258789 160.65625,191.4609375 160,176 160.390625,163.984375 161.5625,152.1875 163.515625,140.609375 166.25,129.25 169.703125,118.1875 173.8125,107.5 178.578125,97.1875 184,87.25 190.0390625,77.7109375 196.65625,68.59375 203.8515625,59.8984375 211.625,51.625 219.8984375,43.8515663146973 228.59375,36.6562576293945 237.7109375,30.0390701293945 247.25,24 257.1875,18.5781440734863 267.5,13.8125228881836 278.1875,9.70313930511475 289.25,6.25 300.609375,3.51562929153442 312.1875,1.56250381469727 323.984375,0.390626430511475 336,0z" />
  </g>
</svg>

