<?xml version="1.0" encoding="utf-8"?>
<svg xmlns="http://www.w3.org/2000/svg" height="20" width="20" viewBox="0 0 20 20">
  <g>
    <path id="path1" transform="rotate(0,10,10) translate(0,0) scale(0.039177277179236,0.039177277179236)  " fill="#000000" d="M256,190L249.234359741211,190.3203125 242.687484741211,191.28125 236.359359741211,192.8828125 230.25,195.125 224.437484741211,197.929702758789 218.999984741211,201.21875 213.937484741211,204.9921875 209.25,209.25 204.992172241211,213.9375 201.218734741211,219 197.9296875,224.4375 195.125,230.25 192.8828125,236.359375 191.28125,242.6875 190.3203125,249.234375 190,256 190.3203125,262.765625 191.28125,269.3125 192.8828125,275.640625 195.125,281.75 197.9296875,287.5625 201.218734741211,293 204.992172241211,298.0625 209.25,302.75 213.937484741211,307.0078125 218.999984741211,310.78125 224.437484741211,314.0703125 230.25,316.875 236.359359741211,319.1171875 242.687484741211,320.71875 249.234359741211,321.6796875 256,322 262.765625,321.6796875 269.3125,320.71875 275.640625,319.1171875 281.75,316.875 287.5625,314.0703125 293,310.78125 298.0625,307.0078125 302.75,302.75 307.0078125,298.0625 310.78125,293 314.0703125,287.5625 316.875,281.75 319.1171875,275.640625 320.71875,269.3125 321.6796875,262.765625 322,256 321.6796875,249.234375 320.71875,242.6875 319.1171875,236.359375 316.875,230.25 314.0703125,224.4375 310.78125,219 307.0078125,213.9375 302.75,209.25 298.0625,204.9921875 293,201.21875 287.5625,197.929702758789 281.75,195.125 275.640625,192.8828125 269.3125,191.28125 262.765625,190.3203125 256,190z M256,162L265.6015625,162.4609375 274.90625,163.84375 283.9140625,166.1484375 292.625,169.375 300.9140625,173.398452758789 308.65625,178.09375 315.8515625,183.4609375 322.5,189.5 328.5390625,196.1484375 333.90625,203.34375 338.6015625,211.0859375 342.625,219.375 345.8515625,228.085952758789 348.15625,237.09375 349.5390625,246.3984375 350,256 349.5390625,265.6015625 348.15625,274.90625 345.8515625,283.9140625 342.625,292.625 338.6015625,300.9140625 333.90625,308.65625 328.5390625,315.8515625 322.5,322.5 315.8515625,328.5390625 308.65625,333.90625 300.9140625,338.6015625 292.625,342.625 283.9140625,345.8515625 274.90625,348.15625 265.6015625,349.5390625 256,350 246.3984375,349.5390625 237.09375,348.15625 228.0859375,345.8515625 219.375,342.625 211.0859375,338.6015625 203.34375,333.90625 196.1484375,328.5390625 189.5,322.5 183.4609375,315.8515625 178.09375,308.65625 173.3984375,300.9140625 169.375,292.625 166.1484375,283.9140625 163.84375,274.90625 162.4609375,265.6015625 162,256 162.4609375,246.3984375 163.84375,237.09375 166.1484375,228.085952758789 169.375,219.375 173.3984375,211.0859375 178.09375,203.34375 183.4609375,196.1484375 189.5,189.5 196.1484375,183.4609375 203.34375,178.09375 211.0859375,173.398452758789 219.375,169.375 228.0859375,166.1484375 237.09375,163.84375 246.3984375,162.4609375 256,162z M195.5,36.4999961853027L143.5,58 159.25,125.75 150.125,133.593765258789 141.75,141.625 133.75,150.093765258789 125.75,159.25 58,143.5 36.4999961853027,195.5 95.5,232.5 94.5,244.375 94,256.25 94.5,268 95.5,279.75 36.4999961853027,316.5 58,368.5 125.75,352.75 133.59375,361.875 141.625,370.25 150.09375,378.25 159.25,386.25 143.5,454 195.5,475.5 232.5,416.5 244.25,417.5 256,418 267.875,417.5 279.75,416.5 316.5,475.5 368.5,454 352.75,386.25 361.875,378.40625 370.25,370.375 378.25,361.90625 386.25,352.75 454,368.5 475.5,316.5 416.5,279.5 417.5,267.625 418,255.75 417.5,244 416.5,232.25 475.5,195.5 454,143.5 386.25,159.25 378.40625,150.125015258789 370.375,141.75 361.90625,133.750015258789 352.75,125.75 368.5,58 316.5,36.4999961853027 279.5,95.5 267.75,94.5 256,94 244.125,94.5 232.25,95.5 195.5,36.4999961853027z M206.75,1.5L247,66.25 251.5,66.125 256,66 260.5,66.125 265,66.25 305.25,1.5 401,41.25 384,115.5 396.5,128 470.75,111 510.5,206.75 445.75,247 445.875,251.5 446,256 445.875,260.5 445.75,265 510.5,305.25 470.75,401 396.5,384 384,396.5 401,470.75 305.25,510.5 265,445.75 260.5,445.875 256,446 251.5,445.875 247,445.75 206.75,510.5 111,470.75 128,396.5 115.5,384 41.25,401 1.5,305.25 66.25,265 66.125,260.5 66,256 66.125,251.5 66.25,247 1.5,206.75 41.25,111 115.5,128 128,115.5 111,41.25 206.75,1.5z" />
  </g>
</svg>

