<?xml version="1.0" encoding="utf-8"?>
<svg xmlns="http://www.w3.org/2000/svg" height="28" width="28" viewBox="0 0 28 28">
  <g>
    <path id="path1" transform="rotate(0,14,14) translate(0,0) scale(0.0583333333333333,0.0583333333333333)  " fill="#999999" d="M256,224L262.5,224.625 268.5,226.5 273.90625,229.468765258789 278.625,233.375 282.53125,238.093765258789 285.5,243.5 287.375,249.5 288,256 287.375,262.5 285.5,268.5 282.53125,273.90625 278.625,278.625 273.90625,282.53125 268.5,285.5 262.5,287.375 256,288 249.5,287.375 243.5,285.5 238.09375,282.53125 233.375,278.625 229.46875,273.90625 226.5,268.5 224.625,262.5 224,256 224.625,249.5 226.5,243.5 229.46875,238.093765258789 233.375,233.375 238.09375,229.468765258789 243.5,226.5 249.5,224.625 256,224z M256,128L242.953109741211,128.6328125 230.312484741211,130.53125 218.078109741211,133.6953125 206.25,138.125 194.9921875,143.640625 184.46875,150.0625 174.6796875,157.390640258789 165.625,165.625 157.390625,174.6796875 150.0625,184.46875 143.640625,194.9921875 138.125,206.25 133.6953125,218.078125 130.53125,230.3125 128.6328125,242.953125 128,256 128.6328125,269.046875 130.53125,281.6875 133.6953125,293.921875 138.125,305.75 143.640625,317.0078125 150.0625,327.53125 157.390625,337.3203125 165.625,346.375 174.6796875,354.609375 184.46875,361.9375 194.9921875,368.359375 206.25,373.875 218.078109741211,378.3046875 230.312484741211,381.46875 242.953109741211,383.3671875 256,384 269.046875,383.3671875 281.6875,381.46875 293.921875,378.3046875 305.75,373.875 317.0078125,368.359375 327.53125,361.9375 337.3203125,354.609375 346.375,346.375 354.609375,337.3203125 361.9375,327.53125 368.359375,317.0078125 373.875,305.75 378.3046875,293.921875 381.46875,281.6875 383.3671875,269.046875 384,256 383.3671875,242.953125 381.46875,230.3125 378.3046875,218.078125 373.875,206.25 368.359375,194.9921875 361.9375,184.46875 354.609375,174.6796875 346.375,165.625 337.3203125,157.390640258789 327.53125,150.0625 317.0078125,143.640625 305.75,138.125 293.921875,133.6953125 281.6875,130.53125 269.046875,128.6328125 256,128z M256,96L264.248046875,96.1953125 272.3671875,96.78125 280.357421875,97.7578201293945 288.21875,99.1250076293945 295.951171875,100.882820129395 303.5546875,103.031257629395 311.029296875,105.570320129395 318.375,108.5 332.4765625,115.328132629395 345.65625,123.3125 357.9140625,132.453125 369.25,142.75 379.546875,154.0859375 388.6875,166.34375 396.671875,179.5234375 403.5,193.625 406.4296875,200.970703125 408.96875,208.445327758789 411.1171875,216.048843383789 412.875,223.781265258789 414.2421875,231.642593383789 415.21875,239.6328125 415.8046875,247.751953125 416,256 415.8046875,264.248046875 415.21875,272.3671875 414.2421875,280.357421875 412.875,288.21875 411.1171875,295.951171875 408.96875,303.5546875 406.4296875,311.029296875 403.5,318.375 396.671875,332.4765625 388.6875,345.65625 379.546875,357.9140625 369.25,369.25 357.9140625,379.546875 345.65625,388.6875 332.4765625,396.671875 318.375,403.5 311.029296875,406.4296875 303.5546875,408.96875 295.951171875,411.1171875 288.21875,412.875 280.357421875,414.2421875 272.3671875,415.21875 264.248046875,415.8046875 256,416 247.751953125,415.8046875 239.632797241211,415.21875 231.642562866211,414.2421875 223.781234741211,412.875 216.048812866211,411.1171875 208.4453125,408.96875 200.970703125,406.4296875 193.625,403.5 179.5234375,396.671875 166.34375,388.6875 154.0859375,379.546875 142.75,369.25 132.453125,357.9140625 123.3125,345.65625 115.328125,332.4765625 108.5,318.375 105.5703125,311.029296875 103.03125,303.5546875 100.8828125,295.951171875 99.125,288.21875 97.7578125,280.357421875 96.78125,272.3671875 96.1953125,264.248046875 96,256 96.1953125,247.751953125 96.78125,239.6328125 97.7578125,231.642593383789 99.125,223.781265258789 100.8828125,216.048843383789 103.03125,208.445327758789 105.5703125,200.970703125 108.5,193.625 115.328125,179.5234375 123.3125,166.34375 132.453125,154.0859375 142.75,142.75 154.0859375,132.453125 166.34375,123.3125 179.5234375,115.328132629395 193.625,108.5 200.970703125,105.570320129395 208.4453125,103.031257629395 216.048812866211,100.882820129395 223.781234741211,99.1250076293945 231.642562866211,97.7578201293945 239.632797241211,96.78125 247.751953125,96.1953125 256,96z M64,64L64,448 448,448 448,64 64,64z M32,32L480,32 480,480 32,480 32,32z" />
  </g>
</svg>

