<?xml version="1.0" encoding="utf-8"?>
<svg xmlns="http://www.w3.org/2000/svg" height="32" width="32" viewBox="0 0 32 32">
  <g>
    <path id="path1" transform="rotate(0,16,16) translate(4.0809968847352,4) scale(0.0498442367601246,0.0498442367601246)  " fill="#000000" d="M112,62.5000038146973L108.859375,62.7968788146973 105.9375,63.6875038146973 103.234375,65.1718826293945 100.75,67.25 98.671875,69.7343902587891 97.1875,72.4375152587891 96.296875,75.3593902587891 96,78.5 96,433.5 96.296875,436.640625 97.1875,439.5625 98.671875,442.265625 100.75,444.75 103.234375,446.828125 105.9375,448.3125 108.859375,449.203125 112,449.5 116.062492370605,449 119.75,447.5 438,270 441.374969482422,267.53125 444,264.125 445.687469482422,260.15625 446.25,256 445.687469482422,251.843765258789 444,247.875 441.374969482422,244.468765258789 438,242 119.75,64.5 116.062492370605,63.0000076293945 112,62.5000038146973z M112,30.5L118,30.8750228881836 124,31.9999980926514 129.8125,33.8750228881836 135.25,36.5 453.75,214 459.1875,217.546875 464,221.6875 468.1875,226.421875 471.75,231.75 474.59375,237.484375 476.625,243.4375 477.84375,249.609375 478.25,256 477.8515625,262.4921875 476.65625,268.71875 474.6640625,274.6796875 471.875,280.375 468.3515625,285.6484375 464.15625,290.34375 459.2890625,294.4609375 453.75,298 135.5,475.5 130.0625,478.125 124.25,480 118.25,481.125 112.25,481.5 107.328125,481.265625 102.5625,480.5625 97.953125,479.390625 93.5,477.75 85.28125,473.3125 78.125,467.5 72.21875,460.4375 67.75,452.25 66.109375,447.796875 64.9375,443.1875 64.234375,438.421875 64,433.5 64,78.5 64.234375,73.5781326293945 64.9375,68.8125076293945 66.109375,64.2031326293945 67.75,59.75 72.1875,51.5625114440918 78,44.5 85.0625,38.6875190734863 93.25,34.2500038146973 97.703125,32.6093940734863 102.3125,31.4375228881836 107.078125,30.7343921661377 112,30.5z" />
  </g>
</svg>

