<?xml version="1.0" encoding="UTF-8" standalone="no"?>
<!DOCTYPE svg PUBLIC "-//W3C//DTD SVG 1.1//EN"
 "http://www.w3.org/Graphics/SVG/1.1/DTD/svg11.dtd">
<!-- Generated by graphviz version 2.44.1 (20200629.0846)
 -->
<!-- Title: classes Pages: 1 -->
<svg width="3082pt" height="2150pt"
 viewBox="0.00 0.00 3081.50 2150.00" xmlns="http://www.w3.org/2000/svg" xmlns:xlink="http://www.w3.org/1999/xlink">
<g id="graph0" class="graph" transform="scale(1 1) rotate(0) translate(4 2146)">
<title>classes</title>
<polygon fill="white" stroke="transparent" points="-4,4 -4,-2146 3077.5,-2146 3077.5,4 -4,4"/>
<!-- 0 -->
<g id="node1" class="node">
<title>0</title>
<polygon fill="none" stroke="black" points="0,-316.5 0,-1285.5 379,-1285.5 379,-316.5 0,-316.5"/>
<text text-anchor="middle" x="189.5" y="-1270.3" font-family="Times New Roman,serif" font-size="14.00">AlbumCardViewer</text>
<polyline fill="none" stroke="black" points="0,-1262.5 379,-1262.5 "/>
<text text-anchor="start" x="8" y="-1247.3" font-family="Times New Roman,serif" font-size="14.00">addAlbumToCustomPlaylistSig</text>
<text text-anchor="start" x="8" y="-1232.3" font-family="Times New Roman,serif" font-size="14.00">addAlbumToNewCustomPlaylistSig</text>
<text text-anchor="start" x="8" y="-1217.3" font-family="Times New Roman,serif" font-size="14.00">addAlbumToPlayingSignal</text>
<text text-anchor="start" x="8" y="-1202.3" font-family="Times New Roman,serif" font-size="14.00">addTimeGroup_list : list</text>
<text text-anchor="start" x="8" y="-1187.3" font-family="Times New Roman,serif" font-size="14.00">albumBlurBackground : AlbumBlurBackground</text>
<text text-anchor="start" x="8" y="-1172.3" font-family="Times New Roman,serif" font-size="14.00">albumCardDict_list : list</text>
<text text-anchor="start" x="8" y="-1157.3" font-family="Times New Roman,serif" font-size="14.00">albumCard_list : list</text>
<text text-anchor="start" x="8" y="-1142.3" font-family="Times New Roman,serif" font-size="14.00">albumInfo_list</text>
<text text-anchor="start" x="8" y="-1127.3" font-family="Times New Roman,serif" font-size="14.00">albumNumChanged</text>
<text text-anchor="start" x="8" y="-1112.3" font-family="Times New Roman,serif" font-size="14.00">checkedAlbumCardNumChanged</text>
<text text-anchor="start" x="8" y="-1097.3" font-family="Times New Roman,serif" font-size="14.00">checkedAlbumCard_list : list</text>
<text text-anchor="start" x="8" y="-1082.3" font-family="Times New Roman,serif" font-size="14.00">columnNum : int</text>
<text text-anchor="start" x="8" y="-1067.3" font-family="Times New Roman,serif" font-size="14.00">currentGroupDict_list : list</text>
<text text-anchor="start" x="8" y="-1052.3" font-family="Times New Roman,serif" font-size="14.00">firsetLetterGroupDict_list : list</text>
<text text-anchor="start" x="8" y="-1037.3" font-family="Times New Roman,serif" font-size="14.00">guideLabel</text>
<text text-anchor="start" x="8" y="-1022.3" font-family="Times New Roman,serif" font-size="14.00">hideCheckBoxAniGroup</text>
<text text-anchor="start" x="8" y="-1007.3" font-family="Times New Roman,serif" font-size="14.00">hideCheckBoxAni_list : list</text>
<text text-anchor="start" x="8" y="-992.3" font-family="Times New Roman,serif" font-size="14.00">isAllAlbumCardsChecked : bool</text>
<text text-anchor="start" x="8" y="-977.3" font-family="Times New Roman,serif" font-size="14.00">isInSelectionMode : bool</text>
<text text-anchor="start" x="8" y="-962.3" font-family="Times New Roman,serif" font-size="14.00">nextPlaySignal</text>
<text text-anchor="start" x="8" y="-947.3" font-family="Times New Roman,serif" font-size="14.00">playSignal</text>
<text text-anchor="start" x="8" y="-932.3" font-family="Times New Roman,serif" font-size="14.00">saveAlbumInfoSig</text>
<text text-anchor="start" x="8" y="-917.3" font-family="Times New Roman,serif" font-size="14.00">scrollArea : ScrollArea</text>
<text text-anchor="start" x="8" y="-902.3" font-family="Times New Roman,serif" font-size="14.00">scrollWidget</text>
<text text-anchor="start" x="8" y="-887.3" font-family="Times New Roman,serif" font-size="14.00">scrollWidgetVBoxLayout</text>
<text text-anchor="start" x="8" y="-872.3" font-family="Times New Roman,serif" font-size="14.00">selectionModeStateChanged</text>
<text text-anchor="start" x="8" y="-857.3" font-family="Times New Roman,serif" font-size="14.00">songerGroupDict_list : list</text>
<text text-anchor="start" x="8" y="-842.3" font-family="Times New Roman,serif" font-size="14.00">sortMode : str</text>
<text text-anchor="start" x="8" y="-827.3" font-family="Times New Roman,serif" font-size="14.00">switchToAlbumInterfaceSig</text>
<text text-anchor="start" x="8" y="-812.3" font-family="Times New Roman,serif" font-size="14.00">yearGroupDict_list : list</text>
<polyline fill="none" stroke="black" points="0,-804.5 379,-804.5 "/>
<text text-anchor="start" x="8" y="-789.3" font-family="Times New Roman,serif" font-size="14.00">__addAlbumCardToGridLayout()</text>
<text text-anchor="start" x="8" y="-774.3" font-family="Times New Roman,serif" font-size="14.00">__addContainterToVBoxLayout()</text>
<text text-anchor="start" x="8" y="-759.3" font-family="Times New Roman,serif" font-size="14.00">__adjustScrollWidgetSize()</text>
<text text-anchor="start" x="8" y="-744.3" font-family="Times New Roman,serif" font-size="14.00">__albumCardCheckedStateChangedSlot(albumCard, isChecked)</text>
<text text-anchor="start" x="8" y="-729.3" font-family="Times New Roman,serif" font-size="14.00">__connectSignalToSlot()</text>
<text text-anchor="start" x="8" y="-714.3" font-family="Times New Roman,serif" font-size="14.00">__createAlbumCards()</text>
<text text-anchor="start" x="8" y="-699.3" font-family="Times New Roman,serif" font-size="14.00">__createGuideLabel()</text>
<text text-anchor="start" x="8" y="-684.3" font-family="Times New Roman,serif" font-size="14.00">__createOneAlbumCard(albumInfo)</text>
<text text-anchor="start" x="8" y="-669.3" font-family="Times New Roman,serif" font-size="14.00">__deleteAlbumCards(albumInfo_list)</text>
<text text-anchor="start" x="8" y="-654.3" font-family="Times New Roman,serif" font-size="14.00">__hideAllCheckBox()</text>
<text text-anchor="start" x="8" y="-639.3" font-family="Times New Roman,serif" font-size="14.00">__initLayout()</text>
<text text-anchor="start" x="8" y="-624.3" font-family="Times New Roman,serif" font-size="14.00">__initWidget()</text>
<text text-anchor="start" x="8" y="-609.3" font-family="Times New Roman,serif" font-size="14.00">__removeContainerFromVBoxLayout()</text>
<text text-anchor="start" x="8" y="-594.3" font-family="Times New Roman,serif" font-size="14.00">__setAllAlbumCardSelectionModeOpen(isOpenSelectionMode)</text>
<text text-anchor="start" x="8" y="-579.3" font-family="Times New Roman,serif" font-size="14.00">__setQss()</text>
<text text-anchor="start" x="8" y="-564.3" font-family="Times New Roman,serif" font-size="14.00">__showBlurAlbumBackground(pos, picPath)</text>
<text text-anchor="start" x="8" y="-549.3" font-family="Times New Roman,serif" font-size="14.00">__startHideCheckBoxAni()</text>
<text text-anchor="start" x="8" y="-534.3" font-family="Times New Roman,serif" font-size="14.00">__updateColumnNum(columnNum)</text>
<text text-anchor="start" x="8" y="-519.3" font-family="Times New Roman,serif" font-size="14.00">findAlbumCardByAlbumInfo(albumInfo)</text>
<text text-anchor="start" x="8" y="-504.3" font-family="Times New Roman,serif" font-size="14.00">findAlbumCardByName(albumName, songerName)</text>
<text text-anchor="start" x="8" y="-489.3" font-family="Times New Roman,serif" font-size="14.00">resizeEvent(event)</text>
<text text-anchor="start" x="8" y="-474.3" font-family="Times New Roman,serif" font-size="14.00">setAllAlbumCardCheckedState(isAllChecked)</text>
<text text-anchor="start" x="8" y="-459.3" font-family="Times New Roman,serif" font-size="14.00">setSortMode(sortMode)</text>
<text text-anchor="start" x="8" y="-444.3" font-family="Times New Roman,serif" font-size="14.00">showDeleteMultiAlbumCardPanel(albumInfo_list)</text>
<text text-anchor="start" x="8" y="-429.3" font-family="Times New Roman,serif" font-size="14.00">showDeleteOneCardPanel(albumInfo)</text>
<text text-anchor="start" x="8" y="-414.3" font-family="Times New Roman,serif" font-size="14.00">sortByAddTime()</text>
<text text-anchor="start" x="8" y="-399.3" font-family="Times New Roman,serif" font-size="14.00">sortByFirstLetter()</text>
<text text-anchor="start" x="8" y="-384.3" font-family="Times New Roman,serif" font-size="14.00">sortBySonger()</text>
<text text-anchor="start" x="8" y="-369.3" font-family="Times New Roman,serif" font-size="14.00">sortByYear()</text>
<text text-anchor="start" x="8" y="-354.3" font-family="Times New Roman,serif" font-size="14.00">unCheckAlbumCards()</text>
<text text-anchor="start" x="8" y="-339.3" font-family="Times New Roman,serif" font-size="14.00">updateAllAlbumCards(albumInfo_list)</text>
<text text-anchor="start" x="8" y="-324.3" font-family="Times New Roman,serif" font-size="14.00">updateOneAlbumCardSongInfo(newSongInfo)</text>
</g>
<!-- 4 -->
<g id="node5" class="node">
<title>4</title>
<polygon fill="none" stroke="black" points="1706.5,-1337.5 1706.5,-2141.5 2052.5,-2141.5 2052.5,-1337.5 1706.5,-1337.5"/>
<text text-anchor="middle" x="1879.5" y="-2126.3" font-family="Times New Roman,serif" font-size="14.00">MyMusicInterface</text>
<polyline fill="none" stroke="black" points="1706.5,-2118.5 2052.5,-2118.5 "/>
<text text-anchor="start" x="1714.5" y="-2103.3" font-family="Times New Roman,serif" font-size="14.00">__actionTriggeredFlag : bool</text>
<text text-anchor="start" x="1714.5" y="-2088.3" font-family="Times New Roman,serif" font-size="14.00">__albumCoverGetter</text>
<text text-anchor="start" x="1714.5" y="-2073.3" font-family="Times New Roman,serif" font-size="14.00">__albumInfoGetter</text>
<text text-anchor="start" x="1714.5" y="-2058.3" font-family="Times New Roman,serif" font-size="14.00">__songInfoGetter</text>
<text text-anchor="start" x="1714.5" y="-2043.3" font-family="Times New Roman,serif" font-size="14.00">__targetFolderPath_list</text>
<text text-anchor="start" x="1714.5" y="-2028.3" font-family="Times New Roman,serif" font-size="14.00">addSongsToCustomPlaylistSig</text>
<text text-anchor="start" x="1714.5" y="-2013.3" font-family="Times New Roman,serif" font-size="14.00">addSongsToNewCustomPlaylistSig</text>
<text text-anchor="start" x="1714.5" y="-1998.3" font-family="Times New Roman,serif" font-size="14.00">addSongsToPlayingPlaylistSig</text>
<text text-anchor="start" x="1714.5" y="-1983.3" font-family="Times New Roman,serif" font-size="14.00">albumCardViewer</text>
<text text-anchor="start" x="1714.5" y="-1968.3" font-family="Times New Roman,serif" font-size="14.00">albumTabButton</text>
<text text-anchor="start" x="1714.5" y="-1953.3" font-family="Times New Roman,serif" font-size="14.00">albumTabSelectionModeBar</text>
<text text-anchor="start" x="1714.5" y="-1938.3" font-family="Times New Roman,serif" font-size="14.00">currentAlbumSortAct</text>
<text text-anchor="start" x="1714.5" y="-1923.3" font-family="Times New Roman,serif" font-size="14.00">currentIndexChanged</text>
<text text-anchor="start" x="1714.5" y="-1908.3" font-family="Times New Roman,serif" font-size="14.00">currentSongSortAct</text>
<text text-anchor="start" x="1714.5" y="-1893.3" font-family="Times New Roman,serif" font-size="14.00">isInSelectionMode : bool</text>
<text text-anchor="start" x="1714.5" y="-1878.3" font-family="Times New Roman,serif" font-size="14.00">nextToPlayCheckedCardsSig</text>
<text text-anchor="start" x="1714.5" y="-1863.3" font-family="Times New Roman,serif" font-size="14.00">playCheckedCardsSig</text>
<text text-anchor="start" x="1714.5" y="-1848.3" font-family="Times New Roman,serif" font-size="14.00">randomPlayAllSig</text>
<text text-anchor="start" x="1714.5" y="-1833.3" font-family="Times New Roman,serif" font-size="14.00">selectionModeStateChanged</text>
<text text-anchor="start" x="1714.5" y="-1818.3" font-family="Times New Roman,serif" font-size="14.00">songCardListWidget</text>
<text text-anchor="start" x="1714.5" y="-1803.3" font-family="Times New Roman,serif" font-size="14.00">songTabButton</text>
<text text-anchor="start" x="1714.5" y="-1788.3" font-family="Times New Roman,serif" font-size="14.00">songTabSelectionModeBar</text>
<text text-anchor="start" x="1714.5" y="-1773.3" font-family="Times New Roman,serif" font-size="14.00">songerTabButton</text>
<text text-anchor="start" x="1714.5" y="-1758.3" font-family="Times New Roman,serif" font-size="14.00">stackedWidget</text>
<text text-anchor="start" x="1714.5" y="-1743.3" font-family="Times New Roman,serif" font-size="14.00">toolBar</text>
<polyline fill="none" stroke="black" points="1706.5,-1735.5 2052.5,-1735.5 "/>
<text text-anchor="start" x="1714.5" y="-1720.3" font-family="Times New Roman,serif" font-size="14.00">__addToMenuTriggeredSlot()</text>
<text text-anchor="start" x="1714.5" y="-1705.3" font-family="Times New Roman,serif" font-size="14.00">__albumTabSelectAllButtonSlot()</text>
<text text-anchor="start" x="1714.5" y="-1690.3" font-family="Times New Roman,serif" font-size="14.00">__buttonSelectedSlot(tabIndex)</text>
<text text-anchor="start" x="1714.5" y="-1675.3" font-family="Times New Roman,serif" font-size="14.00">__changeTabSlot(index)</text>
<text text-anchor="start" x="1714.5" y="-1660.3" font-family="Times New Roman,serif" font-size="14.00">__checkedCardNumChangedSlot(num)</text>
<text text-anchor="start" x="1714.5" y="-1645.3" font-family="Times New Roman,serif" font-size="14.00">__connectSignalToSlot()</text>
<text text-anchor="start" x="1714.5" y="-1630.3" font-family="Times New Roman,serif" font-size="14.00">__createWidgets()</text>
<text text-anchor="start" x="1714.5" y="-1615.3" font-family="Times New Roman,serif" font-size="14.00">__editCardInfo()</text>
<text text-anchor="start" x="1714.5" y="-1600.3" font-family="Times New Roman,serif" font-size="14.00">__emitAlbumTabPlaylist()</text>
<text text-anchor="start" x="1714.5" y="-1585.3" font-family="Times New Roman,serif" font-size="14.00">__emitSongTabPlaylist()</text>
<text text-anchor="start" x="1714.5" y="-1570.3" font-family="Times New Roman,serif" font-size="14.00">__initWidget()</text>
<text text-anchor="start" x="1714.5" y="-1555.3" font-family="Times New Roman,serif" font-size="14.00">__referenceWidgets()</text>
<text text-anchor="start" x="1714.5" y="-1540.3" font-family="Times New Roman,serif" font-size="14.00">__selectionModeStateChangedSlot(isOpenSelectionMode)</text>
<text text-anchor="start" x="1714.5" y="-1525.3" font-family="Times New Roman,serif" font-size="14.00">__showAddToMenu()</text>
<text text-anchor="start" x="1714.5" y="-1510.3" font-family="Times New Roman,serif" font-size="14.00">__showCheckedSongCardProperty()</text>
<text text-anchor="start" x="1714.5" y="-1495.3" font-family="Times New Roman,serif" font-size="14.00">__showSortModeMenu()</text>
<text text-anchor="start" x="1714.5" y="-1480.3" font-family="Times New Roman,serif" font-size="14.00">__songTabSelectAllButtonSlot()</text>
<text text-anchor="start" x="1714.5" y="-1465.3" font-family="Times New Roman,serif" font-size="14.00">__sortAlbumCard()</text>
<text text-anchor="start" x="1714.5" y="-1450.3" font-family="Times New Roman,serif" font-size="14.00">__sortSongCard()</text>
<text text-anchor="start" x="1714.5" y="-1435.3" font-family="Times New Roman,serif" font-size="14.00">__switchToAlbumInterface()</text>
<text text-anchor="start" x="1714.5" y="-1420.3" font-family="Times New Roman,serif" font-size="14.00">__unCheckAlbumCards()</text>
<text text-anchor="start" x="1714.5" y="-1405.3" font-family="Times New Roman,serif" font-size="14.00">__unCheckSongCards()</text>
<text text-anchor="start" x="1714.5" y="-1390.3" font-family="Times New Roman,serif" font-size="14.00">exitSelectionMode()</text>
<text text-anchor="start" x="1714.5" y="-1375.3" font-family="Times New Roman,serif" font-size="14.00">resizeEvent(e)</text>
<text text-anchor="start" x="1714.5" y="-1360.3" font-family="Times New Roman,serif" font-size="14.00">scanTargetPathSongInfo(targetFolderPath_list)</text>
<text text-anchor="start" x="1714.5" y="-1345.3" font-family="Times New Roman,serif" font-size="14.00">setSelectedButton(index)</text>
</g>
<!-- 0&#45;&gt;4 -->
<g id="edge1" class="edge">
<title>0&#45;&gt;4</title>
<path fill="none" stroke="black" d="M379.07,-1277.12C382.16,-1280.14 385.31,-1283.1 388.5,-1286 762.73,-1626.12 1385.47,-1710.8 1694.23,-1731.73"/>
<polygon fill="black" stroke="black" points="1694.46,-1731.75 1700.71,-1728.15 1706.43,-1732.54 1700.18,-1736.13 1694.46,-1731.75"/>
<text text-anchor="middle" x="471" y="-1307.8" font-family="Times New Roman,serif" font-size="14.00" fill="green">albumCardViewer</text>
</g>
<!-- 1 -->
<g id="node2" class="node">
<title>1</title>
<polygon fill="none" stroke="black" points="397.5,-699 397.5,-903 735.5,-903 735.5,-699 397.5,-699"/>
<text text-anchor="middle" x="566.5" y="-887.8" font-family="Times New Roman,serif" font-size="14.00">GetAlbumCover</text>
<polyline fill="none" stroke="black" points="397.5,-880 735.5,-880 "/>
<text text-anchor="start" x="405.5" y="-864.8" font-family="Times New Roman,serif" font-size="14.00">album_cover_folder : str</text>
<text text-anchor="start" x="405.5" y="-849.8" font-family="Times New Roman,serif" font-size="14.00">songInfo</text>
<text text-anchor="start" x="405.5" y="-834.8" font-family="Times New Roman,serif" font-size="14.00">target_path_list</text>
<polyline fill="none" stroke="black" points="397.5,-827 735.5,-827 "/>
<text text-anchor="start" x="405.5" y="-811.8" font-family="Times New Roman,serif" font-size="14.00">__getFlacAlbumCover(info_dict)</text>
<text text-anchor="start" x="405.5" y="-796.8" font-family="Times New Roman,serif" font-size="14.00">__getID3AlbumCover(info_dict)</text>
<text text-anchor="start" x="405.5" y="-781.8" font-family="Times New Roman,serif" font-size="14.00">__getM4aAlbumCover(info_dict)</text>
<text text-anchor="start" x="405.5" y="-766.8" font-family="Times New Roman,serif" font-size="14.00">__getPicSuffix(pic_data)</text>
<text text-anchor="start" x="405.5" y="-751.8" font-family="Times New Roman,serif" font-size="14.00">__isPicExist(info_dict)</text>
<text text-anchor="start" x="405.5" y="-736.8" font-family="Times New Roman,serif" font-size="14.00">__savePic(sub_album_cover_folder, info_dict, pic_data)</text>
<text text-anchor="start" x="405.5" y="-721.8" font-family="Times New Roman,serif" font-size="14.00">getAlbum()</text>
<text text-anchor="start" x="405.5" y="-706.8" font-family="Times New Roman,serif" font-size="14.00">updateAlbumCover(target_path_list, isRescanFolders)</text>
</g>
<!-- 1&#45;&gt;4 -->
<g id="edge2" class="edge">
<title>1&#45;&gt;4</title>
<path fill="none" stroke="black" d="M551.84,-903.25C541.23,-1017.42 542.71,-1202.31 639.5,-1319 903.35,-1637.12 1418.1,-1714.96 1694.12,-1733.37"/>
<polygon fill="black" stroke="black" points="1694.29,-1733.38 1700.54,-1729.77 1706.27,-1734.15 1700.02,-1737.76 1694.29,-1733.38"/>
<text text-anchor="middle" x="698.5" y="-1307.8" font-family="Times New Roman,serif" font-size="14.00" fill="green">__albumCoverGetter</text>
</g>
<!-- 2 -->
<g id="node3" class="node">
<title>2</title>
<polygon fill="none" stroke="black" points="890,-721.5 890,-880.5 1087,-880.5 1087,-721.5 890,-721.5"/>
<text text-anchor="middle" x="988.5" y="-865.3" font-family="Times New Roman,serif" font-size="14.00">GetAlbumInfo</text>
<polyline fill="none" stroke="black" points="890,-857.5 1087,-857.5 "/>
<text text-anchor="start" x="898" y="-842.3" font-family="Times New Roman,serif" font-size="14.00">albumInfo_list : list, NoneType</text>
<polyline fill="none" stroke="black" points="890,-834.5 1087,-834.5 "/>
<text text-anchor="start" x="898" y="-819.3" font-family="Times New Roman,serif" font-size="14.00">getAlbumInfo(songInfo_list)</text>
<text text-anchor="start" x="898" y="-804.3" font-family="Times New Roman,serif" font-size="14.00">getOneAlbumInfo(albumName)</text>
<text text-anchor="start" x="898" y="-789.3" font-family="Times New Roman,serif" font-size="14.00">sortAlbum(songInfo)</text>
<text text-anchor="start" x="898" y="-774.3" font-family="Times New Roman,serif" font-size="14.00">sortByDictOrder()</text>
<text text-anchor="start" x="898" y="-759.3" font-family="Times New Roman,serif" font-size="14.00">sortBySonger()</text>
<text text-anchor="start" x="898" y="-744.3" font-family="Times New Roman,serif" font-size="14.00">sortByUpdateTime()</text>
<text text-anchor="start" x="898" y="-729.3" font-family="Times New Roman,serif" font-size="14.00">updateAlbumInfo(songInfo_list)</text>
</g>
<!-- 2&#45;&gt;4 -->
<g id="edge3" class="edge">
<title>2&#45;&gt;4</title>
<path fill="none" stroke="black" d="M987.13,-880.66C989.21,-983.48 1006.6,-1164.7 1095.5,-1286 1244.31,-1489.05 1513.87,-1615.17 1694.79,-1681.12"/>
<polygon fill="black" stroke="black" points="1695.02,-1681.21 1702.02,-1679.48 1706.3,-1685.28 1699.3,-1687.01 1695.02,-1681.21"/>
<text text-anchor="middle" x="1164" y="-1307.8" font-family="Times New Roman,serif" font-size="14.00" fill="green">__albumInfoGetter</text>
</g>
<!-- 3 -->
<g id="node4" class="node">
<title>3</title>
<polygon fill="none" stroke="black" points="505.5,-0.5 505.5,-264.5 833.5,-264.5 833.5,-0.5 505.5,-0.5"/>
<text text-anchor="middle" x="669.5" y="-249.3" font-family="Times New Roman,serif" font-size="14.00">GetSongInfo</text>
<polyline fill="none" stroke="black" points="505.5,-241.5 833.5,-241.5 "/>
<text text-anchor="start" x="513.5" y="-226.3" font-family="Times New Roman,serif" font-size="14.00">songInfo_list : list</text>
<text text-anchor="start" x="513.5" y="-211.3" font-family="Times New Roman,serif" font-size="14.00">songPath_list</text>
<text text-anchor="start" x="513.5" y="-196.3" font-family="Times New Roman,serif" font-size="14.00">song_list</text>
<text text-anchor="start" x="513.5" y="-181.3" font-family="Times New Roman,serif" font-size="14.00">songer_list : list</text>
<text text-anchor="start" x="513.5" y="-166.3" font-family="Times New Roman,serif" font-size="14.00">songname_list : list</text>
<text text-anchor="start" x="513.5" y="-151.3" font-family="Times New Roman,serif" font-size="14.00">suffix_list : list</text>
<text text-anchor="start" x="513.5" y="-136.3" font-family="Times New Roman,serif" font-size="14.00">targetFolderPath_list : list</text>
<polyline fill="none" stroke="black" points="505.5,-128.5 833.5,-128.5 "/>
<text text-anchor="start" x="513.5" y="-113.3" font-family="Times New Roman,serif" font-size="14.00">adjustTrackNumber(trackNum)</text>
<text text-anchor="start" x="513.5" y="-98.3" font-family="Times New Roman,serif" font-size="14.00">fetch_album_tcon_year_trkn(suffix, id_card, songPath)</text>
<text text-anchor="start" x="513.5" y="-83.3" font-family="Times New Roman,serif" font-size="14.00">getInfo(targetFolderPath_list)</text>
<text text-anchor="start" x="513.5" y="-68.3" font-family="Times New Roman,serif" font-size="14.00">scanTargetFolderSongInfo(targetFolderPath_list)</text>
<text text-anchor="start" x="513.5" y="-53.3" font-family="Times New Roman,serif" font-size="14.00">sortByCreateTime()</text>
<text text-anchor="start" x="513.5" y="-38.3" font-family="Times New Roman,serif" font-size="14.00">sortByDictOrder()</text>
<text text-anchor="start" x="513.5" y="-23.3" font-family="Times New Roman,serif" font-size="14.00">sortBySonger()</text>
<text text-anchor="start" x="513.5" y="-8.3" font-family="Times New Roman,serif" font-size="14.00">split_song_list(filePath_list, flag)</text>
</g>
<!-- 3&#45;&gt;1 -->
<g id="edge4" class="edge">
<title>3&#45;&gt;1</title>
<path fill="none" stroke="black" d="M649.21,-264.78C630.19,-387.85 602.06,-569.92 584,-686.77"/>
<polygon fill="black" stroke="black" points="583.95,-687.06 586.99,-693.6 582.12,-698.92 579.08,-692.38 583.95,-687.06"/>
<text text-anchor="middle" x="671" y="-286.8" font-family="Times New Roman,serif" font-size="14.00" fill="green">songInfo</text>
</g>
<!-- 3&#45;&gt;4 -->
<g id="edge5" class="edge">
<title>3&#45;&gt;4</title>
<path fill="none" stroke="black" d="M729.72,-264.56C735.65,-281.58 740.82,-299.01 744.5,-316 767.35,-421.4 718.83,-1197.52 780.5,-1286 990.56,-1587.41 1440.04,-1688.44 1694.29,-1722.02"/>
<polygon fill="black" stroke="black" points="1694.35,-1722.03 1700.81,-1718.83 1706.25,-1723.57 1699.78,-1726.77 1694.35,-1722.03"/>
<text text-anchor="middle" x="830.5" y="-797.3" font-family="Times New Roman,serif" font-size="14.00" fill="green">__songInfoGetter</text>
</g>
<!-- 5 -->
<g id="node6" class="node">
<title>5</title>
<polygon fill="none" stroke="black" points="1105,-639 1105,-963 1644,-963 1644,-639 1105,-639"/>
<text text-anchor="middle" x="1374.5" y="-947.8" font-family="Times New Roman,serif" font-size="14.00">PopUpAniStackedWidget</text>
<polyline fill="none" stroke="black" points="1105,-940 1644,-940 "/>
<text text-anchor="start" x="1113" y="-924.8" font-family="Times New Roman,serif" font-size="14.00">__currentAniGroup : NoneType</text>
<text text-anchor="start" x="1113" y="-909.8" font-family="Times New Roman,serif" font-size="14.00">__currentOpacityAni</text>
<text text-anchor="start" x="1113" y="-894.8" font-family="Times New Roman,serif" font-size="14.00">__currentWidget</text>
<text text-anchor="start" x="1113" y="-879.8" font-family="Times New Roman,serif" font-size="14.00">__isCurrentWidgetNeedOpAni</text>
<text text-anchor="start" x="1113" y="-864.8" font-family="Times New Roman,serif" font-size="14.00">__isNeedPopOut : bool</text>
<text text-anchor="start" x="1113" y="-849.8" font-family="Times New Roman,serif" font-size="14.00">__isNextWidgetNeedOpAni</text>
<text text-anchor="start" x="1113" y="-834.8" font-family="Times New Roman,serif" font-size="14.00">__nextIndex : NoneType</text>
<text text-anchor="start" x="1113" y="-819.8" font-family="Times New Roman,serif" font-size="14.00">__nextOpacityAni</text>
<text text-anchor="start" x="1113" y="-804.8" font-family="Times New Roman,serif" font-size="14.00">__nextWidget</text>
<text text-anchor="start" x="1113" y="-789.8" font-family="Times New Roman,serif" font-size="14.00">__sequentAniGroup : NoneType</text>
<text text-anchor="start" x="1113" y="-774.8" font-family="Times New Roman,serif" font-size="14.00">__widgetAni_list : list</text>
<text text-anchor="start" x="1113" y="-759.8" font-family="Times New Roman,serif" font-size="14.00">aniFinished</text>
<text text-anchor="start" x="1113" y="-744.8" font-family="Times New Roman,serif" font-size="14.00">aniStart</text>
<polyline fill="none" stroke="black" points="1105,-737 1644,-737 "/>
<text text-anchor="start" x="1113" y="-721.8" font-family="Times New Roman,serif" font-size="14.00">__aniFinishedSlot()</text>
<text text-anchor="start" x="1113" y="-706.8" font-family="Times New Roman,serif" font-size="14.00">__setAnimation(ani, startValue, endValue, duration, easingCurve)</text>
<text text-anchor="start" x="1113" y="-691.8" font-family="Times New Roman,serif" font-size="14.00">addWidget(widget, deltaX, deltaY, isNeedOpacityAni)</text>
<text text-anchor="start" x="1113" y="-676.8" font-family="Times New Roman,serif" font-size="14.00">resizeEvent(e)</text>
<text text-anchor="start" x="1113" y="-661.8" font-family="Times New Roman,serif" font-size="14.00">setCurrentIndex(index, isNeedPopOut, isShowNextWidgetDirectly, duration, easingCurve)</text>
<text text-anchor="start" x="1113" y="-646.8" font-family="Times New Roman,serif" font-size="14.00">setCurrentWidget(widget, isNeedPopOut, isShowNextWidgetDirectly, duration, easingCurve)</text>
</g>
<!-- 5&#45;&gt;4 -->
<g id="edge6" class="edge">
<title>5&#45;&gt;4</title>
<path fill="none" stroke="black" d="M1461.46,-963.26C1527.09,-1084.97 1619.4,-1256.15 1700.58,-1406.71"/>
<polygon fill="black" stroke="black" points="1700.71,-1406.95 1707.08,-1410.33 1706.41,-1417.51 1700.04,-1414.13 1700.71,-1406.95"/>
<text text-anchor="middle" x="1692.5" y="-1307.8" font-family="Times New Roman,serif" font-size="14.00" fill="green">stackedWidget</text>
</g>
<!-- 6 -->
<g id="node7" class="node">
<title>6</title>
<polygon fill="none" stroke="black" points="1662,-699 1662,-903 1865,-903 1865,-699 1662,-699"/>
<text text-anchor="middle" x="1763.5" y="-887.8" font-family="Times New Roman,serif" font-size="14.00">SelectionModeBar</text>
<polyline fill="none" stroke="black" points="1662,-880 1865,-880 "/>
<text text-anchor="start" x="1670" y="-864.8" font-family="Times New Roman,serif" font-size="14.00">addToButton : BasicButton</text>
<text text-anchor="start" x="1670" y="-849.8" font-family="Times New Roman,serif" font-size="14.00">cancelButton : BasicButton</text>
<text text-anchor="start" x="1670" y="-834.8" font-family="Times New Roman,serif" font-size="14.00">checkAllButton : CheckAllButton</text>
<text text-anchor="start" x="1670" y="-819.8" font-family="Times New Roman,serif" font-size="14.00">deleteButton : BasicButton</text>
<text text-anchor="start" x="1670" y="-804.8" font-family="Times New Roman,serif" font-size="14.00">editInfoButton : BasicButton</text>
<text text-anchor="start" x="1670" y="-789.8" font-family="Times New Roman,serif" font-size="14.00">nextToPlayButton : BasicButton</text>
<text text-anchor="start" x="1670" y="-774.8" font-family="Times New Roman,serif" font-size="14.00">playButton : BasicButton</text>
<text text-anchor="start" x="1670" y="-759.8" font-family="Times New Roman,serif" font-size="14.00">propertyButton : BasicButton</text>
<text text-anchor="start" x="1670" y="-744.8" font-family="Times New Roman,serif" font-size="14.00">showAlbumButton : BasicButton</text>
<polyline fill="none" stroke="black" points="1662,-737 1865,-737 "/>
<text text-anchor="start" x="1670" y="-721.8" font-family="Times New Roman,serif" font-size="14.00">__createButtons()</text>
<text text-anchor="start" x="1670" y="-706.8" font-family="Times New Roman,serif" font-size="14.00">__initWidget()</text>
</g>
<!-- 6&#45;&gt;4 -->
<g id="edge7" class="edge">
<title>6&#45;&gt;4</title>
<path fill="none" stroke="black" d="M1773.43,-903.17C1783.9,-1007.48 1801.38,-1174.78 1819.5,-1319 1819.76,-1321.1 1820.03,-1323.21 1820.3,-1325.32"/>
<polygon fill="black" stroke="black" points="1820.33,-1325.57 1825.05,-1331.02 1821.84,-1337.48 1817.12,-1332.03 1820.33,-1325.57"/>
<text text-anchor="middle" x="1896.5" y="-1307.8" font-family="Times New Roman,serif" font-size="14.00" fill="green">songTabSelectionModeBar</text>
</g>
<!-- 7 -->
<g id="node8" class="node">
<title>7</title>
<polygon fill="none" stroke="black" points="1883.5,-699 1883.5,-903 2107.5,-903 2107.5,-699 1883.5,-699"/>
<text text-anchor="middle" x="1995.5" y="-887.8" font-family="Times New Roman,serif" font-size="14.00">SelectionModeBar</text>
<polyline fill="none" stroke="black" points="1883.5,-880 2107.5,-880 "/>
<text text-anchor="start" x="1891.5" y="-864.8" font-family="Times New Roman,serif" font-size="14.00">addToButton : BasicButton</text>
<text text-anchor="start" x="1891.5" y="-849.8" font-family="Times New Roman,serif" font-size="14.00">cancelButton : BasicButton</text>
<text text-anchor="start" x="1891.5" y="-834.8" font-family="Times New Roman,serif" font-size="14.00">checkAllButton : CheckAllButton</text>
<text text-anchor="start" x="1891.5" y="-819.8" font-family="Times New Roman,serif" font-size="14.00">deleteButton : BasicButton</text>
<text text-anchor="start" x="1891.5" y="-804.8" font-family="Times New Roman,serif" font-size="14.00">editInfoButton : BasicButton</text>
<text text-anchor="start" x="1891.5" y="-789.8" font-family="Times New Roman,serif" font-size="14.00">nextToPlayButton : BasicButton</text>
<text text-anchor="start" x="1891.5" y="-774.8" font-family="Times New Roman,serif" font-size="14.00">pinToStartMenuButton : BasicButton</text>
<text text-anchor="start" x="1891.5" y="-759.8" font-family="Times New Roman,serif" font-size="14.00">playButton : BasicButton</text>
<text text-anchor="start" x="1891.5" y="-744.8" font-family="Times New Roman,serif" font-size="14.00">showSongerButton : BasicButton</text>
<polyline fill="none" stroke="black" points="1883.5,-737 2107.5,-737 "/>
<text text-anchor="start" x="1891.5" y="-721.8" font-family="Times New Roman,serif" font-size="14.00">__createButtons()</text>
<text text-anchor="start" x="1891.5" y="-706.8" font-family="Times New Roman,serif" font-size="14.00">__initWidget()</text>
</g>
<!-- 7&#45;&gt;4 -->
<g id="edge8" class="edge">
<title>7&#45;&gt;4</title>
<path fill="none" stroke="black" d="M1996.49,-903.02C1996.29,-1007.57 1992.49,-1175.39 1973.5,-1319 1973.22,-1321.1 1972.94,-1323.2 1972.65,-1325.31"/>
<polygon fill="black" stroke="black" points="1972.62,-1325.55 1975.74,-1332.05 1970.95,-1337.43 1967.82,-1330.93 1972.62,-1325.55"/>
<text text-anchor="middle" x="2055.5" y="-1307.8" font-family="Times New Roman,serif" font-size="14.00" fill="green">albumTabSelectionModeBar</text>
</g>
<!-- 8 -->
<g id="node9" class="node">
<title>8</title>
<polygon fill="none" stroke="black" points="2126,-661.5 2126,-940.5 2395,-940.5 2395,-661.5 2126,-661.5"/>
<text text-anchor="middle" x="2260.5" y="-925.3" font-family="Times New Roman,serif" font-size="14.00">SongCardListWidget</text>
<polyline fill="none" stroke="black" points="2126,-917.5 2395,-917.5 "/>
<text text-anchor="start" x="2134" y="-902.3" font-family="Times New Roman,serif" font-size="14.00">nextToPlayOneSongSig</text>
<text text-anchor="start" x="2134" y="-887.3" font-family="Times New Roman,serif" font-size="14.00">playOneSongSig</text>
<text text-anchor="start" x="2134" y="-872.3" font-family="Times New Roman,serif" font-size="14.00">playSignal</text>
<text text-anchor="start" x="2134" y="-857.3" font-family="Times New Roman,serif" font-size="14.00">sortMode : str</text>
<text text-anchor="start" x="2134" y="-842.3" font-family="Times New Roman,serif" font-size="14.00">switchToAlbumInterfaceSig</text>
<polyline fill="none" stroke="black" points="2126,-834.5 2395,-834.5 "/>
<text text-anchor="start" x="2134" y="-819.3" font-family="Times New Roman,serif" font-size="14.00">__connectMenuSignalToSlot(contextMenu)</text>
<text text-anchor="start" x="2134" y="-804.3" font-family="Times New Roman,serif" font-size="14.00">__connectSongCardSignalToSlot(songCard)</text>
<text text-anchor="start" x="2134" y="-789.3" font-family="Times New Roman,serif" font-size="14.00">__createSongCards()</text>
<text text-anchor="start" x="2134" y="-774.3" font-family="Times New Roman,serif" font-size="14.00">__emitCurrentChangedSignal(index)</text>
<text text-anchor="start" x="2134" y="-759.3" font-family="Times New Roman,serif" font-size="14.00">__initWidget()</text>
<text text-anchor="start" x="2134" y="-744.3" font-family="Times New Roman,serif" font-size="14.00">__playButtonSlot(index)</text>
<text text-anchor="start" x="2134" y="-729.3" font-family="Times New Roman,serif" font-size="14.00">__setQss()</text>
<text text-anchor="start" x="2134" y="-714.3" font-family="Times New Roman,serif" font-size="14.00">contextMenuEvent(e)</text>
<text text-anchor="start" x="2134" y="-699.3" font-family="Times New Roman,serif" font-size="14.00">resizeEvent(e)</text>
<text text-anchor="start" x="2134" y="-684.3" font-family="Times New Roman,serif" font-size="14.00">setSortMode(sortMode)</text>
<text text-anchor="start" x="2134" y="-669.3" font-family="Times New Roman,serif" font-size="14.00">updateAllSongCards(songInfo_list)</text>
</g>
<!-- 8&#45;&gt;4 -->
<g id="edge9" class="edge">
<title>8&#45;&gt;4</title>
<path fill="none" stroke="black" d="M2240.62,-940.75C2222.42,-1047.07 2190.43,-1195.92 2139.5,-1319 2117.39,-1372.42 2088.88,-1426.83 2058.86,-1477.98"/>
<polygon fill="black" stroke="black" points="2058.75,-1478.18 2059.14,-1485.38 2052.64,-1488.51 2052.25,-1481.31 2058.75,-1478.18"/>
<text text-anchor="middle" x="2204" y="-1307.8" font-family="Times New Roman,serif" font-size="14.00" fill="green">songCardListWidget</text>
</g>
<!-- 9 -->
<g id="node10" class="node">
<title>9</title>
<polygon fill="none" stroke="black" points="2558,-0.5 2558,-264.5 2855,-264.5 2855,-0.5 2558,-0.5"/>
<text text-anchor="middle" x="2706.5" y="-249.3" font-family="Times New Roman,serif" font-size="14.00">TabButton</text>
<polyline fill="none" stroke="black" points="2558,-241.5 2855,-241.5 "/>
<text text-anchor="start" x="2566" y="-226.3" font-family="Times New Roman,serif" font-size="14.00">buttonSelected</text>
<text text-anchor="start" x="2566" y="-211.3" font-family="Times New Roman,serif" font-size="14.00">isEnter : bool</text>
<text text-anchor="start" x="2566" y="-196.3" font-family="Times New Roman,serif" font-size="14.00">isSelected : bool</text>
<text text-anchor="start" x="2566" y="-181.3" font-family="Times New Roman,serif" font-size="14.00">pressedPos : NoneType, str</text>
<text text-anchor="start" x="2566" y="-166.3" font-family="Times New Roman,serif" font-size="14.00">tabIndex : int</text>
<text text-anchor="start" x="2566" y="-151.3" font-family="Times New Roman,serif" font-size="14.00">text</text>
<polyline fill="none" stroke="black" points="2558,-143.5 2855,-143.5 "/>
<text text-anchor="start" x="2566" y="-128.3" font-family="Times New Roman,serif" font-size="14.00">__paintAllText(painter, fontSize)</text>
<text text-anchor="start" x="2566" y="-113.3" font-family="Times New Roman,serif" font-size="14.00">__paintLine(painter, x1, y1, x2, y2, x3, y3, x4, y4)</text>
<text text-anchor="start" x="2566" y="-98.3" font-family="Times New Roman,serif" font-size="14.00">__paintText(painter, shearX, shearY, x, y)</text>
<text text-anchor="start" x="2566" y="-83.3" font-family="Times New Roman,serif" font-size="14.00">enterEvent(e)</text>
<text text-anchor="start" x="2566" y="-68.3" font-family="Times New Roman,serif" font-size="14.00">leaveEvent(e)</text>
<text text-anchor="start" x="2566" y="-53.3" font-family="Times New Roman,serif" font-size="14.00">mousePressEvent(e)</text>
<text text-anchor="start" x="2566" y="-38.3" font-family="Times New Roman,serif" font-size="14.00">mouseReleaseEvent(e)</text>
<text text-anchor="start" x="2566" y="-23.3" font-family="Times New Roman,serif" font-size="14.00">paintEvent(QPaintEvent)</text>
<text text-anchor="start" x="2566" y="-8.3" font-family="Times New Roman,serif" font-size="14.00">setSelected(isSelected)</text>
</g>
<!-- 9&#45;&gt;4 -->
<g id="edge10" class="edge">
<title>9&#45;&gt;4</title>
<path fill="none" stroke="black" d="M2557.67,-203.95C2513.9,-232.36 2470.97,-269.59 2445.5,-316 2341.7,-505.15 2497.52,-1091.8 2403.5,-1286 2330.78,-1436.21 2182.8,-1556.59 2062.59,-1635.31"/>
<polygon fill="black" stroke="black" points="2062.58,-1635.32 2059.73,-1641.94 2052.52,-1641.85 2055.37,-1635.23 2062.58,-1635.32"/>
<text text-anchor="middle" x="2489.5" y="-797.3" font-family="Times New Roman,serif" font-size="14.00" fill="green">songTabButton</text>
</g>
<!-- 9&#45;&gt;4 -->
<g id="edge11" class="edge">
<title>9&#45;&gt;4</title>
<path fill="none" stroke="black" d="M2594.09,-264.71C2584.27,-281.19 2575.72,-298.45 2569.5,-316 2533.48,-417.66 2585.33,-1191.42 2533.5,-1286 2432.25,-1470.75 2219.35,-1596.02 2063.87,-1667.08"/>
<polygon fill="black" stroke="black" points="2063.71,-1667.16 2059.9,-1673.28 2052.78,-1672.11 2056.6,-1665.99 2063.71,-1667.16"/>
<text text-anchor="middle" x="2618.5" y="-797.3" font-family="Times New Roman,serif" font-size="14.00" fill="green">songerTabButton</text>
</g>
<!-- 9&#45;&gt;4 -->
<g id="edge12" class="edge">
<title>9&#45;&gt;4</title>
<path fill="none" stroke="black" d="M2700.57,-264.58C2699.84,-281.87 2699.13,-299.36 2698.5,-316 2696.46,-369.88 2695.25,-1239.78 2667.5,-1286 2535.36,-1506.08 2252.84,-1629.2 2064.5,-1689.7"/>
<polygon fill="black" stroke="black" points="2064.23,-1689.79 2059.72,-1695.42 2052.79,-1693.42 2057.3,-1687.79 2064.23,-1689.79"/>
<text text-anchor="middle" x="2745.5" y="-797.3" font-family="Times New Roman,serif" font-size="14.00" fill="green">albumTabButton</text>
</g>
<!-- 10 -->
<g id="node11" class="node">
<title>10</title>
<polygon fill="none" stroke="black" points="2801.5,-601.5 2801.5,-1000.5 3073.5,-1000.5 3073.5,-601.5 2801.5,-601.5"/>
<text text-anchor="middle" x="2937.5" y="-985.3" font-family="Times New Roman,serif" font-size="14.00">ToolBar</text>
<polyline fill="none" stroke="black" points="2801.5,-977.5 3073.5,-977.5 "/>
<text text-anchor="start" x="2809.5" y="-962.3" font-family="Times New Roman,serif" font-size="14.00">albumSortAction_list : list</text>
<text text-anchor="start" x="2809.5" y="-947.3" font-family="Times New Roman,serif" font-size="14.00">albumSortByCratedTimeAct</text>
<text text-anchor="start" x="2809.5" y="-932.3" font-family="Times New Roman,serif" font-size="14.00">albumSortByDictOrderAct</text>
<text text-anchor="start" x="2809.5" y="-917.3" font-family="Times New Roman,serif" font-size="14.00">albumSortBySongerAct</text>
<text text-anchor="start" x="2809.5" y="-902.3" font-family="Times New Roman,serif" font-size="14.00">albumSortByYearAct</text>
<text text-anchor="start" x="2809.5" y="-887.3" font-family="Times New Roman,serif" font-size="14.00">albumSortModeButton</text>
<text text-anchor="start" x="2809.5" y="-872.3" font-family="Times New Roman,serif" font-size="14.00">albumSortModeMenu : AeroMenu</text>
<text text-anchor="start" x="2809.5" y="-857.3" font-family="Times New Roman,serif" font-size="14.00">albumTabButton</text>
<text text-anchor="start" x="2809.5" y="-842.3" font-family="Times New Roman,serif" font-size="14.00">myMusicLabel</text>
<text text-anchor="start" x="2809.5" y="-827.3" font-family="Times New Roman,serif" font-size="14.00">randomPlayAllButton : ThreeStatePushButton</text>
<text text-anchor="start" x="2809.5" y="-812.3" font-family="Times New Roman,serif" font-size="14.00">songSortAction_list : list</text>
<text text-anchor="start" x="2809.5" y="-797.3" font-family="Times New Roman,serif" font-size="14.00">songSortByCratedTimeAct</text>
<text text-anchor="start" x="2809.5" y="-782.3" font-family="Times New Roman,serif" font-size="14.00">songSortByDictOrderAct</text>
<text text-anchor="start" x="2809.5" y="-767.3" font-family="Times New Roman,serif" font-size="14.00">songSortBySongerAct</text>
<text text-anchor="start" x="2809.5" y="-752.3" font-family="Times New Roman,serif" font-size="14.00">songSortModeButton</text>
<text text-anchor="start" x="2809.5" y="-737.3" font-family="Times New Roman,serif" font-size="14.00">songSortModeMenu : AeroMenu</text>
<text text-anchor="start" x="2809.5" y="-722.3" font-family="Times New Roman,serif" font-size="14.00">songTabButton</text>
<text text-anchor="start" x="2809.5" y="-707.3" font-family="Times New Roman,serif" font-size="14.00">songerTabButton</text>
<text text-anchor="start" x="2809.5" y="-692.3" font-family="Times New Roman,serif" font-size="14.00">sortModeLabel</text>
<polyline fill="none" stroke="black" points="2801.5,-684.5 3073.5,-684.5 "/>
<text text-anchor="start" x="2809.5" y="-669.3" font-family="Times New Roman,serif" font-size="14.00">__createWidgets()</text>
<text text-anchor="start" x="2809.5" y="-654.3" font-family="Times New Roman,serif" font-size="14.00">__initLayout()</text>
<text text-anchor="start" x="2809.5" y="-639.3" font-family="Times New Roman,serif" font-size="14.00">__initWidget()</text>
<text text-anchor="start" x="2809.5" y="-624.3" font-family="Times New Roman,serif" font-size="14.00">__setQss()</text>
<text text-anchor="start" x="2809.5" y="-609.3" font-family="Times New Roman,serif" font-size="14.00">paintEvent(QPaintEvent)</text>
</g>
<!-- 9&#45;&gt;10 -->
<g id="edge13" class="edge">
<title>9&#45;&gt;10</title>
<path fill="none" stroke="black" d="M2705.29,-264.8C2709.39,-276.88 2715.27,-288.23 2723.5,-298 2742.53,-320.6 2766.33,-295.38 2787.5,-316 2861,-387.59 2898.67,-494.41 2917.89,-589.51"/>
<polygon fill="black" stroke="black" points="2917.9,-589.56 2922.97,-594.68 2920.2,-601.34 2915.12,-596.22 2917.9,-589.56"/>
<text text-anchor="middle" x="2767.5" y="-286.8" font-family="Times New Roman,serif" font-size="14.00" fill="green">songTabButton</text>
</g>
<!-- 9&#45;&gt;10 -->
<g id="edge14" class="edge">
<title>9&#45;&gt;10</title>
<path fill="none" stroke="black" d="M2802.54,-264.81C2805.74,-270.86 2808.75,-276.93 2811.5,-283 2855.22,-379.42 2885.04,-493.11 2904.65,-589.3"/>
<polygon fill="black" stroke="black" points="2904.69,-589.47 2909.79,-594.57 2907.05,-601.24 2901.95,-596.14 2904.69,-589.47"/>
<text text-anchor="middle" x="2865.5" y="-286.8" font-family="Times New Roman,serif" font-size="14.00" fill="green">songerTabButton</text>
</g>
<!-- 9&#45;&gt;10 -->
<g id="edge15" class="edge">
<title>9&#45;&gt;10</title>
<path fill="none" stroke="black" d="M2855.02,-211.05C2880.33,-231.04 2903.32,-254.99 2918.5,-283 2968.42,-375.1 2976.79,-490.6 2971.12,-589.05"/>
<polygon fill="black" stroke="black" points="2971.1,-589.3 2974.71,-595.54 2970.34,-601.28 2966.73,-595.03 2971.1,-589.3"/>
<text text-anchor="middle" x="2971.5" y="-286.8" font-family="Times New Roman,serif" font-size="14.00" fill="green">albumTabButton</text>
</g>
<!-- 10&#45;&gt;4 -->
<g id="edge16" class="edge">
<title>10&#45;&gt;4</title>
<path fill="none" stroke="black" d="M2912.92,-1000.65C2892.56,-1095.81 2855.37,-1206.15 2787.5,-1286 2597.41,-1509.63 2270.06,-1633.85 2064.68,-1693.33"/>
<polygon fill="black" stroke="black" points="2064.4,-1693.41 2059.73,-1698.91 2052.86,-1696.72 2057.53,-1691.22 2064.4,-1693.41"/>
<text text-anchor="middle" x="2791.5" y="-1307.8" font-family="Times New Roman,serif" font-size="14.00" fill="green">toolBar</text>
</g>
</g>
</svg>
