<?xml version="1.0" encoding="UTF-8" standalone="no"?>
<!DOCTYPE svg PUBLIC "-//W3C//DTD SVG 1.1//EN"
 "http://www.w3.org/Graphics/SVG/1.1/DTD/svg11.dtd">
<!-- Generated by graphviz version 2.44.1 (20200629.0846)
 -->
<!-- Title: classes Pages: 1 -->
<svg width="2952pt" height="1235pt"
 viewBox="0.00 0.00 2952.47 1235.00" xmlns="http://www.w3.org/2000/svg" xmlns:xlink="http://www.w3.org/1999/xlink">
<g id="graph0" class="graph" transform="scale(1 1) rotate(0) translate(4 1231)">
<title>classes</title>
<polygon fill="white" stroke="transparent" points="-4,4 -4,-1231 2948.47,-1231 2948.47,4 -4,4"/>
<!-- 0 -->
<g id="node1" class="node">
<title>0</title>
<polygon fill="none" stroke="black" points="547.97,-60.5 547.97,-219.5 690.97,-219.5 690.97,-60.5 547.97,-60.5"/>
<text text-anchor="middle" x="619.47" y="-204.3" font-family="Times New Roman,serif" font-size="14.00">BasicButton</text>
<polyline fill="none" stroke="black" points="547.97,-196.5 690.97,-196.5 "/>
<text text-anchor="start" x="555.97" y="-181.3" font-family="Times New Roman,serif" font-size="14.00">icon_path</text>
<text text-anchor="start" x="555.97" y="-166.3" font-family="Times New Roman,serif" font-size="14.00">isEnter : bool</text>
<text text-anchor="start" x="555.97" y="-151.3" font-family="Times New Roman,serif" font-size="14.00">isPressed : bool</text>
<polyline fill="none" stroke="black" points="547.97,-143.5 690.97,-143.5 "/>
<text text-anchor="start" x="555.97" y="-128.3" font-family="Times New Roman,serif" font-size="14.00">enterEvent(e)</text>
<text text-anchor="start" x="555.97" y="-113.3" font-family="Times New Roman,serif" font-size="14.00">leaveEvent(e)</text>
<text text-anchor="start" x="555.97" y="-98.3" font-family="Times New Roman,serif" font-size="14.00">mousePressEvent(e)</text>
<text text-anchor="start" x="555.97" y="-83.3" font-family="Times New Roman,serif" font-size="14.00">mouseReleaseEvent(e)</text>
<text text-anchor="start" x="555.97" y="-68.3" font-family="Times New Roman,serif" font-size="14.00">paintEvent(e)</text>
</g>
<!-- 1 -->
<g id="node2" class="node">
<title>1</title>
<polygon fill="none" stroke="black" points="1369.97,-384 1369.97,-573 1500.97,-573 1500.97,-384 1369.97,-384"/>
<text text-anchor="middle" x="1435.47" y="-557.8" font-family="Times New Roman,serif" font-size="14.00">CentralButtonGroup</text>
<polyline fill="none" stroke="black" points="1369.97,-550 1500.97,-550 "/>
<text text-anchor="start" x="1377.97" y="-534.8" font-family="Times New Roman,serif" font-size="14.00">all_v_layout</text>
<text text-anchor="start" x="1377.97" y="-519.8" font-family="Times New Roman,serif" font-size="14.00">button_list : list</text>
<text text-anchor="start" x="1377.97" y="-504.8" font-family="Times New Roman,serif" font-size="14.00">h_layout</text>
<text text-anchor="start" x="1377.97" y="-489.8" font-family="Times New Roman,serif" font-size="14.00">lastSongButton</text>
<text text-anchor="start" x="1377.97" y="-474.8" font-family="Times New Roman,serif" font-size="14.00">loopModeButton</text>
<text text-anchor="start" x="1377.97" y="-459.8" font-family="Times New Roman,serif" font-size="14.00">nextSongButton</text>
<text text-anchor="start" x="1377.97" y="-444.8" font-family="Times New Roman,serif" font-size="14.00">playButton</text>
<text text-anchor="start" x="1377.97" y="-429.8" font-family="Times New Roman,serif" font-size="14.00">randomPlayButton</text>
<polyline fill="none" stroke="black" points="1369.97,-422 1500.97,-422 "/>
<text text-anchor="start" x="1377.97" y="-406.8" font-family="Times New Roman,serif" font-size="14.00">createButtons()</text>
<text text-anchor="start" x="1377.97" y="-391.8" font-family="Times New Roman,serif" font-size="14.00">initUI()</text>
</g>
<!-- 0&#45;&gt;1 -->
<g id="edge1" class="edge">
<title>0&#45;&gt;1</title>
<path fill="none" stroke="black" d="M691.09,-167.76C809.44,-211.57 1041.23,-295.48 1126.47,-313 1176.47,-323.28 1312.63,-303.25 1355.47,-331 1371.89,-341.63 1385.21,-356.84 1395.93,-373.47"/>
<polygon fill="black" stroke="black" points="1396.07,-373.71 1402.59,-376.78 1402.27,-383.99 1395.74,-380.91 1396.07,-373.71"/>
<text text-anchor="middle" x="1169.47" y="-301.8" font-family="Times New Roman,serif" font-size="14.00" fill="green">lastSongButton</text>
</g>
<!-- 0&#45;&gt;1 -->
<g id="edge2" class="edge">
<title>0&#45;&gt;1</title>
<path fill="none" stroke="black" d="M691.26,-175.73C794.08,-225.43 971.85,-311.08 979.47,-313 1020.03,-323.22 1320.02,-308.8 1355.47,-331 1372.15,-341.44 1385.61,-356.65 1396.39,-373.37"/>
<polygon fill="black" stroke="black" points="1396.56,-373.66 1403.08,-376.74 1402.75,-383.94 1396.23,-380.86 1396.56,-373.66"/>
<text text-anchor="middle" x="1024.97" y="-301.8" font-family="Times New Roman,serif" font-size="14.00" fill="green">nextSongButton</text>
</g>
<!-- 5 -->
<g id="node6" class="node">
<title>5</title>
<polygon fill="none" stroke="black" points="1239.47,-677.5 1239.47,-1226.5 1447.47,-1226.5 1447.47,-677.5 1239.47,-677.5"/>
<text text-anchor="middle" x="1343.47" y="-1211.3" font-family="Times New Roman,serif" font-size="14.00">PlayBar</text>
<polyline fill="none" stroke="black" points="1239.47,-1203.5 1447.47,-1203.5 "/>
<text text-anchor="start" x="1247.47" y="-1188.3" font-family="Times New Roman,serif" font-size="14.00">acrylicColor : str</text>
<text text-anchor="start" x="1247.47" y="-1173.3" font-family="Times New Roman,serif" font-size="14.00">centralButtonGroup</text>
<text text-anchor="start" x="1247.47" y="-1158.3" font-family="Times New Roman,serif" font-size="14.00">dominantColor</text>
<text text-anchor="start" x="1247.47" y="-1143.3" font-family="Times New Roman,serif" font-size="14.00">hWnd</text>
<text text-anchor="start" x="1247.47" y="-1128.3" font-family="Times New Roman,serif" font-size="14.00">lastSongButton</text>
<text text-anchor="start" x="1247.47" y="-1113.3" font-family="Times New Roman,serif" font-size="14.00">loopModeButton</text>
<text text-anchor="start" x="1247.47" y="-1098.3" font-family="Times New Roman,serif" font-size="14.00">moreActionsButton</text>
<text text-anchor="start" x="1247.47" y="-1083.3" font-family="Times New Roman,serif" font-size="14.00">moreActionsMenu</text>
<text text-anchor="start" x="1247.47" y="-1068.3" font-family="Times New Roman,serif" font-size="14.00">moveTime : int</text>
<text text-anchor="start" x="1247.47" y="-1053.3" font-family="Times New Roman,serif" font-size="14.00">nextSongButton</text>
<text text-anchor="start" x="1247.47" y="-1038.3" font-family="Times New Roman,serif" font-size="14.00">originWidth : int</text>
<text text-anchor="start" x="1247.47" y="-1023.3" font-family="Times New Roman,serif" font-size="14.00">playButton</text>
<text text-anchor="start" x="1247.47" y="-1008.3" font-family="Times New Roman,serif" font-size="14.00">playProgressBar</text>
<text text-anchor="start" x="1247.47" y="-993.3" font-family="Times New Roman,serif" font-size="14.00">progressSlider</text>
<text text-anchor="start" x="1247.47" y="-978.3" font-family="Times New Roman,serif" font-size="14.00">randomPlayButton</text>
<text text-anchor="start" x="1247.47" y="-963.3" font-family="Times New Roman,serif" font-size="14.00">resizeTime : int</text>
<text text-anchor="start" x="1247.47" y="-948.3" font-family="Times New Roman,serif" font-size="14.00">rightWidgetGroup</text>
<text text-anchor="start" x="1247.47" y="-933.3" font-family="Times New Roman,serif" font-size="14.00">setCurrentTime</text>
<text text-anchor="start" x="1247.47" y="-918.3" font-family="Times New Roman,serif" font-size="14.00">setTotalTime</text>
<text text-anchor="start" x="1247.47" y="-903.3" font-family="Times New Roman,serif" font-size="14.00">smallPlayModeButton</text>
<text text-anchor="start" x="1247.47" y="-888.3" font-family="Times New Roman,serif" font-size="14.00">songInfoCard</text>
<text text-anchor="start" x="1247.47" y="-873.3" font-family="Times New Roman,serif" font-size="14.00">volumeButton</text>
<text text-anchor="start" x="1247.47" y="-858.3" font-family="Times New Roman,serif" font-size="14.00">volumeSlider</text>
<text text-anchor="start" x="1247.47" y="-843.3" font-family="Times New Roman,serif" font-size="14.00">windowEffect</text>
<polyline fill="none" stroke="black" points="1239.47,-835.5 1447.47,-835.5 "/>
<text text-anchor="start" x="1247.47" y="-820.3" font-family="Times New Roman,serif" font-size="14.00">__adjustSongInfoCardWidth()</text>
<text text-anchor="start" x="1247.47" y="-805.3" font-family="Times New Roman,serif" font-size="14.00">__initWidget()</text>
<text text-anchor="start" x="1247.47" y="-790.3" font-family="Times New Roman,serif" font-size="14.00">__setQss()</text>
<text text-anchor="start" x="1247.47" y="-775.3" font-family="Times New Roman,serif" font-size="14.00">__setWidgetPos()</text>
<text text-anchor="start" x="1247.47" y="-760.3" font-family="Times New Roman,serif" font-size="14.00">referenceWidgets()</text>
<text text-anchor="start" x="1247.47" y="-745.3" font-family="Times New Roman,serif" font-size="14.00">resizeEvent(e)</text>
<text text-anchor="start" x="1247.47" y="-730.3" font-family="Times New Roman,serif" font-size="14.00">setAcrylicColor(gradientColor)</text>
<text text-anchor="start" x="1247.47" y="-715.3" font-family="Times New Roman,serif" font-size="14.00">showMoreActionsMenu()</text>
<text text-anchor="start" x="1247.47" y="-700.3" font-family="Times New Roman,serif" font-size="14.00">updateDominantColor(albumPath)</text>
<text text-anchor="start" x="1247.47" y="-685.3" font-family="Times New Roman,serif" font-size="14.00">updateSongInfoCard(songInfo)</text>
</g>
<!-- 0&#45;&gt;5 -->
<g id="edge3" class="edge">
<title>0&#45;&gt;5</title>
<path fill="none" stroke="black" d="M547.62,-179.37C451.44,-231.06 291.97,-318.13 284.47,-331 251.48,-387.65 246.56,-572.52 284.47,-626 395.33,-782.4 975.76,-892.3 1227.17,-933.28"/>
<polygon fill="black" stroke="black" points="1227.41,-933.32 1233.97,-930.33 1239.26,-935.24 1232.69,-938.23 1227.41,-933.32"/>
<text text-anchor="middle" x="327.47" y="-474.8" font-family="Times New Roman,serif" font-size="14.00" fill="green">lastSongButton</text>
</g>
<!-- 0&#45;&gt;5 -->
<g id="edge4" class="edge">
<title>0&#45;&gt;5</title>
<path fill="none" stroke="black" d="M547.78,-185.73C497.22,-215.73 427.09,-254.31 361.47,-280 276.85,-313.13 219.14,-259.18 163.47,-331 123.31,-382.81 123.75,-573.85 163.47,-626 293.78,-797.05 955.58,-900.77 1227.04,-936.71"/>
<polygon fill="black" stroke="black" points="1227.38,-936.76 1233.85,-933.58 1239.28,-938.32 1232.81,-941.51 1227.38,-936.76"/>
<text text-anchor="middle" x="208.97" y="-474.8" font-family="Times New Roman,serif" font-size="14.00" fill="green">nextSongButton</text>
</g>
<!-- 0&#45;&gt;5 -->
<g id="edge5" class="edge">
<title>0&#45;&gt;5</title>
<path fill="none" stroke="black" d="M547.75,-182.1C497.85,-215.17 435.29,-266.67 406.47,-331 379.67,-390.83 368.46,-572.59 406.47,-626 596.36,-892.84 1021.35,-942.57 1227.25,-950.51"/>
<polygon fill="black" stroke="black" points="1227.3,-950.51 1233.44,-946.73 1239.29,-950.94 1233.16,-954.72 1227.3,-950.51"/>
<text text-anchor="middle" x="468.47" y="-474.8" font-family="Times New Roman,serif" font-size="14.00" fill="green">smallPlayModeButton</text>
</g>
<!-- 0&#45;&gt;5 -->
<g id="edge6" class="edge">
<title>0&#45;&gt;5</title>
<path fill="none" stroke="black" d="M589.91,-219.67C581.4,-244.47 572.75,-272.14 566.47,-298 536.79,-420.39 531.61,-581.24 561.47,-626 711.35,-850.6 1048.65,-920.21 1227.32,-941.61"/>
<polygon fill="black" stroke="black" points="1227.46,-941.63 1233.89,-938.35 1239.38,-943.02 1232.96,-946.3 1227.46,-941.63"/>
<text text-anchor="middle" x="616.47" y="-474.8" font-family="Times New Roman,serif" font-size="14.00" fill="green">moreActionsButton</text>
</g>
<!-- 9 -->
<g id="node10" class="node">
<title>9</title>
<polygon fill="none" stroke="black" points="938.47,-391.5 938.47,-565.5 1078.47,-565.5 1078.47,-391.5 938.47,-391.5"/>
<text text-anchor="middle" x="1008.47" y="-550.3" font-family="Times New Roman,serif" font-size="14.00">RightWidgetGroup</text>
<polyline fill="none" stroke="black" points="938.47,-542.5 1078.47,-542.5 "/>
<text text-anchor="start" x="946.47" y="-527.3" font-family="Times New Roman,serif" font-size="14.00">__spacing_list : list</text>
<text text-anchor="start" x="946.47" y="-512.3" font-family="Times New Roman,serif" font-size="14.00">h_layout</text>
<text text-anchor="start" x="946.47" y="-497.3" font-family="Times New Roman,serif" font-size="14.00">moreActionsButton</text>
<text text-anchor="start" x="946.47" y="-482.3" font-family="Times New Roman,serif" font-size="14.00">smallPlayModeButton</text>
<text text-anchor="start" x="946.47" y="-467.3" font-family="Times New Roman,serif" font-size="14.00">volumeButton</text>
<text text-anchor="start" x="946.47" y="-452.3" font-family="Times New Roman,serif" font-size="14.00">volumeSlider</text>
<text text-anchor="start" x="946.47" y="-437.3" font-family="Times New Roman,serif" font-size="14.00">widget_list : list</text>
<polyline fill="none" stroke="black" points="938.47,-429.5 1078.47,-429.5 "/>
<text text-anchor="start" x="946.47" y="-414.3" font-family="Times New Roman,serif" font-size="14.00">__initLayout()</text>
<text text-anchor="start" x="946.47" y="-399.3" font-family="Times New Roman,serif" font-size="14.00">__initWidget()</text>
</g>
<!-- 0&#45;&gt;9 -->
<g id="edge7" class="edge">
<title>0&#45;&gt;9</title>
<path fill="none" stroke="black" d="M691.13,-205.28C742.89,-251.14 806.26,-305.91 821.47,-313 865.18,-333.37 889.19,-303.03 928.47,-331 946.3,-343.69 960.57,-361.65 971.83,-380.65"/>
<polygon fill="black" stroke="black" points="971.92,-380.82 978.34,-384.1 977.78,-391.29 971.36,-388.01 971.92,-380.82"/>
<text text-anchor="middle" x="883.47" y="-301.8" font-family="Times New Roman,serif" font-size="14.00" fill="green">smallPlayModeButton</text>
</g>
<!-- 0&#45;&gt;9 -->
<g id="edge8" class="edge">
<title>0&#45;&gt;9</title>
<path fill="none" stroke="black" d="M631.92,-219.72C641.52,-253.89 658.49,-291.04 688.47,-313 731.62,-344.6 883.53,-302.01 928.47,-331 947.26,-343.12 961.98,-361.23 973.39,-380.63"/>
<polygon fill="black" stroke="black" points="973.42,-380.69 979.83,-384 979.23,-391.19 972.83,-387.87 973.42,-380.69"/>
<text text-anchor="middle" x="743.47" y="-301.8" font-family="Times New Roman,serif" font-size="14.00" fill="green">moreActionsButton</text>
</g>
<!-- 1&#45;&gt;5 -->
<g id="edge9" class="edge">
<title>1&#45;&gt;5</title>
<path fill="none" stroke="black" d="M1417.19,-573.22C1411.84,-600.6 1405.7,-632.07 1399.3,-664.9"/>
<polygon fill="black" stroke="black" points="1399.22,-665.27 1402,-671.93 1396.93,-677.05 1394.15,-670.4 1399.22,-665.27"/>
<text text-anchor="middle" x="1459.47" y="-647.8" font-family="Times New Roman,serif" font-size="14.00" fill="green">centralButtonGroup</text>
</g>
<!-- 2 -->
<g id="node3" class="node">
<title>2</title>
<polygon fill="none" stroke="black" points="680.97,-414 680.97,-543 919.97,-543 919.97,-414 680.97,-414"/>
<text text-anchor="middle" x="800.47" y="-527.8" font-family="Times New Roman,serif" font-size="14.00">DominantColor</text>
<polyline fill="none" stroke="black" points="680.97,-520 919.97,-520 "/>
<text text-anchor="start" x="688.97" y="-504.8" font-family="Times New Roman,serif" font-size="14.00">imagePath : str</text>
<text text-anchor="start" x="688.97" y="-489.8" font-family="Times New Roman,serif" font-size="14.00">rgb : tuple</text>
<polyline fill="none" stroke="black" points="680.97,-482 919.97,-482 "/>
<text text-anchor="start" x="688.97" y="-466.8" font-family="Times New Roman,serif" font-size="14.00">__adjustPaletteValue(palette)</text>
<text text-anchor="start" x="688.97" y="-451.8" font-family="Times New Roman,serif" font-size="14.00">getDominantColor(imagePath, resType)</text>
<text text-anchor="start" x="688.97" y="-436.8" font-family="Times New Roman,serif" font-size="14.00">hsv2rgb(h, s, v)</text>
<text text-anchor="start" x="688.97" y="-421.8" font-family="Times New Roman,serif" font-size="14.00">rgb2hsv(rgb)</text>
</g>
<!-- 2&#45;&gt;5 -->
<g id="edge10" class="edge">
<title>2&#45;&gt;5</title>
<path fill="none" stroke="black" d="M844.28,-543.24C870.58,-579.24 905.94,-623.9 942.47,-659 1030.94,-744 1145.12,-824.83 1229.01,-879.8"/>
<polygon fill="black" stroke="black" points="1229.03,-879.81 1236.24,-879.74 1239.08,-886.37 1231.87,-886.44 1229.03,-879.81"/>
<text text-anchor="middle" x="984.97" y="-647.8" font-family="Times New Roman,serif" font-size="14.00" fill="green">dominantColor</text>
</g>
<!-- 3 -->
<g id="node4" class="node">
<title>3</title>
<polygon fill="none" stroke="black" points="1062.47,-8 1062.47,-272 1226.47,-272 1226.47,-8 1062.47,-8"/>
<text text-anchor="middle" x="1144.47" y="-256.8" font-family="Times New Roman,serif" font-size="14.00">LoopModeButton</text>
<polyline fill="none" stroke="black" points="1062.47,-249 1226.47,-249 "/>
<text text-anchor="start" x="1070.47" y="-233.8" font-family="Times New Roman,serif" font-size="14.00">__iconPath_list : list</text>
<text text-anchor="start" x="1070.47" y="-218.8" font-family="Times New Roman,serif" font-size="14.00">__loopMode_list : list</text>
<text text-anchor="start" x="1070.47" y="-203.8" font-family="Times New Roman,serif" font-size="14.00">clickedTime : int</text>
<text text-anchor="start" x="1070.47" y="-188.8" font-family="Times New Roman,serif" font-size="14.00">image</text>
<text text-anchor="start" x="1070.47" y="-173.8" font-family="Times New Roman,serif" font-size="14.00">isEnter : bool</text>
<text text-anchor="start" x="1070.47" y="-158.8" font-family="Times New Roman,serif" font-size="14.00">isPressed : bool</text>
<text text-anchor="start" x="1070.47" y="-143.8" font-family="Times New Roman,serif" font-size="14.00">loopMode</text>
<text text-anchor="start" x="1070.47" y="-128.8" font-family="Times New Roman,serif" font-size="14.00">loopModeChanged</text>
<polyline fill="none" stroke="black" points="1062.47,-121 1226.47,-121 "/>
<text text-anchor="start" x="1070.47" y="-105.8" font-family="Times New Roman,serif" font-size="14.00">enterEvent(e)</text>
<text text-anchor="start" x="1070.47" y="-90.8" font-family="Times New Roman,serif" font-size="14.00">eventFilter(obj, e)</text>
<text text-anchor="start" x="1070.47" y="-75.8" font-family="Times New Roman,serif" font-size="14.00">leaveEvent(e)</text>
<text text-anchor="start" x="1070.47" y="-60.8" font-family="Times New Roman,serif" font-size="14.00">mousePressEvent(e)</text>
<text text-anchor="start" x="1070.47" y="-45.8" font-family="Times New Roman,serif" font-size="14.00">mouseReleaseEvent(e)</text>
<text text-anchor="start" x="1070.47" y="-30.8" font-family="Times New Roman,serif" font-size="14.00">paintEvent(e)</text>
<text text-anchor="start" x="1070.47" y="-15.8" font-family="Times New Roman,serif" font-size="14.00">setLoopMode(loopMode)</text>
</g>
<!-- 3&#45;&gt;1 -->
<g id="edge11" class="edge">
<title>3&#45;&gt;1</title>
<path fill="none" stroke="black" d="M1193.23,-272.3C1203.76,-287.93 1216.39,-302.16 1231.47,-313 1276.69,-345.51 1309.75,-299.21 1355.47,-331 1371.24,-341.96 1384.2,-357.06 1394.75,-373.42"/>
<polygon fill="black" stroke="black" points="1394.79,-373.49 1401.32,-376.54 1401.02,-383.74 1394.49,-380.69 1394.79,-373.49"/>
<text text-anchor="middle" x="1279.97" y="-301.8" font-family="Times New Roman,serif" font-size="14.00" fill="green">loopModeButton</text>
</g>
<!-- 3&#45;&gt;5 -->
<g id="edge12" class="edge">
<title>3&#45;&gt;5</title>
<path fill="none" stroke="black" d="M1072.97,-272.07C1072.76,-286.88 1076.88,-300.95 1087.47,-313 1128.91,-360.1 1183.26,-286.5 1227.47,-331 1274.02,-377.85 1251.56,-561.04 1263.47,-626 1265.82,-638.8 1268.37,-651.85 1271.07,-665"/>
<polygon fill="black" stroke="black" points="1271.14,-665.36 1276.28,-670.42 1273.58,-677.11 1268.45,-672.05 1271.14,-665.36"/>
<text text-anchor="middle" x="1311.97" y="-474.8" font-family="Times New Roman,serif" font-size="14.00" fill="green">loopModeButton</text>
</g>
<!-- 4 -->
<g id="node5" class="node">
<title>4</title>
<polygon fill="none" stroke="black" points="1096.47,-369 1096.47,-588 1218.47,-588 1218.47,-369 1096.47,-369"/>
<text text-anchor="middle" x="1157.47" y="-572.8" font-family="Times New Roman,serif" font-size="14.00">MoreActionsMenu</text>
<polyline fill="none" stroke="black" points="1096.47,-565 1218.47,-565 "/>
<text text-anchor="start" x="1104.47" y="-549.8" font-family="Times New Roman,serif" font-size="14.00">actionFlag : int</text>
<text text-anchor="start" x="1104.47" y="-534.8" font-family="Times New Roman,serif" font-size="14.00">actionNum : int</text>
<text text-anchor="start" x="1104.47" y="-519.8" font-family="Times New Roman,serif" font-size="14.00">action_list : list</text>
<text text-anchor="start" x="1104.47" y="-504.8" font-family="Times New Roman,serif" font-size="14.00">animation</text>
<text text-anchor="start" x="1104.47" y="-489.8" font-family="Times New Roman,serif" font-size="14.00">clearPlayListAct</text>
<text text-anchor="start" x="1104.47" y="-474.8" font-family="Times New Roman,serif" font-size="14.00">fillScreenAct</text>
<text text-anchor="start" x="1104.47" y="-459.8" font-family="Times New Roman,serif" font-size="14.00">savePlayListAct</text>
<text text-anchor="start" x="1104.47" y="-444.8" font-family="Times New Roman,serif" font-size="14.00">showPlayListAct</text>
<text text-anchor="start" x="1104.47" y="-429.8" font-family="Times New Roman,serif" font-size="14.00">showSongerCover</text>
<polyline fill="none" stroke="black" points="1096.47,-422 1218.47,-422 "/>
<text text-anchor="start" x="1104.47" y="-406.8" font-family="Times New Roman,serif" font-size="14.00">createActions()</text>
<text text-anchor="start" x="1104.47" y="-391.8" font-family="Times New Roman,serif" font-size="14.00">exec(pos)</text>
<text text-anchor="start" x="1104.47" y="-376.8" font-family="Times New Roman,serif" font-size="14.00">initWidget()</text>
</g>
<!-- 4&#45;&gt;5 -->
<g id="edge13" class="edge">
<title>4&#45;&gt;5</title>
<path fill="none" stroke="black" d="M1139.32,-588.22C1138.69,-611.93 1140.65,-636.61 1147.47,-659 1165.03,-716.65 1198.18,-773.25 1232.29,-821.04"/>
<polygon fill="black" stroke="black" points="1232.32,-821.07 1239.07,-823.59 1239.35,-830.79 1232.59,-828.28 1232.32,-821.07"/>
<text text-anchor="middle" x="1199.47" y="-647.8" font-family="Times New Roman,serif" font-size="14.00" fill="green">moreActionsMenu</text>
</g>
<!-- 6 -->
<g id="node7" class="node">
<title>6</title>
<polygon fill="none" stroke="black" points="1366.97,-53 1366.97,-227 1481.97,-227 1481.97,-53 1366.97,-53"/>
<text text-anchor="middle" x="1424.47" y="-211.8" font-family="Times New Roman,serif" font-size="14.00">PlayButton</text>
<polyline fill="none" stroke="black" points="1366.97,-204 1481.97,-204 "/>
<text text-anchor="start" x="1374.97" y="-188.8" font-family="Times New Roman,serif" font-size="14.00">iconPath_list : list</text>
<text text-anchor="start" x="1374.97" y="-173.8" font-family="Times New Roman,serif" font-size="14.00">isEnter : bool</text>
<text text-anchor="start" x="1374.97" y="-158.8" font-family="Times New Roman,serif" font-size="14.00">isPlaying : bool</text>
<text text-anchor="start" x="1374.97" y="-143.8" font-family="Times New Roman,serif" font-size="14.00">isPressed : bool</text>
<polyline fill="none" stroke="black" points="1366.97,-136 1481.97,-136 "/>
<text text-anchor="start" x="1374.97" y="-120.8" font-family="Times New Roman,serif" font-size="14.00">enterEvent(e)</text>
<text text-anchor="start" x="1374.97" y="-105.8" font-family="Times New Roman,serif" font-size="14.00">eventFilter(obj, e)</text>
<text text-anchor="start" x="1374.97" y="-90.8" font-family="Times New Roman,serif" font-size="14.00">leaveEvent(e)</text>
<text text-anchor="start" x="1374.97" y="-75.8" font-family="Times New Roman,serif" font-size="14.00">paintEvent(e)</text>
<text text-anchor="start" x="1374.97" y="-60.8" font-family="Times New Roman,serif" font-size="14.00">setPlay(play)</text>
</g>
<!-- 6&#45;&gt;1 -->
<g id="edge14" class="edge">
<title>6&#45;&gt;1</title>
<path fill="none" stroke="black" d="M1366.83,-198.59C1341,-231.57 1319.71,-274.02 1336.47,-313 1341.07,-323.69 1348.38,-321.78 1355.47,-331 1365.5,-344.03 1375.01,-358.47 1383.75,-373.07"/>
<polygon fill="black" stroke="black" points="1383.91,-373.35 1390.39,-376.51 1389.96,-383.71 1383.48,-380.55 1383.91,-373.35"/>
<text text-anchor="middle" x="1366.97" y="-301.8" font-family="Times New Roman,serif" font-size="14.00" fill="green">playButton</text>
</g>
<!-- 6&#45;&gt;5 -->
<g id="edge15" class="edge">
<title>6&#45;&gt;5</title>
<path fill="none" stroke="black" d="M1481.44,-227.35C1503.64,-261.39 1524.16,-293.53 1525.47,-298 1548.09,-374.98 1541.64,-581.89 1519.47,-659 1505.28,-708.37 1480.48,-757.83 1453.9,-801.64"/>
<polygon fill="black" stroke="black" points="1453.77,-801.85 1454.03,-809.06 1447.48,-812.07 1447.22,-804.86 1453.77,-801.85"/>
<text text-anchor="middle" x="1569.97" y="-474.8" font-family="Times New Roman,serif" font-size="14.00" fill="green">playButton</text>
</g>
<!-- 7 -->
<g id="node8" class="node">
<title>7</title>
<polygon fill="none" stroke="black" points="1866.97,-391.5 1866.97,-565.5 2045.97,-565.5 2045.97,-391.5 1866.97,-391.5"/>
<text text-anchor="middle" x="1956.47" y="-550.3" font-family="Times New Roman,serif" font-size="14.00">PlayProgressBar</text>
<polyline fill="none" stroke="black" points="1866.97,-542.5 2045.97,-542.5 "/>
<text text-anchor="start" x="1874.97" y="-527.3" font-family="Times New Roman,serif" font-size="14.00">currentTimeLabel</text>
<text text-anchor="start" x="1874.97" y="-512.3" font-family="Times New Roman,serif" font-size="14.00">h_layout</text>
<text text-anchor="start" x="1874.97" y="-497.3" font-family="Times New Roman,serif" font-size="14.00">progressSlider</text>
<text text-anchor="start" x="1874.97" y="-482.3" font-family="Times New Roman,serif" font-size="14.00">totalTimeLabel</text>
<polyline fill="none" stroke="black" points="1866.97,-474.5 2045.97,-474.5 "/>
<text text-anchor="start" x="1874.97" y="-459.3" font-family="Times New Roman,serif" font-size="14.00">__initUI()</text>
<text text-anchor="start" x="1874.97" y="-444.3" font-family="Times New Roman,serif" font-size="14.00">getSecondMinute(time)</text>
<text text-anchor="start" x="1874.97" y="-429.3" font-family="Times New Roman,serif" font-size="14.00">resizeEvent(e)</text>
<text text-anchor="start" x="1874.97" y="-414.3" font-family="Times New Roman,serif" font-size="14.00">setCurrentTime(currentTime)</text>
<text text-anchor="start" x="1874.97" y="-399.3" font-family="Times New Roman,serif" font-size="14.00">setTotalTime(totalTime)</text>
</g>
<!-- 7&#45;&gt;5 -->
<g id="edge16" class="edge">
<title>7&#45;&gt;5</title>
<path fill="none" stroke="black" d="M1903.6,-565.71C1888.54,-586.73 1871.11,-608.26 1852.47,-626 1732.87,-739.87 1567.77,-836.65 1458.42,-894.26"/>
<polygon fill="black" stroke="black" points="1458.32,-894.31 1454.86,-900.64 1447.69,-899.88 1451.15,-893.56 1458.32,-894.31"/>
<text text-anchor="middle" x="1874.97" y="-647.8" font-family="Times New Roman,serif" font-size="14.00" fill="green">playProgressBar</text>
</g>
<!-- 8 -->
<g id="node9" class="node">
<title>8</title>
<polygon fill="none" stroke="black" points="1524.47,-53 1524.47,-227 1718.47,-227 1718.47,-53 1524.47,-53"/>
<text text-anchor="middle" x="1621.47" y="-211.8" font-family="Times New Roman,serif" font-size="14.00">RandomPlayButton</text>
<polyline fill="none" stroke="black" points="1524.47,-204 1718.47,-204 "/>
<text text-anchor="start" x="1532.47" y="-188.8" font-family="Times New Roman,serif" font-size="14.00">image</text>
<text text-anchor="start" x="1532.47" y="-173.8" font-family="Times New Roman,serif" font-size="14.00">isEnter : bool</text>
<text text-anchor="start" x="1532.47" y="-158.8" font-family="Times New Roman,serif" font-size="14.00">isPressed : bool</text>
<text text-anchor="start" x="1532.47" y="-143.8" font-family="Times New Roman,serif" font-size="14.00">isSelected : bool</text>
<polyline fill="none" stroke="black" points="1524.47,-136 1718.47,-136 "/>
<text text-anchor="start" x="1532.47" y="-120.8" font-family="Times New Roman,serif" font-size="14.00">enterEvent(e)</text>
<text text-anchor="start" x="1532.47" y="-105.8" font-family="Times New Roman,serif" font-size="14.00">eventFilter(obj, e)</text>
<text text-anchor="start" x="1532.47" y="-90.8" font-family="Times New Roman,serif" font-size="14.00">leaveEvent(e)</text>
<text text-anchor="start" x="1532.47" y="-75.8" font-family="Times New Roman,serif" font-size="14.00">paintEvent(e)</text>
<text text-anchor="start" x="1532.47" y="-60.8" font-family="Times New Roman,serif" font-size="14.00">setRandomPlay(isRandomPlay)</text>
</g>
<!-- 8&#45;&gt;1 -->
<g id="edge17" class="edge">
<title>8&#45;&gt;1</title>
<path fill="none" stroke="black" d="M1551.25,-227.32C1532.89,-246.38 1512.13,-265.26 1490.47,-280 1472.67,-292.12 1458.04,-280.51 1445.47,-298 1430.3,-319.12 1423.95,-345.5 1422.27,-371.48"/>
<polygon fill="black" stroke="black" points="1422.26,-371.78 1426.04,-377.93 1421.82,-383.78 1418.04,-377.63 1422.26,-371.78"/>
<text text-anchor="middle" x="1497.97" y="-301.8" font-family="Times New Roman,serif" font-size="14.00" fill="green">randomPlayButton</text>
</g>
<!-- 8&#45;&gt;5 -->
<g id="edge18" class="edge">
<title>8&#45;&gt;5</title>
<path fill="none" stroke="black" d="M1637.69,-227.08C1641.32,-250.04 1644.64,-274.89 1646.47,-298 1652.27,-371.26 1633.43,-558.46 1604.47,-626 1569.96,-706.5 1509.74,-783.53 1455.83,-842.38"/>
<polygon fill="black" stroke="black" points="1455.74,-842.49 1454.6,-849.61 1447.59,-851.3 1448.72,-844.17 1455.74,-842.49"/>
<text text-anchor="middle" x="1699.97" y="-474.8" font-family="Times New Roman,serif" font-size="14.00" fill="green">randomPlayButton</text>
</g>
<!-- 9&#45;&gt;5 -->
<g id="edge19" class="edge">
<title>9&#45;&gt;5</title>
<path fill="none" stroke="black" d="M1011.1,-565.74C1014.9,-596.56 1022.55,-630.65 1037.47,-659 1082.62,-744.78 1162.57,-819.74 1229.43,-872.22"/>
<polygon fill="black" stroke="black" points="1229.71,-872.44 1236.91,-872.96 1239.19,-879.8 1232,-879.28 1229.71,-872.44"/>
<text text-anchor="middle" x="1088.97" y="-647.8" font-family="Times New Roman,serif" font-size="14.00" fill="green">rightWidgetGroup</text>
</g>
<!-- 10 -->
<g id="node11" class="node">
<title>10</title>
<polygon fill="none" stroke="black" points="1748.97,-105.5 1748.97,-174.5 1879.97,-174.5 1879.97,-105.5 1748.97,-105.5"/>
<text text-anchor="middle" x="1814.47" y="-159.3" font-family="Times New Roman,serif" font-size="14.00">Slider</text>
<polyline fill="none" stroke="black" points="1748.97,-151.5 1879.97,-151.5 "/>
<text text-anchor="start" x="1756.97" y="-136.3" font-family="Times New Roman,serif" font-size="14.00">clicked</text>
<polyline fill="none" stroke="black" points="1748.97,-128.5 1879.97,-128.5 "/>
<text text-anchor="start" x="1756.97" y="-113.3" font-family="Times New Roman,serif" font-size="14.00">mousePressEvent(e)</text>
</g>
<!-- 10&#45;&gt;5 -->
<g id="edge20" class="edge">
<title>10&#45;&gt;5</title>
<path fill="none" stroke="black" d="M1880.2,-143.82C1991.13,-152.53 2213.01,-187.95 2311.47,-331 2348.64,-385 2349.75,-572.78 2311.47,-626 2209.81,-767.38 1694.1,-883.17 1459.71,-929.38"/>
<polygon fill="black" stroke="black" points="1459.51,-929.42 1454.4,-934.5 1447.74,-931.73 1452.86,-926.65 1459.51,-929.42"/>
<text text-anchor="middle" x="2380.47" y="-474.8" font-family="Times New Roman,serif" font-size="14.00" fill="green">progressSlider</text>
</g>
<!-- 10&#45;&gt;5 -->
<g id="edge21" class="edge">
<title>10&#45;&gt;5</title>
<path fill="none" stroke="black" d="M1808.9,-174.57C1802.71,-212.49 1792.64,-276.07 1785.47,-331 1776.94,-396.39 1785.33,-568.27 1753.47,-626 1686.74,-746.92 1554.64,-838.85 1458.37,-893.57"/>
<polygon fill="black" stroke="black" points="1458.16,-893.69 1454.89,-900.11 1447.7,-899.57 1450.97,-893.14 1458.16,-893.69"/>
<text text-anchor="middle" x="1821.97" y="-474.8" font-family="Times New Roman,serif" font-size="14.00" fill="green">volumeSlider</text>
</g>
<!-- 10&#45;&gt;7 -->
<g id="edge22" class="edge">
<title>10&#45;&gt;7</title>
<path fill="none" stroke="black" d="M1828.74,-174.81C1848.79,-222.33 1886.12,-310.79 1915.27,-379.86"/>
<polygon fill="black" stroke="black" points="1915.39,-380.15 1921.41,-384.12 1920.06,-391.21 1914.04,-387.23 1915.39,-380.15"/>
<text text-anchor="middle" x="1926.47" y="-301.8" font-family="Times New Roman,serif" font-size="14.00" fill="green">progressSlider</text>
</g>
<!-- 10&#45;&gt;9 -->
<g id="edge23" class="edge">
<title>10&#45;&gt;9</title>
<path fill="none" stroke="black" d="M1802.58,-174.77C1789.38,-207.07 1764.88,-254.52 1727.47,-280 1694.4,-302.52 1590.23,-308.54 1550.47,-313 1499.31,-318.73 1131.16,-303.76 1087.47,-331 1068.35,-342.92 1053.55,-361.18 1042.21,-380.8"/>
<polygon fill="black" stroke="black" points="1042.14,-380.93 1042.8,-388.11 1036.42,-391.48 1035.76,-384.3 1042.14,-380.93"/>
<text text-anchor="middle" x="1705.97" y="-301.8" font-family="Times New Roman,serif" font-size="14.00" fill="green">volumeSlider</text>
</g>
<!-- 11 -->
<g id="node12" class="node">
<title>11</title>
<polygon fill="none" stroke="black" points="2064.47,-331.5 2064.47,-625.5 2302.47,-625.5 2302.47,-331.5 2064.47,-331.5"/>
<text text-anchor="middle" x="2183.47" y="-610.3" font-family="Times New Roman,serif" font-size="14.00">SongInfoCard</text>
<polyline fill="none" stroke="black" points="2064.47,-602.5 2302.47,-602.5 "/>
<text text-anchor="start" x="2072.47" y="-587.3" font-family="Times New Roman,serif" font-size="14.00">MAXWIDTH : int</text>
<text text-anchor="start" x="2072.47" y="-572.3" font-family="Times New Roman,serif" font-size="14.00">albumChanged</text>
<text text-anchor="start" x="2072.47" y="-557.3" font-family="Times New Roman,serif" font-size="14.00">albumPic</text>
<text text-anchor="start" x="2072.47" y="-542.3" font-family="Times New Roman,serif" font-size="14.00">clicked</text>
<text text-anchor="start" x="2072.47" y="-527.3" font-family="Times New Roman,serif" font-size="14.00">coverPath : str</text>
<text text-anchor="start" x="2072.47" y="-512.3" font-family="Times New Roman,serif" font-size="14.00">scrollTextWindow : ScrollTextWindow</text>
<text text-anchor="start" x="2072.47" y="-497.3" font-family="Times New Roman,serif" font-size="14.00">songInfo</text>
<text text-anchor="start" x="2072.47" y="-482.3" font-family="Times New Roman,serif" font-size="14.00">songName</text>
<text text-anchor="start" x="2072.47" y="-467.3" font-family="Times New Roman,serif" font-size="14.00">songerName</text>
<text text-anchor="start" x="2072.47" y="-452.3" font-family="Times New Roman,serif" font-size="14.00">windowMask : WindowMask</text>
<polyline fill="none" stroke="black" points="2064.47,-444.5 2302.47,-444.5 "/>
<text text-anchor="start" x="2072.47" y="-429.3" font-family="Times New Roman,serif" font-size="14.00">enterEvent(e)</text>
<text text-anchor="start" x="2072.47" y="-414.3" font-family="Times New Roman,serif" font-size="14.00">initWidget()</text>
<text text-anchor="start" x="2072.47" y="-399.3" font-family="Times New Roman,serif" font-size="14.00">leaveEvent(e)</text>
<text text-anchor="start" x="2072.47" y="-384.3" font-family="Times New Roman,serif" font-size="14.00">mouseReleaseEvent(e)</text>
<text text-anchor="start" x="2072.47" y="-369.3" font-family="Times New Roman,serif" font-size="14.00">setAlbumCover()</text>
<text text-anchor="start" x="2072.47" y="-354.3" font-family="Times New Roman,serif" font-size="14.00">setSongInfo(songInfo)</text>
<text text-anchor="start" x="2072.47" y="-339.3" font-family="Times New Roman,serif" font-size="14.00">updateSongInfoCard(songInfo)</text>
</g>
<!-- 11&#45;&gt;5 -->
<g id="edge24" class="edge">
<title>11&#45;&gt;5</title>
<path fill="none" stroke="black" d="M2064.35,-619.11C2061.41,-621.48 2058.45,-623.78 2055.47,-626 1866.65,-766.72 1607.18,-865.86 1459.25,-915.22"/>
<polygon fill="black" stroke="black" points="1458.87,-915.35 1454.43,-921.03 1447.48,-919.12 1451.91,-913.44 1458.87,-915.35"/>
<text text-anchor="middle" x="2059.97" y="-647.8" font-family="Times New Roman,serif" font-size="14.00" fill="green">songInfoCard</text>
</g>
<!-- 12 -->
<g id="node13" class="node">
<title>12</title>
<polygon fill="none" stroke="black" points="193.97,-0.5 193.97,-279.5 352.97,-279.5 352.97,-0.5 193.97,-0.5"/>
<text text-anchor="middle" x="273.47" y="-264.3" font-family="Times New Roman,serif" font-size="14.00">VolumeButton</text>
<polyline fill="none" stroke="black" points="193.97,-256.5 352.97,-256.5 "/>
<text text-anchor="start" x="201.97" y="-241.3" font-family="Times New Roman,serif" font-size="14.00">__iconPath_list : list</text>
<text text-anchor="start" x="201.97" y="-226.3" font-family="Times New Roman,serif" font-size="14.00">currentVolumeLevel : int</text>
<text text-anchor="start" x="201.97" y="-211.3" font-family="Times New Roman,serif" font-size="14.00">iconPixmap</text>
<text text-anchor="start" x="201.97" y="-196.3" font-family="Times New Roman,serif" font-size="14.00">isEnter : bool</text>
<text text-anchor="start" x="201.97" y="-181.3" font-family="Times New Roman,serif" font-size="14.00">isMute : bool</text>
<text text-anchor="start" x="201.97" y="-166.3" font-family="Times New Roman,serif" font-size="14.00">isPressed : bool</text>
<text text-anchor="start" x="201.97" y="-151.3" font-family="Times New Roman,serif" font-size="14.00">muteStateChanged</text>
<text text-anchor="start" x="201.97" y="-136.3" font-family="Times New Roman,serif" font-size="14.00">pixmap_list</text>
<polyline fill="none" stroke="black" points="193.97,-128.5 352.97,-128.5 "/>
<text text-anchor="start" x="201.97" y="-113.3" font-family="Times New Roman,serif" font-size="14.00">__updateIcon(iconIndex)</text>
<text text-anchor="start" x="201.97" y="-98.3" font-family="Times New Roman,serif" font-size="14.00">enterEvent(e)</text>
<text text-anchor="start" x="201.97" y="-83.3" font-family="Times New Roman,serif" font-size="14.00">leaveEvent(e)</text>
<text text-anchor="start" x="201.97" y="-68.3" font-family="Times New Roman,serif" font-size="14.00">mousePressEvent(e)</text>
<text text-anchor="start" x="201.97" y="-53.3" font-family="Times New Roman,serif" font-size="14.00">mouseReleaseEvent(e)</text>
<text text-anchor="start" x="201.97" y="-38.3" font-family="Times New Roman,serif" font-size="14.00">paintEvent(e)</text>
<text text-anchor="start" x="201.97" y="-23.3" font-family="Times New Roman,serif" font-size="14.00">setMute(isMute)</text>
<text text-anchor="start" x="201.97" y="-8.3" font-family="Times New Roman,serif" font-size="14.00">setVolumeLevel(volume)</text>
</g>
<!-- 12&#45;&gt;5 -->
<g id="edge25" class="edge">
<title>12&#45;&gt;5</title>
<path fill="none" stroke="black" d="M193.84,-184.54C142.75,-217.35 80.7,-267.52 51.47,-331 -3.36,-450.1 -28.83,-522.36 51.47,-626 196.64,-813.34 937.33,-909.01 1227.07,-939.73"/>
<polygon fill="black" stroke="black" points="1227.34,-939.75 1233.73,-936.4 1239.27,-941.01 1232.89,-944.36 1227.34,-939.75"/>
<text text-anchor="middle" x="90.97" y="-474.8" font-family="Times New Roman,serif" font-size="14.00" fill="green">volumeButton</text>
</g>
<!-- 12&#45;&gt;9 -->
<g id="edge26" class="edge">
<title>12&#45;&gt;9</title>
<path fill="none" stroke="black" d="M353.18,-197.1C415.04,-237.31 504.63,-288.53 591.47,-313 663.66,-333.34 865.02,-291.03 928.47,-331 947.49,-342.98 962.33,-361.15 973.77,-380.66"/>
<polygon fill="black" stroke="black" points="973.83,-380.76 980.23,-384.09 979.62,-391.28 973.22,-387.95 973.83,-380.76"/>
<text text-anchor="middle" x="630.97" y="-301.8" font-family="Times New Roman,serif" font-size="14.00" fill="green">volumeButton</text>
</g>
<!-- 13 -->
<g id="node14" class="node">
<title>13</title>
<polygon fill="none" stroke="black" points="2438.97,-384 2438.97,-573 2845.97,-573 2845.97,-384 2438.97,-384"/>
<text text-anchor="middle" x="2642.47" y="-557.8" font-family="Times New Roman,serif" font-size="14.00">WindowEffect</text>
<polyline fill="none" stroke="black" points="2438.97,-550 2845.97,-550 "/>
<text text-anchor="start" x="2446.97" y="-534.8" font-family="Times New Roman,serif" font-size="14.00">dll</text>
<polyline fill="none" stroke="black" points="2438.97,-527 2845.97,-527 "/>
<text text-anchor="start" x="2446.97" y="-511.8" font-family="Times New Roman,serif" font-size="14.00">addShadowEffect(hWnd, isShadowEnable)</text>
<text text-anchor="start" x="2446.97" y="-496.8" font-family="Times New Roman,serif" font-size="14.00">adjustMaximizedClientRect(hWnd, lParam)</text>
<text text-anchor="start" x="2446.97" y="-481.8" font-family="Times New Roman,serif" font-size="14.00">moveWindow(hWnd)</text>
<text text-anchor="start" x="2446.97" y="-466.8" font-family="Times New Roman,serif" font-size="14.00">setAcrylicEffect(hWnd, gradientColor, isEnableShadow, animationId)</text>
<text text-anchor="start" x="2446.97" y="-451.8" font-family="Times New Roman,serif" font-size="14.00">setAeroEffect(hWnd)</text>
<text text-anchor="start" x="2446.97" y="-436.8" font-family="Times New Roman,serif" font-size="14.00">setShadowEffect(class_amended, hWnd, newShadow)</text>
<text text-anchor="start" x="2446.97" y="-421.8" font-family="Times New Roman,serif" font-size="14.00">setWindowAnimation(hWnd)</text>
<text text-anchor="start" x="2446.97" y="-406.8" font-family="Times New Roman,serif" font-size="14.00">setWindowFrame(hWnd, left, top, right, buttom)</text>
<text text-anchor="start" x="2446.97" y="-391.8" font-family="Times New Roman,serif" font-size="14.00">setWindowStayOnTop(hWnd, isStayOnTop)</text>
</g>
<!-- 13&#45;&gt;5 -->
<g id="edge27" class="edge">
<title>13&#45;&gt;5</title>
<path fill="none" stroke="black" d="M2515.72,-573.15C2466.91,-605.04 2409.23,-637.91 2352.47,-659 2035.75,-776.67 1648.97,-876.97 1459.43,-923.4"/>
<polygon fill="black" stroke="black" points="1459.17,-923.46 1454.29,-928.77 1447.51,-926.31 1452.39,-921 1459.17,-923.46"/>
<text text-anchor="middle" x="2425.97" y="-647.8" font-family="Times New Roman,serif" font-size="14.00" fill="green">windowEffect</text>
</g>
<!-- 14 -->
<g id="node15" class="node">
<title>14</title>
<polygon fill="none" stroke="black" points="2864.47,-444 2864.47,-513 2944.47,-513 2944.47,-444 2864.47,-444"/>
<text text-anchor="middle" x="2904.47" y="-497.8" font-family="Times New Roman,serif" font-size="14.00">c_void_p</text>
<polyline fill="none" stroke="black" points="2864.47,-490 2944.47,-490 "/>
<text text-anchor="start" x="2872.47" y="-474.8" font-family="Times New Roman,serif" font-size="14.00">_type_ : str</text>
<polyline fill="none" stroke="black" points="2864.47,-467 2944.47,-467 "/>
<text text-anchor="middle" x="2904.47" y="-451.8" font-family="Times New Roman,serif" font-size="14.00"> </text>
</g>
<!-- 14&#45;&gt;5 -->
<g id="edge28" class="edge">
<title>14&#45;&gt;5</title>
<path fill="none" stroke="black" d="M2902.53,-513.16C2898.74,-546.69 2887.65,-597.21 2855.47,-626 2647.05,-812.47 1776.59,-910.67 1459.59,-940.78"/>
<polygon fill="black" stroke="black" points="1459.58,-940.78 1453.99,-945.33 1447.64,-941.91 1453.23,-937.37 1459.58,-940.78"/>
<text text-anchor="middle" x="2836.97" y="-647.8" font-family="Times New Roman,serif" font-size="14.00" fill="green">hWnd</text>
</g>
</g>
</svg>
