<?xml version="1.0" standalone="no"?><!DOCTYPE svg PUBLIC "-//W3C//DTD SVG 1.1//EN" "http://www.w3.org/Graphics/SVG/1.1/DTD/svg11.dtd"><svg t="1588382502113" class="icon" viewBox="0 0 1024 1024" version="1.1" xmlns="http://www.w3.org/2000/svg" p-id="2940" width="32" height="32" xmlns:xlink="http://www.w3.org/1999/xlink"><defs><style type="text/css"></style></defs><path d="M805.341867 239.889067c0-8.260267-3.6864-16.042667-10.0352-21.2992a27.088213 27.088213 0 0 0-22.7328-5.666134l-344.064 70.314667c-12.6976 2.594133-21.845333 13.858133-21.845334 26.897067l-0.2048 313.617066c-19.114667-10.990933-41.984-17.066667-66.56-17.066666h-0.136533c-31.3344 0-61.098667 9.898667-83.626667 28.603733-24.1664 20.002133-37.4784 44.373333-37.4784 73.5232-0.068267 58.026667 54.272 102.673067 121.105067 102.673067h0.136533c31.3344 0 59.392-7.850667 81.988267-26.555734 24.1664-20.002133 35.771733-45.397333 35.771733-74.5472V711.0656l1.8432-267.400533 290.269867-58.9824 0.341333 162.542933c-19.0464-10.922667-41.437867-15.633067-65.877333-15.633067h-0.136533c-31.3344 0-61.098667 8.6016-83.626667 27.306667-24.1664 20.002133-37.4784 44.987733-37.4784 74.1376-0.068267 58.026667 54.272 103.287467 121.105067 103.287467h0.068266c63.6928 0 116.189867-41.7792 120.968534-96.0512 0.068267-0.6144 0.136533-3.618133 0.068266-11.127467l0.136534-389.256533zM388.846933 742.741333c-12.834133 10.6496-30.242133 14.199467-49.015466 14.199467h-0.068267c-36.113067 0-66.56-20.821333-66.56-48.128 0-12.424533 6.280533-23.005867 17.6128-32.426667 12.834133-10.6496 30.242133-15.086933 48.9472-15.086933h0.068267c36.113067 0 66.56 21.7088 66.56 49.015467 0 12.4928-6.212267 23.074133-17.544534 32.426666z m72.362667-347.9552l0.068267-62.190933 289.450666-59.118933-0.068266 62.2592-289.450667 59.050666z m222.958933 287.061334s-0.068267 0 0 0c-36.113067 0-66.628267-22.050133-66.628266-49.3568 0-12.424533 6.280533-22.391467 17.6128-31.744 12.834133-10.6496 30.242133-14.472533 48.9472-14.472534h0.068266c34.4064 0 67.037867 17.954133 67.037867 43.485867v7.714133c-6.826667 25.6-32.699733 44.373333-67.037867 44.373334z" p-id="2941" fill="#000000"></path></svg>