<svg width="67" height="67" xmlns="http://www.w3.org/2000/svg">
 <!-- Created with Method Draw - http://github.com/duopixel/Method-Draw/ -->

 <g>
  <title>background</title>
  <rect fill="#fff" id="canvas_background" height="69" width="69" y="-1" x="-1"/>
  <g display="none" overflow="visible" y="0" x="0" height="100%" width="100%" id="canvasGrid">
   <rect fill="url(#gridpattern)" stroke-width="0" y="0" x="0" height="100%" width="100%"/>
  </g>
 </g>
 <g>
  <title>Layer 1</title>
  <!-- Created with Method Draw - http://github.com/duopixel/Method-Draw/ -->
  <g id="svg_15">
   <g transform="matrix(1.04099, 0, 0, 1.04099, 52.8361, 52.8361)" id="svg_12">
    <title>background</title>
    <rect x="-1" y="-1" width="67" height="67" id="svg_10" fill="#fff"/>
    <g transform="translate(0, 0.15248) translate(0, -0.15248) translate(0.15248) translate(0, 0.15248) translate(0, 0.15248) translate(0.152679) translate(-0.152879) translate(0.152879) translate(0.152879) translate(0, 0.152879) translate(0, 0.152879) translate(0, 0.153482) translate(0.613926, 0.153482) translate(1.2343, 1.2343) translate(0.937918, 0.937918) translate(-0.15818, 1.10726) translate(0, -0.15818) translate(0.632719, 0.632719) translate(1.11312, 1.43115) translate(7.88493, 4.66659) translate(3.79561, 5.34836) translate(4.31427, 4.85355) translate(0.539283, 0.539283) translate(0.542825, 0.361883) translate(0.54568, 0.727574) translate(0.914258, 0.731406) translate(1.10433, 0.736222) translate(-3.91633, -4.47581) translate(4.10283, 4.84879) translate(2.05141, 0.745968) translate(-38.4452, -33.7337) translate(-39.2787, -25.3129) translate(0, -17.0238)" id="svg_9" display="none">
     <rect id="svg_13" width="100%" height="100%" x="0" y="0" stroke-width="0" fill="url(#gridpattern)"/>
    </g>
   </g>
   <g transform="matrix(1.04099, 0, 0, 1.04099, 52.8361, 52.8361)" id="svg_14">
    <title>Layer 1</title>
    <defs transform="translate(0, 0.15248) translate(0, -0.15248) translate(0.15248) translate(0, 0.15248) translate(0, 0.15248) translate(0.152679) translate(-0.152879) translate(0.152879) translate(0.152879) translate(0, 0.152879) translate(0, 0.152879) translate(0, 0.153482) translate(0.613926, 0.153482) translate(1.2343, 1.2343) translate(0.937918, 0.937918) translate(-0.15818, 1.10726) translate(0, -0.15818) translate(0.632719, 0.632719) translate(1.11312, 1.43115) translate(7.88493, 4.66659) translate(3.79561, 5.34836) translate(4.31427, 4.85355) translate(0.539283, 0.539283) translate(0.542825, 0.361883) translate(0.54568, 0.727574) translate(0.914258, 0.731406) translate(1.10433, 0.736222) translate(-3.91633, -4.47581) translate(4.10283, 4.84879) translate(2.05141, 0.745968) translate(-38.4452, -33.7337) translate(-39.2787, -25.3129) translate(0, -17.0238)">
     <style type="text/css"/>
    </defs>
    <g id="svg_7">
     <path d="m-50.401833,-18.52276c0,-17.627123 14.325474,-31.916704 31.916714,-31.916704c17.627118,0 31.916703,14.325455 31.916703,31.916704c0,17.627102 -14.325455,31.916708 -31.916703,31.916708c-17.627106,0 -31.916714,-14.325465 -31.916714,-31.916708z" fill="#000000" id="svg_8"/>
    </g>
   </g>
  </g>
 </g>
</svg>