<?xml version="1.0" standalone="no"?><!DOCTYPE svg PUBLIC "-//W3C//DTD SVG 1.1//EN" "http://www.w3.org/Graphics/SVG/1.1/DTD/svg11.dtd"><svg t="1588432664310" class="icon" viewBox="0 0 1024 1024" version="1.1" xmlns="http://www.w3.org/2000/svg" p-id="896" xmlns:xlink="http://www.w3.org/1999/xlink" width="256" height="256"><defs><style type="text/css"></style></defs><path d="M130.32 882.52c-17.61 0-31.59-14-31.59-31.59 0-17.6 13.98-31.61 31.59-31.61h763.13c17.61 0 31.82 14 31.82 31.61 0 17.59-14.21 31.59-31.82 31.59H130.32z m59.57-543.6c0-17.38 14.21-31.59 31.82-31.59 17.84 0 31.82 14.21 31.82 31.59v414.53c0 17.58-13.98 31.59-31.82 31.59-17.61 0-31.82-14-31.82-31.59V338.92z m580.36-66.11c0-17.6 14.21-32.04 32.05-32.04 17.61 0 31.36 14.44 31.36 32.04v480.64c0 17.58-13.75 31.59-31.36 31.59-17.84 0-32.05-14-32.05-31.59V272.81z m-144.86-99.72c0-17.61 13.98-31.61 31.59-31.61s31.59 14 31.59 31.61v580.36c0 17.58-13.98 31.59-31.59 31.59s-31.59-14-31.59-31.59V173.09zM480.08 391.95c0-17.58 14.44-31.82 32.03-31.82 17.38 0 31.61 14.23 31.61 31.82v361.5c0 17.58-14.23 31.59-31.61 31.59-17.58 0-32.03-14-32.03-31.59v-361.5zM334.97 534.79c0-17.61 14.23-31.82 31.61-31.82 17.81 0 32.03 14.21 32.03 31.82v218.65c0 17.58-14.21 31.59-32.03 31.59-17.38 0-31.61-14-31.61-31.59V534.79z" fill="#000000" p-id="897"></path></svg>