<?xml version="1.0" encoding="utf-8"?>
<svg xmlns="http://www.w3.org/2000/svg" height="20" width="20" viewBox="0 0 20 20">
  <g>
    <path id="path1" transform="rotate(0,10,10) translate(0,0) scale(0.0397812033814023,0.0397812033814023)  " fill="#000000" d="M268.25,278.75L277.375,286.796875 286.75,294.4375 296.375,301.671875 306.25,308.5 316.3671875,314.890625 326.71875,320.8125 337.3046875,326.265625 348.125,331.25 359.15625,335.734375 370.375,339.6875 381.78125,343.109375 393.375,346 405.1328125,348.34375 417.03125,350.125 429.0703125,351.34375 441.25,352 404.75,315.25 427.25,292.75 502.75,368 427.25,443.25 404.75,420.75 441.5,384 427.820281982422,383.3125 414.281219482422,382 400.8828125,380.0625 387.625,377.5 374.5546875,374.3359375 361.71875,370.59375 349.1171875,366.2734375 336.75,361.375 324.6171875,355.9140625 312.71875,349.90625 301.0546875,343.3515625 289.625,336.25 278.4609375,328.640625 267.59375,320.5625 257.0234375,312.015625 246.75,303 257.375,290.875 268.25,278.75z M-2.8421709430404E-14,128L14.2148427963257,128.333984375 28.2343730926514,129.3359375 42.05859375,131.005859375 55.6875,133.34375 69.12109375,136.349609375 82.359375,140.0234375 95.40234375,144.365234375 108.25,149.375 120.859375,154.982421875 133.1875,161.1171875 145.234375,167.779296875 157,174.96875 168.484375,182.685546875 179.6875,190.9296875 190.609375,199.701171875 201.25,209 190.625,221.125 179.75,233.25 170.3515625,224.960952758789 160.65625,217.093765258789 150.6640625,209.6484375 140.375,202.625 129.8203125,196.070327758789 119.03125,190.031265258789 108.0078125,184.5078125 96.75,179.5 85.28125,175.031265258789 73.625,171.125015258789 61.78125,167.78125 49.7500038146973,165 37.546875,162.812515258789 25.1875,161.25 12.6718740463257,160.3125 -2.8421709430404E-14,160 -2.8421709430404E-14,128z M427.25,68.75L502.75,144 427.25,219.25 404.75,196.75 441.25,160 425.5859375,160.929702758789 410.343719482422,162.71875 395.523406982422,165.3671875 381.125,168.875 367.125,173.1875 353.5,178.25 340.25,184.0625 327.375,190.625 314.8515625,197.8984375 302.65625,205.84375 290.7890625,214.460952758789 279.25,223.75 268.03125,233.625 257.125,244 246.531234741211,254.875 236.25,266.25 219.25,285.25 210.499984741211,294.375 201.25,303.25 190.609375,312.546875 179.6875,321.3125 168.484375,329.546875 157,337.25 145.234375,344.421875 133.1875,351.0625 120.859375,357.171875 108.25,362.75 95.40234375,367.73046875 82.359375,372.046875 69.12109375,375.69921875 55.6875,378.6875 42.05859375,381.01171875 28.2343730926514,382.671875 14.2148427963257,383.66796875 -2.8421709430404E-14,384 -2.8421709430404E-14,352 16.1640625,351.5234375 31.90625,350.09375 47.2265625,347.7109375 62.1250038146973,344.375 76.6171875,340.171875 90.71875,335.1875 104.4296875,329.421875 117.75,322.875 130.6953125,315.578125 143.28125,307.5625 155.5078125,298.828125 167.375,289.375 178.9140625,279.2890625 190.15625,268.65625 201.1015625,257.4765625 211.75,245.75 229.375,226 238.53125,216.625 248.25,207.5 258.5078125,198.71875 269.03125,190.375 279.8203125,182.468765258789 290.875,175 302.1875,168.015625 313.75,161.5625 325.5625,155.640625 337.625,150.25 349.921875,145.414077758789 362.4375,141.15625 375.171875,137.4765625 388.125,134.375 401.2578125,131.8671875 414.53125,129.96875 427.9453125,128.6796875 441.5,128 404.75,91.25 427.25,68.75z" />
  </g>
</svg>
