<?xml version="1.0" encoding="utf-8"?>
<svg xmlns="http://www.w3.org/2000/svg" height="20" width="20" viewBox="0 0 20 20">
  <g>
    <path id="path1" transform="rotate(0,10,10) translate(0,0) scale(0.0416666666666667,0.0416666666666667)  " fill="#000000" d="M256,224L262.34375,224.625 268.375,226.5 273.875,229.468765258789 278.625,233.375 282.53125,238.125015258789 285.5,243.625 287.375,249.656265258789 288,256 287.375,262.5 285.5,268.5 282.53125,273.90625 278.625,278.625 273.90625,282.53125 268.5,285.5 262.5,287.375 256,288 249.46875,287.375 243.375,285.5 237.90625,282.5625 233.25,278.75 229.4375,274.09375 226.5,268.625 224.625,262.53125 224,256 224.625,249.5 226.5,243.5 229.46875,238.093765258789 233.375,233.375 238.09375,229.468765258789 243.5,226.5 249.5,224.625 256,224z M256,128L242.945297241211,128.625 230.281234741211,130.5 218.007797241211,133.625 206.125,138 194.8125,143.460952758789 184.25,149.843765258789 174.4375,157.148452758789 165.375,165.375 157.1484375,174.4375 149.84375,184.250015258789 143.4609375,194.812515258789 138,206.125 133.625,218.0078125 130.5,230.28125 128.625,242.9453125 128,256 128.625,269.0546875 130.5,281.71875 133.625,293.9921875 138,305.875 143.4609375,317.1875 149.84375,327.75 157.1484375,337.5625 165.375,346.625 174.4375,354.8515625 184.25,362.15625 194.8125,368.5390625 206.125,374 218.007797241211,378.375 230.281234741211,381.5 242.945297241211,383.375 256,384 269.0546875,383.375 281.71875,381.5 293.9921875,378.375 305.875,374 317.1875,368.5390625 327.75,362.15625 337.5625,354.8515625 346.625,346.625 354.8515625,337.5625 362.15625,327.75 368.5390625,317.1875 374,305.875 378.375,293.9921875 381.5,281.71875 383.375,269.0546875 384,256 384,253.5 383.3515625,240.695327758789 381.40625,228.28125 378.1640625,216.2578125 373.625,204.625 367.984375,193.5546875 361.4375,183.21875 353.984375,173.6171875 345.625,164.75 336.46875,156.695327758789 326.625,149.531265258789 316.09375,143.2578125 304.875,137.875 293.1484375,133.554702758789 281.09375,130.46875 268.7109375,128.6171875 256,128z M256,96L264.248046875,96.1953125 272.3671875,96.78125 280.357421875,97.7578201293945 288.21875,99.1250076293945 295.951171875,100.882820129395 303.5546875,103.031257629395 311.029296875,105.570320129395 318.375,108.5 332.4765625,115.328132629395 345.65625,123.3125 357.9140625,132.453125 369.25,142.75 379.546875,154.0859375 388.6875,166.34375 396.671875,179.5234375 403.5,193.625 406.4296875,200.970703125 408.96875,208.445327758789 411.1171875,216.048843383789 412.875,223.781265258789 414.2421875,231.642593383789 415.21875,239.6328125 415.8046875,247.751953125 416,256 415.8046875,264.248046875 415.21875,272.3671875 414.2421875,280.357421875 412.875,288.21875 411.1171875,295.951171875 408.96875,303.5546875 406.4296875,311.029296875 403.5,318.375 396.671875,332.4765625 388.6875,345.65625 379.546875,357.9140625 369.25,369.25 357.9140625,379.546875 345.65625,388.6875 332.4765625,396.671875 318.375,403.5 311.029296875,406.4296875 303.5546875,408.96875 295.951171875,411.1171875 288.21875,412.875 280.357421875,414.2421875 272.3671875,415.21875 264.248046875,415.8046875 256,416 247.751953125,415.8046875 239.632797241211,415.21875 231.642562866211,414.2421875 223.781234741211,412.875 216.048812866211,411.1171875 208.4453125,408.96875 200.970703125,406.4296875 193.625,403.5 179.5234375,396.671875 166.34375,388.6875 154.0859375,379.546875 142.75,369.25 132.453125,357.9140625 123.3125,345.65625 115.328125,332.4765625 108.5,318.375 105.5703125,311.029296875 103.03125,303.5546875 100.8828125,295.951171875 99.125,288.21875 97.7578125,280.357421875 96.78125,272.3671875 96.1953125,264.248046875 96,256 96.1953125,247.751953125 96.78125,239.6328125 97.7578125,231.642593383789 99.125,223.781265258789 100.8828125,216.048843383789 103.03125,208.445327758789 105.5703125,200.970703125 108.5,193.625 115.328125,179.5234375 123.3125,166.34375 132.453125,154.0859375 142.75,142.75 154.0859375,132.453125 166.34375,123.3125 179.5234375,115.328132629395 193.625,108.5 200.970703125,105.570320129395 208.4453125,103.031257629395 216.048812866211,100.882820129395 223.781234741211,99.1250076293945 231.642562866211,97.7578201293945 239.632797241211,96.78125 247.751953125,96.1953125 256,96z M126.75,64L120.5703125,64.3203125 114.53125,65.28125 108.6328125,66.8828201293945 102.875,69.125 97.359375,71.9062576293945 92.1875,75.1250076293945 87.359375,78.78125 82.875,82.875 78.78125,87.359375 75.125,92.1875076293945 71.90625,97.3593826293945 69.125,102.875 66.8828125,108.632820129395 65.28125,114.531265258789 64.3203125,120.570320129395 64,126.75 64,385.25 64.3203125,391.4296875 65.28125,397.46875 66.8828125,403.3671875 69.125,409.125 71.90625,414.640625 75.125,419.8125 78.78125,424.640625 82.875,429.125 87.359375,433.21875 92.1875,436.875 97.359375,440.09375 102.875,442.875 108.6328125,445.1171875 114.53125,446.71875 120.5703125,447.6796875 126.75,448 385.25,448 391.4296875,447.6796875 397.46875,446.71875 403.3671875,445.1171875 409.125,442.875 414.640625,440.09375 419.8125,436.875 424.640625,433.21875 429.125,429.125 433.21875,424.640625 436.875,419.8125 440.09375,414.640625 442.875,409.125 445.1171875,403.3671875 446.71875,397.46875 447.6796875,391.4296875 448,385.25 448,126.75 447.6796875,120.570320129395 446.71875,114.531265258789 445.1171875,108.632820129395 442.875,102.875 440.09375,97.3593826293945 436.875,92.1875076293945 433.21875,87.359375 429.125,82.875 424.640625,78.78125 419.8125,75.1250076293945 414.640625,71.9062576293945 409.125,69.125 403.3671875,66.8828201293945 397.46875,65.28125 391.4296875,64.3203125 385.25,64 126.75,64z M126,32L386,32 395.2734375,32.4765777587891 404.34375,33.9062690734863 413.2109375,36.2890739440918 421.875,39.625 430.171875,43.7656326293945 437.9375,48.5625114440918 445.171875,54.0156364440918 451.875,60.1250038146973 457.984375,66.8281326293945 463.4375,74.0625076293945 468.234375,81.8281326293945 472.375,90.125 475.7109375,98.7890701293945 478.093719482422,107.656257629395 479.523406982422,116.7265625 480,126 480,386 479.523406982422,395.2734375 478.093719482422,404.34375 475.7109375,413.2109375 472.375,421.875 468.234375,430.171875 463.4375,437.9375 457.984375,445.171875 451.875,451.875 445.171875,457.984375 437.9375,463.4375 430.171875,468.234375 421.875,472.375 413.2109375,475.7109375 404.34375,478.09375 395.2734375,479.5234375 386,480 126,480 116.726554870605,479.5234375 107.656242370605,478.09375 98.7890548706055,475.7109375 90.125,472.375 81.828125,468.234375 74.0625,463.4375 66.828125,457.984375 60.1250038146973,451.875 54.015625,445.171875 48.5625,437.9375 43.765625,430.171875 39.625,421.875 36.2890625,413.2109375 33.90625,404.34375 32.4765625,395.2734375 32,386 32,126 32.4765625,116.7265625 33.90625,107.656257629395 36.2890625,98.7890701293945 39.625,90.125 43.765625,81.8281326293945 48.5625,74.0625076293945 54.015625,66.8281326293945 60.1250038146973,60.1250038146973 66.828125,54.0156364440918 74.0625,48.5625114440918 81.828125,43.7656326293945 90.125,39.625 98.7890548706055,36.2890739440918 107.656242370605,33.9062690734863 116.726554870605,32.4765777587891 126,32z" />
  </g>
</svg>

