<?xml version="1.0" encoding="utf-8"?>
<svg id="" width="20" height="20" style="width:20px;height:20px;" version="1.1"
    xmlns="http://www.w3.org/2000/svg" viewBox="0 0 2048 2048" enable-background="new 0 0 2048 2048"
    xml:space="preserve"><path fill="#ffffff" d="M1416 0 q75 0 143.5 30.5 q68.5 30.5 120 82 q51.5 51.5 82 120 q30.5 68.5 30.5 143.5 l0 1296 q0 75 -30.5 143.5 q-30.5 68.5 -82 120 q-51.5 51.5 -120 82 q-68.5 30.5 -143.5 30.5 l-784 0 q-75 0 -143.5 -30.5 q-68.5 -30.5 -120 -82 q-51.5 -51.5 -82 -120 q-30.5 -68.5 -30.5 -143.5 l0 -1296 q0 -75 30.5 -143.5 q30.5 -68.5 82 -120 q51.5 -51.5 120 -82 q68.5 -30.5 143.5 -30.5 l784 0 ZM635 128 q-50 0 -95.5 20.5 q-45.5 20.5 -80 55 q-34.5 34.5 -55 80 q-20.5 45.5 -20.5 95.5 l0 261 l1280 0 l0 -261 q0 -50 -20.5 -95.5 q-20.5 -45.5 -55 -80 q-34.5 -34.5 -80 -55 q-45.5 -20.5 -95.5 -20.5 l-778 0 ZM1344 352 q0 -40 28 -68 q28 -28 68 -28 q40 0 68 28 q28 28 28 68 q0 40 -28 68 q-28 28 -68 28 q-40 0 -68 -28 q-28 -28 -28 -68 ZM1664 1280 l0 -512 l-1280 0 l0 512 l1280 0 ZM1344 992 q0 -40 28 -68 q28 -28 68 -28 q40 0 68 28 q28 28 28 68 q0 40 -28 68 q-28 28 -68 28 q-40 0 -68 -28 q-28 -28 -28 -68 ZM1413 1920 q50 0 95.5 -20.5 q45.5 -20.5 80 -55 q34.5 -34.5 55 -80 q20.5 -45.5 20.5 -95.5 l0 -261 l-1280 0 l0 261 q0 50 20.5 95.5 q20.5 45.5 55 80 q34.5 34.5 80 55 q45.5 20.5 95.5 20.5 l778 0 ZM1536 1632 q0 40 -28 68 q-28 28 -68 28 q-40 0 -68 -28 q-28 -28 -28 -68 q0 -40 28 -68 q28 -28 68 -28 q40 0 68 28 q28 28 28 68 Z"/></svg>