<?xml version="1.0" encoding="utf-8"?>
<svg xmlns="http://www.w3.org/2000/svg" height="20" width="20" viewBox="0 0 20 20">
  <g>
    <path id="path1" transform="rotate(0,10,10) translate(0,0) scale(0.0390625,0.0390625)  " fill="#FFFFFF" d="M336,352L332.859375,352.296875 329.9375,353.1875 327.234375,354.671875 324.75,356.75 322.671875,359.234375 321.1875,361.9375 320.296875,364.859375 320,368 320.296875,371.140625 321.1875,374.0625 322.671875,376.765625 324.75,379.25 327.234375,381.328125 329.9375,382.8125 332.859375,383.703125 336,384 339.140625,383.703125 342.0625,382.8125 344.765625,381.328125 347.25,379.25 349.328125,376.765625 350.8125,374.0625 351.703125,371.140625 352,368 351.703125,364.859375 350.8125,361.9375 349.328125,359.234375 347.25,356.75 344.765625,354.671875 342.0625,353.1875 339.140625,352.296875 336,352z M80,288L184.5,288 184.125,296.125 184,304 184.125,312 184.5,320 80,320 76.859375,319.703125 73.9375,318.8125 71.234375,317.328125 68.75,315.25 66.671875,312.765625 65.1875,310.0625 64.296875,307.140625 64,304 64.296875,300.859375 65.1875,297.9375 66.671875,295.234375 68.75,292.75 71.234375,290.671875 73.9375,289.1875 76.859375,288.296875 80,288z M424,226L420.5,228.656265258789 418,231.875015258789 416.5,235.65625 416,240 416.296875,243.140625 417.1875,246.0625 418.671875,248.765625 420.75,251.25 423.234375,253.328140258789 425.9375,254.8125 428.859375,255.703125 432,256 436.34375,255.5 440.125,254 443.34375,251.5 446,248 441.15625,241.84375 435.875,236.125 430.15625,230.843765258789 424,226z M368,208L360,208.375 352,209.25 352,272 351.703125,275.140625 350.8125,278.0625 349.328125,280.765625 347.25,283.25 344.765625,285.328125 342.0625,286.8125 339.140625,287.703125 336,288 332.859375,287.703125 329.9375,286.8125 327.234375,285.328125 324.75,283.25 322.671875,280.765625 321.1875,278.0625 320.296875,275.140625 320,272 320,220.75 309.34375,227.875 299.875,236.25 291.6875,245.6875 284.875,256 279.4375,267.125 275.375,279 273.8984375,285.15625 272.84375,291.375 272.2109375,297.65625 272,304 272.265625,311.4140625 273.0625,318.65625 274.390625,325.7265625 276.25,332.625 278.640625,339.3515625 281.5625,345.90625 285.015625,352.2890625 289,358.5 291.375,350.375 295,343 299.75,336.46875 305.5,330.875 312.125,326.3125 319.5,322.875 327.5,320.71875 336,320 340.8125,320.234375 345.5,320.9375 350.0625,322.109375 354.5,323.75 362.71875,328.21875 369.875,334.125 375.78125,341.28125 380.25,349.5 381.890625,353.9375 383.0625,358.5 383.765625,363.1875 384,368 383.796875,372.3515625 383.1875,376.65625 382.171875,380.9140625 380.75,385.125 376.875,393.03125 371.75,400 383.34375,398.8125 394.625,396.25 405.531219482422,392.375 416,387.25 416,336 416.296875,332.859375 417.1875,329.9375 418.671875,327.234375 420.75,324.75 423.234375,322.671875 425.9375,321.1875 428.859375,320.296875 432,320 436.749969482422,320.53125 440.5,322.125 443.375,324.5625 445.5,327.625 446.9375,331.25 447.75,335.375 448.25,344 448.125,350.875 448,357 451.75,350.8125 455,344.5 457.75,338.0625 460,331.5 461.75,324.8125 463,318 463.75,311.0625 464,304 463.78125,297.625 463.125,291.25 462.03125,284.875 460.5,278.5 454,282.5 447,285.5 439.625,287.375 432,288 427.187469482422,287.765625 422.499969482422,287.0625 417.9375,285.890625 413.5,284.25 405.28125,279.78125 398.125,273.875 392.218719482422,266.71875 387.75,258.5 386.109375,254.062515258789 384.9375,249.5 384.234375,244.8125 384,240 384.625,232.375 386.5,225 389.5,218.000015258789 393.5,211.5 387.125,209.968765258789 380.75,208.875 374.375,208.21875 368,208z M80,192L222,192 216.46875,199.625 211.375,207.5 202.25,224 80,224 76.859375,223.703125 73.9375,222.8125 71.234375,221.328140258789 68.75,219.25 66.671875,216.765625 65.1875,214.0625 64.296875,211.140625 64,208 64.296875,204.859390258789 65.1875,201.937515258789 66.671875,199.234390258789 68.75,196.75 71.234375,194.671875 73.9375,193.1875 76.859375,192.296875 80,192z M368,160L377.789031982422,160.3203125 387.406219482422,161.28125 396.851531982422,162.8828125 406.125,165.125 415.164031982422,167.953140258789 423.906219482422,171.3125 432.3515625,175.203125 440.5,179.625 448.328125,184.5546875 455.8125,189.96875 462.953125,195.867202758789 469.75,202.25 476.1328125,209.046875 482.031219482422,216.1875 487.445281982422,223.671875 492.375,231.5 496.796844482422,239.648452758789 500.687469482422,248.09375 504.046875,256.8359375 506.875,265.875 509.1171875,275.1484375 510.71875,284.59375 511.6796875,294.2109375 512,304 511.2890625,318.65625 509.15625,332.875 505.6015625,346.65625 500.625,360 494.4296875,372.703125 487.21875,384.5625 478.9921875,395.578125 469.75,405.75 459.578125,414.9921875 448.5625,423.21875 436.703125,430.4296875 424,436.625 410.65625,441.6015625 396.875,445.15625 382.65625,447.2890625 368,448 356.7265625,447.578125 345.65625,446.3125 334.7890625,444.203125 324.125,441.25 313.7265625,437.484375 303.65625,432.9375 293.9140625,427.609375 284.5,421.5 201,505 197.3125,508.0625 193.25,510.25 188.8125,511.5625 184,512 179.0859375,511.5703125 174.59375,510.28125 170.5234375,508.1328125 166.875,505.125 163.8671875,501.4765625 161.71875,497.40625 160.4296875,492.9140625 160,488 160.4375,483.1875 161.75,478.75 163.9375,474.6875 167,471 250.5,387.5 244.390625,378.0859375 239.0625,368.34375 234.515625,358.2734375 230.75,347.875 227.796875,337.2109375 225.6875,326.34375 224.421875,315.2734375 224,304 224.7109375,289.34375 226.84375,275.125 230.3984375,261.34375 235.375,248 241.570297241211,235.296875 248.781234741211,223.4375 257.0078125,212.421875 266.25,202.25 276.421875,193.0078125 287.4375,184.78125 299.296875,177.5703125 312,171.375 325.34375,166.398452758789 339.125,162.84375 353.34375,160.7109375 368,160z M94.75,32L88.5703125,32.3203315734863 82.53125,33.2812767028809 76.6328125,34.8828353881836 70.875,37.125 65.359375,39.9062576293945 60.1875,43.1250076293945 55.359375,46.7812538146973 50.875,50.875 46.78125,55.3593788146973 43.125,60.1875076293945 39.90625,65.3593826293945 37.125,70.875 34.8828125,76.6328353881836 33.28125,82.5312728881836 32.3203125,88.5703277587891 32,94.75 32,96 416,96 416,94.75 415.6796875,88.5703277587891 414.71875,82.5312728881836 413.1171875,76.6328353881836 410.875,70.875 408.09375,65.3593826293945 404.874969482422,60.1875076293945 401.218719482422,55.3593788146973 397.125,50.875 392.640594482422,46.7812538146973 387.812469482422,43.1250076293945 382.640625,39.9062576293945 377.125,37.125 371.3671875,34.8828353881836 365.46875,33.2812767028809 359.4296875,32.3203315734863 353.25,32 94.75,32z M94,0L354,0 363.2734375,0.476565361022949 372.34375,1.90625762939453 381.2109375,4.28907108306885 389.875,7.625 398.171875,11.7656326293945 405.9375,16.5625114440918 413.171875,22.0156345367432 419.875,28.125 425.984375,34.8281478881836 431.437469482422,42.0625305175781 436.234344482422,49.8281478881836 440.375,58.125 443.7109375,66.7890701293945 446.09375,75.6562576293945 447.5234375,84.7265625 448,94 448,138.25 438.5390625,133.921875 428.90625,130.1875 419.1015625,127.046875 409.125,124.5 399.0078125,122.53125 388.78125,121.125 378.4453125,120.28125 368,120 358.4375,120.234375 349,120.9375 339.6875,122.109375 330.5,123.75 326.75,124.75 322,126.25 317.375,127.562507629395 314,128 32,128 32,353.25 32.328125,359.6484375 33.3125,365.84375 34.953125,371.8359375 37.25,377.625 40.09375,383.1328125 43.375,388.28125 47.09375,393.0703125 51.25,397.5 55.8046836853027,401.53125 60.7187461853027,405.125 65.9921875,408.28125 71.625,411 77.5078125,413.1875 83.53125,414.75 89.6953125,415.6875 96,416 165.5,416 149.25,431.625 141.3125,439.53125 134,448 96,448 86.4921875,447.5390625 77.21875,446.15625 68.1796875,443.8515625 59.375,440.625 50.9453125,436.6015625 43.03125,431.90625 35.6328125,426.5390625 28.75,420.5 22.46875,413.8515625 16.875,406.65625 11.96875,398.9140625 7.75,390.625 4.359375,381.9140625 1.9375,372.90625 0.484375029802322,363.6015625 0,354 0,94 0.4765625,84.7265625 1.90625,75.6562576293945 4.2890625,66.7890701293945 7.625,58.125 11.765625,49.8281478881836 16.5625,42.0625305175781 22.015625,34.8281478881836 28.125,28.125 34.828125,22.0156345367432 42.0625,16.5625114440918 49.828125,11.7656326293945 58.125,7.625 66.7890625,4.28907108306885 75.65625,1.90625762939453 84.7265625,0.476565361022949 94,0z" />
  </g>
</svg>

