<?xml version="1.0" encoding="utf-8"?>
<svg xmlns="http://www.w3.org/2000/svg" height="20" width="20" viewBox="0 0 20 20">
  <g>
    <path id="path1" transform="rotate(0,10,10) translate(0,0.625) scale(0.0390625,0.0390625)  " fill="#FFFFFF" d="M260.75,128L243.875,139.75 235.625,145.1875 227.125,150 218.28125,154.0625 209,157.25 199.124984741211,159.3125 188.5,160 32,160 32,400 32.234375,404.8125 32.9375,409.5 34.109375,414.0625 35.75,418.5 40.21875,426.71875 46.125,433.875 53.28125,439.78125 61.5,444.25 65.9375,445.890625 70.5,447.0625 75.1875,447.765625 80,448 432,448 436.812469482422,447.765625 441.499969482422,447.0625 446.062469482422,445.890625 450.5,444.25 458.71875,439.78125 465.875,433.875 471.781219482422,426.71875 476.25,418.5 477.890594482422,414.0625 479.062469482422,409.5 479.765594482422,404.8125 480,400 480,176 479.765594482422,171.1875 479.062469482422,166.5 477.890594482422,161.9375 476.25,157.5 471.781219482422,149.281265258789 465.875,142.125 458.71875,136.21875 450.5,131.75 446.062469482422,130.109375 441.499969482422,128.9375 436.812469482422,128.234375 432,128 260.75,128z M80,64L75.1875,64.234375 70.5,64.9375 65.9375,66.109375 61.5,67.75 53.28125,72.21875 46.125,78.125 40.21875,85.2812652587891 35.75,93.5 34.109375,97.9375076293945 32.9375,102.5 32.234375,107.1875 32,112 32,128 188.5,128 195,127.562507629395 201,126.25 206.6875,124.218765258789 212.25,121.625 222.75,115.25 233,108 221.75,92.375 216,84.9062652587891 209.75,78.25 202.84375,72.5625152587891 195.125,68 190.8828125,66.2500076293945 186.28125,65 181.3203125,64.25 176,64 80,64z M78.25,32L176,32 184.3203125,32.3359527587891 192.03125,33.3437690734863 199.1328125,35.0234489440918 205.625,37.375 211.6640625,40.2890663146973 217.40625,43.6562538146973 222.8515625,47.4765625 228,51.75 237.625,61.3750038146973 246.5,72.25 264,96 433.75,96 441.53125,96.3984375 449.125,97.59375 456.53125,99.5859375 463.75,102.375 470.6484375,105.828125 477.09375,109.812507629395 483.0859375,114.328132629395 488.625,119.375 493.671875,124.914070129395 498.1875,130.90625 502.171875,137.3515625 505.625,144.25 508.4140625,151.46875 510.40625,158.875 511.6015625,166.46875 512,174.25 512,401.75 511.6015625,409.53125 510.40625,417.125 508.4140625,424.53125 505.625,431.75 502.171875,438.6484375 498.1875,445.09375 493.671875,451.0859375 488.625,456.625 483.0859375,461.671875 477.09375,466.1875 470.6484375,470.171875 463.75,473.625 456.53125,476.4140625 449.125,478.40625 441.53125,479.6015625 433.75,480 78.25,480 70.46875,479.6015625 62.875,478.40625 55.46875,476.4140625 48.25,473.625 41.3515625,470.171875 34.90625,466.1875 28.9140625,461.671875 23.375,456.625 18.328125,451.0859375 13.8124990463257,445.09375 9.82812404632568,438.6484375 6.375,431.75 3.5859375,424.53125 1.59375,417.125 0.3984375,409.53125 0,401.75 0,110.25 0.3984375,102.46875 1.59375,94.875 3.5859375,87.46875 6.375,80.25 9.82812404632568,73.3515625 13.8124990463257,66.90625 18.328125,60.9140663146973 23.375,55.375 28.9140625,50.3281364440918 34.90625,45.8125190734863 41.3515625,41.8281402587891 48.25,38.375 55.46875,35.5859527587891 62.875,33.5937728881836 70.46875,32.3984527587891 78.25,32z" />
  </g>
</svg>

