<?xml version="1.0" encoding="utf-8"?>
<svg xmlns="http://www.w3.org/2000/svg" height="20" width="20" viewBox="0 0 20 20">
  <g>
    <path id="path1" transform="rotate(0,10,10) translate(0,0) scale(0.0390625,0.0390625)  " fill="#000000" d="M368,288L364.859375,288.296875 361.9375,289.1875 359.234375,290.671875 356.75,292.75 354.671875,295.234375 353.1875,297.9375 352.296875,300.859375 352,304 352,352 304,352 300.859375,352.296875 297.9375,353.1875 295.234375,354.671875 292.75,356.75 290.671875,359.234375 289.1875,361.9375 288.296875,364.859375 288,368 288.296875,371.140625 289.1875,374.0625 290.671875,376.765625 292.75,379.25 295.234375,381.328125 297.9375,382.8125 300.859375,383.703125 304,384 352,384 352,432 352.296875,435.140625 353.1875,438.0625 354.671875,440.765625 356.75,443.25 359.234375,445.328125 361.9375,446.8125 364.859375,447.703125 368,448 371.140625,447.703125 374.0625,446.8125 376.765625,445.328125 379.25,443.25 381.328125,440.765625 382.8125,438.0625 383.703125,435.140625 384,432 384,384 432,384 435.140625,383.703125 438.0625,382.8125 440.765625,381.328125 443.25,379.25 445.328125,376.765625 446.8125,374.0625 447.703125,371.140625 448,368 447.703125,364.859375 446.8125,361.9375 445.328125,359.234375 443.25,356.75 440.765625,354.671875 438.0625,353.1875 435.140625,352.296875 432,352 384,352 384,304 383.703125,300.859375 382.8125,297.9375 381.328125,295.234375 379.25,292.75 376.765625,290.671875 374.0625,289.1875 371.140625,288.296875 368,288z M368,224L377.789031982422,224.3203125 387.406219482422,225.28125 396.851531982422,226.8828125 406.125,229.125 415.164031982422,231.953140258789 423.906219482422,235.3125 432.3515625,239.203125 440.5,243.625 448.328125,248.5546875 455.8125,253.96875 462.953125,259.8671875 469.75,266.25 476.1328125,273.046875 482.031219482422,280.1875 487.445281982422,287.671875 492.375,295.5 496.796844482422,303.6484375 500.687469482422,312.09375 504.046875,320.8359375 506.875,329.875 509.1171875,339.1484375 510.71875,348.59375 511.6796875,358.2109375 512,368 511.2890625,382.65625 509.15625,396.875 505.6015625,410.65625 500.625,424 494.4296875,436.703125 487.21875,448.5625 478.9921875,459.578125 469.75,469.75 459.578125,478.9921875 448.5625,487.21875 436.703125,494.4296875 424,500.625 410.65625,505.6015625 396.875,509.15625 382.65625,511.2890625 368,512 353.234375,511.296875 338.9375,509.1875 325.109375,505.671875 311.75,500.75 299.046875,494.609375 287.1875,487.4375 276.171875,479.234375 266,470 256.765625,459.828125 248.5625,448.8125 241.390625,436.953125 235.25,424.25 230.328125,410.890625 226.8125,397.0625 224.703125,382.765625 224,368 224.7109375,353.34375 226.84375,339.125 230.3984375,325.34375 235.375,312 241.570297241211,299.296875 248.781234741211,287.4375 257.0078125,276.421875 266.25,266.25 276.421875,257.0078125 287.4375,248.78125 299.296875,241.5703125 312,235.375 325.34375,230.398452758789 339.125,226.84375 353.34375,224.7109375 368,224z M80,64L75.1875,64.234375 70.5,64.9375 65.9375,66.109375 61.5,67.75 53.28125,72.21875 46.125,78.125 40.21875,85.2812652587891 35.75,93.5 34.109375,97.9375076293945 32.9375,102.5 32.234375,107.1875 32,112 32,128 188.5,128 195.03125,127.562507629395 201.125,126.25 206.843734741211,124.218765258789 212.25,121.625 222.625,115.25 233,108 221.75,92.375 216,84.9062652587891 209.75,78.25 202.84375,72.5625152587891 195.125,68 190.8828125,66.2500076293945 186.28125,65 181.3203125,64.25 176,64 80,64z M78.25,32L176,32 184.3203125,32.3359527587891 192.03125,33.3437690734863 199.1328125,35.0234489440918 205.625,37.375 211.65625,40.2812576293945 217.375,43.6250076293945 222.78125,47.4062576293945 227.875,51.625 237.406234741211,61.1562728881836 246.25,72 254.937484741211,83.7500152587891 264,96 433.75,96 441.53125,96.3984375 449.125,97.59375 456.53125,99.5859375 463.75,102.375 470.6484375,105.828125 477.09375,109.812507629395 483.0859375,114.328132629395 488.625,119.375 493.671875,124.914070129395 498.1875,130.90625 502.171875,137.3515625 505.625,144.25 508.4140625,151.46875 510.40625,158.875 511.6015625,166.46875 512,174.25 512,253.5 504.75,244.937515258789 497,236.75 488.749969482422,229.0625 480,222 480,176 479.765594482422,171.1875 479.062469482422,166.5 477.890594482422,161.9375 476.25,157.5 471.781219482422,149.281265258789 465.875,142.125 458.71875,136.21875 450.5,131.75 446.062469482422,130.109375 441.499969482422,128.9375 436.812469482422,128.234375 432,128 260.75,128 243.75,139.75 235.437484741211,145.1875 227,150 218.28125,154.0625 209.125,157.25 199.28125,159.3125 188.5,160 32,160 32,400 32.234375,404.8125 32.9375,409.5 34.109375,414.0625 35.75,418.5 40.21875,426.71875 46.125,433.875 53.28125,439.78125 61.5,444.25 65.9375,445.890625 70.5,447.0625 75.1875,447.765625 80,448 202.25,448 211.375,464.5 216.46875,472.375 222,480 78.25,480 70.46875,479.6015625 62.875,478.40625 55.46875,476.4140625 48.25,473.625 41.3515625,470.171875 34.90625,466.1875 28.9140625,461.671875 23.375,456.625 18.328125,451.0859375 13.8124990463257,445.09375 9.82812404632568,438.6484375 6.375,431.75 3.5859375,424.53125 1.59375,417.125 0.3984375,409.53125 0,401.75 0,110.25 0.3984375,102.46875 1.59375,94.875 3.5859375,87.46875 6.375,80.25 9.82812404632568,73.3515625 13.8124990463257,66.90625 18.328125,60.9140663146973 23.375,55.375 28.9140625,50.3281364440918 34.90625,45.8125190734863 41.3515625,41.8281402587891 48.25,38.375 55.46875,35.5859527587891 62.875,33.5937728881836 70.46875,32.3984527587891 78.25,32z" />
  </g>
</svg>

