<?xml version="1.0" encoding="utf-8"?>
<svg xmlns="http://www.w3.org/2000/svg" height="20" width="20" viewBox="0 0 20 20">
  <g>
    <path id="path1" transform="rotate(0,10,10) translate(0.0340632603406323,0) scale(0.207623682076237,0.207623682076237)  " fill="#000000" d="M63,67.5L64.734375,67.828125 66.1875,68.8125 67.171875,70.265625 67.5,72 67.171875,73.734375 66.1875,75.1875 64.734375,76.171875 63,76.5 61.2656211853027,76.171875 59.8125,75.1875 58.8281211853027,73.734375 58.5,72 58.8281211853027,70.265625 59.8125,68.8125 61.2656211853027,67.828125 63,67.5z M75,55.5L76.734375,55.828125 78.1875,56.8125 79.171875,58.265625 79.5,60 79.171875,61.734375 78.1875,63.1875 76.734375,64.171875 75,64.5 73.265625,64.171875 71.8125,63.1875 70.828125,61.734375 70.5,60 70.828125,58.265625 71.8125,56.8125 73.265625,55.828125 75,55.5z M75,37.5L76.734375,37.8281288146973 78.1875,38.8125 79.171875,40.2656288146973 79.5,42 79.171875,43.7343788146973 78.1875,45.1875 76.734375,46.1718788146973 75,46.5 73.265625,46.1718788146973 71.8125,45.1875 70.828125,43.7343788146973 70.5,42 70.828125,40.2656288146973 71.8125,38.8125 73.265625,37.8281288146973 75,37.5z M64.5,24L66.234375,24.328125 67.6875,25.3125 68.671875,26.765625 69,28.5 68.671875,30.234375 67.6875,31.6875 66.234375,32.6718788146973 64.5,33 62.7656211853027,32.6718788146973 61.3125,31.6875 60.3281211853027,30.234375 60,28.5 60.3281211853027,26.765625 61.3125,25.3125 62.7656211853027,24.328125 64.5,24z M46.5,18L48.2343711853027,18.328125 49.6875,19.3125 50.6718711853027,20.765625 51,22.5 50.6718711853027,24.234375 49.6875,25.6875 48.2343711853027,26.671875 46.5,27 44.765625,26.671875 43.3125,25.6875 42.328125,24.234375 42,22.5 42.328125,20.765625 43.3125,19.3125 44.765625,18.328125 46.5,18z M46.125,5.95312452316284L39.861328125,6.46875 34.0078125,8.015625 28.5996074676514,10.470703125 23.671875,13.7109375 19.23046875,17.66015625 15.28125,22.2421875 11.87109375,27.333984375 9.046875,32.8125 6.8671875,38.71875 6.216796875,41.8007850646973 6.00000047683716,44.953125 6.1875,47.2793006896973 6.74999952316284,49.3828125 7.76953125,51.287109375 9.32812595367432,53.015625 10.6171865463257,54.046875 12.234375,55.1015625 13.921875,55.9453125 15.4687490463257,56.296875 16.828125,56.080078125 18.28125,55.4296875 21.5859375,53.5546875 25.546875,51.6796875 27.8320293426514,51.029296875 30.375,50.8125 33.28125,51.0703125 36.09375,51.75 38.7890625,52.9453125 40.78125,54.5625 42.205078125,56.525390625 43.1953125,58.7578125 44.15625,63.9140625 44.5078125,69.609375 45.1171875,75.421875 45.767578125,78.251953125 46.828125,80.9296875 48.3749961853027,83.419921875 50.484375,85.6875 53.2851524353027,87.65625 56.90625,89.25 59.9414024353027,90.05859375 63.046875,90.328125 66.48046875,89.994140625 69.75,88.9921875 72.8203125,87.439453125 75.65625,85.453125 79.11328125,82.18359375 82.078125,78.375 84.5625,74.162109375 86.578125,69.6796875 88.125,64.9921875 89.203125,60.1640625 89.8359375,55.330078125 90.046875,50.625 89.642578125,44.2851600646973 88.4296875,38.296875 86.443359375,32.689453125 83.71875,27.4921875 80.28515625,22.728515625 76.171875,18.421875 71.4140625,14.58984375 66.046875,11.25 61.3710899353027,9.03515625 56.4375,7.35937547683716 51.3281211853027,6.3046875 46.125,5.95312452316284z M46.125,0.046875L52.0312461853027,0.433593690395355 57.84375,1.59374964237213 63.48046875,3.45703125 68.859375,5.95312452316284 74.935546875,9.76171875 80.3203125,14.1562490463257 84.97265625,19.1015625 88.8515625,24.5625 91.927734375,30.5097675323486 94.171875,36.9140625 95.54296875,43.7285194396973 96,50.90625 95.3203125,59.8359375 93.328125,68.578125 90.7265625,75.2578125 87.046875,81.6796875 82.359375,87.4453125 76.7578125,92.109375 73.62890625,93.8671875 70.2890625,95.203125 66.755859375,96.046875 63.046875,96.328125 58.8984375,95.953125 54.890625,94.875 51.0585899353027,93.24609375 47.8125,91.265625 45.111328125,88.93359375 42.9140625,86.25 41.203125,83.21484375 39.9609375,79.828125 38.671875,72 38.4140625,66.84375 37.734375,61.734375 37.3125,60.234375 36.5625,58.921875 35.296875,57.9375 33.703125,57.28125 31.9921875,56.9296875 30.375,56.8125 28.3593730926514,57.0234375 26.53125,57.65625 23.1328125,59.53125 19.6875,61.40625 17.8125,62.0390625 15.75,62.25 12.9140615463257,61.8984375 10.21875,60.84375 5.48437547683716,57.609375 3.01171875,54.943359375 1.31250047683716,51.9140625 0.328125089406967,48.568359375 2.27708369493484E-07,44.953125 0.257812529802322,41.2089881896973 1.03125,37.4765625 3.56249976158142,30.375 7.359375,23.296875 12.046875,16.78125 16.921875,11.4609375 22.59375,6.98437547683716 28.0605449676514,4.0078125 33.8671875,1.82812547683716 39.919921875,0.492187559604645 46.125,0.046875z" />
  </g>
</svg>

