<svg xmlns="http://www.w3.org/2000/svg" viewBox="0 0 5623 6360" height="6360" xmlns:xlink="http://www.w3.org/1999/xlink" xmlns:ev="http://www.w3.org/2001/xml-events" width="5623"><style type="text/css"><![CDATA[
.st1 {fill:#000000;font-family:微软雅黑;font-size:10pt}
.st2 {fill:#1f6391;font-family:微软雅黑;font-size:10pt}
.st3 {fill:#ffffff;font-family:微软雅黑;font-size:10pt}
]]></style><defs/><g transform="translate(5,5)" id="page1"><rect stroke="#808080" fill="#ffffff" height="6350" y="0" width="5613" x="0"/><g transform="translate(631.27,410.39)"><path stroke="#ee7c31" transform="translate(-0.03,17.66)" fill="none" d="M0,0L21,0L0,0z" id="shape1"/><path stroke="#ee7c31" transform="translate(0,9.06)" fill="none" d="M10.5,0L10.5,22.9L10.5,0zM0,40L10.5,23.2L0,40z" id="shape2"/><path stroke="#ee7c31" transform="translate(10.5,31.98)" fill="none" d="M0,0L10.5,17L0,0z" id="shape3"/><path stroke="#ee7c31" transform="translate(5.42,-0.04)" fill="#ee7c31" d="M0,5.5C0,2.5,2.3,0,5.1,0C7.9,0,10.2,2.5,10.2,5.5C10.2,8.5,7.9,11,5.1,11C2.3,11,0,8.5,0,5.5z" id="shape4"/></g><g transform="translate(620.77,467.44)" id="shape5"><text class="st1"><tspan y="13.9" x="5.6">用户</tspan></text></g><path stroke="#000000" transform="matrix(0,1,-1,0,649.3,536.4)" fill="#ee7c31" d="M0,0L1069.6,0L1069.6,15.1L0,15.1L0,0z" id="shape6"/><g transform="matrix(1,0.01,-0.01,1,649.3,536.4)" id="shape7"><path stroke="#000000" fill="none" d="M0,-0L199.9,-0"/><path stroke-linejoin="round" stroke="#000000" stroke-linecap="round" fill="none" d="M187.9,-6L199.9,-0L187.9,6" stroke-width="1"/></g><g transform="translate(661.77,512.39)" id="shape8"><text class="st2"><tspan y="13.9" x="38.4">1：打开界面</tspan></text></g><path stroke="#000000" transform="matrix(0,1,-1,0,864.3,538.5)" fill="#3498db" d="M0,0L1030.5,0L1030.5,15.1L0,15.1L0,0z" id="shape9"/><path stroke="#000000" transform="matrix(0,1,-1,0,871.9,588.5)" fill="#3498db" d="M0,0L50,0L50,15.1L0,15.1L0,0z" id="shape10"/><g transform="matrix(0,1,-1,0,864.3,554.4)" id="shape11"><path stroke="#000000" fill="none" d="M0,0L0,-160.4L34.1,-160.4L34.1,-10.4"/><path stroke="#000000" stroke-linecap="round" fill="#000000" d="M34.1,0L36.7,-10.4L31.5,-10.4L34.1,0" stroke-width="1"/></g><g transform="translate(861.3,522.45)" id="shape12"><text class="st2"><tspan y="19.4" x="31.4">2：读入配置文件</tspan></text></g><path stroke="#ee7c31" transform="matrix(0,1,-1,0,642.8,489.4)" fill="none" d="M0,0L46,0" id="shape13"/><g transform="translate(1059.29,452.32)"><g id="shape14"><path stroke="#3498db" fill="#3498db" d="M0,0L132,0L132,34L0,34L0,0z"/><text class="st3"><tspan y="21.3" x="6">:MyMusicInterface</tspan></text></g><path stroke="#3498db" fill="none" d="M66,34L66,238L66,34z" id="shape15"/></g><g transform="translate(2195.29,432.36)"><g id="shape16"><path stroke="#3498db" fill="#3498db" d="M0,0L170,0L170,54L0,54L0,0z"/><text class="st3"><tspan y="22" x="5.2">songTabSongListWidget</tspan><tspan y="40.4" x="16.4">:SongCardListWidget</tspan></text></g><path stroke="#3498db" fill="none" d="M85,54L85,734.6L85,54z" id="shape17"/></g><g transform="matrix(1,0,-0,1,864.3,688.5)" id="shape18"><path stroke="#000000" fill="none" d="M0,-0L253.4,-0"/><path stroke-linejoin="round" stroke="#000000" stroke-linecap="round" fill="none" d="M241.4,-6L253.4,-0L241.4,6" stroke-width="1"/></g><g transform="translate(881.03,659.32)" id="shape19"><text class="st2"><tspan y="15.4" x="38.4">3：传入歌曲文件夹列表</tspan></text></g><g transform="translate(1627.29,452.32)"><g id="shape20"><path stroke="#3498db" fill="#3498db" d="M0,0L132,0L132,34L0,34L0,0z"/><text class="st3"><tspan y="21.3" x="18">:GetAlbumInfo</tspan></text></g><path stroke="#3498db" fill="none" d="M66,34L66,413.7L66,34z" id="shape21"/></g><g transform="translate(1343.29,452.36)"><g id="shape22"><path stroke="#3498db" fill="#3498db" d="M0,0L132,0L132,34L0,34L0,0z"/><text class="st3"><tspan y="21.3" x="22.8">:GetSongInfo</tspan></text></g><path stroke="#3498db" fill="none" d="M66,34L66,261.6L66,34z" id="shape23"/></g><g transform="translate(1911.29,452.47)"><g id="shape24"><path stroke="#3498db" fill="#3498db" d="M0,0L132,0L132,34L0,34L0,0z"/><text class="st3"><tspan y="21.3" x="12.4">:GetAlbumCover</tspan></text></g><path stroke="#3498db" fill="none" d="M66,34L66,564.5L66,34z" id="shape25"/></g><path stroke="#3498db" transform="matrix(0,1,-1,0,856.8,743.4)" fill="none" d="M0,0L355,0" id="shape26"/><g transform="translate(2517.29,445.17)"><g id="shape27"><path stroke="#3498db" fill="#3498db" d="M0,0L147,0L147,41.3L0,41.3L0,0z"/><text class="st3"><tspan y="24.9" x="11.6">:SongTabSongCard</tspan></text></g><path stroke="#3498db" fill="none" d="M73.5,41.3L73.5,752.8L73.5,41.3z" id="shape28"/></g><g transform="translate(2816.29,452.47)"><g id="shape29"><path stroke="#3498db" fill="#3498db" d="M0,0L147,0L147,34L0,34L0,0z"/><text class="st3"><tspan y="21.3" x="17.2">:AlbumCardViwer</tspan></text></g><path stroke="#3498db" fill="none" d="M73.5,34L73.5,908.5L73.5,34z" id="shape30"/></g><g transform="translate(3115.29,459.92)"><g transform="translate(10.13,0)" id="shape31"><path stroke="#3498db" fill="#3498db" d="M0,0L117.5,0L117.5,34L0,34L0,0z"/><text class="st3"><tspan y="21.3" x="21">:AlbumCard</tspan></text></g><path stroke="#3498db" fill="none" d="M68.9,34L68.9,931.1L68.9,34z" id="shape32"/></g><g transform="translate(3405.04,459.92)"><g transform="translate(14.67,0)" id="shape33"><path stroke="#3498db" fill="#3498db" d="M0,0L170.2,0L170.2,34L0,34L0,0z"/><text class="st3"><tspan y="21.3" x="33.3">:AlbumInterface</tspan></text></g><path stroke="#3498db" fill="none" d="M99.8,34L99.8,1883.1L99.8,34z" id="shape34"/></g><g transform="translate(4135.67,467.44)"><g transform="translate(14.67,0)" id="shape35"><path stroke="#3498db" fill="#3498db" d="M0,0L170.2,0L170.2,34L0,34L0,0z"/><text class="st3"><tspan y="21.3" x="31.7">:SettingInterface</tspan></text></g><path stroke="#3498db" fill="none" d="M99.8,34L99.8,4211.6L99.8,34z" id="shape36"/></g><g transform="translate(3782.46,467.44)"><g transform="translate(14.67,0)" id="shape37"><path stroke="#3498db" fill="#3498db" d="M0,0L170.2,0L170.2,34L0,34L0,0z"/><text class="st3"><tspan y="21.3" x="18.9">:AlbumInfoEditPanel</tspan></text></g><path stroke="#3498db" fill="none" d="M99.8,34L99.8,2244.6L99.8,34z" id="shape38"/></g><g transform="translate(4488.88,467.44)"><g transform="translate(14.67,0)" id="shape39"><path stroke="#3498db" fill="#3498db" d="M0,0L170.2,0L170.2,34L0,34L0,0z"/><text class="st3"><tspan y="21.3" x="18.1">:GetMetaDataThread</tspan></text></g><path stroke="#3498db" fill="none" d="M99.8,34L99.8,4241.6L99.8,34z" id="shape40"/></g><path stroke="#000000" transform="matrix(0,1,-1,0,1134.1,690)" fill="#3498db" d="M0,0L802,0L802,15.1L0,15.1L0,0z" id="shape41"/><path stroke="#000000" transform="matrix(0,1,-1,0,1416.1,714.1)" fill="#3498db" d="M0,0L128,0L128,15.1L0,15.1L0,0z" id="shape42"/><g transform="matrix(1,-0,0,1,1134.1,715)" id="shape43"><path stroke="#000000" fill="none" d="M0,-0L266.8,-0"/><path stroke-linejoin="round" stroke="#000000" stroke-linecap="round" fill="none" d="M254.8,-6L266.8,-0L254.8,6" stroke-width="1"/></g><g transform="translate(1134.12,690)" id="shape44"><text class="st2"><tspan y="13.9" x="20.8">4：扫描歌曲信息</tspan></text></g><path stroke="#000000" transform="matrix(0,1,-1,0,1423.6,764.1)" fill="#3498db" d="M0,0L50,0L50,15.1L0,15.1L0,0z" id="shape45"/><g transform="matrix(0,1,-1,0,1416.1,739.1)" id="shape46"><path stroke="#000000" fill="none" d="M0,0L0,-254.9L25,-254.9L25,-10.4"/><path stroke="#000000" stroke-linecap="round" fill="#000000" d="M25,0L27.6,-10.4L22.4,-10.4L25,0" stroke-width="1"/></g><g transform="translate(1416,707)" id="shape47"><text class="st2"><tspan y="18.9" x="18.5">5：getInfo(targetFolderPath_list)</tspan></text></g><path stroke="#000000" transform="matrix(0,1,-1,0,1704.1,864.1)" fill="#3498db" d="M0,0L121,0L121,15.1L0,15.1L0,0z" id="shape48"/><path stroke="#000000" transform="matrix(0,1,-1,0,1711.7,914.1)" fill="#3498db" d="M0,0L50,0L50,15.1L0,15.1L0,0z" id="shape49"/><g transform="matrix(0,1,-1,0,1704.1,889.1)" id="shape50"><path stroke="#000000" fill="none" d="M0,0L0,-217.9L25,-217.9L25,-10.4"/><path stroke="#000000" stroke-linecap="round" fill="#000000" d="M25,0L27.6,-10.4L22.4,-10.4L25,0" stroke-width="1"/></g><g transform="translate(1704,864.05)" id="shape51"><text class="st2"><tspan y="18.9" x="8.8">8：getAlbumInfo(songInfo_list)</tspan></text></g><g transform="translate(1121.12,842)" id="shape52"><text class="st2"><tspan y="15.4" x="29.6">7：整理专辑信息</tspan></text></g><path stroke="#000000" transform="matrix(0,1,-1,0,1985.1,1015.8)" fill="#3498db" d="M0,0L125.2,0L125.2,15.1L0,15.1L0,0z" id="shape53"/><path stroke="#000000" transform="matrix(0,1,-1,0,1992.6,1065.8)" fill="#3498db" d="M0,0L50,0L50,15.1L0,15.1L0,0z" id="shape54"/><g transform="matrix(0,1,-1,0,1985.1,1040.8)" id="shape55"><path stroke="#000000" fill="none" d="M0,0L0,-131.9L25,-131.9L25,-10.4"/><path stroke="#000000" stroke-linecap="round" fill="#000000" d="M25,0L27.6,-10.4L22.4,-10.4L25,0" stroke-width="1"/></g><g transform="translate(1905,1006.5)" id="shape56"><text class="st2"><tspan y="25.9" x="92">10：getAlbum()</tspan></text></g><g transform="matrix(1,-0,0,1,1134.1,865)" id="shape57"><path stroke="#000000" fill="none" d="M0,-0L554.9,-0"/><path stroke-linejoin="round" stroke="#000000" stroke-linecap="round" fill="none" d="M542.9,-6L554.9,-0L542.9,6" stroke-width="1"/></g><g transform="matrix(1,0,-0,1,1134.1,1015)" id="shape58"><path stroke="#000000" fill="none" d="M0,-0L835.8,-0"/><path stroke-linejoin="round" stroke="#000000" stroke-linecap="round" fill="none" d="M823.8,-6L835.8,-0L823.8,6" stroke-width="1"/></g><path/><g transform="translate(1111.12,979)" id="shape59"><text class="st2"><tspan y="23.4" x="50.4">9：扫描专辑封面</tspan></text></g><path stroke="#000000" transform="matrix(0,1,-1,0,2290.1,1165.1)" fill="#3498db" d="M0,0L126.9,0L126.9,15.1L0,15.1L0,0z" id="shape60"/><g transform="translate(2283.5,1161)" id="shape61"><text class="st2"><tspan y="18.9" x="16.8">13：__createSongCards(songInfo_list)</tspan></text></g><g transform="matrix(1,0,-0,1,1134.1,1165)" id="shape62"><path stroke="#000000" fill="none" d="M0,-0L1140.9,-0"/><path stroke-linejoin="round" stroke="#000000" stroke-linecap="round" fill="none" d="M1128.9,-6L1140.9,-0L1128.9,6" stroke-width="1"/></g><g transform="translate(1139.62,1141)" id="shape63"><text class="st2"><tspan y="17.4" x="26.4">12：创建歌曲卡</tspan></text></g><g transform="translate(1126,1340)" id="shape64"><text class="st2"><tspan y="17.4" x="26.4">16：创建专辑卡</tspan></text></g><g transform="matrix(-1,-0,0,-1,2275,1290.1)" id="shape65"><path stroke="#000000" fill="none" d="M0,-0L1140.9,-0" stroke-dasharray="6,4"/><path stroke-linejoin="round" stroke="#000000" stroke-linecap="round" fill="none" d="M1128.9,-6L1140.9,-0L1128.9,6" stroke-width="1"/></g><g transform="translate(1113.12,1262)" id="shape66"><text class="st2"><tspan y="15.9" x="41.6">15：显示歌曲卡列表</tspan></text></g><g transform="matrix(-1,0,-0,-1,1401,839.1)" id="shape67"><path stroke="#000000" fill="none" d="M0,-0L266.8,-0" stroke-dasharray="6,4"/><path stroke-linejoin="round" stroke="#000000" stroke-linecap="round" fill="none" d="M254.8,-6L266.8,-0L254.8,6" stroke-width="1"/></g><g transform="translate(1141,809)" id="shape68"><text class="st2"><tspan y="17.4" x="12">6：歌曲信息列表写入songInfo.json</tspan></text></g><g transform="matrix(-1,0,0,-1,1975,1140)" id="shape69"><path stroke="#000000" fill="none" d="M0,-0L840.9,-0" stroke-dasharray="6,4"/><path stroke-linejoin="round" stroke="#000000" stroke-linecap="round" fill="none" d="M828.9,-6L840.9,-0L828.9,6" stroke-width="1"/></g><g transform="translate(1139.62,1114.5)" id="shape70"><text class="st2"><tspan y="15.9" x="4.8">11：保存专辑封面到本地</tspan></text></g><path stroke="#000000" transform="matrix(0,1,-1,0,2598.1,1190)" fill="#3498db" d="M0,0L50,0L50,15.1L0,15.1L0,0z" id="shape71"/><g transform="matrix(1,-0,0,1,2290.1,1190.1)" id="shape72"><path stroke="#000000" fill="none" d="M0,-0L292.9,-0"/><path stroke-linejoin="round" stroke="#000000" stroke-linecap="round" fill="none" d="M280.9,-6L292.9,-0L280.9,6" stroke-width="1"/></g><g transform="matrix(-1,0,-0,-1,2583,1240)" id="shape73"><path stroke="#000000" fill="none" d="M0,-0L292.9,-0" stroke-dasharray="6,4"/><path stroke-linejoin="round" stroke="#000000" stroke-linecap="round" fill="none" d="M280.9,-6L292.9,-0L280.9,6" stroke-width="1"/></g><g transform="translate(2285.5,1217)" id="shape74"><text class="st2"><tspan y="15.9" x="82.9">14：显示歌曲信息</tspan></text></g><g transform="matrix(1,-0,0,1,1134.1,1365)" id="shape75"><path stroke="#000000" fill="none" d="M0,-0L1749.3,-0"/><path stroke-linejoin="round" stroke="#000000" stroke-linecap="round" fill="none" d="M1737.3,-6L1749.3,-0L1737.3,6" stroke-width="1"/></g><path stroke="#000000" transform="matrix(0,1,-1,0,2898.6,1362.1)" fill="#3498db" d="M0,0L104,0L104,15.1L0,15.1L0,0z" id="shape76"/><g transform="translate(2895,1362.05)" id="shape77"><text class="st2"><tspan y="18.9" x="12">17：__createAlbumCards(songInfo_list)</tspan></text></g><path stroke="#000000" transform="matrix(0,1,-1,0,3190.6,1391.1)" fill="#3498db" d="M0,0L50,0L50,15.1L0,15.1L0,0z" id="shape78"/><g transform="matrix(1,-0,0,1,2897.6,1391.1)" id="shape79"><path stroke="#000000" fill="none" d="M0,-0L277.9,-0"/><path stroke-linejoin="round" stroke="#000000" stroke-linecap="round" fill="none" d="M265.9,-6L277.9,-0L265.9,6" stroke-width="1"/></g><g transform="matrix(-1,0,-0,-1,3175.5,1441.1)" id="shape80"><path stroke="#000000" fill="none" d="M0,-0L277.9,-0" stroke-dasharray="6,4"/><path stroke-linejoin="round" stroke="#000000" stroke-linecap="round" fill="none" d="M265.9,-6L277.9,-0L265.9,6" stroke-width="1"/></g><g transform="translate(2893,1418.05)" id="shape81"><text class="st2"><tspan y="15.9" x="83.2">18：显示专辑信息</tspan></text></g><g transform="matrix(-1,0,-0,-1,2883.4,1462.1)" id="shape82"><path stroke="#000000" fill="none" d="M0,-0L1749.3,-0" stroke-dasharray="6,4"/><path stroke-linejoin="round" stroke="#000000" stroke-linecap="round" fill="none" d="M1737.3,-6L1749.3,-0L1737.3,6" stroke-width="1"/></g><g transform="translate(1116.62,1439.5)" id="shape83"><text class="st2"><tspan y="15.9" x="41.6">19：显示专辑卡视图</tspan></text></g><g transform="matrix(-1,-0.01,0.01,-1,1119,1490)" id="shape84"><path stroke="#000000" fill="none" d="M0,-0L254.7,-0" stroke-dasharray="6,4"/><path stroke-linejoin="round" stroke="#000000" stroke-linecap="round" fill="none" d="M242.7,-6L254.7,-0L242.7,6" stroke-width="1"/></g><g transform="translate(874,1457)" id="shape85"><text class="st2"><tspan y="20.9" x="37.6">20：显示我的音乐界面</tspan></text></g><g transform="matrix(-1,-0.01,0.01,-1,849.2,1563.5)" id="shape86"><path stroke="#000000" fill="none" d="M0,-0L199.9,-0" stroke-dasharray="6,4"/><path stroke-linejoin="round" stroke="#000000" stroke-linecap="round" fill="none" d="M187.9,-6L199.9,-0L187.9,6" stroke-width="1"/></g><g transform="translate(665,1519)" id="shape87"><text class="st2"><tspan y="14.2" x="7.2">21：显示所有歌曲和专辑</tspan><tspan y="32.6" x="69.6">信息</tspan></text></g><path stroke="#ee7c31" transform="matrix(0,1,-1,0,643,1602)" fill="none" d="M0,0L217,0" id="shape88"/><path stroke="#000000" transform="matrix(0,1,-1,0,650.3,1819)" fill="#ee7c31" d="M0,0L2093,0L2093,15.1L0,15.1L0,0z" id="shape89"/><path stroke="#000000" transform="matrix(0,1,-1,0,2598.1,1821)" fill="#3498db" d="M0,0L50,0L50,15.1L0,15.1L0,0z" id="shape90"/><g transform="matrix(1,0,-0,1,650.3,1819)" id="shape91"><path stroke="#000000" fill="none" d="M0,-0L1932.7,-0"/><path stroke-linejoin="round" stroke="#000000" stroke-linecap="round" fill="none" d="M1920.7,-6L1932.7,-0L1920.7,6" stroke-width="1"/></g><g transform="translate(665,1793)" id="shape92"><text class="st2"><tspan y="17.4" x="7.2">22：点击歌曲卡上的专辑标签</tspan></text></g><path stroke="#000000" transform="matrix(0,1,-1,0,2290.1,1871)" fill="#3498db" d="M0,0L53,0L53,15.1L0,15.1L0,0z" id="shape93"/><g transform="matrix(-1,0,0,-1,2583,1871)" id="shape94"><path stroke="#000000" fill="none" d="M0,-0L292,-0" stroke-width="0.333333"/><path stroke-linejoin="round" stroke="#000000" stroke-linecap="round" fill="none" d="M280,-6L292,-0L280,6" stroke-width="0.333333"/></g><g transform="translate(2300,1837)" id="shape95"><text class="st2"><tspan y="9.2" x="129.6">23：</tspan><tspan y="27.6" x="6.4">switchToAlbumInterfaceSig(album,songer)</tspan></text></g><path stroke="#000000" transform="matrix(0,1,-1,0,864.3,1925)" fill="#3498db" d="M0,0L551,0L551,15.1L0,15.1L0,0z" id="shape96"/><g transform="matrix(-1,0,-0,-1,2275,1921)" id="shape97"><path stroke="#000000" fill="none" d="M0,-0L1410.7,-0"/><path stroke-linejoin="round" stroke="#000000" stroke-linecap="round" fill="none" d="M1398.7,-6L1410.7,-0L1398.7,6" stroke-width="1"/></g><path stroke="#3498db" transform="matrix(0,1,-1,0,2284.1,1290.1)" fill="none" d="M0,0L589.9,0" id="shape98"/><path stroke="#3498db" transform="matrix(0,1,-1,0,2591,1239)" fill="none" d="M0,0L583,0" id="shape99"/><path stroke="#3498db" transform="matrix(0,1,-1,0,857.3,1571)" fill="none" d="M0,0L352,0" id="shape100"/><g transform="translate(861,1882)" id="shape101"><text class="st2"><tspan y="14.2" x="129.6">24：</tspan><tspan y="32.6" x="5.6">switchToAlbumInterfaceSig(album,songer)</tspan></text></g><g transform="matrix(1,-0,0,1,864.3,2000)" id="shape102"><path stroke="#000000" fill="none" d="M0,-0L2019.1,-0"/><path stroke-linejoin="round" stroke="#000000" stroke-linecap="round" fill="none" d="M2007.1,-6L2019.1,-0L2007.1,6" stroke-width="1"/></g><g transform="translate(861,1965)" id="shape103"><text class="st2"><tspan y="23.4" x="75.2">25：寻找对应的专辑卡</tspan></text></g><path stroke="#000000" transform="matrix(0,1,-1,0,2899.1,1997.1)" fill="#3498db" d="M0,0L127.9,0L127.9,15.1L0,15.1L0,0z" id="shape104"/><path stroke="#000000" transform="matrix(0,1,-1,0,2906.7,2047.1)" fill="#3498db" d="M0,0L50,0L50,15.1L0,15.1L0,0z" id="shape105"/><g transform="matrix(0,1,-1,0,2899.1,2022.1)" id="shape106"><path stroke="#000000" fill="none" d="M0,0L0,-254.9L25,-254.9L25,-10.4"/><path stroke="#000000" stroke-linecap="round" fill="#000000" d="M25,0L27.6,-10.4L22.4,-10.4L25,0" stroke-width="1"/></g><g transform="translate(2899.04,1990)" id="shape107"><text class="st2"><tspan y="0.5" x="109.7">27：</tspan><tspan y="18.9" x="3.3">findAlbumCardByName(album,songe</tspan><tspan y="37.3" x="120.1">r)</tspan></text></g><g transform="matrix(-1,0,0,-1,2884,2122.1)" id="shape108"><path stroke="#000000" fill="none" d="M0,-0L2020,-0" stroke-dasharray="6,4"/><path stroke-linejoin="round" stroke="#000000" stroke-linecap="round" fill="none" d="M2008,-6L2020,-0L2008,6" stroke-width="1"/></g><g transform="translate(861,2086)" id="shape109"><text class="st2"><tspan y="23.4" x="54.4">28：返回歌曲卡对应的专辑卡</tspan></text></g><path stroke="#000000" transform="matrix(0,1,-1,0,871.9,2225)" fill="#3498db" d="M0,0L50,0L50,15.1L0,15.1L0,0z" id="shape110"/><g transform="matrix(0,1,-1,0,864.9,2198.4)" id="shape111"><path stroke="#000000" fill="none" d="M0,0L0,-269.1L23.6,-269.1L23.6,-10.4"/><path stroke="#000000" stroke-linecap="round" fill="#000000" d="M23.6,0L26.2,-10.4L21,-10.4L23.6,0" stroke-width="1"/></g><g transform="translate(874.5,2166)" id="shape112"><text class="st2"><tspan y="10.2" x="116">29：</tspan><tspan y="28.6" x="7.2">__switchToAlbumInterface(albumInfo)</tspan></text></g><path stroke="#000000" transform="matrix(0,1,-1,0,3513.1,2323.1)" fill="#3498db" d="M0,0L127.9,0L127.9,15.1L0,15.1L0,0z" id="shape113"/><path stroke="#000000" transform="matrix(0,1,-1,0,3520.7,2373.1)" fill="#3498db" d="M0,0L50,0L50,15.1L0,15.1L0,0z" id="shape114"/><g transform="matrix(0,1,-1,0,3513.1,2348.1)" id="shape115"><path stroke="#000000" fill="none" d="M0,0L0,-223.9L25,-223.9L25,-10.4"/><path stroke="#000000" stroke-linecap="round" fill="#000000" d="M25,0L27.6,-10.4L22.4,-10.4L25,0" stroke-width="1"/></g><g transform="translate(3502.02,2319)" id="shape116"><text class="st2"><tspan y="18.9" x="22.5">31：updateWindow(albumInfo)</tspan></text></g><g transform="matrix(1,0,-0,1,864.3,2325)" id="shape117"><path stroke="#000000" fill="none" d="M0,-0L2631.7,-0"/><path stroke-linejoin="round" stroke="#000000" stroke-linecap="round" fill="none" d="M2619.7,-6L2631.7,-0L2619.7,6" stroke-width="1"/></g><g transform="translate(856.77,2294)" id="shape118"><text class="st2"><tspan y="17.9" x="76.8">30：更新专辑界面</tspan></text></g><g transform="matrix(-1,0,-0,-1,3498,2448.1)" id="shape119"><path stroke="#000000" fill="none" d="M0,-0L2633.7,-0" stroke-dasharray="6,4"/><path stroke-linejoin="round" stroke="#000000" stroke-linecap="round" fill="none" d="M2621.7,-6L2633.7,-0L2621.7,6" stroke-width="1"/></g><g transform="translate(866.77,2419)" id="shape120"><text class="st2"><tspan y="16.4" x="8.1">32：完成专辑信息栏和歌曲列表视图的更新</tspan></text></g><g transform="matrix(-1,0,0,-1,849.2,2475)" id="shape121"><path stroke="#000000" fill="none" d="M0,-0L197.2,-0" stroke-dasharray="6,4"/><path stroke-linejoin="round" stroke="#000000" stroke-linecap="round" fill="none" d="M185.2,-6L197.2,-0L185.2,6" stroke-width="1"/></g><g transform="translate(662,2449)" id="shape122"><text class="st2"><tspan y="17.4" x="29.6">33：显示专辑界面</tspan></text></g><g transform="matrix(1,0,-0,1,650.3,2591)" id="shape123"><path stroke="#000000" fill="none" d="M0,-0L2847.7,-0"/><path stroke-linejoin="round" stroke="#000000" stroke-linecap="round" fill="none" d="M2835.7,-6L2847.7,-0L2835.7,6" stroke-width="1"/></g><path stroke="#000000" transform="matrix(0,1,-1,0,3513.1,2593.1)" fill="#3498db" d="M0,0L127.9,0L127.9,15.1L0,15.1L0,0z" id="shape124"/><path stroke="#000000" transform="matrix(0,1,-1,0,3520.7,2643.1)" fill="#3498db" d="M0,0L50,0L50,15.1L0,15.1L0,0z" id="shape125"/><g transform="matrix(0,1,-1,0,3513.1,2618.1)" id="shape126"><path stroke="#000000" fill="none" d="M0,0L0,-223.9L25,-223.9L25,-10.4"/><path stroke="#000000" stroke-linecap="round" fill="#000000" d="M25,0L27.6,-10.4L22.4,-10.4L25,0" stroke-width="1"/></g><g transform="translate(3502.02,2589)" id="shape127"><text class="st2"><tspan y="18.9" x="24.1">35：showAlbumInfoEditPanel()</tspan></text></g><g transform="translate(658,2569.05)" id="shape128"><text class="st2"><tspan y="17.4" x="20">34：点击编辑信息按钮</tspan></text></g><path stroke="#000000" transform="matrix(0,1,-1,0,3889.8,2713.1)" fill="#3498db" d="M0,0L338.9,0L338.9,15.1L0,15.1L0,0z" id="shape129"/><g transform="translate(3497.98,2692.5)" id="shape130"><text class="st2"><tspan y="13.9" x="57.6">36：创建对话框</tspan></text></g><g transform="matrix(-1,0,-0,-1,3874.6,2788.1)" id="shape131"><path stroke="#000000" fill="none" d="M0,-0L3224.3,-0" stroke-dasharray="6,4"/><path stroke-linejoin="round" stroke="#000000" stroke-linecap="round" fill="none" d="M3212.3,-6L3224.3,-0L3212.3,6" stroke-width="1"/></g><g transform="translate(650.33,2755)" id="shape132"><text class="st2"><tspan y="23.4" x="18.4">37：显示编辑专辑信息对话框</tspan></text></g><g transform="matrix(1,-0,0,1,650.3,2894)" id="shape133"><path stroke="#000000" fill="none" d="M0,-0L3224.3,-0"/><path stroke-linejoin="round" stroke="#000000" stroke-linecap="round" fill="none" d="M3212.3,-6L3224.3,-0L3212.3,6" stroke-width="1"/></g><g transform="translate(663.83,2861)" id="shape134"><text class="st2"><tspan y="10.2" x="4.8">38：修改专辑中歌曲的信息和</tspan><tspan y="28.6" x="67.2">专辑封面</tspan></text></g><path stroke="#000000" transform="matrix(0,1,-1,0,3897.3,2988.1)" fill="#3498db" d="M0,0L50,0L50,15.1L0,15.1L0,0z" id="shape135"/><g transform="matrix(0,1,-1,0,3889.8,2963.1)" id="shape136"><path stroke="#000000" fill="none" d="M0,0L0,-252.2L25,-252.2L25,-10.4"/><path stroke="#000000" stroke-linecap="round" fill="#000000" d="M25,0L27.6,-10.4L22.4,-10.4L25,0" stroke-width="1"/></g><g transform="translate(3899.92,2937)" id="shape137"><text class="st2"><tspan y="19.4" x="37.6">39：saveAlbumInfo()</tspan></text></g><path stroke="#3498db" transform="matrix(0,1,-1,0,2891.6,1461.1)" fill="none" d="M0,0L545,0" id="shape138"/><path stroke="#3498db" transform="matrix(0,1,-1,0,3507.1,2721)" fill="none" d="M0,0L332,0" id="shape139"/><path stroke="#000000" transform="matrix(0,1,-1,0,3513.1,3052.1)" fill="#3498db" d="M0,0L145.9,0L145.9,15.1L0,15.1L0,0z" id="shape140"/><path stroke="#000000" transform="matrix(0,1,-1,0,3520.7,3127.1)" fill="#3498db" d="M0,0L50,0L50,15.1L0,15.1L0,0z" id="shape141"/><g transform="matrix(0,1,-1,0,3513.1,3102.1)" id="shape142"><path stroke="#000000" fill="none" d="M0,0L0,-269.9L25,-269.9L25,-10.4"/><path stroke="#000000" stroke-linecap="round" fill="#000000" d="M25,0L27.6,-10.4L22.4,-10.4L25,0" stroke-width="1"/></g><g transform="translate(3513.98,3063)" id="shape143"><text class="st2"><tspan y="0.5" x="118.4">41：</tspan><tspan y="18.9" x="4">__saveAlbumInfoSlot(oldalbumInfo,new</tspan><tspan y="37.3" x="96">AlbumInfo)</tspan></text></g><g transform="matrix(-1,0,0,-1,3869,3052.1)" id="shape144"><path stroke="#000000" fill="none" d="M0,-0L355.9,-0" stroke-dasharray="6,4"/><path stroke-linejoin="round" stroke="#000000" stroke-linecap="round" fill="none" d="M343.9,-6L355.9,-0L343.9,6" stroke-width="1"/></g><g transform="translate(3529,3009)" id="shape145"><text class="st2"><tspan y="5" x="89.6">40：</tspan><tspan y="23.4" x="4">saveInfoSig(oldAlbumInfo,new</tspan><tspan y="41.8" x="67.2">AlbumInfo)</tspan></text></g><path stroke="#3498db" transform="matrix(0,1,-1,0,3505.1,2448.1)" fill="none" d="M0,0L147,0" id="shape146"/><path stroke="#000000" transform="matrix(0,1,-1,0,864.3,3193)" fill="#3498db" d="M0,0L677,0L677,15.1L0,15.1L0,0z" id="shape147"/><g transform="matrix(-1,-0,0,-1,3498,3195.1)" id="shape148"><path stroke="#000000" fill="none" d="M0,-0L2633.7,-0" stroke-dasharray="6,4"/><path stroke-linejoin="round" stroke="#000000" stroke-linecap="round" fill="none" d="M2621.7,-6L2633.7,-0L2621.7,6" stroke-width="1"/></g><path stroke="#3498db" transform="matrix(0,1,-1,0,856.3,2475)" fill="none" d="M0,0L718,0" id="shape149"/><g transform="translate(872,3146)" id="shape150"><text class="st2"><tspan y="5" x="110.4">42：</tspan><tspan y="23.4" x="3.2">saveAlbumInfoSig(oldAlbumInfo,new</tspan><tspan y="41.8" x="88">AlbumInfo)</tspan></text></g><path stroke="#3498db" transform="matrix(0,1,-1,0,2284.1,1921)" fill="none" d="M0,0L1424,0" id="shape151"/><path stroke="#000000" transform="matrix(0,1,-1,0,2290.1,3341.6)" fill="#3498db" d="M0,0L127.9,0L127.9,15.1L0,15.1L0,0z" id="shape152"/><path stroke="#000000" transform="matrix(0,1,-1,0,2297.7,3391.6)" fill="#3498db" d="M0,0L50,0L50,15.1L0,15.1L0,0z" id="shape153"/><g transform="matrix(0,1,-1,0,2290.1,3366.6)" id="shape154"><path stroke="#000000" fill="none" d="M0,0L0,-254.9L25,-254.9L25,-10.4"/><path stroke="#000000" stroke-linecap="round" fill="#000000" d="M25,0L27.6,-10.4L22.4,-10.4L25,0" stroke-width="1"/></g><g transform="translate(2294.38,3325)" id="shape155"><text class="st2"><tspan y="0.5" x="109.7">44：</tspan><tspan y="18.9" x="4.1">updateMultiSongCards(oldSongInfo_</tspan><tspan y="37.3" x="55.3">list,newSongInfo_list)</tspan></text></g><g transform="matrix(-1,0,-0,-1,2275,3466.6)" id="shape156"><path stroke="#000000" fill="none" d="M0,-0L1410.7,-0" stroke-dasharray="6,4"/><path stroke-linejoin="round" stroke="#000000" stroke-linecap="round" fill="none" d="M1398.7,-6L1410.7,-0L1398.7,6" stroke-width="1"/></g><g transform="translate(888,3432)" id="shape157"><text class="st2"><tspan y="21.4" x="27.2">45：更新songInfo.json文件</tspan></text></g><g transform="matrix(1,0,-0,1,864.3,3340)" id="shape158"><path stroke="#000000" fill="none" d="M0,-0L1410.7,-0"/><path stroke-linejoin="round" stroke="#000000" stroke-linecap="round" fill="none" d="M1398.7,-6L1410.7,-0L1398.7,6" stroke-width="1"/></g><g transform="translate(874,3312)" id="shape159"><text class="st2"><tspan y="18.4" x="31.2">43：更新专辑中的所有歌曲卡</tspan></text></g><g transform="translate(874,3517.5)" id="shape160"><text class="st2"><tspan y="20.9" x="47.2">46：更新专辑信息列表</tspan></text></g><path stroke="#000000" transform="matrix(0,1,-1,0,1704.1,3543)" fill="#3498db" d="M0,0L194,0L194,15.1L0,15.1L0,0z" id="shape161"/><path stroke="#000000" transform="matrix(0,1,-1,0,1711.7,3593)" fill="#3498db" d="M0,0L50,0L50,15.1L0,15.1L0,0z" id="shape162"/><g transform="matrix(0,1,-1,0,1704.1,3568)" id="shape163"><path stroke="#000000" fill="none" d="M0,0L0,-217.9L25,-217.9L25,-10.4"/><path stroke="#000000" stroke-linecap="round" fill="#000000" d="M25,0L27.6,-10.4L22.4,-10.4L25,0" stroke-width="1"/></g><g transform="translate(1702.5,3532)" id="shape164"><text class="st2"><tspan y="9.7" x="100.8">47：</tspan><tspan y="28.1" x="12">updateAlbumInfo(songInfo_list)</tspan></text></g><g transform="matrix(1,0,-0,1,864.3,3543)" id="shape165"><path stroke="#000000" fill="none" d="M0,-0L824.7,-0"/><path stroke-linejoin="round" stroke="#000000" stroke-linecap="round" fill="none" d="M812.7,-6L824.7,-0L812.7,6" stroke-width="1"/></g><path stroke="#000000" transform="matrix(0,1,-1,0,2899.1,3720.6)" fill="#3498db" d="M0,0L127.9,0L127.9,15.1L0,15.1L0,0z" id="shape166"/><path stroke="#000000" transform="matrix(0,1,-1,0,2906.7,3770.6)" fill="#3498db" d="M0,0L50,0L50,15.1L0,15.1L0,0z" id="shape167"/><g transform="matrix(0,1,-1,0,2899.1,3745.6)" id="shape168"><path stroke="#000000" fill="none" d="M0,0L0,-254.9L25,-254.9L25,-10.4"/><path stroke="#000000" stroke-linecap="round" fill="#000000" d="M25,0L27.6,-10.4L22.4,-10.4L25,0" stroke-width="1"/></g><g transform="translate(2899.04,3713.5)" id="shape169"><text class="st2"><tspan y="9.7" x="115.7">49：</tspan><tspan y="28.1" x="8.5">updateAllAlbumCards(albumInfo_list)</tspan></text></g><g transform="matrix(1,0,-0,1,1704.1,3718)" id="shape170"><path stroke="#000000" fill="none" d="M0,-0L1179.9,-0"/><path stroke-linejoin="round" stroke="#000000" stroke-linecap="round" fill="none" d="M1167.9,-6L1179.9,-0L1167.9,6" stroke-width="1"/></g><g transform="translate(1697.56,3689)" id="shape171"><text class="st2"><tspan y="18.9" x="52.8">48：更新所有专辑卡</tspan></text></g><path stroke="#3498db" transform="matrix(0,1,-1,0,1697,987)" fill="none" d="M0,0L2562,0" id="shape172"/><g transform="matrix(-1,-0,0,-1,2884,3845.6)" id="shape173"><path stroke="#000000" fill="none" d="M0,-0L2019.7,-0" stroke-dasharray="6,4"/><path stroke-linejoin="round" stroke="#000000" stroke-linecap="round" fill="none" d="M2007.7,-6L2019.7,-0L2007.7,6" stroke-width="1"/></g><g transform="translate(874,3817)" id="shape174"><text class="st2"><tspan y="20.9" x="21.6">50：完成专辑卡视图的更新</tspan></text></g><g transform="matrix(-1,0,0,-1,849.2,3868)" id="shape175"><path stroke="#000000" fill="none" d="M0,-0L197.2,-0" stroke-dasharray="6,4"/><path stroke-linejoin="round" stroke="#000000" stroke-linecap="round" fill="none" d="M185.2,-6L197.2,-0L185.2,6" stroke-width="1"/></g><g transform="translate(673,3840)" id="shape176"><text class="st2"><tspan y="15.9" x="6.4">51：完成歌曲信息更新</tspan></text></g><path stroke="#000000" transform="matrix(0,1,-1,0,650.6,4101)" fill="#ee7c31" d="M0,0L387,0L387,15.1L0,15.1L0,0z" id="shape177"/><path stroke="#ee7c31" transform="matrix(0,1,-1,0,643.4,3909)" fill="none" d="M0,0L192,0" id="shape178"/><path stroke="#000000" transform="matrix(0,1,-1,0,1711.7,4100)" fill="#3498db" d="M0,0L127.9,0L127.9,15.1L0,15.1L0,0z" id="shape179"/><path stroke="#000000" transform="matrix(0,1,-1,0,1719.2,4150)" fill="#3498db" d="M0,0L50,0L50,15.1L0,15.1L0,0z" id="shape180"/><g transform="matrix(0,1,-1,0,1711.7,4125)" id="shape181"><path stroke="#000000" fill="none" d="M0,0L0,-216.3L25,-216.3L25,-10.4"/><path stroke="#000000" stroke-linecap="round" fill="#000000" d="M25,0L27.6,-10.4L22.4,-10.4L25,0" stroke-width="1"/></g><g transform="translate(1682,4100.05)" id="shape182"><text class="st2"><tspan y="18.9" x="36.5">53：__showSortModeMenu()</tspan></text></g><g transform="translate(644.5,4068)" id="shape183"><text class="st2"><tspan y="20.9" x="35.2">52：点击分组依据按钮</tspan></text></g><g transform="matrix(1,-0,0,1,650.6,4101)" id="shape184"><path stroke="#000000" fill="none" d="M0,-0L1046,-0"/><path stroke-linejoin="round" stroke="#000000" stroke-linecap="round" fill="none" d="M1034,-6L1046,-0L1034,6" stroke-width="1"/></g><path stroke="#3498db" transform="matrix(0,1,-1,0,1701.7,3737)" fill="none" d="M0,0L363,0" id="shape185"/><g transform="matrix(-1,0,-0,-1,1696.6,4225)" id="shape186"><path stroke="#000000" fill="none" d="M0,-0L1046,-0" stroke-dasharray="6,4"/><path stroke-linejoin="round" stroke="#000000" stroke-linecap="round" fill="none" d="M1034,-6L1046,-0L1034,6" stroke-width="1"/></g><g transform="translate(652,4197)" id="shape187"><text class="st2"><tspan y="16.4" x="27.2">54：显示排序方式菜单</tspan></text></g><path stroke="#000000" transform="matrix(0,1,-1,0,1711.7,4318)" fill="#3498db" d="M0,0L127.9,0L127.9,15.1L0,15.1L0,0z" id="shape188"/><path stroke="#000000" transform="matrix(0,1,-1,0,1719.2,4368)" fill="#3498db" d="M0,0L50,0L50,15.1L0,15.1L0,0z" id="shape189"/><g transform="matrix(0,1,-1,0,1711.7,4343)" id="shape190"><path stroke="#000000" fill="none" d="M0,0L0,-216.3L25,-216.3L25,-10.4"/><path stroke="#000000" stroke-linecap="round" fill="#000000" d="M25,0L27.6,-10.4L22.4,-10.4L25,0" stroke-width="1"/></g><g transform="translate(1682,4308)" id="shape191"><text class="st2"><tspan y="9.7" x="58.1">56：__sortSongCard()/</tspan><tspan y="28.1" x="70.9">__sortAlbumCard()</tspan></text></g><g transform="matrix(1,-0,0,1,651.7,4319)" id="shape192"><path stroke="#000000" fill="none" d="M0,-0L1046,-0"/><path stroke-linejoin="round" stroke="#000000" stroke-linecap="round" fill="none" d="M1034,-6L1046,-0L1034,6" stroke-width="1"/></g><g transform="translate(652,4289)" id="shape193"><text class="st2"><tspan y="16.4" x="13.6">55：选中排序菜单某个选项</tspan></text></g><g transform="matrix(-1,0,0,-1,1696.6,4443)" id="shape194"><path stroke="#000000" fill="none" d="M0,-0L1046.6,-0" stroke-dasharray="6,4"/><path stroke-linejoin="round" stroke="#000000" stroke-linecap="round" fill="none" d="M1034.6,-6L1046.6,-0L1034.6,6" stroke-width="1"/></g><g transform="translate(665,4414)" id="shape195"><text class="st2"><tspan y="17.9" x="22.4">56：完成音乐的重新分组</tspan></text></g><g transform="translate(3513.1,2718.05)" id="shape196"><path stroke="#000000" fill="none" d="M0,-0L360.9,-0"/><path stroke-linejoin="round" stroke="#000000" stroke-linecap="round" fill="none" d="M348.9,-6L360.9,-0L348.9,6" stroke-width="1"/></g><path stroke="#000000" transform="matrix(0,1,-1,0,650.6,4677)" fill="#ee7c31" d="M0,0L1544,0L1544,15.1L0,15.1L0,0z" id="shape197"/><path stroke="#ee7c31" transform="matrix(0,1,-1,0,644.6,4476)" fill="none" d="M0,0L199,0" id="shape198"/><g transform="matrix(1,0,-0,1,647.4,4677)" id="shape199"><path stroke="#000000" fill="none" d="M0,-0L3579.6,-0"/><path stroke-linejoin="round" stroke="#000000" stroke-linecap="round" fill="none" d="M3567.6,-6L3579.6,-0L3567.6,6" stroke-width="1"/></g><path stroke="#000000" transform="matrix(0,1,-1,0,4242.1,4677.1)" fill="#3498db" d="M0,0L576.9,0L576.9,15.1L0,15.1L0,0z" id="shape200"/><path stroke="#000000" transform="matrix(0,1,-1,0,4249.7,4877.1)" fill="#3498db" d="M0,0L50,0L50,15.1L0,15.1L0,0z" id="shape201"/><g transform="translate(4282.08,4677)" id="shape202"><text class="st2"><tspan y="18.9" x="74.9">58：创建爬虫线程</tspan></text></g><g transform="translate(655.5,4614)" id="shape203"><text class="st2"><tspan y="18" x="5.6">57：选中设置界面的“自动检</tspan><tspan y="36.4" x="7.2">索并更新缺失的专辑封面和元</tspan><tspan y="54.8" x="54.4">数据”复选框</tspan></text></g><path stroke="#000000" transform="matrix(0,1,-1,0,4596.1,4703)" fill="#3498db" d="M0,0L72.9,0L72.9,15.1L0,15.1L0,0z" id="shape204"/><g transform="translate(4242.12,4702.05)" id="shape205"><path stroke="#000000" fill="none" d="M0,-0L335.9,-0"/><path stroke-linejoin="round" stroke="#000000" stroke-linecap="round" fill="none" d="M323.9,-6L335.9,-0L323.9,6" stroke-width="1"/></g><g transform="matrix(0,1,-1,0,4242.7,4853.4)" id="shape206"><path stroke="#000000" fill="none" d="M0,0L0,-168.3L23.6,-168.3L23.6,-10.4"/><path stroke="#000000" stroke-linecap="round" fill="#000000" d="M23.6,0L26.2,-10.4L21,-10.4L23.6,0" stroke-width="1"/></g><g transform="translate(4227,4824)" id="shape207"><text class="st2"><tspan y="20.9" x="44">59：创建进度提示条</tspan></text></g><g transform="matrix(-1,0,0,-1,4583,4777.1)" id="shape208"><path stroke="#000000" fill="none" d="M0,-0L340.9,-0" stroke-dasharray="6,4"/><path stroke-linejoin="round" stroke="#000000" stroke-linecap="round" fill="none" d="M328.9,-6L340.9,-0L328.9,6" stroke-width="1"/></g><path stroke="#000000" transform="matrix(0,1,-1,0,4596.1,4977)" fill="#3498db" d="M0,0L252.9,0L252.9,15.1L0,15.1L0,0z" id="shape209"/><g transform="matrix(-1,0,-0,-1,4581,5027.1)" id="shape210"><path stroke="#000000" fill="none" d="M0,-0L338.9,-0"/><path stroke-linejoin="round" stroke="#000000" stroke-linecap="round" fill="none" d="M326.9,-6L338.9,-0L326.9,6" stroke-width="1"/></g><g transform="matrix(1,-0,0,1,4242.1,4977.1)" id="shape211"><path stroke="#000000" fill="none" d="M0,-0L338.9,-0"/><path stroke-linejoin="round" stroke="#000000" stroke-linecap="round" fill="none" d="M326.9,-6L338.9,-0L326.9,6" stroke-width="1"/><text class="st2"><tspan y="-12.3" x="122.4">60：运行线程</tspan></text></g><g transform="translate(4316,5004)" id="shape212"><text class="st2"><tspan y="15.9" x="43.2">61：crawlSignal</tspan></text></g><path stroke="#000000" transform="matrix(0,1,-1,0,4249.7,5086)" fill="#3498db" d="M0,0L50,0L50,15.1L0,15.1L0,0z" id="shape213"/><g transform="matrix(0,1,-1,0,4242.7,5062.4)" id="shape214"><path stroke="#000000" fill="none" d="M0,0L0,-168.3L23.6,-168.3L23.6,-10.4"/><path stroke="#000000" stroke-linecap="round" fill="#000000" d="M23.6,0L26.2,-10.4L21,-10.4L23.6,0" stroke-width="1"/></g><g transform="translate(4216.5,5033.5)" id="shape215"><text class="st2"><tspan y="20.9" x="44">62：更新进度提示条</tspan></text></g><g transform="matrix(-1,0,-0,-1,4581,5177.1)" id="shape216"><path stroke="#000000" fill="none" d="M0,-0L338.9,-0"/><path stroke-linejoin="round" stroke="#000000" stroke-linecap="round" fill="none" d="M326.9,-6L338.9,-0L326.9,6" stroke-width="1"/></g><g transform="translate(4297,5146.5)" id="shape217"><text class="st2"><tspan y="20.9" x="72.8">63：finished</tspan></text></g><g transform="matrix(1,-0,0,1,4242.1,5227.1)" id="shape218"><path stroke="#000000" fill="none" d="M0,-0L338.9,-0"/><path stroke-linejoin="round" stroke="#000000" stroke-linecap="round" fill="none" d="M326.9,-6L338.9,-0L326.9,6" stroke-width="1"/><text class="st2"><tspan y="-12.3" x="122.4">64：摧毁线程</tspan></text></g><path stroke="#000000" transform="matrix(0,1,-1,0,864.3,5255)" fill="#3498db" d="M0,0L934,0L934,15.1L0,15.1L0,0z" id="shape219"/><g transform="matrix(-1,0,-0,-1,4227,5252.1)" id="shape220"><path stroke="#000000" fill="none" d="M0,-0L3362.7,-0" stroke-dasharray="6,4"/><path stroke-linejoin="round" stroke="#000000" stroke-linecap="round" fill="none" d="M3350.7,-6L3362.7,-0L3350.7,6" stroke-width="1"/></g><path/><g transform="translate(877,5229)" id="shape221"><text class="st2"><tspan y="17.4" x="19.2">65：歌曲信息爬取结束</tspan></text></g><path stroke="#000000" transform="matrix(0,1,-1,0,1130.8,5364)" fill="#3498db" d="M0,0L802,0L802,15.1L0,15.1L0,0z" id="shape222"/><g transform="translate(865.28,5364)" id="shape223"><path stroke="#000000" fill="none" d="M0,-0L250.4,-0"/><path stroke-linejoin="round" stroke="#000000" stroke-linecap="round" fill="none" d="M238.4,-6L250.4,-0L238.4,6" stroke-width="1"/></g><g transform="translate(825.72,5342)" id="shape224"><text class="st2"><tspan y="15.4" x="62.4">66：更新界面</tspan></text></g><path stroke="#000000" transform="matrix(0,1,-1,0,1417.8,5388.1)" fill="#3498db" d="M0,0L127.9,0L127.9,15.1L0,15.1L0,0z" id="shape225"/><g transform="matrix(1,-0,0,1,1130.8,5389)" id="shape226"><path stroke="#000000" fill="none" d="M0,-0L271.8,-0"/><path stroke-linejoin="round" stroke="#000000" stroke-linecap="round" fill="none" d="M259.8,-6L271.8,-0L259.8,6" stroke-width="1"/></g><g transform="translate(1130.84,5364)" id="shape227"><text class="st2"><tspan y="13.9" x="16.8">67：扫描歌曲信息</tspan></text></g><path stroke="#000000" transform="matrix(0,1,-1,0,1425.4,5438.1)" fill="#3498db" d="M0,0L50,0L50,15.1L0,15.1L0,0z" id="shape228"/><g transform="matrix(0,1,-1,0,1417.8,5413.1)" id="shape229"><path stroke="#000000" fill="none" d="M0,0L0,-254.9L25,-254.9L25,-10.4"/><path stroke="#000000" stroke-linecap="round" fill="#000000" d="M25,0L27.6,-10.4L22.4,-10.4L25,0" stroke-width="1"/></g><g transform="translate(1414.48,5371.05)" id="shape230"><text class="st2"><tspan y="0.5" x="118.7">68：</tspan><tspan y="18.9" x="5.9">scanTargetFolderSongInfo(targetFolder</tspan><tspan y="37.3" x="104.3">Path_list)</tspan></text></g><path stroke="#000000" transform="matrix(0,1,-1,0,1714.1,5538.1)" fill="#3498db" d="M0,0L120.9,0L120.9,15.1L0,15.1L0,0z" id="shape231"/><path stroke="#000000" transform="matrix(0,1,-1,0,1721.7,5588.1)" fill="#3498db" d="M0,0L50,0L50,15.1L0,15.1L0,0z" id="shape232"/><g transform="matrix(0,1,-1,0,1714.1,5563.1)" id="shape233"><path stroke="#000000" fill="none" d="M0,0L0,-246.9L25,-246.9L25,-10.4"/><path stroke="#000000" stroke-linecap="round" fill="#000000" d="M25,0L27.6,-10.4L22.4,-10.4L25,0" stroke-width="1"/></g><g transform="translate(1717.5,5530)" id="shape234"><text class="st2"><tspan y="18.9" x="7.2">70：updateAlbumInfo(songInfo_list)</tspan></text></g><g transform="translate(1130.84,5513)" id="shape235"><text class="st2"><tspan y="15.4" x="25.6">69：整理专辑信息</tspan></text></g><path stroke="#000000" transform="matrix(0,1,-1,0,1984.8,5689.8)" fill="#3498db" d="M0,0L121,0L121,15.1L0,15.1L0,0z" id="shape236"/><path stroke="#000000" transform="matrix(0,1,-1,0,1992.4,5739.8)" fill="#3498db" d="M0,0L50,0L50,15.1L0,15.1L0,0z" id="shape237"/><g transform="matrix(0,1,-1,0,1984.8,5714.8)" id="shape238"><path stroke="#000000" fill="none" d="M0,0L0,-286.9L25,-286.9L25,-10.4"/><path stroke="#000000" stroke-linecap="round" fill="#000000" d="M25,0L27.6,-10.4L22.4,-10.4L25,0" stroke-width="1"/></g><g transform="translate(1987.72,5668.28)" id="shape239"><text class="st2"><tspan y="16.7" x="129.6">72：</tspan><tspan y="35.1" x="9.6">updateAlbumCover(targetFolderPath_list)</tspan></text></g><g transform="matrix(1,-0,0,1,1130.8,5539)" id="shape240"><path stroke="#000000" fill="none" d="M0,-0L568.2,-0"/><path stroke-linejoin="round" stroke="#000000" stroke-linecap="round" fill="none" d="M556.2,-6L568.2,-0L556.2,6" stroke-width="1"/></g><g transform="matrix(1,0,-0,1,1130.8,5689)" id="shape241"><path stroke="#000000" fill="none" d="M0,-0L838.8,-0"/><path stroke-linejoin="round" stroke="#000000" stroke-linecap="round" fill="none" d="M826.8,-6L838.8,-0L826.8,6" stroke-width="1"/></g><path/><g transform="translate(1111.84,5656)" id="shape242"><text class="st2"><tspan y="23.4" x="46.4">71：扫描专辑封面</tspan></text></g><path stroke="#000000" transform="matrix(0,1,-1,0,2289.8,5839.1)" fill="#3498db" d="M0,0L126.9,0L126.9,15.1L0,15.1L0,0z" id="shape243"/><path stroke="#000000" transform="matrix(0,1,-1,0,2297.4,5889.1)" fill="#3498db" d="M0,0L50,0L50,15.1L0,15.1L0,0z" id="shape244"/><g transform="matrix(0,1,-1,0,2289.8,5864.1)" id="shape245"><path stroke="#000000" fill="none" d="M0,0L0,-271.2L25,-271.2L25,-10.4"/><path stroke="#000000" stroke-linecap="round" fill="#000000" d="M25,0L27.6,-10.4L22.4,-10.4L25,0" stroke-width="1"/></g><g transform="translate(2287.72,5839.05)" id="shape246"><text class="st2"><tspan y="18.9" x="12">74：updateAllSongCards(songInfo_list)</tspan></text></g><g transform="matrix(1,0,-0,1,1130.8,5839)" id="shape247"><path stroke="#000000" fill="none" d="M0,-0L1143.9,-0"/><path stroke-linejoin="round" stroke="#000000" stroke-linecap="round" fill="none" d="M1131.9,-6L1143.9,-0L1131.9,6" stroke-width="1"/></g><g transform="translate(1136.34,5811)" id="shape248"><text class="st2"><tspan y="17.4" x="12.8">73：更新所有歌曲卡</tspan></text></g><path stroke="#000000" transform="matrix(0,1,-1,0,2900.6,5986.1)" fill="#3498db" d="M0,0L125.9,0L125.9,15.1L0,15.1L0,0z" id="shape249"/><path stroke="#000000" transform="matrix(0,1,-1,0,2908.1,6036.1)" fill="#3498db" d="M0,0L50,0L50,15.1L0,15.1L0,0z" id="shape250"/><g transform="matrix(0,1,-1,0,2900.6,6011.1)" id="shape251"><path stroke="#000000" fill="none" d="M0,0L0,-264.9L25,-264.9L25,-10.4"/><path stroke="#000000" stroke-linecap="round" fill="#000000" d="M25,0L27.6,-10.4L22.4,-10.4L25,0" stroke-width="1"/></g><g transform="translate(2893,5976)" id="shape252"><text class="st2"><tspan y="9.7" x="124.8">78：</tspan><tspan y="28.1" x="17.6">updateAllAlbumCards(albumInfo_list)</tspan></text></g><g transform="matrix(1,-0,0,1,1130.8,5989)" id="shape253"><path stroke="#000000" fill="none" d="M0,-0L1754.6,-0"/><path stroke-linejoin="round" stroke="#000000" stroke-linecap="round" fill="none" d="M1742.6,-6L1754.6,-0L1742.6,6" stroke-width="1"/></g><g transform="translate(1125.22,5965)" id="shape254"><text class="st2"><tspan y="17.4" x="26.4">76：更新专辑卡</tspan></text></g><g transform="matrix(-1,-0,0,-1,2274.7,5964.1)" id="shape255"><path stroke="#000000" fill="none" d="M0,-0L1143.9,-0" stroke-dasharray="6,4"/><path stroke-linejoin="round" stroke="#000000" stroke-linecap="round" fill="none" d="M1131.9,-6L1143.9,-0L1131.9,6" stroke-width="1"/></g><g transform="translate(1109.84,5936)" id="shape256"><text class="st2"><tspan y="15.9" x="41.6">75：刷新歌曲卡列表</tspan></text></g><g transform="matrix(-1,0,-0,-1,2885.4,6111.1)" id="shape257"><path stroke="#000000" fill="none" d="M0,-0L1754.6,-0" stroke-dasharray="6,4"/><path stroke-linejoin="round" stroke="#000000" stroke-linecap="round" fill="none" d="M1742.6,-6L1754.6,-0L1742.6,6" stroke-width="1"/></g><g transform="translate(1148.72,6084)" id="shape258"><text class="st2"><tspan y="17.4" x="8.1">79：完成专辑卡视图的更新</tspan></text></g><g transform="matrix(-1,0,0,-1,1115.7,6164)" id="shape259"><path stroke="#000000" fill="none" d="M0,-0L250.7,-0" stroke-dasharray="6,4"/><path stroke-linejoin="round" stroke="#000000" stroke-linecap="round" fill="none" d="M238.7,-6L250.7,-0L238.7,6" stroke-width="1"/></g><g transform="translate(869.72,6136.5)" id="shape260"><text class="st2"><tspan y="15.9" x="31.2">80：scanFinishedSig</tspan></text></g><g transform="matrix(-1,-0.02,0.02,-1,849.2,6180)" id="shape261"><path stroke="#000000" fill="none" d="M0,-0L198.7,-0" stroke-dasharray="6,4"/><path stroke-linejoin="round" stroke="#000000" stroke-linecap="round" fill="none" d="M186.7,-6L198.7,-0L186.7,6" stroke-width="1"/></g><g transform="translate(646,6153)" id="shape262"><text class="st2"><tspan y="17.4" x="7.2">81：完成歌曲信息的自动获取</tspan></text></g><path stroke="#3498db" transform="matrix(0,1,-1,0,856.2,3868)" fill="none" d="M0,0L1387,0" id="shape263"/><path stroke="#ee7c31" transform="matrix(0,1,-1,0,643,6212)" fill="none" d="M0,0L114,0" id="shape264"/><path stroke="#3498db" transform="matrix(0,1,-1,0,1410.8,5513)" fill="none" d="M0,0L808,0" id="shape265"/><path stroke="#3498db" transform="matrix(0,1,-1,0,857.2,6183)" fill="none" d="M0,0L143,0" id="shape266"/><path stroke="#3498db" transform="matrix(0,1,-1,0,1409,839.1)" fill="none" d="M0,0L4550.9,0" id="shape267"/><path stroke="#3498db" transform="matrix(0,1,-1,0,1121.8,6164)" fill="none" d="M0,0L157,0" id="shape268"/><path stroke="#3498db" transform="matrix(0,1,-1,0,1130.1,1490)" fill="none" d="M0,0L3874,0" id="shape269"/><path stroke="#3498db" transform="matrix(0,1,-1,0,1704.7,4223)" fill="none" d="M0,0L104,0" id="shape270"/><path stroke="#3498db" transform="matrix(0,1,-1,0,1707.7,4443)" fill="none" d="M0,0L1103,0" id="shape271"/><path stroke="#3498db" transform="matrix(0,1,-1,0,1706,5655.9)" fill="none" d="M0,0L661.1,0" id="shape272"/><path stroke="#3498db" transform="matrix(0,1,-1,0,1977,1140.8)" fill="none" d="M0,0L4561.2,0" id="shape273"/><path stroke="#3498db" transform="matrix(0,1,-1,0,1977,5810.9)" fill="none" d="M0,0L506.1,0" id="shape274"/><path stroke="#3498db" transform="matrix(0,1,-1,0,2283.1,3466.6)" fill="none" d="M0,0L2374.4,0" id="shape275"/><path stroke="#3498db" transform="matrix(0,1,-1,0,2282.8,5964.1)" fill="none" d="M0,0L352.9,0" id="shape276"/><path stroke="#3498db" transform="matrix(0,1,-1,0,2591.1,1871)" fill="none" d="M0,0L4446,0" id="shape277"/><path stroke="#3498db" transform="matrix(0,1,-1,0,2891,2122.1)" fill="none" d="M0,0L1598.5,0" id="shape278"/><path stroke="#3498db" transform="matrix(0,1,-1,0,2892,3845.6)" fill="none" d="M0,0L2145.4,0" id="shape279"/><path stroke="#3498db" transform="matrix(0,1,-1,0,2893.6,6111.1)" fill="none" d="M0,0L209.9,0" id="shape280"/><path stroke="#3498db" transform="matrix(0,1,-1,0,3184.6,1441.1)" fill="none" d="M0,0L4879.9,0" id="shape281"/><path stroke="#3498db" transform="matrix(-0,1,-1,-0,3505.5,3195)" fill="none" d="M0,0L3136,0" id="shape282"/><path stroke="#3498db" transform="matrix(0,1,-1,0,3883.5,3052)" fill="none" d="M0,0L3269,0" id="shape283"/><path stroke="#3498db" transform="matrix(0.01,1,-1,0.01,4236.1,5252.1)" fill="none" d="M0,0L1069,0" id="shape284"/><path stroke="#3498db" transform="matrix(0,1,-1,0,4590.1,5227)" fill="none" d="M0,0L1094,0" id="shape285"/><path stroke="#3498db" transform="matrix(0,1,-1,0,4590.1,4769)" fill="none" d="M0,0L208,0" id="shape286"/><g transform="translate(790.77,452.32)"><g id="shape287"><path stroke="#3498db" fill="#3498db" d="M0,0L132,0L132,32.5L0,32.5L0,0z"/><text class="st3"><tspan y="20.5" x="21.2">:MainWindow</tspan></text></g><path stroke="#3498db" fill="none" d="M66,32.5L66,89.5L66,32.5z" id="shape288"/></g></g></svg>